<?xml version="1.0" encoding="utf-8" standalone="no"?>
<!DOCTYPE svg PUBLIC "-//W3C//DTD SVG 1.1//EN"
  "http://www.w3.org/Graphics/SVG/1.1/DTD/svg11.dtd">
<!-- Created with matplotlib (https://matplotlib.org/) -->
<svg height="311.398438pt" version="1.1" viewBox="0 0 645.87 311.398438" width="645.87pt" xmlns="http://www.w3.org/2000/svg" xmlns:xlink="http://www.w3.org/1999/xlink">
 <metadata>
  <rdf:RDF xmlns:cc="http://creativecommons.org/ns#" xmlns:dc="http://purl.org/dc/elements/1.1/" xmlns:rdf="http://www.w3.org/1999/02/22-rdf-syntax-ns#">
   <cc:Work>
    <dc:type rdf:resource="http://purl.org/dc/dcmitype/StillImage"/>
    <dc:date>2021-04-10T19:41:47.108888</dc:date>
    <dc:format>image/svg+xml</dc:format>
    <dc:creator>
     <cc:Agent>
      <dc:title>Matplotlib v3.3.4, https://matplotlib.org/</dc:title>
     </cc:Agent>
    </dc:creator>
   </cc:Work>
  </rdf:RDF>
 </metadata>
 <defs>
  <style type="text/css">*{stroke-linecap:butt;stroke-linejoin:round;}</style>
 </defs>
 <g id="figure_1">
  <g id="patch_1">
   <path d="M 0 311.398438 
L 645.87 311.398438 
L 645.87 0 
L 0 0 
z
" style="fill:#ffffff;"/>
  </g>
  <g id="axes_1">
   <g id="patch_2">
    <path d="M 49.40625 280.8 
L 303.042614 280.8 
L 303.042614 3.6 
L 49.40625 3.6 
z
" style="fill:#ffffff;"/>
   </g>
   <g id="matplotlib.axis_1">
    <g id="xtick_1">
     <g id="line2d_1">
      <path clip-path="url(#p4f973f2411)" d="M 60.935176 280.8 
L 60.935176 3.6 
" style="fill:none;stroke:#000000;stroke-dasharray:1.85,0.8;stroke-dashoffset:0;stroke-opacity:0.5;stroke-width:0.5;"/>
     </g>
     <g id="line2d_2">
      <defs>
       <path d="M 0 0 
L 0 -3 
" id="mf7edb6b32e" style="stroke:#000000;stroke-width:0.5;"/>
      </defs>
      <g>
       <use style="stroke:#000000;stroke-width:0.5;" x="60.935176" xlink:href="#mf7edb6b32e" y="280.8"/>
      </g>
     </g>
     <g id="line2d_3">
      <defs>
       <path d="M 0 0 
L 0 3 
" id="m38bffeff72" style="stroke:#000000;stroke-width:0.5;"/>
      </defs>
      <g>
       <use style="stroke:#000000;stroke-width:0.5;" x="60.935176" xlink:href="#m38bffeff72" y="3.6"/>
      </g>
     </g>
     <g id="text_1">
      <!-- 0 -->
      <g transform="translate(57.753926 291.898438)scale(0.1 -0.1)">
       <defs>
        <path d="M 31.78125 3.421875 
Q 39.265625 3.421875 42.96875 11.625 
Q 46.6875 19.828125 46.6875 36.375 
Q 46.6875 52.984375 42.96875 61.1875 
Q 39.265625 69.390625 31.78125 69.390625 
Q 24.3125 69.390625 20.59375 61.1875 
Q 16.890625 52.984375 16.890625 36.375 
Q 16.890625 19.828125 20.59375 11.625 
Q 24.3125 3.421875 31.78125 3.421875 
z
M 31.78125 -1.421875 
Q 19.921875 -1.421875 13.25 8.53125 
Q 6.59375 18.5 6.59375 36.375 
Q 6.59375 54.296875 13.25 64.25 
Q 19.921875 74.21875 31.78125 74.21875 
Q 43.703125 74.21875 50.34375 64.25 
Q 56.984375 54.296875 56.984375 36.375 
Q 56.984375 18.5 50.34375 8.53125 
Q 43.703125 -1.421875 31.78125 -1.421875 
z
" id="DejaVuSerif-48"/>
       </defs>
       <use xlink:href="#DejaVuSerif-48"/>
      </g>
     </g>
    </g>
    <g id="xtick_2">
     <g id="line2d_4">
      <path clip-path="url(#p4f973f2411)" d="M 118.577869 280.8 
L 118.577869 3.6 
" style="fill:none;stroke:#000000;stroke-dasharray:1.85,0.8;stroke-dashoffset:0;stroke-opacity:0.5;stroke-width:0.5;"/>
     </g>
     <g id="line2d_5">
      <g>
       <use style="stroke:#000000;stroke-width:0.5;" x="118.577869" xlink:href="#mf7edb6b32e" y="280.8"/>
      </g>
     </g>
     <g id="line2d_6">
      <g>
       <use style="stroke:#000000;stroke-width:0.5;" x="118.577869" xlink:href="#m38bffeff72" y="3.6"/>
      </g>
     </g>
     <g id="text_2">
      <!-- 5 -->
      <g transform="translate(115.396619 291.898438)scale(0.1 -0.1)">
       <defs>
        <path d="M 50.296875 72.90625 
L 50.296875 64.890625 
L 16.890625 64.890625 
L 16.890625 44 
Q 19.4375 45.75 22.828125 46.625 
Q 26.21875 47.515625 30.421875 47.515625 
Q 42.234375 47.515625 49.0625 40.96875 
Q 55.90625 34.421875 55.90625 23.09375 
Q 55.90625 11.53125 49 5.046875 
Q 42.09375 -1.421875 29.59375 -1.421875 
Q 24.5625 -1.421875 19.28125 -0.1875 
Q 14.015625 1.03125 8.5 3.515625 
L 8.5 17.671875 
L 14.015625 17.671875 
Q 14.453125 10.75 18.421875 7.078125 
Q 22.40625 3.421875 29.59375 3.421875 
Q 37.3125 3.421875 41.453125 8.5 
Q 45.609375 13.578125 45.609375 23.09375 
Q 45.609375 32.5625 41.484375 37.609375 
Q 37.359375 42.671875 29.59375 42.671875 
Q 25.203125 42.671875 21.84375 41.109375 
Q 18.5 39.546875 15.921875 36.28125 
L 11.71875 36.28125 
L 11.71875 72.90625 
z
" id="DejaVuSerif-53"/>
       </defs>
       <use xlink:href="#DejaVuSerif-53"/>
      </g>
     </g>
    </g>
    <g id="xtick_3">
     <g id="line2d_7">
      <path clip-path="url(#p4f973f2411)" d="M 176.220562 280.8 
L 176.220562 3.6 
" style="fill:none;stroke:#000000;stroke-dasharray:1.85,0.8;stroke-dashoffset:0;stroke-opacity:0.5;stroke-width:0.5;"/>
     </g>
     <g id="line2d_8">
      <g>
       <use style="stroke:#000000;stroke-width:0.5;" x="176.220562" xlink:href="#mf7edb6b32e" y="280.8"/>
      </g>
     </g>
     <g id="line2d_9">
      <g>
       <use style="stroke:#000000;stroke-width:0.5;" x="176.220562" xlink:href="#m38bffeff72" y="3.6"/>
      </g>
     </g>
     <g id="text_3">
      <!-- 10 -->
      <g transform="translate(169.858062 291.898438)scale(0.1 -0.1)">
       <defs>
        <path d="M 14.203125 0 
L 14.203125 5.171875 
L 26.90625 5.171875 
L 26.90625 65.828125 
L 12.203125 56.296875 
L 12.203125 62.703125 
L 29.984375 74.21875 
L 36.71875 74.21875 
L 36.71875 5.171875 
L 49.421875 5.171875 
L 49.421875 0 
z
" id="DejaVuSerif-49"/>
       </defs>
       <use xlink:href="#DejaVuSerif-49"/>
       <use x="63.623047" xlink:href="#DejaVuSerif-48"/>
      </g>
     </g>
    </g>
    <g id="xtick_4">
     <g id="line2d_10">
      <path clip-path="url(#p4f973f2411)" d="M 233.863255 280.8 
L 233.863255 3.6 
" style="fill:none;stroke:#000000;stroke-dasharray:1.85,0.8;stroke-dashoffset:0;stroke-opacity:0.5;stroke-width:0.5;"/>
     </g>
     <g id="line2d_11">
      <g>
       <use style="stroke:#000000;stroke-width:0.5;" x="233.863255" xlink:href="#mf7edb6b32e" y="280.8"/>
      </g>
     </g>
     <g id="line2d_12">
      <g>
       <use style="stroke:#000000;stroke-width:0.5;" x="233.863255" xlink:href="#m38bffeff72" y="3.6"/>
      </g>
     </g>
     <g id="text_4">
      <!-- 15 -->
      <g transform="translate(227.500755 291.898438)scale(0.1 -0.1)">
       <use xlink:href="#DejaVuSerif-49"/>
       <use x="63.623047" xlink:href="#DejaVuSerif-53"/>
      </g>
     </g>
    </g>
    <g id="xtick_5">
     <g id="line2d_13">
      <path clip-path="url(#p4f973f2411)" d="M 291.505948 280.8 
L 291.505948 3.6 
" style="fill:none;stroke:#000000;stroke-dasharray:1.85,0.8;stroke-dashoffset:0;stroke-opacity:0.5;stroke-width:0.5;"/>
     </g>
     <g id="line2d_14">
      <g>
       <use style="stroke:#000000;stroke-width:0.5;" x="291.505948" xlink:href="#mf7edb6b32e" y="280.8"/>
      </g>
     </g>
     <g id="line2d_15">
      <g>
       <use style="stroke:#000000;stroke-width:0.5;" x="291.505948" xlink:href="#m38bffeff72" y="3.6"/>
      </g>
     </g>
     <g id="text_5">
      <!-- 20 -->
      <g transform="translate(285.143448 291.898438)scale(0.1 -0.1)">
       <defs>
        <path d="M 12.796875 55.515625 
L 7.328125 55.515625 
L 7.328125 68.5 
Q 12.546875 71.296875 17.84375 72.75 
Q 23.140625 74.21875 28.21875 74.21875 
Q 39.59375 74.21875 46.1875 68.703125 
Q 52.78125 63.1875 52.78125 53.71875 
Q 52.78125 43.015625 37.84375 28.125 
Q 36.671875 27 36.078125 26.421875 
L 17.671875 8.015625 
L 48.09375 8.015625 
L 48.09375 17 
L 53.8125 17 
L 53.8125 0 
L 6.78125 0 
L 6.78125 5.328125 
L 28.90625 27.390625 
Q 36.234375 34.71875 39.359375 40.84375 
Q 42.484375 46.96875 42.484375 53.71875 
Q 42.484375 61.078125 38.640625 65.234375 
Q 34.8125 69.390625 28.078125 69.390625 
Q 21.09375 69.390625 17.28125 65.921875 
Q 13.484375 62.453125 12.796875 55.515625 
z
" id="DejaVuSerif-50"/>
       </defs>
       <use xlink:href="#DejaVuSerif-50"/>
       <use x="63.623047" xlink:href="#DejaVuSerif-48"/>
      </g>
     </g>
    </g>
    <g id="xtick_6">
     <g id="line2d_16">
      <defs>
       <path d="M 0 0 
L 0 -1.5 
" id="m13457bd438" style="stroke:#000000;stroke-width:0.5;"/>
      </defs>
      <g>
       <use style="stroke:#000000;stroke-width:0.5;" x="49.406637" xlink:href="#m13457bd438" y="280.8"/>
      </g>
     </g>
     <g id="line2d_17">
      <defs>
       <path d="M 0 0 
L 0 1.5 
" id="ma44de0f69d" style="stroke:#000000;stroke-width:0.5;"/>
      </defs>
      <g>
       <use style="stroke:#000000;stroke-width:0.5;" x="49.406637" xlink:href="#ma44de0f69d" y="3.6"/>
      </g>
     </g>
    </g>
    <g id="xtick_7">
     <g id="line2d_18">
      <g>
       <use style="stroke:#000000;stroke-width:0.5;" x="72.463714" xlink:href="#m13457bd438" y="280.8"/>
      </g>
     </g>
     <g id="line2d_19">
      <g>
       <use style="stroke:#000000;stroke-width:0.5;" x="72.463714" xlink:href="#ma44de0f69d" y="3.6"/>
      </g>
     </g>
    </g>
    <g id="xtick_8">
     <g id="line2d_20">
      <g>
       <use style="stroke:#000000;stroke-width:0.5;" x="83.992253" xlink:href="#m13457bd438" y="280.8"/>
      </g>
     </g>
     <g id="line2d_21">
      <g>
       <use style="stroke:#000000;stroke-width:0.5;" x="83.992253" xlink:href="#ma44de0f69d" y="3.6"/>
      </g>
     </g>
    </g>
    <g id="xtick_9">
     <g id="line2d_22">
      <g>
       <use style="stroke:#000000;stroke-width:0.5;" x="95.520791" xlink:href="#m13457bd438" y="280.8"/>
      </g>
     </g>
     <g id="line2d_23">
      <g>
       <use style="stroke:#000000;stroke-width:0.5;" x="95.520791" xlink:href="#ma44de0f69d" y="3.6"/>
      </g>
     </g>
    </g>
    <g id="xtick_10">
     <g id="line2d_24">
      <g>
       <use style="stroke:#000000;stroke-width:0.5;" x="107.04933" xlink:href="#m13457bd438" y="280.8"/>
      </g>
     </g>
     <g id="line2d_25">
      <g>
       <use style="stroke:#000000;stroke-width:0.5;" x="107.04933" xlink:href="#ma44de0f69d" y="3.6"/>
      </g>
     </g>
    </g>
    <g id="xtick_11">
     <g id="line2d_26">
      <g>
       <use style="stroke:#000000;stroke-width:0.5;" x="130.106407" xlink:href="#m13457bd438" y="280.8"/>
      </g>
     </g>
     <g id="line2d_27">
      <g>
       <use style="stroke:#000000;stroke-width:0.5;" x="130.106407" xlink:href="#ma44de0f69d" y="3.6"/>
      </g>
     </g>
    </g>
    <g id="xtick_12">
     <g id="line2d_28">
      <g>
       <use style="stroke:#000000;stroke-width:0.5;" x="141.634946" xlink:href="#m13457bd438" y="280.8"/>
      </g>
     </g>
     <g id="line2d_29">
      <g>
       <use style="stroke:#000000;stroke-width:0.5;" x="141.634946" xlink:href="#ma44de0f69d" y="3.6"/>
      </g>
     </g>
    </g>
    <g id="xtick_13">
     <g id="line2d_30">
      <g>
       <use style="stroke:#000000;stroke-width:0.5;" x="153.163485" xlink:href="#m13457bd438" y="280.8"/>
      </g>
     </g>
     <g id="line2d_31">
      <g>
       <use style="stroke:#000000;stroke-width:0.5;" x="153.163485" xlink:href="#ma44de0f69d" y="3.6"/>
      </g>
     </g>
    </g>
    <g id="xtick_14">
     <g id="line2d_32">
      <g>
       <use style="stroke:#000000;stroke-width:0.5;" x="164.692023" xlink:href="#m13457bd438" y="280.8"/>
      </g>
     </g>
     <g id="line2d_33">
      <g>
       <use style="stroke:#000000;stroke-width:0.5;" x="164.692023" xlink:href="#ma44de0f69d" y="3.6"/>
      </g>
     </g>
    </g>
    <g id="xtick_15">
     <g id="line2d_34">
      <g>
       <use style="stroke:#000000;stroke-width:0.5;" x="187.7491" xlink:href="#m13457bd438" y="280.8"/>
      </g>
     </g>
     <g id="line2d_35">
      <g>
       <use style="stroke:#000000;stroke-width:0.5;" x="187.7491" xlink:href="#ma44de0f69d" y="3.6"/>
      </g>
     </g>
    </g>
    <g id="xtick_16">
     <g id="line2d_36">
      <g>
       <use style="stroke:#000000;stroke-width:0.5;" x="199.277639" xlink:href="#m13457bd438" y="280.8"/>
      </g>
     </g>
     <g id="line2d_37">
      <g>
       <use style="stroke:#000000;stroke-width:0.5;" x="199.277639" xlink:href="#ma44de0f69d" y="3.6"/>
      </g>
     </g>
    </g>
    <g id="xtick_17">
     <g id="line2d_38">
      <g>
       <use style="stroke:#000000;stroke-width:0.5;" x="210.806178" xlink:href="#m13457bd438" y="280.8"/>
      </g>
     </g>
     <g id="line2d_39">
      <g>
       <use style="stroke:#000000;stroke-width:0.5;" x="210.806178" xlink:href="#ma44de0f69d" y="3.6"/>
      </g>
     </g>
    </g>
    <g id="xtick_18">
     <g id="line2d_40">
      <g>
       <use style="stroke:#000000;stroke-width:0.5;" x="222.334716" xlink:href="#m13457bd438" y="280.8"/>
      </g>
     </g>
     <g id="line2d_41">
      <g>
       <use style="stroke:#000000;stroke-width:0.5;" x="222.334716" xlink:href="#ma44de0f69d" y="3.6"/>
      </g>
     </g>
    </g>
    <g id="xtick_19">
     <g id="line2d_42">
      <g>
       <use style="stroke:#000000;stroke-width:0.5;" x="245.391793" xlink:href="#m13457bd438" y="280.8"/>
      </g>
     </g>
     <g id="line2d_43">
      <g>
       <use style="stroke:#000000;stroke-width:0.5;" x="245.391793" xlink:href="#ma44de0f69d" y="3.6"/>
      </g>
     </g>
    </g>
    <g id="xtick_20">
     <g id="line2d_44">
      <g>
       <use style="stroke:#000000;stroke-width:0.5;" x="256.920332" xlink:href="#m13457bd438" y="280.8"/>
      </g>
     </g>
     <g id="line2d_45">
      <g>
       <use style="stroke:#000000;stroke-width:0.5;" x="256.920332" xlink:href="#ma44de0f69d" y="3.6"/>
      </g>
     </g>
    </g>
    <g id="xtick_21">
     <g id="line2d_46">
      <g>
       <use style="stroke:#000000;stroke-width:0.5;" x="268.448871" xlink:href="#m13457bd438" y="280.8"/>
      </g>
     </g>
     <g id="line2d_47">
      <g>
       <use style="stroke:#000000;stroke-width:0.5;" x="268.448871" xlink:href="#ma44de0f69d" y="3.6"/>
      </g>
     </g>
    </g>
    <g id="xtick_22">
     <g id="line2d_48">
      <g>
       <use style="stroke:#000000;stroke-width:0.5;" x="279.977409" xlink:href="#m13457bd438" y="280.8"/>
      </g>
     </g>
     <g id="line2d_49">
      <g>
       <use style="stroke:#000000;stroke-width:0.5;" x="279.977409" xlink:href="#ma44de0f69d" y="3.6"/>
      </g>
     </g>
    </g>
    <g id="xtick_23">
     <g id="line2d_50">
      <g>
       <use style="stroke:#000000;stroke-width:0.5;" x="303.034487" xlink:href="#m13457bd438" y="280.8"/>
      </g>
     </g>
     <g id="line2d_51">
      <g>
       <use style="stroke:#000000;stroke-width:0.5;" x="303.034487" xlink:href="#ma44de0f69d" y="3.6"/>
      </g>
     </g>
    </g>
    <g id="text_6">
     <!-- Percent of Pruned Weights -->
     <g transform="translate(108.476776 305.576563)scale(0.1 -0.1)">
      <defs>
       <path d="M 24.703125 37.109375 
L 37.59375 37.109375 
Q 44.875 37.109375 48.671875 41.03125 
Q 52.484375 44.96875 52.484375 52.390625 
Q 52.484375 59.859375 48.671875 63.765625 
Q 44.875 67.671875 37.59375 67.671875 
L 24.703125 67.671875 
z
M 5.515625 0 
L 5.515625 5.171875 
L 14.796875 5.171875 
L 14.796875 67.671875 
L 5.515625 67.671875 
L 5.515625 72.90625 
L 39.984375 72.90625 
Q 50.921875 72.90625 57.3125 67.359375 
Q 63.71875 61.8125 63.71875 52.390625 
Q 63.71875 43.015625 57.3125 37.453125 
Q 50.921875 31.890625 39.984375 31.890625 
L 24.703125 31.890625 
L 24.703125 5.171875 
L 35.984375 5.171875 
L 35.984375 0 
z
" id="DejaVuSerif-80"/>
       <path d="M 54.203125 25 
L 15.484375 25 
L 15.484375 24.609375 
Q 15.484375 14.109375 19.4375 8.765625 
Q 23.390625 3.421875 31.109375 3.421875 
Q 37.015625 3.421875 40.796875 6.515625 
Q 44.578125 9.625 46.09375 15.71875 
L 53.328125 15.71875 
Q 51.171875 7.171875 45.375 2.875 
Q 39.59375 -1.421875 30.171875 -1.421875 
Q 18.796875 -1.421875 11.890625 6.078125 
Q 4.984375 13.578125 4.984375 25.984375 
Q 4.984375 38.28125 11.765625 45.796875 
Q 18.5625 53.328125 29.59375 53.328125 
Q 41.359375 53.328125 47.65625 46.0625 
Q 53.953125 38.8125 54.203125 25 
z
M 43.609375 30.171875 
Q 43.3125 39.265625 39.765625 43.875 
Q 36.234375 48.484375 29.59375 48.484375 
Q 23.390625 48.484375 19.828125 43.84375 
Q 16.265625 39.203125 15.484375 30.171875 
z
" id="DejaVuSerif-101"/>
       <path d="M 47.796875 52 
L 47.796875 39.015625 
L 42.625 39.015625 
Q 42.390625 42.875 40.484375 44.78125 
Q 38.578125 46.6875 34.90625 46.6875 
Q 28.265625 46.6875 24.71875 42.09375 
Q 21.1875 37.5 21.1875 28.90625 
L 21.1875 5.171875 
L 31.59375 5.171875 
L 31.59375 0 
L 4.109375 0 
L 4.109375 5.171875 
L 12.203125 5.171875 
L 12.203125 46.78125 
L 3.609375 46.78125 
L 3.609375 51.90625 
L 21.1875 51.90625 
L 21.1875 42.671875 
Q 23.828125 48.09375 27.96875 50.703125 
Q 32.125 53.328125 38.09375 53.328125 
Q 40.28125 53.328125 42.703125 52.984375 
Q 45.125 52.640625 47.796875 52 
z
" id="DejaVuSerif-114"/>
       <path d="M 51.421875 15.578125 
Q 49.515625 7.28125 44.09375 2.921875 
Q 38.671875 -1.421875 30.078125 -1.421875 
Q 18.75 -1.421875 11.859375 6.078125 
Q 4.984375 13.578125 4.984375 25.984375 
Q 4.984375 38.421875 11.859375 45.875 
Q 18.75 53.328125 30.078125 53.328125 
Q 35.015625 53.328125 39.890625 52.171875 
Q 44.78125 51.03125 49.703125 48.6875 
L 49.703125 35.40625 
L 44.484375 35.40625 
Q 43.453125 42.234375 40.015625 45.359375 
Q 36.578125 48.484375 30.171875 48.484375 
Q 22.90625 48.484375 19.1875 42.84375 
Q 15.484375 37.203125 15.484375 25.984375 
Q 15.484375 14.75 19.171875 9.078125 
Q 22.859375 3.421875 30.171875 3.421875 
Q 35.984375 3.421875 39.453125 6.4375 
Q 42.921875 9.46875 44.1875 15.578125 
z
" id="DejaVuSerif-99"/>
       <path d="M 4.109375 0 
L 4.109375 5.171875 
L 12.203125 5.171875 
L 12.203125 46.6875 
L 3.609375 46.6875 
L 3.609375 51.90625 
L 21.1875 51.90625 
L 21.1875 42.671875 
Q 23.6875 47.953125 27.65625 50.640625 
Q 31.640625 53.328125 36.921875 53.328125 
Q 45.515625 53.328125 49.5625 48.390625 
Q 53.609375 43.453125 53.609375 33.015625 
L 53.609375 5.171875 
L 61.625 5.171875 
L 61.625 0 
L 36.8125 0 
L 36.8125 5.171875 
L 44.578125 5.171875 
L 44.578125 30.171875 
Q 44.578125 39.703125 42.234375 43.234375 
Q 39.890625 46.78125 33.984375 46.78125 
Q 27.734375 46.78125 24.453125 42.203125 
Q 21.1875 37.640625 21.1875 28.90625 
L 21.1875 5.171875 
L 29 5.171875 
L 29 0 
z
" id="DejaVuSerif-110"/>
       <path d="M 10.796875 46.6875 
L 2.875 46.6875 
L 2.875 51.90625 
L 10.796875 51.90625 
L 10.796875 68.015625 
L 19.828125 68.015625 
L 19.828125 51.90625 
L 36.71875 51.90625 
L 36.71875 46.6875 
L 19.828125 46.6875 
L 19.828125 13.71875 
Q 19.828125 7.125 21.09375 5.265625 
Q 22.359375 3.421875 25.78125 3.421875 
Q 29.296875 3.421875 30.90625 5.484375 
Q 32.515625 7.5625 32.625 12.203125 
L 39.40625 12.203125 
Q 39.015625 5.125 35.546875 1.84375 
Q 32.078125 -1.421875 25 -1.421875 
Q 17.234375 -1.421875 14.015625 2.015625 
Q 10.796875 5.46875 10.796875 13.71875 
z
" id="DejaVuSerif-116"/>
       <path id="DejaVuSerif-32"/>
       <path d="M 30.078125 3.421875 
Q 37.3125 3.421875 40.984375 9.125 
Q 44.671875 14.84375 44.671875 25.984375 
Q 44.671875 37.109375 40.984375 42.796875 
Q 37.3125 48.484375 30.078125 48.484375 
Q 22.859375 48.484375 19.171875 42.796875 
Q 15.484375 37.109375 15.484375 25.984375 
Q 15.484375 14.84375 19.1875 9.125 
Q 22.90625 3.421875 30.078125 3.421875 
z
M 30.078125 -1.421875 
Q 18.75 -1.421875 11.859375 6.078125 
Q 4.984375 13.578125 4.984375 25.984375 
Q 4.984375 38.375 11.84375 45.84375 
Q 18.703125 53.328125 30.078125 53.328125 
Q 41.453125 53.328125 48.3125 45.84375 
Q 55.171875 38.375 55.171875 25.984375 
Q 55.171875 13.578125 48.3125 6.078125 
Q 41.453125 -1.421875 30.078125 -1.421875 
z
" id="DejaVuSerif-111"/>
       <path d="M 43.015625 63.71875 
L 38.28125 63.71875 
Q 38.234375 67.390625 36.203125 69.28125 
Q 34.1875 71.1875 30.328125 71.1875 
Q 25.296875 71.1875 23.234375 68.421875 
Q 21.1875 65.671875 21.1875 58.59375 
L 21.1875 51.90625 
L 35.6875 51.90625 
L 35.6875 46.6875 
L 21.1875 46.6875 
L 21.1875 5.171875 
L 32.71875 5.171875 
L 32.71875 0 
L 3.609375 0 
L 3.609375 5.171875 
L 12.203125 5.171875 
L 12.203125 46.6875 
L 3.609375 46.6875 
L 3.609375 51.90625 
L 12.203125 51.90625 
L 12.203125 58.40625 
Q 12.203125 67.09375 16.71875 71.53125 
Q 21.234375 75.984375 29.984375 75.984375 
Q 33.25 75.984375 36.515625 75.390625 
Q 39.796875 74.8125 43.015625 73.578125 
z
" id="DejaVuSerif-102"/>
       <path d="M 35.40625 51.90625 
L 52.203125 51.90625 
L 52.203125 5.171875 
L 60.6875 5.171875 
L 60.6875 0 
L 43.21875 0 
L 43.21875 9.1875 
Q 40.71875 4 36.765625 1.28125 
Q 32.8125 -1.421875 27.59375 -1.421875 
Q 18.953125 -1.421875 14.875 3.484375 
Q 10.796875 8.40625 10.796875 18.890625 
L 10.796875 46.6875 
L 2.6875 46.6875 
L 2.6875 51.90625 
L 19.828125 51.90625 
L 19.828125 21.6875 
Q 19.828125 12.203125 22.140625 8.6875 
Q 24.46875 5.171875 30.421875 5.171875 
Q 36.671875 5.171875 39.9375 9.765625 
Q 43.21875 14.359375 43.21875 23.09375 
L 43.21875 46.6875 
L 35.40625 46.6875 
z
" id="DejaVuSerif-117"/>
       <path d="M 52.484375 5.171875 
L 61.078125 5.171875 
L 61.078125 0 
L 43.5 0 
L 43.5 8.109375 
Q 40.875 3.21875 36.796875 0.890625 
Q 32.71875 -1.421875 26.703125 -1.421875 
Q 17.140625 -1.421875 11.0625 6.171875 
Q 4.984375 13.765625 4.984375 25.984375 
Q 4.984375 38.1875 11.03125 45.75 
Q 17.09375 53.328125 26.703125 53.328125 
Q 32.71875 53.328125 36.796875 51 
Q 40.875 48.6875 43.5 43.796875 
L 43.5 70.796875 
L 35.015625 70.796875 
L 35.015625 75.984375 
L 52.484375 75.984375 
z
M 43.5 23.390625 
L 43.5 28.515625 
Q 43.5 37.84375 39.90625 42.765625 
Q 36.328125 47.703125 29.5 47.703125 
Q 22.5625 47.703125 19.015625 42.234375 
Q 15.484375 36.765625 15.484375 25.984375 
Q 15.484375 15.234375 19.015625 9.71875 
Q 22.5625 4.203125 29.5 4.203125 
Q 36.328125 4.203125 39.90625 9.109375 
Q 43.5 14.015625 43.5 23.390625 
z
" id="DejaVuSerif-100"/>
       <path d="M 76.21875 0 
L 68.21875 0 
L 51.515625 59.28125 
L 34.8125 0 
L 26.8125 0 
L 7.71875 67.671875 
L 0.484375 67.671875 
L 0.484375 72.90625 
L 27.09375 72.90625 
L 27.09375 67.671875 
L 18.015625 67.671875 
L 33.203125 13.8125 
L 49.8125 72.90625 
L 57.71875 72.90625 
L 74.609375 13.1875 
L 89.890625 67.671875 
L 81.5 67.671875 
L 81.5 72.90625 
L 102.484375 72.90625 
L 102.484375 67.671875 
L 95.3125 67.671875 
z
" id="DejaVuSerif-87"/>
       <path d="M 9.71875 68.015625 
Q 9.71875 70.265625 11.34375 71.921875 
Q 12.984375 73.578125 15.28125 73.578125 
Q 17.53125 73.578125 19.15625 71.921875 
Q 20.796875 70.265625 20.796875 68.015625 
Q 20.796875 65.71875 19.1875 64.109375 
Q 17.578125 62.5 15.28125 62.5 
Q 12.984375 62.5 11.34375 64.109375 
Q 9.71875 65.71875 9.71875 68.015625 
z
M 21.1875 5.171875 
L 29.6875 5.171875 
L 29.6875 0 
L 3.609375 0 
L 3.609375 5.171875 
L 12.203125 5.171875 
L 12.203125 46.6875 
L 3.609375 46.6875 
L 3.609375 51.90625 
L 21.1875 51.90625 
z
" id="DejaVuSerif-105"/>
       <path d="M 52.484375 46.6875 
L 52.484375 1.125 
Q 52.484375 -10.0625 46.328125 -16.140625 
Q 40.1875 -22.21875 28.8125 -22.21875 
Q 23.6875 -22.21875 19 -21.28125 
Q 14.3125 -20.359375 10.015625 -18.5 
L 10.015625 -7.625 
L 14.703125 -7.625 
Q 15.578125 -12.703125 18.84375 -15.046875 
Q 22.125 -17.390625 28.21875 -17.390625 
Q 36.140625 -17.390625 39.8125 -12.921875 
Q 43.5 -8.453125 43.5 1.125 
L 43.5 8.109375 
Q 40.875 3.21875 36.796875 0.890625 
Q 32.71875 -1.421875 26.703125 -1.421875 
Q 17.140625 -1.421875 11.0625 6.171875 
Q 4.984375 13.765625 4.984375 25.984375 
Q 4.984375 38.1875 11.03125 45.75 
Q 17.09375 53.328125 26.703125 53.328125 
Q 32.71875 53.328125 36.796875 51 
Q 40.875 48.6875 43.5 43.796875 
L 43.5 51.90625 
L 61.078125 51.90625 
L 61.078125 46.6875 
z
M 43.5 28.515625 
Q 43.5 37.84375 39.90625 42.765625 
Q 36.328125 47.703125 29.5 47.703125 
Q 22.5625 47.703125 19.015625 42.234375 
Q 15.484375 36.765625 15.484375 25.984375 
Q 15.484375 15.234375 19.015625 9.71875 
Q 22.5625 4.203125 29.5 4.203125 
Q 36.328125 4.203125 39.90625 9.109375 
Q 43.5 14.015625 43.5 23.390625 
z
" id="DejaVuSerif-103"/>
       <path d="M 4.109375 0 
L 4.109375 5.171875 
L 12.203125 5.171875 
L 12.203125 70.796875 
L 3.609375 70.796875 
L 3.609375 75.984375 
L 21.1875 75.984375 
L 21.1875 42.671875 
Q 23.6875 47.953125 27.65625 50.640625 
Q 31.640625 53.328125 36.921875 53.328125 
Q 45.515625 53.328125 49.5625 48.390625 
Q 53.609375 43.453125 53.609375 33.015625 
L 53.609375 5.171875 
L 61.625 5.171875 
L 61.625 0 
L 36.8125 0 
L 36.8125 5.171875 
L 44.578125 5.171875 
L 44.578125 30.171875 
Q 44.578125 39.703125 42.25 43.1875 
Q 39.9375 46.6875 33.984375 46.6875 
Q 27.734375 46.6875 24.453125 42.140625 
Q 21.1875 37.59375 21.1875 28.90625 
L 21.1875 5.171875 
L 29 5.171875 
L 29 0 
z
" id="DejaVuSerif-104"/>
       <path d="M 5.609375 2.875 
L 5.609375 14.984375 
L 10.796875 14.984375 
Q 10.984375 9.1875 14.421875 6.296875 
Q 17.875 3.421875 24.609375 3.421875 
Q 30.671875 3.421875 33.84375 5.6875 
Q 37.015625 7.953125 37.015625 12.3125 
Q 37.015625 15.71875 34.6875 17.8125 
Q 32.375 19.921875 24.90625 22.3125 
L 18.40625 24.515625 
Q 11.71875 26.65625 8.71875 29.875 
Q 5.71875 33.109375 5.71875 38.09375 
Q 5.71875 45.21875 10.9375 49.265625 
Q 16.15625 53.328125 25.390625 53.328125 
Q 29.5 53.328125 34.03125 52.25 
Q 38.578125 51.171875 43.40625 49.125 
L 43.40625 37.796875 
L 38.234375 37.796875 
Q 38.03125 42.828125 34.703125 45.65625 
Q 31.390625 48.484375 25.6875 48.484375 
Q 20.015625 48.484375 17.109375 46.484375 
Q 14.203125 44.484375 14.203125 40.484375 
Q 14.203125 37.203125 16.40625 35.21875 
Q 18.609375 33.25 25.203125 31.203125 
L 32.328125 29 
Q 39.703125 26.703125 42.9375 23.265625 
Q 46.1875 19.828125 46.1875 14.40625 
Q 46.1875 7.03125 40.546875 2.796875 
Q 34.90625 -1.421875 25 -1.421875 
Q 19.96875 -1.421875 15.1875 -0.34375 
Q 10.40625 0.734375 5.609375 2.875 
z
" id="DejaVuSerif-115"/>
      </defs>
      <use xlink:href="#DejaVuSerif-80"/>
      <use x="62.785156" xlink:href="#DejaVuSerif-101"/>
      <use x="121.964844" xlink:href="#DejaVuSerif-114"/>
      <use x="169.767578" xlink:href="#DejaVuSerif-99"/>
      <use x="225.773438" xlink:href="#DejaVuSerif-101"/>
      <use x="284.953125" xlink:href="#DejaVuSerif-110"/>
      <use x="349.357422" xlink:href="#DejaVuSerif-116"/>
      <use x="389.542969" xlink:href="#DejaVuSerif-32"/>
      <use x="421.330078" xlink:href="#DejaVuSerif-111"/>
      <use x="481.535156" xlink:href="#DejaVuSerif-102"/>
      <use x="518.546875" xlink:href="#DejaVuSerif-32"/>
      <use x="550.333984" xlink:href="#DejaVuSerif-80"/>
      <use x="617.619141" xlink:href="#DejaVuSerif-114"/>
      <use x="665.421875" xlink:href="#DejaVuSerif-117"/>
      <use x="729.826172" xlink:href="#DejaVuSerif-110"/>
      <use x="794.230469" xlink:href="#DejaVuSerif-101"/>
      <use x="853.410156" xlink:href="#DejaVuSerif-100"/>
      <use x="917.423828" xlink:href="#DejaVuSerif-32"/>
      <use x="949.210938" xlink:href="#DejaVuSerif-87"/>
      <use x="1043.869141" xlink:href="#DejaVuSerif-101"/>
      <use x="1103.048828" xlink:href="#DejaVuSerif-105"/>
      <use x="1135.03125" xlink:href="#DejaVuSerif-103"/>
      <use x="1199.044922" xlink:href="#DejaVuSerif-104"/>
      <use x="1263.449219" xlink:href="#DejaVuSerif-116"/>
      <use x="1303.634766" xlink:href="#DejaVuSerif-115"/>
     </g>
    </g>
   </g>
   <g id="matplotlib.axis_2">
    <g id="ytick_1">
     <g id="line2d_52">
      <path clip-path="url(#p4f973f2411)" d="M 49.40625 244.908 
L 303.042614 244.908 
" style="fill:none;stroke:#000000;stroke-dasharray:1.85,0.8;stroke-dashoffset:0;stroke-opacity:0.5;stroke-width:0.5;"/>
     </g>
     <g id="line2d_53">
      <defs>
       <path d="M 0 0 
L 3 0 
" id="m5e89d5dafa" style="stroke:#000000;stroke-width:0.5;"/>
      </defs>
      <g>
       <use style="stroke:#000000;stroke-width:0.5;" x="49.40625" xlink:href="#m5e89d5dafa" y="244.908"/>
      </g>
     </g>
     <g id="line2d_54">
      <defs>
       <path d="M 0 0 
L -3 0 
" id="mb7e9f26b03" style="stroke:#000000;stroke-width:0.5;"/>
      </defs>
      <g>
       <use style="stroke:#000000;stroke-width:0.5;" x="303.042614" xlink:href="#mb7e9f26b03" y="244.908"/>
      </g>
     </g>
     <g id="text_7">
      <!-- 13.05 -->
      <g transform="translate(17.278125 248.707219)scale(0.1 -0.1)">
       <defs>
        <path d="M 9.71875 69.828125 
Q 15.4375 71.96875 20.671875 73.09375 
Q 25.921875 74.21875 30.515625 74.21875 
Q 41.21875 74.21875 47.21875 69.59375 
Q 53.21875 64.984375 53.21875 56.78125 
Q 53.21875 50.203125 49.0625 45.78125 
Q 44.921875 41.359375 37.3125 39.796875 
Q 46.296875 38.53125 51.25 33.28125 
Q 56.203125 28.03125 56.203125 19.671875 
Q 56.203125 9.46875 49.34375 4.015625 
Q 42.484375 -1.421875 29.59375 -1.421875 
Q 23.875 -1.421875 18.421875 -0.1875 
Q 12.984375 1.03125 7.625 3.515625 
L 7.625 17.671875 
L 13.09375 17.671875 
Q 13.578125 10.640625 17.828125 7.03125 
Q 22.078125 3.421875 29.78125 3.421875 
Q 37.25 3.421875 41.578125 7.734375 
Q 45.90625 12.0625 45.90625 19.578125 
Q 45.90625 28.171875 41.453125 32.59375 
Q 37.015625 37.015625 28.421875 37.015625 
L 23.78125 37.015625 
L 23.78125 42 
L 26.21875 42 
Q 34.765625 42 39.03125 45.53125 
Q 43.3125 49.078125 43.3125 56.203125 
Q 43.3125 62.59375 39.796875 65.984375 
Q 36.28125 69.390625 29.6875 69.390625 
Q 23.09375 69.390625 19.453125 66.265625 
Q 15.828125 63.140625 15.1875 56.984375 
L 9.71875 56.984375 
z
" id="DejaVuSerif-51"/>
        <path d="M 9.421875 5.078125 
Q 9.421875 7.8125 11.28125 9.71875 
Q 13.140625 11.625 15.921875 11.625 
Q 18.609375 11.625 20.5 9.71875 
Q 22.40625 7.8125 22.40625 5.078125 
Q 22.40625 2.390625 20.5 0.484375 
Q 18.609375 -1.421875 15.921875 -1.421875 
Q 13.140625 -1.421875 11.28125 0.453125 
Q 9.421875 2.34375 9.421875 5.078125 
z
" id="DejaVuSerif-46"/>
       </defs>
       <use xlink:href="#DejaVuSerif-49"/>
       <use x="63.623047" xlink:href="#DejaVuSerif-51"/>
       <use x="127.246094" xlink:href="#DejaVuSerif-46"/>
       <use x="159.033203" xlink:href="#DejaVuSerif-48"/>
       <use x="222.65625" xlink:href="#DejaVuSerif-53"/>
      </g>
     </g>
    </g>
    <g id="ytick_2">
     <g id="line2d_55">
      <path clip-path="url(#p4f973f2411)" d="M 49.40625 186.336 
L 303.042614 186.336 
" style="fill:none;stroke:#000000;stroke-dasharray:1.85,0.8;stroke-dashoffset:0;stroke-opacity:0.5;stroke-width:0.5;"/>
     </g>
     <g id="line2d_56">
      <g>
       <use style="stroke:#000000;stroke-width:0.5;" x="49.40625" xlink:href="#m5e89d5dafa" y="186.336"/>
      </g>
     </g>
     <g id="line2d_57">
      <g>
       <use style="stroke:#000000;stroke-width:0.5;" x="303.042614" xlink:href="#mb7e9f26b03" y="186.336"/>
      </g>
     </g>
     <g id="text_8">
      <!-- 13.10 -->
      <g transform="translate(17.278125 190.135219)scale(0.1 -0.1)">
       <use xlink:href="#DejaVuSerif-49"/>
       <use x="63.623047" xlink:href="#DejaVuSerif-51"/>
       <use x="127.246094" xlink:href="#DejaVuSerif-46"/>
       <use x="159.033203" xlink:href="#DejaVuSerif-49"/>
       <use x="222.65625" xlink:href="#DejaVuSerif-48"/>
      </g>
     </g>
    </g>
    <g id="ytick_3">
     <g id="line2d_58">
      <path clip-path="url(#p4f973f2411)" d="M 49.40625 127.764 
L 303.042614 127.764 
" style="fill:none;stroke:#000000;stroke-dasharray:1.85,0.8;stroke-dashoffset:0;stroke-opacity:0.5;stroke-width:0.5;"/>
     </g>
     <g id="line2d_59">
      <g>
       <use style="stroke:#000000;stroke-width:0.5;" x="49.40625" xlink:href="#m5e89d5dafa" y="127.764"/>
      </g>
     </g>
     <g id="line2d_60">
      <g>
       <use style="stroke:#000000;stroke-width:0.5;" x="303.042614" xlink:href="#mb7e9f26b03" y="127.764"/>
      </g>
     </g>
     <g id="text_9">
      <!-- 13.15 -->
      <g transform="translate(17.278125 131.563219)scale(0.1 -0.1)">
       <use xlink:href="#DejaVuSerif-49"/>
       <use x="63.623047" xlink:href="#DejaVuSerif-51"/>
       <use x="127.246094" xlink:href="#DejaVuSerif-46"/>
       <use x="159.033203" xlink:href="#DejaVuSerif-49"/>
       <use x="222.65625" xlink:href="#DejaVuSerif-53"/>
      </g>
     </g>
    </g>
    <g id="ytick_4">
     <g id="line2d_61">
      <path clip-path="url(#p4f973f2411)" d="M 49.40625 69.192 
L 303.042614 69.192 
" style="fill:none;stroke:#000000;stroke-dasharray:1.85,0.8;stroke-dashoffset:0;stroke-opacity:0.5;stroke-width:0.5;"/>
     </g>
     <g id="line2d_62">
      <g>
       <use style="stroke:#000000;stroke-width:0.5;" x="49.40625" xlink:href="#m5e89d5dafa" y="69.192"/>
      </g>
     </g>
     <g id="line2d_63">
      <g>
       <use style="stroke:#000000;stroke-width:0.5;" x="303.042614" xlink:href="#mb7e9f26b03" y="69.192"/>
      </g>
     </g>
     <g id="text_10">
      <!-- 13.20 -->
      <g transform="translate(17.278125 72.991219)scale(0.1 -0.1)">
       <use xlink:href="#DejaVuSerif-49"/>
       <use x="63.623047" xlink:href="#DejaVuSerif-51"/>
       <use x="127.246094" xlink:href="#DejaVuSerif-46"/>
       <use x="159.033203" xlink:href="#DejaVuSerif-50"/>
       <use x="222.65625" xlink:href="#DejaVuSerif-48"/>
      </g>
     </g>
    </g>
    <g id="ytick_5">
     <g id="line2d_64">
      <path clip-path="url(#p4f973f2411)" d="M 49.40625 10.62 
L 303.042614 10.62 
" style="fill:none;stroke:#000000;stroke-dasharray:1.85,0.8;stroke-dashoffset:0;stroke-opacity:0.5;stroke-width:0.5;"/>
     </g>
     <g id="line2d_65">
      <g>
       <use style="stroke:#000000;stroke-width:0.5;" x="49.40625" xlink:href="#m5e89d5dafa" y="10.62"/>
      </g>
     </g>
     <g id="line2d_66">
      <g>
       <use style="stroke:#000000;stroke-width:0.5;" x="303.042614" xlink:href="#mb7e9f26b03" y="10.62"/>
      </g>
     </g>
     <g id="text_11">
      <!-- 13.25 -->
      <g transform="translate(17.278125 14.419219)scale(0.1 -0.1)">
       <use xlink:href="#DejaVuSerif-49"/>
       <use x="63.623047" xlink:href="#DejaVuSerif-51"/>
       <use x="127.246094" xlink:href="#DejaVuSerif-46"/>
       <use x="159.033203" xlink:href="#DejaVuSerif-50"/>
       <use x="222.65625" xlink:href="#DejaVuSerif-53"/>
      </g>
     </g>
    </g>
    <g id="ytick_6">
     <g id="line2d_67">
      <defs>
       <path d="M 0 0 
L 1.5 0 
" id="mc0acdf275f" style="stroke:#000000;stroke-width:0.5;"/>
      </defs>
      <g>
       <use style="stroke:#000000;stroke-width:0.5;" x="49.40625" xlink:href="#mc0acdf275f" y="280.0512"/>
      </g>
     </g>
     <g id="line2d_68">
      <defs>
       <path d="M 0 0 
L -1.5 0 
" id="m6e54c6c922" style="stroke:#000000;stroke-width:0.5;"/>
      </defs>
      <g>
       <use style="stroke:#000000;stroke-width:0.5;" x="303.042614" xlink:href="#m6e54c6c922" y="280.0512"/>
      </g>
     </g>
    </g>
    <g id="ytick_7">
     <g id="line2d_69">
      <g>
       <use style="stroke:#000000;stroke-width:0.5;" x="49.40625" xlink:href="#mc0acdf275f" y="268.3368"/>
      </g>
     </g>
     <g id="line2d_70">
      <g>
       <use style="stroke:#000000;stroke-width:0.5;" x="303.042614" xlink:href="#m6e54c6c922" y="268.3368"/>
      </g>
     </g>
    </g>
    <g id="ytick_8">
     <g id="line2d_71">
      <g>
       <use style="stroke:#000000;stroke-width:0.5;" x="49.40625" xlink:href="#mc0acdf275f" y="256.6224"/>
      </g>
     </g>
     <g id="line2d_72">
      <g>
       <use style="stroke:#000000;stroke-width:0.5;" x="303.042614" xlink:href="#m6e54c6c922" y="256.6224"/>
      </g>
     </g>
    </g>
    <g id="ytick_9">
     <g id="line2d_73">
      <g>
       <use style="stroke:#000000;stroke-width:0.5;" x="49.40625" xlink:href="#mc0acdf275f" y="233.1936"/>
      </g>
     </g>
     <g id="line2d_74">
      <g>
       <use style="stroke:#000000;stroke-width:0.5;" x="303.042614" xlink:href="#m6e54c6c922" y="233.1936"/>
      </g>
     </g>
    </g>
    <g id="ytick_10">
     <g id="line2d_75">
      <g>
       <use style="stroke:#000000;stroke-width:0.5;" x="49.40625" xlink:href="#mc0acdf275f" y="221.4792"/>
      </g>
     </g>
     <g id="line2d_76">
      <g>
       <use style="stroke:#000000;stroke-width:0.5;" x="303.042614" xlink:href="#m6e54c6c922" y="221.4792"/>
      </g>
     </g>
    </g>
    <g id="ytick_11">
     <g id="line2d_77">
      <g>
       <use style="stroke:#000000;stroke-width:0.5;" x="49.40625" xlink:href="#mc0acdf275f" y="209.7648"/>
      </g>
     </g>
     <g id="line2d_78">
      <g>
       <use style="stroke:#000000;stroke-width:0.5;" x="303.042614" xlink:href="#m6e54c6c922" y="209.7648"/>
      </g>
     </g>
    </g>
    <g id="ytick_12">
     <g id="line2d_79">
      <g>
       <use style="stroke:#000000;stroke-width:0.5;" x="49.40625" xlink:href="#mc0acdf275f" y="198.0504"/>
      </g>
     </g>
     <g id="line2d_80">
      <g>
       <use style="stroke:#000000;stroke-width:0.5;" x="303.042614" xlink:href="#m6e54c6c922" y="198.0504"/>
      </g>
     </g>
    </g>
    <g id="ytick_13">
     <g id="line2d_81">
      <g>
       <use style="stroke:#000000;stroke-width:0.5;" x="49.40625" xlink:href="#mc0acdf275f" y="174.6216"/>
      </g>
     </g>
     <g id="line2d_82">
      <g>
       <use style="stroke:#000000;stroke-width:0.5;" x="303.042614" xlink:href="#m6e54c6c922" y="174.6216"/>
      </g>
     </g>
    </g>
    <g id="ytick_14">
     <g id="line2d_83">
      <g>
       <use style="stroke:#000000;stroke-width:0.5;" x="49.40625" xlink:href="#mc0acdf275f" y="162.9072"/>
      </g>
     </g>
     <g id="line2d_84">
      <g>
       <use style="stroke:#000000;stroke-width:0.5;" x="303.042614" xlink:href="#m6e54c6c922" y="162.9072"/>
      </g>
     </g>
    </g>
    <g id="ytick_15">
     <g id="line2d_85">
      <g>
       <use style="stroke:#000000;stroke-width:0.5;" x="49.40625" xlink:href="#mc0acdf275f" y="151.1928"/>
      </g>
     </g>
     <g id="line2d_86">
      <g>
       <use style="stroke:#000000;stroke-width:0.5;" x="303.042614" xlink:href="#m6e54c6c922" y="151.1928"/>
      </g>
     </g>
    </g>
    <g id="ytick_16">
     <g id="line2d_87">
      <g>
       <use style="stroke:#000000;stroke-width:0.5;" x="49.40625" xlink:href="#mc0acdf275f" y="139.4784"/>
      </g>
     </g>
     <g id="line2d_88">
      <g>
       <use style="stroke:#000000;stroke-width:0.5;" x="303.042614" xlink:href="#m6e54c6c922" y="139.4784"/>
      </g>
     </g>
    </g>
    <g id="ytick_17">
     <g id="line2d_89">
      <g>
       <use style="stroke:#000000;stroke-width:0.5;" x="49.40625" xlink:href="#mc0acdf275f" y="116.0496"/>
      </g>
     </g>
     <g id="line2d_90">
      <g>
       <use style="stroke:#000000;stroke-width:0.5;" x="303.042614" xlink:href="#m6e54c6c922" y="116.0496"/>
      </g>
     </g>
    </g>
    <g id="ytick_18">
     <g id="line2d_91">
      <g>
       <use style="stroke:#000000;stroke-width:0.5;" x="49.40625" xlink:href="#mc0acdf275f" y="104.3352"/>
      </g>
     </g>
     <g id="line2d_92">
      <g>
       <use style="stroke:#000000;stroke-width:0.5;" x="303.042614" xlink:href="#m6e54c6c922" y="104.3352"/>
      </g>
     </g>
    </g>
    <g id="ytick_19">
     <g id="line2d_93">
      <g>
       <use style="stroke:#000000;stroke-width:0.5;" x="49.40625" xlink:href="#mc0acdf275f" y="92.6208"/>
      </g>
     </g>
     <g id="line2d_94">
      <g>
       <use style="stroke:#000000;stroke-width:0.5;" x="303.042614" xlink:href="#m6e54c6c922" y="92.6208"/>
      </g>
     </g>
    </g>
    <g id="ytick_20">
     <g id="line2d_95">
      <g>
       <use style="stroke:#000000;stroke-width:0.5;" x="49.40625" xlink:href="#mc0acdf275f" y="80.9064"/>
      </g>
     </g>
     <g id="line2d_96">
      <g>
       <use style="stroke:#000000;stroke-width:0.5;" x="303.042614" xlink:href="#m6e54c6c922" y="80.9064"/>
      </g>
     </g>
    </g>
    <g id="ytick_21">
     <g id="line2d_97">
      <g>
       <use style="stroke:#000000;stroke-width:0.5;" x="49.40625" xlink:href="#mc0acdf275f" y="57.4776"/>
      </g>
     </g>
     <g id="line2d_98">
      <g>
       <use style="stroke:#000000;stroke-width:0.5;" x="303.042614" xlink:href="#m6e54c6c922" y="57.4776"/>
      </g>
     </g>
    </g>
    <g id="ytick_22">
     <g id="line2d_99">
      <g>
       <use style="stroke:#000000;stroke-width:0.5;" x="49.40625" xlink:href="#mc0acdf275f" y="45.7632"/>
      </g>
     </g>
     <g id="line2d_100">
      <g>
       <use style="stroke:#000000;stroke-width:0.5;" x="303.042614" xlink:href="#m6e54c6c922" y="45.7632"/>
      </g>
     </g>
    </g>
    <g id="ytick_23">
     <g id="line2d_101">
      <g>
       <use style="stroke:#000000;stroke-width:0.5;" x="49.40625" xlink:href="#mc0acdf275f" y="34.0488"/>
      </g>
     </g>
     <g id="line2d_102">
      <g>
       <use style="stroke:#000000;stroke-width:0.5;" x="303.042614" xlink:href="#m6e54c6c922" y="34.0488"/>
      </g>
     </g>
    </g>
    <g id="ytick_24">
     <g id="line2d_103">
      <g>
       <use style="stroke:#000000;stroke-width:0.5;" x="49.40625" xlink:href="#mc0acdf275f" y="22.3344"/>
      </g>
     </g>
     <g id="line2d_104">
      <g>
       <use style="stroke:#000000;stroke-width:0.5;" x="303.042614" xlink:href="#m6e54c6c922" y="22.3344"/>
      </g>
     </g>
    </g>
    <g id="text_12">
     <!-- Test Accuracy in Percent -->
     <g transform="translate(11.05625 205.173438)rotate(-90)scale(0.1 -0.1)">
      <defs>
       <path d="M 19.09375 0 
L 19.09375 5.171875 
L 28.421875 5.171875 
L 28.421875 67.09375 
L 6.984375 67.09375 
L 6.984375 55.71875 
L 0.984375 55.71875 
L 0.984375 72.90625 
L 65.71875 72.90625 
L 65.71875 55.71875 
L 59.71875 55.71875 
L 59.71875 67.09375 
L 38.28125 67.09375 
L 38.28125 5.171875 
L 47.609375 5.171875 
L 47.609375 0 
z
" id="DejaVuSerif-84"/>
       <path d="M 20.015625 26.421875 
L 46.78125 26.421875 
L 33.40625 61.078125 
z
M -0.59375 0 
L -0.59375 5.171875 
L 5.8125 5.171875 
L 31.78125 72.90625 
L 39.984375 72.90625 
L 66.015625 5.171875 
L 73.1875 5.171875 
L 73.1875 0 
L 46.6875 0 
L 46.6875 5.171875 
L 54.78125 5.171875 
L 48.6875 21.1875 
L 18.015625 21.1875 
L 11.921875 5.171875 
L 19.921875 5.171875 
L 19.921875 0 
z
" id="DejaVuSerif-65"/>
       <path d="M 39.796875 16.3125 
L 39.796875 27.296875 
L 28.21875 27.296875 
Q 21.53125 27.296875 18.25 24.40625 
Q 14.984375 21.53125 14.984375 15.578125 
Q 14.984375 10.15625 18.296875 6.984375 
Q 21.625 3.8125 27.296875 3.8125 
Q 32.90625 3.8125 36.34375 7.28125 
Q 39.796875 10.75 39.796875 16.3125 
z
M 48.78125 32.421875 
L 48.78125 5.171875 
L 56.78125 5.171875 
L 56.78125 0 
L 39.796875 0 
L 39.796875 5.609375 
Q 36.8125 2 32.90625 0.28125 
Q 29 -1.421875 23.78125 -1.421875 
Q 15.140625 -1.421875 10.0625 3.171875 
Q 4.984375 7.765625 4.984375 15.578125 
Q 4.984375 23.640625 10.796875 28.078125 
Q 16.609375 32.515625 27.203125 32.515625 
L 39.796875 32.515625 
L 39.796875 36.078125 
Q 39.796875 42 36.203125 45.234375 
Q 32.625 48.484375 26.125 48.484375 
Q 20.75 48.484375 17.578125 46.046875 
Q 14.40625 43.609375 13.625 38.8125 
L 8.984375 38.8125 
L 8.984375 49.3125 
Q 13.671875 51.3125 18.09375 52.3125 
Q 22.515625 53.328125 26.703125 53.328125 
Q 37.5 53.328125 43.140625 47.96875 
Q 48.78125 42.625 48.78125 32.421875 
z
" id="DejaVuSerif-97"/>
       <path d="M 21.578125 -9.515625 
L 25 -0.875 
L 5.609375 46.6875 
L -0.296875 46.6875 
L -0.296875 51.90625 
L 23.578125 51.90625 
L 23.578125 46.6875 
L 15.28125 46.6875 
L 29.890625 10.984375 
L 44.484375 46.6875 
L 36.71875 46.6875 
L 36.71875 51.90625 
L 56.203125 51.90625 
L 56.203125 46.6875 
L 50.390625 46.6875 
L 26.609375 -11.71875 
Q 24.171875 -17.78125 21.1875 -20 
Q 18.21875 -22.21875 12.796875 -22.21875 
Q 10.5 -22.21875 8.078125 -21.828125 
Q 5.671875 -21.4375 3.21875 -20.703125 
L 3.21875 -10.796875 
L 7.8125 -10.796875 
Q 8.109375 -14.109375 9.5 -15.546875 
Q 10.890625 -17 13.8125 -17 
Q 16.5 -17 18.140625 -15.5 
Q 19.78125 -14.015625 21.578125 -9.515625 
z
" id="DejaVuSerif-121"/>
      </defs>
      <use xlink:href="#DejaVuSerif-84"/>
      <use x="58.949219" xlink:href="#DejaVuSerif-101"/>
      <use x="118.128906" xlink:href="#DejaVuSerif-115"/>
      <use x="169.447266" xlink:href="#DejaVuSerif-116"/>
      <use x="209.632812" xlink:href="#DejaVuSerif-32"/>
      <use x="241.419922" xlink:href="#DejaVuSerif-65"/>
      <use x="313.636719" xlink:href="#DejaVuSerif-99"/>
      <use x="369.642578" xlink:href="#DejaVuSerif-99"/>
      <use x="425.648438" xlink:href="#DejaVuSerif-117"/>
      <use x="490.052734" xlink:href="#DejaVuSerif-114"/>
      <use x="537.855469" xlink:href="#DejaVuSerif-97"/>
      <use x="597.474609" xlink:href="#DejaVuSerif-99"/>
      <use x="653.480469" xlink:href="#DejaVuSerif-121"/>
      <use x="709.974609" xlink:href="#DejaVuSerif-32"/>
      <use x="741.761719" xlink:href="#DejaVuSerif-105"/>
      <use x="773.744141" xlink:href="#DejaVuSerif-110"/>
      <use x="838.148438" xlink:href="#DejaVuSerif-32"/>
      <use x="869.935547" xlink:href="#DejaVuSerif-80"/>
      <use x="932.720703" xlink:href="#DejaVuSerif-101"/>
      <use x="991.900391" xlink:href="#DejaVuSerif-114"/>
      <use x="1039.703125" xlink:href="#DejaVuSerif-99"/>
      <use x="1095.708984" xlink:href="#DejaVuSerif-101"/>
      <use x="1154.888672" xlink:href="#DejaVuSerif-110"/>
      <use x="1219.292969" xlink:href="#DejaVuSerif-116"/>
     </g>
    </g>
   </g>
   <g id="line2d_105">
    <path clip-path="url(#p4f973f2411)" d="M 60.935176 268.2 
L 291.513688 16.2 
" style="fill:none;stroke:#0c5da5;stroke-linecap:square;"/>
   </g>
   <g id="patch_3">
    <path d="M 49.40625 280.8 
L 49.40625 3.6 
" style="fill:none;stroke:#000000;stroke-linecap:square;stroke-linejoin:miter;stroke-width:0.5;"/>
   </g>
   <g id="patch_4">
    <path d="M 303.042614 280.8 
L 303.042614 3.6 
" style="fill:none;stroke:#000000;stroke-linecap:square;stroke-linejoin:miter;stroke-width:0.5;"/>
   </g>
   <g id="patch_5">
    <path d="M 49.40625 280.8 
L 303.042614 280.8 
" style="fill:none;stroke:#000000;stroke-linecap:square;stroke-linejoin:miter;stroke-width:0.5;"/>
   </g>
   <g id="patch_6">
    <path d="M 49.40625 3.6 
L 303.042614 3.6 
" style="fill:none;stroke:#000000;stroke-linecap:square;stroke-linejoin:miter;stroke-width:0.5;"/>
   </g>
   <g id="legend_1">
    <g id="patch_7">
     <path d="M 56.40625 26.420313 
L 159.403125 26.420313 
Q 161.403125 26.420313 161.403125 24.420313 
L 161.403125 10.6 
Q 161.403125 8.6 159.403125 8.6 
L 56.40625 8.6 
Q 54.40625 8.6 54.40625 10.6 
L 54.40625 24.420313 
Q 54.40625 26.420313 56.40625 26.420313 
z
" style="fill:#ffffff;stroke:#cccccc;stroke-linejoin:miter;"/>
    </g>
    <g id="line2d_106">
     <path d="M 58.40625 16.698438 
L 78.40625 16.698438 
" style="fill:none;stroke:#0c5da5;stroke-linecap:square;"/>
    </g>
    <g id="line2d_107"/>
    <g id="text_13">
     <!-- Test Accuracy -->
     <g transform="translate(86.40625 20.198438)scale(0.1 -0.1)">
      <use xlink:href="#DejaVuSerif-84"/>
      <use x="58.949219" xlink:href="#DejaVuSerif-101"/>
      <use x="118.128906" xlink:href="#DejaVuSerif-115"/>
      <use x="169.447266" xlink:href="#DejaVuSerif-116"/>
      <use x="209.632812" xlink:href="#DejaVuSerif-32"/>
      <use x="241.419922" xlink:href="#DejaVuSerif-65"/>
      <use x="313.636719" xlink:href="#DejaVuSerif-99"/>
      <use x="369.642578" xlink:href="#DejaVuSerif-99"/>
      <use x="425.648438" xlink:href="#DejaVuSerif-117"/>
      <use x="490.052734" xlink:href="#DejaVuSerif-114"/>
      <use x="537.855469" xlink:href="#DejaVuSerif-97"/>
      <use x="597.474609" xlink:href="#DejaVuSerif-99"/>
      <use x="653.480469" xlink:href="#DejaVuSerif-121"/>
     </g>
    </g>
   </g>
  </g>
  <g id="text_14">
   <g id="patch_8">
    <path d="M 337.40625 144.971719 
L 642.27 144.971719 
Q 644.97 144.971719 644.97 142.271719 
L 644.97 92.36475 
Q 644.97 89.66475 642.27 89.66475 
L 337.40625 89.66475 
Q 334.70625 89.66475 334.70625 92.36475 
L 334.70625 142.271719 
Q 334.70625 144.971719 337.40625 144.971719 
z
" style="fill:#808080;opacity:0.5;stroke:#000000;stroke-linejoin:miter;"/>
   </g>
   <!-- model: rational_resnet20_cifar10, dataset: SVHN, batch size: 128,  -->
   <g transform="translate(337.40625 99.453656)scale(0.09 -0.09)">
    <defs>
     <path d="M 51.8125 41.796875 
Q 54.390625 47.515625 58.421875 50.421875 
Q 62.453125 53.328125 67.828125 53.328125 
Q 75.984375 53.328125 79.984375 48.265625 
Q 83.984375 43.21875 83.984375 33.015625 
L 83.984375 5.171875 
L 92.09375 5.171875 
L 92.09375 0 
L 67.1875 0 
L 67.1875 5.171875 
L 75 5.171875 
L 75 31.984375 
Q 75 39.9375 72.65625 43.3125 
Q 70.3125 46.6875 64.890625 46.6875 
Q 58.890625 46.6875 55.734375 42.140625 
Q 52.59375 37.59375 52.59375 28.90625 
L 52.59375 5.171875 
L 60.40625 5.171875 
L 60.40625 0 
L 35.796875 0 
L 35.796875 5.171875 
L 43.609375 5.171875 
L 43.609375 32.328125 
Q 43.609375 40.09375 41.265625 43.390625 
Q 38.921875 46.6875 33.5 46.6875 
Q 27.484375 46.6875 24.328125 42.140625 
Q 21.1875 37.59375 21.1875 28.90625 
L 21.1875 5.171875 
L 29 5.171875 
L 29 0 
L 4.109375 0 
L 4.109375 5.171875 
L 12.203125 5.171875 
L 12.203125 46.78125 
L 3.609375 46.78125 
L 3.609375 51.90625 
L 21.1875 51.90625 
L 21.1875 42.671875 
Q 23.6875 47.859375 27.53125 50.59375 
Q 31.390625 53.328125 36.28125 53.328125 
Q 42.328125 53.328125 46.375 50.3125 
Q 50.4375 47.3125 51.8125 41.796875 
z
" id="DejaVuSerif-109"/>
     <path d="M 20.515625 5.171875 
L 29 5.171875 
L 29 0 
L 2.875 0 
L 2.875 5.171875 
L 11.53125 5.171875 
L 11.53125 70.796875 
L 2.875 70.796875 
L 2.875 75.984375 
L 20.515625 75.984375 
z
" id="DejaVuSerif-108"/>
     <path d="M 10.40625 5.078125 
Q 10.40625 7.8125 12.28125 9.71875 
Q 14.15625 11.625 16.890625 11.625 
Q 19.625 11.625 21.5 9.71875 
Q 23.390625 7.8125 23.390625 5.078125 
Q 23.390625 2.34375 21.53125 0.453125 
Q 19.671875 -1.421875 16.890625 -1.421875 
Q 14.109375 -1.421875 12.25 0.453125 
Q 10.40625 2.34375 10.40625 5.078125 
z
M 10.40625 36.921875 
Q 10.40625 39.65625 12.28125 41.53125 
Q 14.15625 43.40625 16.890625 43.40625 
Q 19.671875 43.40625 21.53125 41.546875 
Q 23.390625 39.703125 23.390625 36.921875 
Q 23.390625 34.125 21.53125 32.265625 
Q 19.671875 30.421875 16.890625 30.421875 
Q 14.15625 30.421875 12.28125 32.296875 
Q 10.40625 34.1875 10.40625 36.921875 
z
" id="DejaVuSerif-58"/>
     <path d="M 50 -19.671875 
L 50 -23.578125 
L 0 -23.578125 
L 0 -19.671875 
z
" id="DejaVuSerif-95"/>
     <path d="M 3.609375 -9.71875 
Q 8.203125 -6.34375 10.34375 -1.78125 
Q 12.5 2.78125 12.5 9.28125 
L 12.5 11.078125 
L 22.125 11.078125 
Q 21.734375 2.734375 18.1875 -3.25 
Q 14.65625 -9.234375 7.515625 -13.625 
z
" id="DejaVuSerif-44"/>
     <path d="M 9.28125 3.515625 
L 9.28125 20.125 
L 14.890625 20.0625 
Q 15.140625 11.765625 19.703125 7.78125 
Q 24.265625 3.8125 33.59375 3.8125 
Q 42.28125 3.8125 46.84375 7.25 
Q 51.421875 10.6875 51.421875 17.28125 
Q 51.421875 22.5625 48.65625 25.390625 
Q 45.90625 28.21875 37.015625 30.90625 
L 27.390625 33.796875 
Q 16.9375 36.96875 12.671875 41.703125 
Q 8.40625 46.4375 8.40625 54.6875 
Q 8.40625 63.96875 14.984375 69.09375 
Q 21.578125 74.21875 33.5 74.21875 
Q 38.578125 74.21875 44.625 73.109375 
Q 50.6875 72.015625 57.515625 69.921875 
L 57.515625 54.390625 
L 52 54.390625 
Q 51.171875 62.109375 46.84375 65.546875 
Q 42.53125 69 33.6875 69 
Q 25.984375 69 21.953125 65.84375 
Q 17.921875 62.703125 17.921875 56.6875 
Q 17.921875 51.46875 20.9375 48.484375 
Q 23.96875 45.515625 33.796875 42.578125 
L 42.828125 39.890625 
Q 52.734375 36.921875 56.953125 32.296875 
Q 61.1875 27.6875 61.1875 19.921875 
Q 61.1875 9.328125 54.390625 3.953125 
Q 47.609375 -1.421875 34.1875 -1.421875 
Q 28.171875 -1.421875 21.9375 -0.1875 
Q 15.71875 1.03125 9.28125 3.515625 
z
" id="DejaVuSerif-83"/>
     <path d="M 17.484375 67.671875 
L 39.015625 11.71875 
L 60.5 67.671875 
L 52.296875 67.671875 
L 52.296875 72.90625 
L 73.6875 72.90625 
L 73.6875 67.671875 
L 66.609375 67.671875 
L 40.578125 0 
L 32.171875 0 
L 6.296875 67.671875 
L -0.984375 67.671875 
L -0.984375 72.90625 
L 25.59375 72.90625 
L 25.59375 67.671875 
z
" id="DejaVuSerif-86"/>
     <path d="M 5.515625 0 
L 5.515625 5.171875 
L 14.796875 5.171875 
L 14.796875 67.671875 
L 5.515625 67.671875 
L 5.515625 72.90625 
L 33.984375 72.90625 
L 33.984375 67.671875 
L 24.703125 67.671875 
L 24.703125 42.484375 
L 62.5 42.484375 
L 62.5 67.671875 
L 53.21875 67.671875 
L 53.21875 72.90625 
L 81.6875 72.90625 
L 81.6875 67.671875 
L 72.40625 67.671875 
L 72.40625 5.171875 
L 81.6875 5.171875 
L 81.6875 0 
L 53.21875 0 
L 53.21875 5.171875 
L 62.5 5.171875 
L 62.5 36.53125 
L 24.703125 36.53125 
L 24.703125 5.171875 
L 33.984375 5.171875 
L 33.984375 0 
z
" id="DejaVuSerif-72"/>
     <path d="M 4.890625 0 
L 4.890625 5.171875 
L 14.703125 5.171875 
L 14.703125 67.671875 
L 4.890625 67.671875 
L 4.890625 72.90625 
L 23.578125 72.90625 
L 67.28125 15.375 
L 67.28125 67.671875 
L 57.515625 67.671875 
L 57.515625 72.90625 
L 83.109375 72.90625 
L 83.109375 67.671875 
L 73.296875 67.671875 
L 73.296875 -1.421875 
L 67.390625 -1.421875 
L 20.703125 60.015625 
L 20.703125 5.171875 
L 30.515625 5.171875 
L 30.515625 0 
z
" id="DejaVuSerif-78"/>
     <path d="M 11.53125 5.171875 
L 11.53125 70.796875 
L 2.875 70.796875 
L 2.875 75.984375 
L 20.515625 75.984375 
L 20.515625 43.796875 
Q 23.140625 48.6875 27.21875 51 
Q 31.296875 53.328125 37.3125 53.328125 
Q 46.875 53.328125 52.921875 45.75 
Q 58.984375 38.1875 58.984375 25.984375 
Q 58.984375 13.765625 52.921875 6.171875 
Q 46.875 -1.421875 37.3125 -1.421875 
Q 31.296875 -1.421875 27.21875 0.890625 
Q 23.140625 3.21875 20.515625 8.109375 
L 20.515625 0 
L 2.875 0 
L 2.875 5.171875 
z
M 20.515625 23.390625 
Q 20.515625 14.015625 24.09375 9.109375 
Q 27.6875 4.203125 34.515625 4.203125 
Q 41.40625 4.203125 44.9375 9.71875 
Q 48.484375 15.234375 48.484375 25.984375 
Q 48.484375 36.765625 44.9375 42.234375 
Q 41.40625 47.703125 34.515625 47.703125 
Q 27.6875 47.703125 24.09375 42.765625 
Q 20.515625 37.84375 20.515625 28.515625 
z
" id="DejaVuSerif-98"/>
     <path d="M 4 0 
L 4 4.203125 
L 36.53125 46.6875 
L 10.796875 46.6875 
L 10.796875 37.703125 
L 5.609375 37.703125 
L 5.609375 51.90625 
L 48.09375 51.90625 
L 48.09375 47.703125 
L 15.578125 5.171875 
L 43.796875 5.171875 
L 43.796875 14.59375 
L 49.03125 14.59375 
L 49.03125 0 
z
" id="DejaVuSerif-122"/>
     <path d="M 46.578125 19.921875 
Q 46.578125 27.734375 42.6875 32.046875 
Q 38.8125 36.375 31.78125 36.375 
Q 24.75 36.375 20.875 32.046875 
Q 17 27.734375 17 19.921875 
Q 17 12.0625 20.875 7.734375 
Q 24.75 3.421875 31.78125 3.421875 
Q 38.8125 3.421875 42.6875 7.734375 
Q 46.578125 12.0625 46.578125 19.921875 
z
M 44.578125 55.328125 
Q 44.578125 61.96875 41.203125 65.671875 
Q 37.84375 69.390625 31.78125 69.390625 
Q 25.78125 69.390625 22.390625 65.671875 
Q 19 61.96875 19 55.328125 
Q 19 48.640625 22.390625 44.921875 
Q 25.78125 41.21875 31.78125 41.21875 
Q 37.84375 41.21875 41.203125 44.921875 
Q 44.578125 48.640625 44.578125 55.328125 
z
M 39.3125 38.8125 
Q 47.609375 37.703125 52.25 32.6875 
Q 56.890625 27.6875 56.890625 19.921875 
Q 56.890625 9.671875 50.390625 4.125 
Q 43.890625 -1.421875 31.78125 -1.421875 
Q 19.734375 -1.421875 13.203125 4.125 
Q 6.6875 9.671875 6.6875 19.921875 
Q 6.6875 27.6875 11.328125 32.6875 
Q 15.96875 37.703125 24.3125 38.8125 
Q 16.9375 40.140625 13 44.40625 
Q 9.078125 48.6875 9.078125 55.328125 
Q 9.078125 64.109375 15.125 69.15625 
Q 21.1875 74.21875 31.78125 74.21875 
Q 42.390625 74.21875 48.4375 69.15625 
Q 54.5 64.109375 54.5 55.328125 
Q 54.5 48.6875 50.5625 44.40625 
Q 46.625 40.140625 39.3125 38.8125 
z
" id="DejaVuSerif-56"/>
    </defs>
    <use xlink:href="#DejaVuSerif-109"/>
    <use x="94.824219" xlink:href="#DejaVuSerif-111"/>
    <use x="155.029297" xlink:href="#DejaVuSerif-100"/>
    <use x="219.042969" xlink:href="#DejaVuSerif-101"/>
    <use x="278.222656" xlink:href="#DejaVuSerif-108"/>
    <use x="310.205078" xlink:href="#DejaVuSerif-58"/>
    <use x="343.896484" xlink:href="#DejaVuSerif-32"/>
    <use x="375.683594" xlink:href="#DejaVuSerif-114"/>
    <use x="423.486328" xlink:href="#DejaVuSerif-97"/>
    <use x="483.105469" xlink:href="#DejaVuSerif-116"/>
    <use x="523.291016" xlink:href="#DejaVuSerif-105"/>
    <use x="555.273438" xlink:href="#DejaVuSerif-111"/>
    <use x="615.478516" xlink:href="#DejaVuSerif-110"/>
    <use x="679.882812" xlink:href="#DejaVuSerif-97"/>
    <use x="739.501953" xlink:href="#DejaVuSerif-108"/>
    <use x="771.484375" xlink:href="#DejaVuSerif-95"/>
    <use x="821.484375" xlink:href="#DejaVuSerif-114"/>
    <use x="869.287109" xlink:href="#DejaVuSerif-101"/>
    <use x="928.466797" xlink:href="#DejaVuSerif-115"/>
    <use x="979.785156" xlink:href="#DejaVuSerif-110"/>
    <use x="1044.189453" xlink:href="#DejaVuSerif-101"/>
    <use x="1103.369141" xlink:href="#DejaVuSerif-116"/>
    <use x="1143.554688" xlink:href="#DejaVuSerif-50"/>
    <use x="1207.177734" xlink:href="#DejaVuSerif-48"/>
    <use x="1270.800781" xlink:href="#DejaVuSerif-95"/>
    <use x="1320.800781" xlink:href="#DejaVuSerif-99"/>
    <use x="1376.806641" xlink:href="#DejaVuSerif-105"/>
    <use x="1408.789062" xlink:href="#DejaVuSerif-102"/>
    <use x="1445.800781" xlink:href="#DejaVuSerif-97"/>
    <use x="1505.419922" xlink:href="#DejaVuSerif-114"/>
    <use x="1553.222656" xlink:href="#DejaVuSerif-49"/>
    <use x="1616.845703" xlink:href="#DejaVuSerif-48"/>
    <use x="1680.46875" xlink:href="#DejaVuSerif-44"/>
    <use x="1712.255859" xlink:href="#DejaVuSerif-32"/>
    <use x="1744.042969" xlink:href="#DejaVuSerif-100"/>
    <use x="1808.056641" xlink:href="#DejaVuSerif-97"/>
    <use x="1867.675781" xlink:href="#DejaVuSerif-116"/>
    <use x="1907.861328" xlink:href="#DejaVuSerif-97"/>
    <use x="1967.480469" xlink:href="#DejaVuSerif-115"/>
    <use x="2018.798828" xlink:href="#DejaVuSerif-101"/>
    <use x="2077.978516" xlink:href="#DejaVuSerif-116"/>
    <use x="2118.164062" xlink:href="#DejaVuSerif-58"/>
    <use x="2151.855469" xlink:href="#DejaVuSerif-32"/>
    <use x="2183.642578" xlink:href="#DejaVuSerif-83"/>
    <use x="2252.148438" xlink:href="#DejaVuSerif-86"/>
    <use x="2324.365234" xlink:href="#DejaVuSerif-72"/>
    <use x="2411.572266" xlink:href="#DejaVuSerif-78"/>
    <use x="2492.697266" xlink:href="#DejaVuSerif-44"/>
    <use x="2524.484375" xlink:href="#DejaVuSerif-32"/>
    <use x="2556.271484" xlink:href="#DejaVuSerif-98"/>
    <use x="2620.285156" xlink:href="#DejaVuSerif-97"/>
    <use x="2679.904297" xlink:href="#DejaVuSerif-116"/>
    <use x="2720.089844" xlink:href="#DejaVuSerif-99"/>
    <use x="2776.095703" xlink:href="#DejaVuSerif-104"/>
    <use x="2840.5" xlink:href="#DejaVuSerif-32"/>
    <use x="2872.287109" xlink:href="#DejaVuSerif-115"/>
    <use x="2923.605469" xlink:href="#DejaVuSerif-105"/>
    <use x="2955.587891" xlink:href="#DejaVuSerif-122"/>
    <use x="3008.273438" xlink:href="#DejaVuSerif-101"/>
    <use x="3067.453125" xlink:href="#DejaVuSerif-58"/>
    <use x="3101.144531" xlink:href="#DejaVuSerif-32"/>
    <use x="3132.931641" xlink:href="#DejaVuSerif-49"/>
    <use x="3196.554688" xlink:href="#DejaVuSerif-50"/>
    <use x="3260.177734" xlink:href="#DejaVuSerif-56"/>
    <use x="3323.800781" xlink:href="#DejaVuSerif-44"/>
    <use x="3355.587891" xlink:href="#DejaVuSerif-32"/>
   </g>
   <!-- number of iterative pruning epochs: 2,  -->
   <g transform="translate(337.40625 109.782)scale(0.09 -0.09)">
    <defs>
     <path d="M 24.703125 0 
L 5.609375 46.6875 
L -0.296875 46.6875 
L -0.296875 51.90625 
L 23.578125 51.90625 
L 23.578125 46.6875 
L 15.28125 46.6875 
L 29.890625 10.984375 
L 44.484375 46.6875 
L 36.71875 46.6875 
L 36.71875 51.90625 
L 56.203125 51.90625 
L 56.203125 46.6875 
L 50.390625 46.6875 
L 31.296875 0 
z
" id="DejaVuSerif-118"/>
     <path d="M 20.515625 28.515625 
L 20.515625 23.390625 
Q 20.515625 14.015625 24.09375 9.109375 
Q 27.6875 4.203125 34.515625 4.203125 
Q 41.40625 4.203125 44.9375 9.71875 
Q 48.484375 15.234375 48.484375 25.984375 
Q 48.484375 36.765625 44.9375 42.234375 
Q 41.40625 47.703125 34.515625 47.703125 
Q 27.6875 47.703125 24.09375 42.765625 
Q 20.515625 37.84375 20.515625 28.515625 
z
M 11.53125 46.6875 
L 2.875 46.6875 
L 2.875 51.90625 
L 20.515625 51.90625 
L 20.515625 43.796875 
Q 23.140625 48.6875 27.21875 51 
Q 31.296875 53.328125 37.3125 53.328125 
Q 46.875 53.328125 52.921875 45.75 
Q 58.984375 38.1875 58.984375 25.984375 
Q 58.984375 13.765625 52.921875 6.171875 
Q 46.875 -1.421875 37.3125 -1.421875 
Q 31.296875 -1.421875 27.21875 0.890625 
Q 23.140625 3.21875 20.515625 8.109375 
L 20.515625 -15.578125 
L 29 -15.578125 
L 29 -20.796875 
L 2.875 -20.796875 
L 2.875 -15.578125 
L 11.53125 -15.578125 
z
" id="DejaVuSerif-112"/>
    </defs>
    <use xlink:href="#DejaVuSerif-110"/>
    <use x="64.404297" xlink:href="#DejaVuSerif-117"/>
    <use x="128.808594" xlink:href="#DejaVuSerif-109"/>
    <use x="223.632812" xlink:href="#DejaVuSerif-98"/>
    <use x="287.646484" xlink:href="#DejaVuSerif-101"/>
    <use x="346.826172" xlink:href="#DejaVuSerif-114"/>
    <use x="394.628906" xlink:href="#DejaVuSerif-32"/>
    <use x="426.416016" xlink:href="#DejaVuSerif-111"/>
    <use x="486.621094" xlink:href="#DejaVuSerif-102"/>
    <use x="523.632812" xlink:href="#DejaVuSerif-32"/>
    <use x="555.419922" xlink:href="#DejaVuSerif-105"/>
    <use x="587.402344" xlink:href="#DejaVuSerif-116"/>
    <use x="627.587891" xlink:href="#DejaVuSerif-101"/>
    <use x="686.767578" xlink:href="#DejaVuSerif-114"/>
    <use x="734.570312" xlink:href="#DejaVuSerif-97"/>
    <use x="794.189453" xlink:href="#DejaVuSerif-116"/>
    <use x="834.375" xlink:href="#DejaVuSerif-105"/>
    <use x="866.357422" xlink:href="#DejaVuSerif-118"/>
    <use x="922.851562" xlink:href="#DejaVuSerif-101"/>
    <use x="982.03125" xlink:href="#DejaVuSerif-32"/>
    <use x="1013.818359" xlink:href="#DejaVuSerif-112"/>
    <use x="1077.832031" xlink:href="#DejaVuSerif-114"/>
    <use x="1125.634766" xlink:href="#DejaVuSerif-117"/>
    <use x="1190.039062" xlink:href="#DejaVuSerif-110"/>
    <use x="1254.443359" xlink:href="#DejaVuSerif-105"/>
    <use x="1286.425781" xlink:href="#DejaVuSerif-110"/>
    <use x="1350.830078" xlink:href="#DejaVuSerif-103"/>
    <use x="1414.84375" xlink:href="#DejaVuSerif-32"/>
    <use x="1446.630859" xlink:href="#DejaVuSerif-101"/>
    <use x="1505.810547" xlink:href="#DejaVuSerif-112"/>
    <use x="1569.824219" xlink:href="#DejaVuSerif-111"/>
    <use x="1630.029297" xlink:href="#DejaVuSerif-99"/>
    <use x="1686.035156" xlink:href="#DejaVuSerif-104"/>
    <use x="1750.439453" xlink:href="#DejaVuSerif-115"/>
    <use x="1801.757812" xlink:href="#DejaVuSerif-58"/>
    <use x="1835.449219" xlink:href="#DejaVuSerif-32"/>
    <use x="1867.236328" xlink:href="#DejaVuSerif-50"/>
    <use x="1930.859375" xlink:href="#DejaVuSerif-44"/>
    <use x="1962.646484" xlink:href="#DejaVuSerif-32"/>
   </g>
   <!-- number of training epochs per pruning epoch: 1,  -->
   <g transform="translate(337.40625 119.988)scale(0.09 -0.09)">
    <use xlink:href="#DejaVuSerif-110"/>
    <use x="64.404297" xlink:href="#DejaVuSerif-117"/>
    <use x="128.808594" xlink:href="#DejaVuSerif-109"/>
    <use x="223.632812" xlink:href="#DejaVuSerif-98"/>
    <use x="287.646484" xlink:href="#DejaVuSerif-101"/>
    <use x="346.826172" xlink:href="#DejaVuSerif-114"/>
    <use x="394.628906" xlink:href="#DejaVuSerif-32"/>
    <use x="426.416016" xlink:href="#DejaVuSerif-111"/>
    <use x="486.621094" xlink:href="#DejaVuSerif-102"/>
    <use x="523.632812" xlink:href="#DejaVuSerif-32"/>
    <use x="555.419922" xlink:href="#DejaVuSerif-116"/>
    <use x="595.605469" xlink:href="#DejaVuSerif-114"/>
    <use x="643.408203" xlink:href="#DejaVuSerif-97"/>
    <use x="703.027344" xlink:href="#DejaVuSerif-105"/>
    <use x="735.009766" xlink:href="#DejaVuSerif-110"/>
    <use x="799.414062" xlink:href="#DejaVuSerif-105"/>
    <use x="831.396484" xlink:href="#DejaVuSerif-110"/>
    <use x="895.800781" xlink:href="#DejaVuSerif-103"/>
    <use x="959.814453" xlink:href="#DejaVuSerif-32"/>
    <use x="991.601562" xlink:href="#DejaVuSerif-101"/>
    <use x="1050.78125" xlink:href="#DejaVuSerif-112"/>
    <use x="1114.794922" xlink:href="#DejaVuSerif-111"/>
    <use x="1175" xlink:href="#DejaVuSerif-99"/>
    <use x="1231.005859" xlink:href="#DejaVuSerif-104"/>
    <use x="1295.410156" xlink:href="#DejaVuSerif-115"/>
    <use x="1346.728516" xlink:href="#DejaVuSerif-32"/>
    <use x="1378.515625" xlink:href="#DejaVuSerif-112"/>
    <use x="1442.529297" xlink:href="#DejaVuSerif-101"/>
    <use x="1501.708984" xlink:href="#DejaVuSerif-114"/>
    <use x="1549.511719" xlink:href="#DejaVuSerif-32"/>
    <use x="1581.298828" xlink:href="#DejaVuSerif-112"/>
    <use x="1645.3125" xlink:href="#DejaVuSerif-114"/>
    <use x="1693.115234" xlink:href="#DejaVuSerif-117"/>
    <use x="1757.519531" xlink:href="#DejaVuSerif-110"/>
    <use x="1821.923828" xlink:href="#DejaVuSerif-105"/>
    <use x="1853.90625" xlink:href="#DejaVuSerif-110"/>
    <use x="1918.310547" xlink:href="#DejaVuSerif-103"/>
    <use x="1982.324219" xlink:href="#DejaVuSerif-32"/>
    <use x="2014.111328" xlink:href="#DejaVuSerif-101"/>
    <use x="2073.291016" xlink:href="#DejaVuSerif-112"/>
    <use x="2137.304688" xlink:href="#DejaVuSerif-111"/>
    <use x="2197.509766" xlink:href="#DejaVuSerif-99"/>
    <use x="2253.515625" xlink:href="#DejaVuSerif-104"/>
    <use x="2317.919922" xlink:href="#DejaVuSerif-58"/>
    <use x="2351.611328" xlink:href="#DejaVuSerif-32"/>
    <use x="2383.398438" xlink:href="#DejaVuSerif-49"/>
    <use x="2447.021484" xlink:href="#DejaVuSerif-44"/>
    <use x="2478.808594" xlink:href="#DejaVuSerif-32"/>
   </g>
   <!-- learning rate: 0.03, pruning percentage per epoch: 20.0,  -->
   <g transform="translate(337.40625 130.194)scale(0.09 -0.09)">
    <use xlink:href="#DejaVuSerif-108"/>
    <use x="31.982422" xlink:href="#DejaVuSerif-101"/>
    <use x="91.162109" xlink:href="#DejaVuSerif-97"/>
    <use x="150.78125" xlink:href="#DejaVuSerif-114"/>
    <use x="198.583984" xlink:href="#DejaVuSerif-110"/>
    <use x="262.988281" xlink:href="#DejaVuSerif-105"/>
    <use x="294.970703" xlink:href="#DejaVuSerif-110"/>
    <use x="359.375" xlink:href="#DejaVuSerif-103"/>
    <use x="423.388672" xlink:href="#DejaVuSerif-32"/>
    <use x="455.175781" xlink:href="#DejaVuSerif-114"/>
    <use x="502.978516" xlink:href="#DejaVuSerif-97"/>
    <use x="562.597656" xlink:href="#DejaVuSerif-116"/>
    <use x="602.783203" xlink:href="#DejaVuSerif-101"/>
    <use x="661.962891" xlink:href="#DejaVuSerif-58"/>
    <use x="695.654297" xlink:href="#DejaVuSerif-32"/>
    <use x="727.441406" xlink:href="#DejaVuSerif-48"/>
    <use x="791.064453" xlink:href="#DejaVuSerif-46"/>
    <use x="822.851562" xlink:href="#DejaVuSerif-48"/>
    <use x="886.474609" xlink:href="#DejaVuSerif-51"/>
    <use x="950.097656" xlink:href="#DejaVuSerif-44"/>
    <use x="981.884766" xlink:href="#DejaVuSerif-32"/>
    <use x="1013.671875" xlink:href="#DejaVuSerif-112"/>
    <use x="1077.685547" xlink:href="#DejaVuSerif-114"/>
    <use x="1125.488281" xlink:href="#DejaVuSerif-117"/>
    <use x="1189.892578" xlink:href="#DejaVuSerif-110"/>
    <use x="1254.296875" xlink:href="#DejaVuSerif-105"/>
    <use x="1286.279297" xlink:href="#DejaVuSerif-110"/>
    <use x="1350.683594" xlink:href="#DejaVuSerif-103"/>
    <use x="1414.697266" xlink:href="#DejaVuSerif-32"/>
    <use x="1446.484375" xlink:href="#DejaVuSerif-112"/>
    <use x="1510.498047" xlink:href="#DejaVuSerif-101"/>
    <use x="1569.677734" xlink:href="#DejaVuSerif-114"/>
    <use x="1617.480469" xlink:href="#DejaVuSerif-99"/>
    <use x="1673.486328" xlink:href="#DejaVuSerif-101"/>
    <use x="1732.666016" xlink:href="#DejaVuSerif-110"/>
    <use x="1797.070312" xlink:href="#DejaVuSerif-116"/>
    <use x="1837.255859" xlink:href="#DejaVuSerif-97"/>
    <use x="1896.875" xlink:href="#DejaVuSerif-103"/>
    <use x="1960.888672" xlink:href="#DejaVuSerif-101"/>
    <use x="2020.068359" xlink:href="#DejaVuSerif-32"/>
    <use x="2051.855469" xlink:href="#DejaVuSerif-112"/>
    <use x="2115.869141" xlink:href="#DejaVuSerif-101"/>
    <use x="2175.048828" xlink:href="#DejaVuSerif-114"/>
    <use x="2222.851562" xlink:href="#DejaVuSerif-32"/>
    <use x="2254.638672" xlink:href="#DejaVuSerif-101"/>
    <use x="2313.818359" xlink:href="#DejaVuSerif-112"/>
    <use x="2377.832031" xlink:href="#DejaVuSerif-111"/>
    <use x="2438.037109" xlink:href="#DejaVuSerif-99"/>
    <use x="2494.042969" xlink:href="#DejaVuSerif-104"/>
    <use x="2558.447266" xlink:href="#DejaVuSerif-58"/>
    <use x="2592.138672" xlink:href="#DejaVuSerif-32"/>
    <use x="2623.925781" xlink:href="#DejaVuSerif-50"/>
    <use x="2687.548828" xlink:href="#DejaVuSerif-48"/>
    <use x="2751.171875" xlink:href="#DejaVuSerif-46"/>
    <use x="2782.958984" xlink:href="#DejaVuSerif-48"/>
    <use x="2846.582031" xlink:href="#DejaVuSerif-44"/>
    <use x="2878.369141" xlink:href="#DejaVuSerif-32"/>
   </g>
   <!-- number of warm-up iterations: 2000 -->
   <g transform="translate(337.40625 140.4)scale(0.09 -0.09)">
    <defs>
     <path d="M 48 51.90625 
L 61.28125 11.375 
L 73 46.6875 
L 65.484375 46.6875 
L 65.484375 51.90625 
L 84.28125 51.90625 
L 84.28125 46.6875 
L 78.515625 46.6875 
L 63.09375 0 
L 55.609375 0 
L 42.828125 38.8125 
L 29.984375 0 
L 22.796875 0 
L 7.421875 46.6875 
L 1.609375 46.6875 
L 1.609375 51.90625 
L 25.09375 51.90625 
L 25.09375 46.6875 
L 16.703125 46.6875 
L 28.328125 11.375 
L 41.703125 51.90625 
z
" id="DejaVuSerif-119"/>
     <path d="M 4.390625 30.609375 
L 29.390625 30.609375 
L 29.390625 23 
L 4.390625 23 
z
" id="DejaVuSerif-45"/>
    </defs>
    <use xlink:href="#DejaVuSerif-110"/>
    <use x="64.404297" xlink:href="#DejaVuSerif-117"/>
    <use x="128.808594" xlink:href="#DejaVuSerif-109"/>
    <use x="223.632812" xlink:href="#DejaVuSerif-98"/>
    <use x="287.646484" xlink:href="#DejaVuSerif-101"/>
    <use x="346.826172" xlink:href="#DejaVuSerif-114"/>
    <use x="394.628906" xlink:href="#DejaVuSerif-32"/>
    <use x="426.416016" xlink:href="#DejaVuSerif-111"/>
    <use x="486.621094" xlink:href="#DejaVuSerif-102"/>
    <use x="523.632812" xlink:href="#DejaVuSerif-32"/>
    <use x="555.419922" xlink:href="#DejaVuSerif-119"/>
    <use x="641.015625" xlink:href="#DejaVuSerif-97"/>
    <use x="700.634766" xlink:href="#DejaVuSerif-114"/>
    <use x="748.4375" xlink:href="#DejaVuSerif-109"/>
    <use x="843.261719" xlink:href="#DejaVuSerif-45"/>
    <use x="877.050781" xlink:href="#DejaVuSerif-117"/>
    <use x="941.455078" xlink:href="#DejaVuSerif-112"/>
    <use x="1005.46875" xlink:href="#DejaVuSerif-32"/>
    <use x="1037.255859" xlink:href="#DejaVuSerif-105"/>
    <use x="1069.238281" xlink:href="#DejaVuSerif-116"/>
    <use x="1109.423828" xlink:href="#DejaVuSerif-101"/>
    <use x="1168.603516" xlink:href="#DejaVuSerif-114"/>
    <use x="1216.40625" xlink:href="#DejaVuSerif-97"/>
    <use x="1276.025391" xlink:href="#DejaVuSerif-116"/>
    <use x="1316.210938" xlink:href="#DejaVuSerif-105"/>
    <use x="1348.193359" xlink:href="#DejaVuSerif-111"/>
    <use x="1408.398438" xlink:href="#DejaVuSerif-110"/>
    <use x="1472.802734" xlink:href="#DejaVuSerif-115"/>
    <use x="1524.121094" xlink:href="#DejaVuSerif-58"/>
    <use x="1557.8125" xlink:href="#DejaVuSerif-32"/>
    <use x="1589.599609" xlink:href="#DejaVuSerif-50"/>
    <use x="1653.222656" xlink:href="#DejaVuSerif-48"/>
    <use x="1716.845703" xlink:href="#DejaVuSerif-48"/>
    <use x="1780.46875" xlink:href="#DejaVuSerif-48"/>
   </g>
  </g>
 </g>
 <defs>
  <clipPath id="p4f973f2411">
   <rect height="277.2" width="253.636364" x="49.40625" y="3.6"/>
  </clipPath>
 </defs>
</svg>
