<?xml version="1.0" encoding="utf-8" standalone="no"?>
<!DOCTYPE svg PUBLIC "-//W3C//DTD SVG 1.1//EN"
  "http://www.w3.org/Graphics/SVG/1.1/DTD/svg11.dtd">
<!-- Created with matplotlib (https://matplotlib.org/) -->
<svg height="313.270125pt" version="1.1" viewBox="0 0 595.103125 313.270125" width="595.103125pt" xmlns="http://www.w3.org/2000/svg" xmlns:xlink="http://www.w3.org/1999/xlink">
 <defs>
  <style type="text/css">
*{stroke-linecap:butt;stroke-linejoin:round;}
  </style>
 </defs>
 <g id="figure_1">
  <g id="patch_1">
   <path d="M 0 313.270125 
L 595.103125 313.270125 
L 595.103125 0 
L 0 0 
z
" style="fill:#ffffff;"/>
  </g>
  <g id="axes_1">
   <g id="patch_2">
    <path d="M 33.503125 254.16 
L 287.139489 254.16 
L 287.139489 3.6 
L 33.503125 3.6 
z
" style="fill:#ffffff;"/>
   </g>
   <g id="PolyCollection_1">
    <defs>
     <path d="M 29.649962 -255.540378 
L 29.649962 -250.871319 
L 47.730082 -257.082454 
L 68.33964 -263.370213 
L 90.235339 -263.582032 
L 112.219339 -266.395638 
L 133.314481 -267.116914 
L 152.835865 -268.724793 
L 170.383246 -266.867732 
L 185.793534 -265.354067 
L 199.078338 -264.976205 
L 210.359749 -261.604685 
L 219.827115 -260.892258 
L 227.695935 -258.843503 
L 234.186128 -251.480821 
L 239.508238 -247.779826 
L 243.850365 -241.739907 
L 247.378746 -235.632186 
L 250.236357 -225.532142 
L 252.546418 -212.948092 
L 254.407806 -194.086921 
L 255.908173 -178.469895 
L 257.113498 -171.203565 
L 257.113498 -176.782161 
L 257.113498 -176.782161 
L 255.908173 -191.901522 
L 254.407806 -206.067555 
L 252.546418 -219.139352 
L 250.236357 -230.991258 
L 247.378746 -240.088165 
L 243.850365 -246.296953 
L 239.508238 -251.690635 
L 234.186128 -255.911446 
L 227.695935 -261.613193 
L 219.827115 -263.886938 
L 210.359749 -265.808917 
L 199.078338 -268.78543 
L 185.793534 -269.580843 
L 170.383246 -270.429991 
L 152.835865 -272.545282 
L 133.314481 -272.520839 
L 112.219339 -269.144145 
L 90.235339 -266.93472 
L 68.33964 -265.96604 
L 47.730082 -259.862376 
L 29.649962 -255.540378 
z
" id="me403aa2cdf" style="stroke:#0c5da5;stroke-opacity:0.2;"/>
    </defs>
    <g clip-path="url(#pe738143284)">
     <use style="fill:#0c5da5;fill-opacity:0.2;stroke:#0c5da5;stroke-opacity:0.2;" x="0" xlink:href="#me403aa2cdf" y="313.270125"/>
    </g>
   </g>
   <g id="PolyCollection_2">
    <defs>
     <path d="M 29.649962 -267.018121 
L 29.649962 -262.351319 
L 47.730082 -268.516033 
L 68.33964 -273.337361 
L 90.235339 -272.783474 
L 112.219339 -272.579082 
L 133.314481 -272.357878 
L 152.835865 -272.264232 
L 170.383246 -272.808796 
L 185.793534 -271.509869 
L 199.078338 -270.445578 
L 210.359749 -268.541308 
L 219.827115 -267.158644 
L 227.695935 -264.352357 
L 234.186128 -260.158378 
L 239.508238 -257.455585 
L 243.850365 -254.225122 
L 247.378746 -249.236082 
L 250.236357 -243.72566 
L 252.546418 -235.175236 
L 254.407806 -227.536929 
L 255.908173 -220.635049 
L 257.113498 -209.34593 
L 258.082253 -193.896326 
L 258.85981 -178.658073 
L 259.483071 -176.40795 
L 259.483071 -187.230457 
L 259.483071 -187.230457 
L 258.85981 -187.214993 
L 258.082253 -199.496801 
L 257.113498 -215.104564 
L 255.908173 -225.744515 
L 254.407806 -235.704067 
L 252.546418 -239.934261 
L 250.236357 -246.583728 
L 247.378746 -252.000613 
L 243.850365 -259.244512 
L 239.508238 -263.902081 
L 234.186128 -266.222295 
L 227.695935 -268.85968 
L 219.827115 -271.586486 
L 210.359749 -272.25659 
L 199.078338 -276.101188 
L 185.793534 -275.8001 
L 170.383246 -275.446232 
L 152.835865 -277.44284 
L 133.314481 -276.576248 
L 112.219339 -277.904292 
L 90.235339 -275.945851 
L 68.33964 -275.033377 
L 47.730082 -273.08177 
L 29.649962 -267.018121 
z
" id="mf1c145231f" style="stroke:#00b945;stroke-opacity:0.2;"/>
    </defs>
    <g clip-path="url(#pe738143284)">
     <use style="fill:#00b945;fill-opacity:0.2;stroke:#00b945;stroke-opacity:0.2;" x="0" xlink:href="#mf1c145231f" y="313.270125"/>
    </g>
   </g>
   <g id="PolyCollection_3">
    <defs>
     <path d="M 29.649962 -268.575152 
L 29.649962 -264.589946 
L 47.730082 -260.633781 
L 68.33964 -269.621138 
L 90.235339 -274.440097 
L 112.219339 -274.277503 
L 133.314481 -262.473698 
L 152.835865 -271.002763 
L 170.383246 -271.467338 
L 185.793534 -269.025627 
L 199.078338 -67.490966 
L 210.359749 -271.466562 
L 219.827115 -61.527862 
L 227.695935 -258.882761 
L 234.186128 -146.050427 
L 239.508238 -242.250904 
L 243.850365 -245.425956 
L 247.378746 -84.355991 
L 250.236357 -241.060317 
L 252.546418 -232.220383 
L 254.407806 -227.045585 
L 255.908173 -216.077683 
L 257.113498 -183.326865 
L 258.082253 -184.882711 
L 258.85981 -165.876001 
L 258.85981 -196.32204 
L 258.85981 -196.32204 
L 258.082253 -197.987272 
L 257.113498 -215.80976 
L 255.908173 -221.744157 
L 254.407806 -232.198427 
L 252.546418 -244.769028 
L 250.236357 -250.025424 
L 247.378746 -251.965076 
L 243.850365 -261.367947 
L 239.508238 -265.121195 
L 234.186128 -270.485708 
L 227.695935 -271.455543 
L 219.827115 -274.992394 
L 210.359749 -276.360839 
L 199.078338 -278.251624 
L 185.793534 -275.420192 
L 170.383246 -276.256628 
L 152.835865 -276.54165 
L 133.314481 -278.845611 
L 112.219339 -278.033938 
L 90.235339 -278.967033 
L 68.33964 -276.14414 
L 47.730082 -275.162102 
L 29.649962 -268.575152 
z
" id="m9096719933" style="stroke:#ff9500;stroke-opacity:0.2;"/>
    </defs>
    <g clip-path="url(#pe738143284)">
     <use style="fill:#ff9500;fill-opacity:0.2;stroke:#ff9500;stroke-opacity:0.2;" x="0" xlink:href="#m9096719933" y="313.270125"/>
    </g>
   </g>
   <g id="matplotlib.axis_1">
    <g id="xtick_1">
     <g id="line2d_1">
      <path clip-path="url(#pe738143284)" d="M 47.729315 254.16 
L 47.729315 3.6 
" style="fill:none;stroke:#000000;stroke-dasharray:1.85,0.8;stroke-dashoffset:0;stroke-opacity:0.5;stroke-width:0.5;"/>
     </g>
     <g id="line2d_2">
      <defs>
       <path d="M 0 0 
L 0 -3 
" id="m2c4b54a78e" style="stroke:#000000;stroke-width:0.5;"/>
      </defs>
      <g>
       <use style="stroke:#000000;stroke-width:0.5;" x="47.729315" xlink:href="#m2c4b54a78e" y="254.16"/>
      </g>
     </g>
     <g id="line2d_3">
      <defs>
       <path d="M 0 0 
L 0 3 
" id="m1b75ce9086" style="stroke:#000000;stroke-width:0.5;"/>
      </defs>
      <g>
       <use style="stroke:#000000;stroke-width:0.5;" x="47.729315" xlink:href="#m1b75ce9086" y="3.6"/>
      </g>
     </g>
     <g id="text_1">
      <!-- 20 -->
      <defs>
       <path d="M 12.796875 55.515625 
L 7.328125 55.515625 
L 7.328125 68.5 
Q 12.546875 71.296875 17.84375 72.75 
Q 23.140625 74.21875 28.21875 74.21875 
Q 39.59375 74.21875 46.1875 68.703125 
Q 52.78125 63.1875 52.78125 53.71875 
Q 52.78125 43.015625 37.84375 28.125 
Q 36.671875 27 36.078125 26.421875 
L 17.671875 8.015625 
L 48.09375 8.015625 
L 48.09375 17 
L 53.8125 17 
L 53.8125 0 
L 6.78125 0 
L 6.78125 5.328125 
L 28.90625 27.390625 
Q 36.234375 34.71875 39.359375 40.84375 
Q 42.484375 46.96875 42.484375 53.71875 
Q 42.484375 61.078125 38.640625 65.234375 
Q 34.8125 69.390625 28.078125 69.390625 
Q 21.09375 69.390625 17.28125 65.921875 
Q 13.484375 62.453125 12.796875 55.515625 
z
" id="DejaVuSerif-50"/>
       <path d="M 31.78125 3.421875 
Q 39.265625 3.421875 42.96875 11.625 
Q 46.6875 19.828125 46.6875 36.375 
Q 46.6875 52.984375 42.96875 61.1875 
Q 39.265625 69.390625 31.78125 69.390625 
Q 24.3125 69.390625 20.59375 61.1875 
Q 16.890625 52.984375 16.890625 36.375 
Q 16.890625 19.828125 20.59375 11.625 
Q 24.3125 3.421875 31.78125 3.421875 
z
M 31.78125 -1.421875 
Q 19.921875 -1.421875 13.25 8.53125 
Q 6.59375 18.5 6.59375 36.375 
Q 6.59375 54.296875 13.25 64.25 
Q 19.921875 74.21875 31.78125 74.21875 
Q 43.703125 74.21875 50.34375 64.25 
Q 56.984375 54.296875 56.984375 36.375 
Q 56.984375 18.5 50.34375 8.53125 
Q 43.703125 -1.421875 31.78125 -1.421875 
z
" id="DejaVuSerif-48"/>
      </defs>
      <g transform="translate(41.366815 265.258438)scale(0.1 -0.1)">
       <use xlink:href="#DejaVuSerif-50"/>
       <use x="63.623047" xlink:href="#DejaVuSerif-48"/>
      </g>
     </g>
    </g>
    <g id="xtick_2">
     <g id="line2d_4">
      <path clip-path="url(#pe738143284)" d="M 74.594284 254.16 
L 74.594284 3.6 
" style="fill:none;stroke:#000000;stroke-dasharray:1.85,0.8;stroke-dashoffset:0;stroke-opacity:0.5;stroke-width:0.5;"/>
     </g>
     <g id="line2d_5">
      <g>
       <use style="stroke:#000000;stroke-width:0.5;" x="74.594284" xlink:href="#m2c4b54a78e" y="254.16"/>
      </g>
     </g>
     <g id="line2d_6">
      <g>
       <use style="stroke:#000000;stroke-width:0.5;" x="74.594284" xlink:href="#m1b75ce9086" y="3.6"/>
      </g>
     </g>
     <g id="text_2">
      <!-- 40 -->
      <defs>
       <path d="M 34.90625 24.703125 
L 34.90625 63.484375 
L 10.015625 24.703125 
z
M 56.390625 0 
L 23.1875 0 
L 23.1875 5.171875 
L 34.90625 5.171875 
L 34.90625 19.484375 
L 3.078125 19.484375 
L 3.078125 24.8125 
L 35.015625 74.21875 
L 44.671875 74.21875 
L 44.671875 24.703125 
L 58.59375 24.703125 
L 58.59375 19.484375 
L 44.671875 19.484375 
L 44.671875 5.171875 
L 56.390625 5.171875 
z
" id="DejaVuSerif-52"/>
      </defs>
      <g transform="translate(68.231784 265.258438)scale(0.1 -0.1)">
       <use xlink:href="#DejaVuSerif-52"/>
       <use x="63.623047" xlink:href="#DejaVuSerif-48"/>
      </g>
     </g>
    </g>
    <g id="xtick_3">
     <g id="line2d_7">
      <path clip-path="url(#pe738143284)" d="M 114.514214 254.16 
L 114.514214 3.6 
" style="fill:none;stroke:#000000;stroke-dasharray:1.85,0.8;stroke-dashoffset:0;stroke-opacity:0.5;stroke-width:0.5;"/>
     </g>
     <g id="line2d_8">
      <g>
       <use style="stroke:#000000;stroke-width:0.5;" x="114.514214" xlink:href="#m2c4b54a78e" y="254.16"/>
      </g>
     </g>
     <g id="line2d_9">
      <g>
       <use style="stroke:#000000;stroke-width:0.5;" x="114.514214" xlink:href="#m1b75ce9086" y="3.6"/>
      </g>
     </g>
     <g id="text_3">
      <!-- 60 -->
      <defs>
       <path d="M 32.71875 3.421875 
Q 39.59375 3.421875 43.296875 8.46875 
Q 47.015625 13.53125 47.015625 23 
Q 47.015625 32.46875 43.296875 37.515625 
Q 39.59375 42.578125 32.71875 42.578125 
Q 25.734375 42.578125 22.0625 37.6875 
Q 18.40625 32.8125 18.40625 23.578125 
Q 18.40625 13.875 22.109375 8.640625 
Q 25.828125 3.421875 32.71875 3.421875 
z
M 16.796875 40.140625 
Q 20.125 43.796875 24.3125 45.59375 
Q 28.515625 47.40625 33.796875 47.40625 
Q 44.671875 47.40625 51 40.859375 
Q 57.328125 34.328125 57.328125 23 
Q 57.328125 11.921875 50.515625 5.25 
Q 43.703125 -1.421875 32.328125 -1.421875 
Q 19.96875 -1.421875 13.328125 7.78125 
Q 6.6875 17 6.6875 34.078125 
Q 6.6875 53.21875 14.546875 63.71875 
Q 22.40625 74.21875 36.71875 74.21875 
Q 40.578125 74.21875 44.828125 73.484375 
Q 49.078125 72.75 53.515625 71.296875 
L 53.515625 59.28125 
L 48 59.28125 
Q 47.40625 64.203125 44.234375 66.796875 
Q 41.0625 69.390625 35.6875 69.390625 
Q 26.21875 69.390625 21.578125 62.203125 
Q 16.9375 55.03125 16.796875 40.140625 
z
" id="DejaVuSerif-54"/>
      </defs>
      <g transform="translate(108.151714 265.258438)scale(0.1 -0.1)">
       <use xlink:href="#DejaVuSerif-54"/>
       <use x="63.623047" xlink:href="#DejaVuSerif-48"/>
      </g>
     </g>
    </g>
    <g id="xtick_4">
     <g id="line2d_10">
      <path clip-path="url(#pe738143284)" d="M 173.833129 254.16 
L 173.833129 3.6 
" style="fill:none;stroke:#000000;stroke-dasharray:1.85,0.8;stroke-dashoffset:0;stroke-opacity:0.5;stroke-width:0.5;"/>
     </g>
     <g id="line2d_11">
      <g>
       <use style="stroke:#000000;stroke-width:0.5;" x="173.833129" xlink:href="#m2c4b54a78e" y="254.16"/>
      </g>
     </g>
     <g id="line2d_12">
      <g>
       <use style="stroke:#000000;stroke-width:0.5;" x="173.833129" xlink:href="#m1b75ce9086" y="3.6"/>
      </g>
     </g>
     <g id="text_4">
      <!-- 80 -->
      <defs>
       <path d="M 46.578125 19.921875 
Q 46.578125 27.734375 42.6875 32.046875 
Q 38.8125 36.375 31.78125 36.375 
Q 24.75 36.375 20.875 32.046875 
Q 17 27.734375 17 19.921875 
Q 17 12.0625 20.875 7.734375 
Q 24.75 3.421875 31.78125 3.421875 
Q 38.8125 3.421875 42.6875 7.734375 
Q 46.578125 12.0625 46.578125 19.921875 
z
M 44.578125 55.328125 
Q 44.578125 61.96875 41.203125 65.671875 
Q 37.84375 69.390625 31.78125 69.390625 
Q 25.78125 69.390625 22.390625 65.671875 
Q 19 61.96875 19 55.328125 
Q 19 48.640625 22.390625 44.921875 
Q 25.78125 41.21875 31.78125 41.21875 
Q 37.84375 41.21875 41.203125 44.921875 
Q 44.578125 48.640625 44.578125 55.328125 
z
M 39.3125 38.8125 
Q 47.609375 37.703125 52.25 32.6875 
Q 56.890625 27.6875 56.890625 19.921875 
Q 56.890625 9.671875 50.390625 4.125 
Q 43.890625 -1.421875 31.78125 -1.421875 
Q 19.734375 -1.421875 13.203125 4.125 
Q 6.6875 9.671875 6.6875 19.921875 
Q 6.6875 27.6875 11.328125 32.6875 
Q 15.96875 37.703125 24.3125 38.8125 
Q 16.9375 40.140625 13 44.40625 
Q 9.078125 48.6875 9.078125 55.328125 
Q 9.078125 64.109375 15.125 69.15625 
Q 21.1875 74.21875 31.78125 74.21875 
Q 42.390625 74.21875 48.4375 69.15625 
Q 54.5 64.109375 54.5 55.328125 
Q 54.5 48.6875 50.5625 44.40625 
Q 46.625 40.140625 39.3125 38.8125 
z
" id="DejaVuSerif-56"/>
      </defs>
      <g transform="translate(167.470629 265.258438)scale(0.1 -0.1)">
       <use xlink:href="#DejaVuSerif-56"/>
       <use x="63.623047" xlink:href="#DejaVuSerif-48"/>
      </g>
     </g>
    </g>
    <g id="xtick_5">
     <g id="line2d_13">
      <path clip-path="url(#pe738143284)" d="M 261.977918 254.16 
L 261.977918 3.6 
" style="fill:none;stroke:#000000;stroke-dasharray:1.85,0.8;stroke-dashoffset:0;stroke-opacity:0.5;stroke-width:0.5;"/>
     </g>
     <g id="line2d_14">
      <g>
       <use style="stroke:#000000;stroke-width:0.5;" x="261.977918" xlink:href="#m2c4b54a78e" y="254.16"/>
      </g>
     </g>
     <g id="line2d_15">
      <g>
       <use style="stroke:#000000;stroke-width:0.5;" x="261.977918" xlink:href="#m1b75ce9086" y="3.6"/>
      </g>
     </g>
     <g id="text_5">
      <!-- 100 -->
      <defs>
       <path d="M 14.203125 0 
L 14.203125 5.171875 
L 26.90625 5.171875 
L 26.90625 65.828125 
L 12.203125 56.296875 
L 12.203125 62.703125 
L 29.984375 74.21875 
L 36.71875 74.21875 
L 36.71875 5.171875 
L 49.421875 5.171875 
L 49.421875 0 
z
" id="DejaVuSerif-49"/>
      </defs>
      <g transform="translate(252.434168 265.258438)scale(0.1 -0.1)">
       <use xlink:href="#DejaVuSerif-49"/>
       <use x="63.623047" xlink:href="#DejaVuSerif-48"/>
       <use x="127.246094" xlink:href="#DejaVuSerif-48"/>
      </g>
     </g>
    </g>
    <g id="xtick_6">
     <g id="line2d_16">
      <defs>
       <path d="M 0 0 
L 0 -1.5 
" id="m030826714f" style="stroke:#000000;stroke-width:0.5;"/>
      </defs>
      <g>
       <use style="stroke:#000000;stroke-width:0.5;" x="33.52222" xlink:href="#m030826714f" y="254.16"/>
      </g>
     </g>
     <g id="line2d_17">
      <defs>
       <path d="M 0 0 
L 0 1.5 
" id="m4d64df50e1" style="stroke:#000000;stroke-width:0.5;"/>
      </defs>
      <g>
       <use style="stroke:#000000;stroke-width:0.5;" x="33.52222" xlink:href="#m4d64df50e1" y="3.6"/>
      </g>
     </g>
    </g>
    <g id="xtick_7">
     <g id="line2d_18">
      <g>
       <use style="stroke:#000000;stroke-width:0.5;" x="37.797505" xlink:href="#m030826714f" y="254.16"/>
      </g>
     </g>
     <g id="line2d_19">
      <g>
       <use style="stroke:#000000;stroke-width:0.5;" x="37.797505" xlink:href="#m4d64df50e1" y="3.6"/>
      </g>
     </g>
    </g>
    <g id="xtick_8">
     <g id="line2d_20">
      <g>
       <use style="stroke:#000000;stroke-width:0.5;" x="42.517766" xlink:href="#m030826714f" y="254.16"/>
      </g>
     </g>
     <g id="line2d_21">
      <g>
       <use style="stroke:#000000;stroke-width:0.5;" x="42.517766" xlink:href="#m4d64df50e1" y="3.6"/>
      </g>
     </g>
    </g>
    <g id="xtick_9">
     <g id="line2d_22">
      <g>
       <use style="stroke:#000000;stroke-width:0.5;" x="53.483287" xlink:href="#m030826714f" y="254.16"/>
      </g>
     </g>
     <g id="line2d_23">
      <g>
       <use style="stroke:#000000;stroke-width:0.5;" x="53.483287" xlink:href="#m4d64df50e1" y="3.6"/>
      </g>
     </g>
    </g>
    <g id="xtick_10">
     <g id="line2d_24">
      <g>
       <use style="stroke:#000000;stroke-width:0.5;" x="59.836137" xlink:href="#m030826714f" y="254.16"/>
      </g>
     </g>
     <g id="line2d_25">
      <g>
       <use style="stroke:#000000;stroke-width:0.5;" x="59.836137" xlink:href="#m4d64df50e1" y="3.6"/>
      </g>
     </g>
    </g>
    <g id="xtick_11">
     <g id="line2d_26">
      <g>
       <use style="stroke:#000000;stroke-width:0.5;" x="66.850196" xlink:href="#m030826714f" y="254.16"/>
      </g>
     </g>
     <g id="line2d_27">
      <g>
       <use style="stroke:#000000;stroke-width:0.5;" x="66.850196" xlink:href="#m4d64df50e1" y="3.6"/>
      </g>
     </g>
    </g>
    <g id="xtick_12">
     <g id="line2d_28">
      <g>
       <use style="stroke:#000000;stroke-width:0.5;" x="83.144383" xlink:href="#m030826714f" y="254.16"/>
      </g>
     </g>
     <g id="line2d_29">
      <g>
       <use style="stroke:#000000;stroke-width:0.5;" x="83.144383" xlink:href="#m4d64df50e1" y="3.6"/>
      </g>
     </g>
    </g>
    <g id="xtick_13">
     <g id="line2d_30">
      <g>
       <use style="stroke:#000000;stroke-width:0.5;" x="92.584383" xlink:href="#m030826714f" y="254.16"/>
      </g>
     </g>
     <g id="line2d_31">
      <g>
       <use style="stroke:#000000;stroke-width:0.5;" x="92.584383" xlink:href="#m4d64df50e1" y="3.6"/>
      </g>
     </g>
    </g>
    <g id="xtick_14">
     <g id="line2d_32">
      <g>
       <use style="stroke:#000000;stroke-width:0.5;" x="103.006906" xlink:href="#m030826714f" y="254.16"/>
      </g>
     </g>
     <g id="line2d_33">
      <g>
       <use style="stroke:#000000;stroke-width:0.5;" x="103.006906" xlink:href="#m4d64df50e1" y="3.6"/>
      </g>
     </g>
    </g>
    <g id="xtick_15">
     <g id="line2d_34">
      <g>
       <use style="stroke:#000000;stroke-width:0.5;" x="127.219211" xlink:href="#m030826714f" y="254.16"/>
      </g>
     </g>
     <g id="line2d_35">
      <g>
       <use style="stroke:#000000;stroke-width:0.5;" x="127.219211" xlink:href="#m4d64df50e1" y="3.6"/>
      </g>
     </g>
    </g>
    <g id="xtick_16">
     <g id="line2d_36">
      <g>
       <use style="stroke:#000000;stroke-width:0.5;" x="141.246555" xlink:href="#m030826714f" y="254.16"/>
      </g>
     </g>
     <g id="line2d_37">
      <g>
       <use style="stroke:#000000;stroke-width:0.5;" x="141.246555" xlink:href="#m4d64df50e1" y="3.6"/>
      </g>
     </g>
    </g>
    <g id="xtick_17">
     <g id="line2d_38">
      <g>
       <use style="stroke:#000000;stroke-width:0.5;" x="156.733876" xlink:href="#m030826714f" y="254.16"/>
      </g>
     </g>
     <g id="line2d_39">
      <g>
       <use style="stroke:#000000;stroke-width:0.5;" x="156.733876" xlink:href="#m4d64df50e1" y="3.6"/>
      </g>
     </g>
    </g>
    <g id="xtick_18">
     <g id="line2d_40">
      <g>
       <use style="stroke:#000000;stroke-width:0.5;" x="192.712087" xlink:href="#m030826714f" y="254.16"/>
      </g>
     </g>
     <g id="line2d_41">
      <g>
       <use style="stroke:#000000;stroke-width:0.5;" x="192.712087" xlink:href="#m4d64df50e1" y="3.6"/>
      </g>
     </g>
    </g>
    <g id="xtick_19">
     <g id="line2d_42">
      <g>
       <use style="stroke:#000000;stroke-width:0.5;" x="213.555982" xlink:href="#m030826714f" y="254.16"/>
      </g>
     </g>
     <g id="line2d_43">
      <g>
       <use style="stroke:#000000;stroke-width:0.5;" x="213.555982" xlink:href="#m4d64df50e1" y="3.6"/>
      </g>
     </g>
    </g>
    <g id="xtick_20">
     <g id="line2d_44">
      <g>
       <use style="stroke:#000000;stroke-width:0.5;" x="236.569326" xlink:href="#m030826714f" y="254.16"/>
      </g>
     </g>
     <g id="line2d_45">
      <g>
       <use style="stroke:#000000;stroke-width:0.5;" x="236.569326" xlink:href="#m4d64df50e1" y="3.6"/>
      </g>
     </g>
    </g>
    <g id="text_6">
     <!-- Percentage of Pruned Weights -->
     <defs>
      <path d="M 24.703125 37.109375 
L 37.59375 37.109375 
Q 44.875 37.109375 48.671875 41.03125 
Q 52.484375 44.96875 52.484375 52.390625 
Q 52.484375 59.859375 48.671875 63.765625 
Q 44.875 67.671875 37.59375 67.671875 
L 24.703125 67.671875 
z
M 5.515625 0 
L 5.515625 5.171875 
L 14.796875 5.171875 
L 14.796875 67.671875 
L 5.515625 67.671875 
L 5.515625 72.90625 
L 39.984375 72.90625 
Q 50.921875 72.90625 57.3125 67.359375 
Q 63.71875 61.8125 63.71875 52.390625 
Q 63.71875 43.015625 57.3125 37.453125 
Q 50.921875 31.890625 39.984375 31.890625 
L 24.703125 31.890625 
L 24.703125 5.171875 
L 35.984375 5.171875 
L 35.984375 0 
z
" id="DejaVuSerif-80"/>
      <path d="M 54.203125 25 
L 15.484375 25 
L 15.484375 24.609375 
Q 15.484375 14.109375 19.4375 8.765625 
Q 23.390625 3.421875 31.109375 3.421875 
Q 37.015625 3.421875 40.796875 6.515625 
Q 44.578125 9.625 46.09375 15.71875 
L 53.328125 15.71875 
Q 51.171875 7.171875 45.375 2.875 
Q 39.59375 -1.421875 30.171875 -1.421875 
Q 18.796875 -1.421875 11.890625 6.078125 
Q 4.984375 13.578125 4.984375 25.984375 
Q 4.984375 38.28125 11.765625 45.796875 
Q 18.5625 53.328125 29.59375 53.328125 
Q 41.359375 53.328125 47.65625 46.0625 
Q 53.953125 38.8125 54.203125 25 
z
M 43.609375 30.171875 
Q 43.3125 39.265625 39.765625 43.875 
Q 36.234375 48.484375 29.59375 48.484375 
Q 23.390625 48.484375 19.828125 43.84375 
Q 16.265625 39.203125 15.484375 30.171875 
z
" id="DejaVuSerif-101"/>
      <path d="M 47.796875 52 
L 47.796875 39.015625 
L 42.625 39.015625 
Q 42.390625 42.875 40.484375 44.78125 
Q 38.578125 46.6875 34.90625 46.6875 
Q 28.265625 46.6875 24.71875 42.09375 
Q 21.1875 37.5 21.1875 28.90625 
L 21.1875 5.171875 
L 31.59375 5.171875 
L 31.59375 0 
L 4.109375 0 
L 4.109375 5.171875 
L 12.203125 5.171875 
L 12.203125 46.78125 
L 3.609375 46.78125 
L 3.609375 51.90625 
L 21.1875 51.90625 
L 21.1875 42.671875 
Q 23.828125 48.09375 27.96875 50.703125 
Q 32.125 53.328125 38.09375 53.328125 
Q 40.28125 53.328125 42.703125 52.984375 
Q 45.125 52.640625 47.796875 52 
z
" id="DejaVuSerif-114"/>
      <path d="M 51.421875 15.578125 
Q 49.515625 7.28125 44.09375 2.921875 
Q 38.671875 -1.421875 30.078125 -1.421875 
Q 18.75 -1.421875 11.859375 6.078125 
Q 4.984375 13.578125 4.984375 25.984375 
Q 4.984375 38.421875 11.859375 45.875 
Q 18.75 53.328125 30.078125 53.328125 
Q 35.015625 53.328125 39.890625 52.171875 
Q 44.78125 51.03125 49.703125 48.6875 
L 49.703125 35.40625 
L 44.484375 35.40625 
Q 43.453125 42.234375 40.015625 45.359375 
Q 36.578125 48.484375 30.171875 48.484375 
Q 22.90625 48.484375 19.1875 42.84375 
Q 15.484375 37.203125 15.484375 25.984375 
Q 15.484375 14.75 19.171875 9.078125 
Q 22.859375 3.421875 30.171875 3.421875 
Q 35.984375 3.421875 39.453125 6.4375 
Q 42.921875 9.46875 44.1875 15.578125 
z
" id="DejaVuSerif-99"/>
      <path d="M 4.109375 0 
L 4.109375 5.171875 
L 12.203125 5.171875 
L 12.203125 46.6875 
L 3.609375 46.6875 
L 3.609375 51.90625 
L 21.1875 51.90625 
L 21.1875 42.671875 
Q 23.6875 47.953125 27.65625 50.640625 
Q 31.640625 53.328125 36.921875 53.328125 
Q 45.515625 53.328125 49.5625 48.390625 
Q 53.609375 43.453125 53.609375 33.015625 
L 53.609375 5.171875 
L 61.625 5.171875 
L 61.625 0 
L 36.8125 0 
L 36.8125 5.171875 
L 44.578125 5.171875 
L 44.578125 30.171875 
Q 44.578125 39.703125 42.234375 43.234375 
Q 39.890625 46.78125 33.984375 46.78125 
Q 27.734375 46.78125 24.453125 42.203125 
Q 21.1875 37.640625 21.1875 28.90625 
L 21.1875 5.171875 
L 29 5.171875 
L 29 0 
z
" id="DejaVuSerif-110"/>
      <path d="M 10.796875 46.6875 
L 2.875 46.6875 
L 2.875 51.90625 
L 10.796875 51.90625 
L 10.796875 68.015625 
L 19.828125 68.015625 
L 19.828125 51.90625 
L 36.71875 51.90625 
L 36.71875 46.6875 
L 19.828125 46.6875 
L 19.828125 13.71875 
Q 19.828125 7.125 21.09375 5.265625 
Q 22.359375 3.421875 25.78125 3.421875 
Q 29.296875 3.421875 30.90625 5.484375 
Q 32.515625 7.5625 32.625 12.203125 
L 39.40625 12.203125 
Q 39.015625 5.125 35.546875 1.84375 
Q 32.078125 -1.421875 25 -1.421875 
Q 17.234375 -1.421875 14.015625 2.015625 
Q 10.796875 5.46875 10.796875 13.71875 
z
" id="DejaVuSerif-116"/>
      <path d="M 39.796875 16.3125 
L 39.796875 27.296875 
L 28.21875 27.296875 
Q 21.53125 27.296875 18.25 24.40625 
Q 14.984375 21.53125 14.984375 15.578125 
Q 14.984375 10.15625 18.296875 6.984375 
Q 21.625 3.8125 27.296875 3.8125 
Q 32.90625 3.8125 36.34375 7.28125 
Q 39.796875 10.75 39.796875 16.3125 
z
M 48.78125 32.421875 
L 48.78125 5.171875 
L 56.78125 5.171875 
L 56.78125 0 
L 39.796875 0 
L 39.796875 5.609375 
Q 36.8125 2 32.90625 0.28125 
Q 29 -1.421875 23.78125 -1.421875 
Q 15.140625 -1.421875 10.0625 3.171875 
Q 4.984375 7.765625 4.984375 15.578125 
Q 4.984375 23.640625 10.796875 28.078125 
Q 16.609375 32.515625 27.203125 32.515625 
L 39.796875 32.515625 
L 39.796875 36.078125 
Q 39.796875 42 36.203125 45.234375 
Q 32.625 48.484375 26.125 48.484375 
Q 20.75 48.484375 17.578125 46.046875 
Q 14.40625 43.609375 13.625 38.8125 
L 8.984375 38.8125 
L 8.984375 49.3125 
Q 13.671875 51.3125 18.09375 52.3125 
Q 22.515625 53.328125 26.703125 53.328125 
Q 37.5 53.328125 43.140625 47.96875 
Q 48.78125 42.625 48.78125 32.421875 
z
" id="DejaVuSerif-97"/>
      <path d="M 52.484375 46.6875 
L 52.484375 1.125 
Q 52.484375 -10.0625 46.328125 -16.140625 
Q 40.1875 -22.21875 28.8125 -22.21875 
Q 23.6875 -22.21875 19 -21.28125 
Q 14.3125 -20.359375 10.015625 -18.5 
L 10.015625 -7.625 
L 14.703125 -7.625 
Q 15.578125 -12.703125 18.84375 -15.046875 
Q 22.125 -17.390625 28.21875 -17.390625 
Q 36.140625 -17.390625 39.8125 -12.921875 
Q 43.5 -8.453125 43.5 1.125 
L 43.5 8.109375 
Q 40.875 3.21875 36.796875 0.890625 
Q 32.71875 -1.421875 26.703125 -1.421875 
Q 17.140625 -1.421875 11.0625 6.171875 
Q 4.984375 13.765625 4.984375 25.984375 
Q 4.984375 38.1875 11.03125 45.75 
Q 17.09375 53.328125 26.703125 53.328125 
Q 32.71875 53.328125 36.796875 51 
Q 40.875 48.6875 43.5 43.796875 
L 43.5 51.90625 
L 61.078125 51.90625 
L 61.078125 46.6875 
z
M 43.5 28.515625 
Q 43.5 37.84375 39.90625 42.765625 
Q 36.328125 47.703125 29.5 47.703125 
Q 22.5625 47.703125 19.015625 42.234375 
Q 15.484375 36.765625 15.484375 25.984375 
Q 15.484375 15.234375 19.015625 9.71875 
Q 22.5625 4.203125 29.5 4.203125 
Q 36.328125 4.203125 39.90625 9.109375 
Q 43.5 14.015625 43.5 23.390625 
z
" id="DejaVuSerif-103"/>
      <path id="DejaVuSerif-32"/>
      <path d="M 30.078125 3.421875 
Q 37.3125 3.421875 40.984375 9.125 
Q 44.671875 14.84375 44.671875 25.984375 
Q 44.671875 37.109375 40.984375 42.796875 
Q 37.3125 48.484375 30.078125 48.484375 
Q 22.859375 48.484375 19.171875 42.796875 
Q 15.484375 37.109375 15.484375 25.984375 
Q 15.484375 14.84375 19.1875 9.125 
Q 22.90625 3.421875 30.078125 3.421875 
z
M 30.078125 -1.421875 
Q 18.75 -1.421875 11.859375 6.078125 
Q 4.984375 13.578125 4.984375 25.984375 
Q 4.984375 38.375 11.84375 45.84375 
Q 18.703125 53.328125 30.078125 53.328125 
Q 41.453125 53.328125 48.3125 45.84375 
Q 55.171875 38.375 55.171875 25.984375 
Q 55.171875 13.578125 48.3125 6.078125 
Q 41.453125 -1.421875 30.078125 -1.421875 
z
" id="DejaVuSerif-111"/>
      <path d="M 43.015625 63.71875 
L 38.28125 63.71875 
Q 38.234375 67.390625 36.203125 69.28125 
Q 34.1875 71.1875 30.328125 71.1875 
Q 25.296875 71.1875 23.234375 68.421875 
Q 21.1875 65.671875 21.1875 58.59375 
L 21.1875 51.90625 
L 35.6875 51.90625 
L 35.6875 46.6875 
L 21.1875 46.6875 
L 21.1875 5.171875 
L 32.71875 5.171875 
L 32.71875 0 
L 3.609375 0 
L 3.609375 5.171875 
L 12.203125 5.171875 
L 12.203125 46.6875 
L 3.609375 46.6875 
L 3.609375 51.90625 
L 12.203125 51.90625 
L 12.203125 58.40625 
Q 12.203125 67.09375 16.71875 71.53125 
Q 21.234375 75.984375 29.984375 75.984375 
Q 33.25 75.984375 36.515625 75.390625 
Q 39.796875 74.8125 43.015625 73.578125 
z
" id="DejaVuSerif-102"/>
      <path d="M 35.40625 51.90625 
L 52.203125 51.90625 
L 52.203125 5.171875 
L 60.6875 5.171875 
L 60.6875 0 
L 43.21875 0 
L 43.21875 9.1875 
Q 40.71875 4 36.765625 1.28125 
Q 32.8125 -1.421875 27.59375 -1.421875 
Q 18.953125 -1.421875 14.875 3.484375 
Q 10.796875 8.40625 10.796875 18.890625 
L 10.796875 46.6875 
L 2.6875 46.6875 
L 2.6875 51.90625 
L 19.828125 51.90625 
L 19.828125 21.6875 
Q 19.828125 12.203125 22.140625 8.6875 
Q 24.46875 5.171875 30.421875 5.171875 
Q 36.671875 5.171875 39.9375 9.765625 
Q 43.21875 14.359375 43.21875 23.09375 
L 43.21875 46.6875 
L 35.40625 46.6875 
z
" id="DejaVuSerif-117"/>
      <path d="M 52.484375 5.171875 
L 61.078125 5.171875 
L 61.078125 0 
L 43.5 0 
L 43.5 8.109375 
Q 40.875 3.21875 36.796875 0.890625 
Q 32.71875 -1.421875 26.703125 -1.421875 
Q 17.140625 -1.421875 11.0625 6.171875 
Q 4.984375 13.765625 4.984375 25.984375 
Q 4.984375 38.1875 11.03125 45.75 
Q 17.09375 53.328125 26.703125 53.328125 
Q 32.71875 53.328125 36.796875 51 
Q 40.875 48.6875 43.5 43.796875 
L 43.5 70.796875 
L 35.015625 70.796875 
L 35.015625 75.984375 
L 52.484375 75.984375 
z
M 43.5 23.390625 
L 43.5 28.515625 
Q 43.5 37.84375 39.90625 42.765625 
Q 36.328125 47.703125 29.5 47.703125 
Q 22.5625 47.703125 19.015625 42.234375 
Q 15.484375 36.765625 15.484375 25.984375 
Q 15.484375 15.234375 19.015625 9.71875 
Q 22.5625 4.203125 29.5 4.203125 
Q 36.328125 4.203125 39.90625 9.109375 
Q 43.5 14.015625 43.5 23.390625 
z
" id="DejaVuSerif-100"/>
      <path d="M 76.21875 0 
L 68.21875 0 
L 51.515625 59.28125 
L 34.8125 0 
L 26.8125 0 
L 7.71875 67.671875 
L 0.484375 67.671875 
L 0.484375 72.90625 
L 27.09375 72.90625 
L 27.09375 67.671875 
L 18.015625 67.671875 
L 33.203125 13.8125 
L 49.8125 72.90625 
L 57.71875 72.90625 
L 74.609375 13.1875 
L 89.890625 67.671875 
L 81.5 67.671875 
L 81.5 72.90625 
L 102.484375 72.90625 
L 102.484375 67.671875 
L 95.3125 67.671875 
z
" id="DejaVuSerif-87"/>
      <path d="M 9.71875 68.015625 
Q 9.71875 70.265625 11.34375 71.921875 
Q 12.984375 73.578125 15.28125 73.578125 
Q 17.53125 73.578125 19.15625 71.921875 
Q 20.796875 70.265625 20.796875 68.015625 
Q 20.796875 65.71875 19.1875 64.109375 
Q 17.578125 62.5 15.28125 62.5 
Q 12.984375 62.5 11.34375 64.109375 
Q 9.71875 65.71875 9.71875 68.015625 
z
M 21.1875 5.171875 
L 29.6875 5.171875 
L 29.6875 0 
L 3.609375 0 
L 3.609375 5.171875 
L 12.203125 5.171875 
L 12.203125 46.6875 
L 3.609375 46.6875 
L 3.609375 51.90625 
L 21.1875 51.90625 
z
" id="DejaVuSerif-105"/>
      <path d="M 4.109375 0 
L 4.109375 5.171875 
L 12.203125 5.171875 
L 12.203125 70.796875 
L 3.609375 70.796875 
L 3.609375 75.984375 
L 21.1875 75.984375 
L 21.1875 42.671875 
Q 23.6875 47.953125 27.65625 50.640625 
Q 31.640625 53.328125 36.921875 53.328125 
Q 45.515625 53.328125 49.5625 48.390625 
Q 53.609375 43.453125 53.609375 33.015625 
L 53.609375 5.171875 
L 61.625 5.171875 
L 61.625 0 
L 36.8125 0 
L 36.8125 5.171875 
L 44.578125 5.171875 
L 44.578125 30.171875 
Q 44.578125 39.703125 42.25 43.1875 
Q 39.9375 46.6875 33.984375 46.6875 
Q 27.734375 46.6875 24.453125 42.140625 
Q 21.1875 37.59375 21.1875 28.90625 
L 21.1875 5.171875 
L 29 5.171875 
L 29 0 
z
" id="DejaVuSerif-104"/>
      <path d="M 5.609375 2.875 
L 5.609375 14.984375 
L 10.796875 14.984375 
Q 10.984375 9.1875 14.421875 6.296875 
Q 17.875 3.421875 24.609375 3.421875 
Q 30.671875 3.421875 33.84375 5.6875 
Q 37.015625 7.953125 37.015625 12.3125 
Q 37.015625 15.71875 34.6875 17.8125 
Q 32.375 19.921875 24.90625 22.3125 
L 18.40625 24.515625 
Q 11.71875 26.65625 8.71875 29.875 
Q 5.71875 33.109375 5.71875 38.09375 
Q 5.71875 45.21875 10.9375 49.265625 
Q 16.15625 53.328125 25.390625 53.328125 
Q 29.5 53.328125 34.03125 52.25 
Q 38.578125 51.171875 43.40625 49.125 
L 43.40625 37.796875 
L 38.234375 37.796875 
Q 38.03125 42.828125 34.703125 45.65625 
Q 31.390625 48.484375 25.6875 48.484375 
Q 20.015625 48.484375 17.109375 46.484375 
Q 14.203125 44.484375 14.203125 40.484375 
Q 14.203125 37.203125 16.40625 35.21875 
Q 18.609375 33.25 25.203125 31.203125 
L 32.328125 29 
Q 39.703125 26.703125 42.9375 23.265625 
Q 46.1875 19.828125 46.1875 14.40625 
Q 46.1875 7.03125 40.546875 2.796875 
Q 34.90625 -1.421875 25 -1.421875 
Q 19.96875 -1.421875 15.1875 -0.34375 
Q 10.40625 0.734375 5.609375 2.875 
z
" id="DejaVuSerif-115"/>
     </defs>
     <g transform="translate(83.432244 278.936563)scale(0.1 -0.1)">
      <use xlink:href="#DejaVuSerif-80"/>
      <use x="62.785156" xlink:href="#DejaVuSerif-101"/>
      <use x="121.964844" xlink:href="#DejaVuSerif-114"/>
      <use x="169.767578" xlink:href="#DejaVuSerif-99"/>
      <use x="225.773438" xlink:href="#DejaVuSerif-101"/>
      <use x="284.953125" xlink:href="#DejaVuSerif-110"/>
      <use x="349.357422" xlink:href="#DejaVuSerif-116"/>
      <use x="389.542969" xlink:href="#DejaVuSerif-97"/>
      <use x="449.162109" xlink:href="#DejaVuSerif-103"/>
      <use x="513.175781" xlink:href="#DejaVuSerif-101"/>
      <use x="572.355469" xlink:href="#DejaVuSerif-32"/>
      <use x="604.142578" xlink:href="#DejaVuSerif-111"/>
      <use x="664.347656" xlink:href="#DejaVuSerif-102"/>
      <use x="701.359375" xlink:href="#DejaVuSerif-32"/>
      <use x="733.146484" xlink:href="#DejaVuSerif-80"/>
      <use x="800.431641" xlink:href="#DejaVuSerif-114"/>
      <use x="848.234375" xlink:href="#DejaVuSerif-117"/>
      <use x="912.638672" xlink:href="#DejaVuSerif-110"/>
      <use x="977.042969" xlink:href="#DejaVuSerif-101"/>
      <use x="1036.222656" xlink:href="#DejaVuSerif-100"/>
      <use x="1100.236328" xlink:href="#DejaVuSerif-32"/>
      <use x="1132.023438" xlink:href="#DejaVuSerif-87"/>
      <use x="1226.681641" xlink:href="#DejaVuSerif-101"/>
      <use x="1285.861328" xlink:href="#DejaVuSerif-105"/>
      <use x="1317.84375" xlink:href="#DejaVuSerif-103"/>
      <use x="1381.857422" xlink:href="#DejaVuSerif-104"/>
      <use x="1446.261719" xlink:href="#DejaVuSerif-116"/>
      <use x="1486.447266" xlink:href="#DejaVuSerif-115"/>
     </g>
    </g>
   </g>
   <g id="matplotlib.axis_2">
    <g id="ytick_1">
     <g id="line2d_46">
      <path clip-path="url(#pe738143284)" d="M 33.503125 250.9963 
L 287.139489 250.9963 
" style="fill:none;stroke:#000000;stroke-dasharray:1.85,0.8;stroke-dashoffset:0;stroke-opacity:0.5;stroke-width:0.5;"/>
     </g>
     <g id="line2d_47">
      <defs>
       <path d="M 0 0 
L 3 0 
" id="m5d43b77f7b" style="stroke:#000000;stroke-width:0.5;"/>
      </defs>
      <g>
       <use style="stroke:#000000;stroke-width:0.5;" x="33.503125" xlink:href="#m5d43b77f7b" y="250.9963"/>
      </g>
     </g>
     <g id="line2d_48">
      <defs>
       <path d="M 0 0 
L -3 0 
" id="me01a217c2e" style="stroke:#000000;stroke-width:0.5;"/>
      </defs>
      <g>
       <use style="stroke:#000000;stroke-width:0.5;" x="287.139489" xlink:href="#me01a217c2e" y="250.9963"/>
      </g>
     </g>
     <g id="text_7">
      <!-- 70 -->
      <defs>
       <path d="M 56.390625 67.921875 
L 27.875 0 
L 20.609375 0 
L 47.796875 64.890625 
L 14.109375 64.890625 
L 14.109375 55.90625 
L 8.40625 55.90625 
L 8.40625 72.90625 
L 56.390625 72.90625 
z
" id="DejaVuSerif-55"/>
      </defs>
      <g transform="translate(17.278125 254.795518)scale(0.1 -0.1)">
       <use xlink:href="#DejaVuSerif-55"/>
       <use x="63.623047" xlink:href="#DejaVuSerif-48"/>
      </g>
     </g>
    </g>
    <g id="ytick_2">
     <g id="line2d_49">
      <path clip-path="url(#pe738143284)" d="M 33.503125 237.591742 
L 287.139489 237.591742 
" style="fill:none;stroke:#000000;stroke-dasharray:1.85,0.8;stroke-dashoffset:0;stroke-opacity:0.5;stroke-width:0.5;"/>
     </g>
     <g id="line2d_50">
      <g>
       <use style="stroke:#000000;stroke-width:0.5;" x="33.503125" xlink:href="#m5d43b77f7b" y="237.591742"/>
      </g>
     </g>
     <g id="line2d_51">
      <g>
       <use style="stroke:#000000;stroke-width:0.5;" x="287.139489" xlink:href="#me01a217c2e" y="237.591742"/>
      </g>
     </g>
     <g id="text_8">
      <!-- 75 -->
      <defs>
       <path d="M 50.296875 72.90625 
L 50.296875 64.890625 
L 16.890625 64.890625 
L 16.890625 44 
Q 19.4375 45.75 22.828125 46.625 
Q 26.21875 47.515625 30.421875 47.515625 
Q 42.234375 47.515625 49.0625 40.96875 
Q 55.90625 34.421875 55.90625 23.09375 
Q 55.90625 11.53125 49 5.046875 
Q 42.09375 -1.421875 29.59375 -1.421875 
Q 24.5625 -1.421875 19.28125 -0.1875 
Q 14.015625 1.03125 8.5 3.515625 
L 8.5 17.671875 
L 14.015625 17.671875 
Q 14.453125 10.75 18.421875 7.078125 
Q 22.40625 3.421875 29.59375 3.421875 
Q 37.3125 3.421875 41.453125 8.5 
Q 45.609375 13.578125 45.609375 23.09375 
Q 45.609375 32.5625 41.484375 37.609375 
Q 37.359375 42.671875 29.59375 42.671875 
Q 25.203125 42.671875 21.84375 41.109375 
Q 18.5 39.546875 15.921875 36.28125 
L 11.71875 36.28125 
L 11.71875 72.90625 
z
" id="DejaVuSerif-53"/>
      </defs>
      <g transform="translate(17.278125 241.390961)scale(0.1 -0.1)">
       <use xlink:href="#DejaVuSerif-55"/>
       <use x="63.623047" xlink:href="#DejaVuSerif-53"/>
      </g>
     </g>
    </g>
    <g id="ytick_3">
     <g id="line2d_52">
      <path clip-path="url(#pe738143284)" d="M 33.503125 216.003568 
L 287.139489 216.003568 
" style="fill:none;stroke:#000000;stroke-dasharray:1.85,0.8;stroke-dashoffset:0;stroke-opacity:0.5;stroke-width:0.5;"/>
     </g>
     <g id="line2d_53">
      <g>
       <use style="stroke:#000000;stroke-width:0.5;" x="33.503125" xlink:href="#m5d43b77f7b" y="216.003568"/>
      </g>
     </g>
     <g id="line2d_54">
      <g>
       <use style="stroke:#000000;stroke-width:0.5;" x="287.139489" xlink:href="#me01a217c2e" y="216.003568"/>
      </g>
     </g>
     <g id="text_9">
      <!-- 80 -->
      <g transform="translate(17.278125 219.802786)scale(0.1 -0.1)">
       <use xlink:href="#DejaVuSerif-56"/>
       <use x="63.623047" xlink:href="#DejaVuSerif-48"/>
      </g>
     </g>
    </g>
    <g id="ytick_4">
     <g id="line2d_55">
      <path clip-path="url(#pe738143284)" d="M 33.503125 181.235597 
L 287.139489 181.235597 
" style="fill:none;stroke:#000000;stroke-dasharray:1.85,0.8;stroke-dashoffset:0;stroke-opacity:0.5;stroke-width:0.5;"/>
     </g>
     <g id="line2d_56">
      <g>
       <use style="stroke:#000000;stroke-width:0.5;" x="33.503125" xlink:href="#m5d43b77f7b" y="181.235597"/>
      </g>
     </g>
     <g id="line2d_57">
      <g>
       <use style="stroke:#000000;stroke-width:0.5;" x="287.139489" xlink:href="#me01a217c2e" y="181.235597"/>
      </g>
     </g>
     <g id="text_10">
      <!-- 85 -->
      <g transform="translate(17.278125 185.034816)scale(0.1 -0.1)">
       <use xlink:href="#DejaVuSerif-56"/>
       <use x="63.623047" xlink:href="#DejaVuSerif-53"/>
      </g>
     </g>
    </g>
    <g id="ytick_5">
     <g id="line2d_58">
      <path clip-path="url(#pe738143284)" d="M 33.503125 125.241433 
L 287.139489 125.241433 
" style="fill:none;stroke:#000000;stroke-dasharray:1.85,0.8;stroke-dashoffset:0;stroke-opacity:0.5;stroke-width:0.5;"/>
     </g>
     <g id="line2d_59">
      <g>
       <use style="stroke:#000000;stroke-width:0.5;" x="33.503125" xlink:href="#m5d43b77f7b" y="125.241433"/>
      </g>
     </g>
     <g id="line2d_60">
      <g>
       <use style="stroke:#000000;stroke-width:0.5;" x="287.139489" xlink:href="#me01a217c2e" y="125.241433"/>
      </g>
     </g>
     <g id="text_11">
      <!-- 90 -->
      <defs>
       <path d="M 46.78125 32.671875 
Q 43.5 29 39.25 27.1875 
Q 35.015625 25.390625 29.6875 25.390625 
Q 18.84375 25.390625 12.5625 31.9375 
Q 6.296875 38.484375 6.296875 49.8125 
Q 6.296875 60.890625 13.109375 67.546875 
Q 19.921875 74.21875 31.296875 74.21875 
Q 43.65625 74.21875 50.265625 65.015625 
Q 56.890625 55.8125 56.890625 38.71875 
Q 56.890625 19.578125 49.015625 9.078125 
Q 41.15625 -1.421875 26.90625 -1.421875 
Q 23.046875 -1.421875 18.796875 -0.6875 
Q 14.546875 0.046875 10.109375 1.515625 
L 10.109375 13.625 
L 15.578125 13.625 
Q 16.21875 8.6875 19.390625 6.046875 
Q 22.5625 3.421875 27.875 3.421875 
Q 37.359375 3.421875 41.984375 10.5625 
Q 46.625 17.71875 46.78125 32.671875 
z
M 30.90625 69.390625 
Q 23.96875 69.390625 20.28125 64.328125 
Q 16.609375 59.28125 16.609375 49.8125 
Q 16.609375 40.328125 20.28125 35.25 
Q 23.96875 30.171875 30.90625 30.171875 
Q 37.84375 30.171875 41.53125 35.078125 
Q 45.21875 39.984375 45.21875 49.21875 
Q 45.21875 58.9375 41.5 64.15625 
Q 37.796875 69.390625 30.90625 69.390625 
z
" id="DejaVuSerif-57"/>
      </defs>
      <g transform="translate(17.278125 129.040652)scale(0.1 -0.1)">
       <use xlink:href="#DejaVuSerif-57"/>
       <use x="63.623047" xlink:href="#DejaVuSerif-48"/>
      </g>
     </g>
    </g>
    <g id="ytick_6">
     <g id="line2d_61">
      <path clip-path="url(#pe738143284)" d="M 33.503125 35.062272 
L 287.139489 35.062272 
" style="fill:none;stroke:#000000;stroke-dasharray:1.85,0.8;stroke-dashoffset:0;stroke-opacity:0.5;stroke-width:0.5;"/>
     </g>
     <g id="line2d_62">
      <g>
       <use style="stroke:#000000;stroke-width:0.5;" x="33.503125" xlink:href="#m5d43b77f7b" y="35.062272"/>
      </g>
     </g>
     <g id="line2d_63">
      <g>
       <use style="stroke:#000000;stroke-width:0.5;" x="287.139489" xlink:href="#me01a217c2e" y="35.062272"/>
      </g>
     </g>
     <g id="text_12">
      <!-- 95 -->
      <g transform="translate(17.278125 38.861491)scale(0.1 -0.1)">
       <use xlink:href="#DejaVuSerif-57"/>
       <use x="63.623047" xlink:href="#DejaVuSerif-53"/>
      </g>
     </g>
    </g>
    <g id="ytick_7">
     <g id="line2d_64">
      <defs>
       <path d="M 0 0 
L 1.5 0 
" id="me9bb54d6c9" style="stroke:#000000;stroke-width:0.5;"/>
      </defs>
      <g>
       <use style="stroke:#000000;stroke-width:0.5;" x="33.503125" xlink:href="#me9bb54d6c9" y="252.992329"/>
      </g>
     </g>
     <g id="line2d_65">
      <defs>
       <path d="M 0 0 
L -1.5 0 
" id="m8f6a1d1486" style="stroke:#000000;stroke-width:0.5;"/>
      </defs>
      <g>
       <use style="stroke:#000000;stroke-width:0.5;" x="287.139489" xlink:href="#m8f6a1d1486" y="252.992329"/>
      </g>
     </g>
    </g>
    <g id="ytick_8">
     <g id="line2d_66">
      <g>
       <use style="stroke:#000000;stroke-width:0.5;" x="33.503125" xlink:href="#me9bb54d6c9" y="248.800667"/>
      </g>
     </g>
     <g id="line2d_67">
      <g>
       <use style="stroke:#000000;stroke-width:0.5;" x="287.139489" xlink:href="#m8f6a1d1486" y="248.800667"/>
      </g>
     </g>
    </g>
    <g id="ytick_9">
     <g id="line2d_68">
      <g>
       <use style="stroke:#000000;stroke-width:0.5;" x="33.503125" xlink:href="#me9bb54d6c9" y="246.385471"/>
      </g>
     </g>
     <g id="line2d_69">
      <g>
       <use style="stroke:#000000;stroke-width:0.5;" x="287.139489" xlink:href="#m8f6a1d1486" y="246.385471"/>
      </g>
     </g>
    </g>
    <g id="ytick_10">
     <g id="line2d_70">
      <g>
       <use style="stroke:#000000;stroke-width:0.5;" x="33.503125" xlink:href="#me9bb54d6c9" y="243.728755"/>
      </g>
     </g>
     <g id="line2d_71">
      <g>
       <use style="stroke:#000000;stroke-width:0.5;" x="287.139489" xlink:href="#m8f6a1d1486" y="243.728755"/>
      </g>
     </g>
    </g>
    <g id="ytick_11">
     <g id="line2d_72">
      <g>
       <use style="stroke:#000000;stroke-width:0.5;" x="33.503125" xlink:href="#me9bb54d6c9" y="240.806368"/>
      </g>
     </g>
     <g id="line2d_73">
      <g>
       <use style="stroke:#000000;stroke-width:0.5;" x="287.139489" xlink:href="#m8f6a1d1486" y="240.806368"/>
      </g>
     </g>
    </g>
    <g id="ytick_12">
     <g id="line2d_74">
      <g>
       <use style="stroke:#000000;stroke-width:0.5;" x="33.503125" xlink:href="#me9bb54d6c9" y="234.055653"/>
      </g>
     </g>
     <g id="line2d_75">
      <g>
       <use style="stroke:#000000;stroke-width:0.5;" x="287.139489" xlink:href="#m8f6a1d1486" y="234.055653"/>
      </g>
     </g>
    </g>
    <g id="ytick_13">
     <g id="line2d_76">
      <g>
       <use style="stroke:#000000;stroke-width:0.5;" x="33.503125" xlink:href="#me9bb54d6c9" y="230.165956"/>
      </g>
     </g>
     <g id="line2d_77">
      <g>
       <use style="stroke:#000000;stroke-width:0.5;" x="287.139489" xlink:href="#m8f6a1d1486" y="230.165956"/>
      </g>
     </g>
    </g>
    <g id="ytick_14">
     <g id="line2d_78">
      <g>
       <use style="stroke:#000000;stroke-width:0.5;" x="33.503125" xlink:href="#me9bb54d6c9" y="225.887289"/>
      </g>
     </g>
     <g id="line2d_79">
      <g>
       <use style="stroke:#000000;stroke-width:0.5;" x="287.139489" xlink:href="#m8f6a1d1486" y="225.887289"/>
      </g>
     </g>
    </g>
    <g id="ytick_15">
     <g id="line2d_80">
      <g>
       <use style="stroke:#000000;stroke-width:0.5;" x="33.503125" xlink:href="#me9bb54d6c9" y="221.180755"/>
      </g>
     </g>
     <g id="line2d_81">
      <g>
       <use style="stroke:#000000;stroke-width:0.5;" x="287.139489" xlink:href="#m8f6a1d1486" y="221.180755"/>
      </g>
     </g>
    </g>
    <g id="ytick_16">
     <g id="line2d_82">
      <g>
       <use style="stroke:#000000;stroke-width:0.5;" x="33.503125" xlink:href="#me9bb54d6c9" y="210.308662"/>
      </g>
     </g>
     <g id="line2d_83">
      <g>
       <use style="stroke:#000000;stroke-width:0.5;" x="287.139489" xlink:href="#m8f6a1d1486" y="210.308662"/>
      </g>
     </g>
    </g>
    <g id="ytick_17">
     <g id="line2d_84">
      <g>
       <use style="stroke:#000000;stroke-width:0.5;" x="33.503125" xlink:href="#me9bb54d6c9" y="204.044265"/>
      </g>
     </g>
     <g id="line2d_85">
      <g>
       <use style="stroke:#000000;stroke-width:0.5;" x="287.139489" xlink:href="#m8f6a1d1486" y="204.044265"/>
      </g>
     </g>
    </g>
    <g id="ytick_18">
     <g id="line2d_86">
      <g>
       <use style="stroke:#000000;stroke-width:0.5;" x="33.503125" xlink:href="#me9bb54d6c9" y="197.153429"/>
      </g>
     </g>
     <g id="line2d_87">
      <g>
       <use style="stroke:#000000;stroke-width:0.5;" x="287.139489" xlink:href="#m8f6a1d1486" y="197.153429"/>
      </g>
     </g>
    </g>
    <g id="ytick_19">
     <g id="line2d_88">
      <g>
       <use style="stroke:#000000;stroke-width:0.5;" x="33.503125" xlink:href="#me9bb54d6c9" y="189.573509"/>
      </g>
     </g>
     <g id="line2d_89">
      <g>
       <use style="stroke:#000000;stroke-width:0.5;" x="287.139489" xlink:href="#m8f6a1d1486" y="189.573509"/>
      </g>
     </g>
    </g>
    <g id="ytick_20">
     <g id="line2d_90">
      <g>
       <use style="stroke:#000000;stroke-width:0.5;" x="33.503125" xlink:href="#me9bb54d6c9" y="172.063894"/>
      </g>
     </g>
     <g id="line2d_91">
      <g>
       <use style="stroke:#000000;stroke-width:0.5;" x="287.139489" xlink:href="#m8f6a1d1486" y="172.063894"/>
      </g>
     </g>
    </g>
    <g id="ytick_21">
     <g id="line2d_92">
      <g>
       <use style="stroke:#000000;stroke-width:0.5;" x="33.503125" xlink:href="#me9bb54d6c9" y="161.975021"/>
      </g>
     </g>
     <g id="line2d_93">
      <g>
       <use style="stroke:#000000;stroke-width:0.5;" x="287.139489" xlink:href="#m8f6a1d1486" y="161.975021"/>
      </g>
     </g>
    </g>
    <g id="ytick_22">
     <g id="line2d_94">
      <g>
       <use style="stroke:#000000;stroke-width:0.5;" x="33.503125" xlink:href="#me9bb54d6c9" y="150.87726"/>
      </g>
     </g>
     <g id="line2d_95">
      <g>
       <use style="stroke:#000000;stroke-width:0.5;" x="287.139489" xlink:href="#m8f6a1d1486" y="150.87726"/>
      </g>
     </g>
    </g>
    <g id="ytick_23">
     <g id="line2d_96">
      <g>
       <use style="stroke:#000000;stroke-width:0.5;" x="33.503125" xlink:href="#me9bb54d6c9" y="138.669724"/>
      </g>
     </g>
     <g id="line2d_97">
      <g>
       <use style="stroke:#000000;stroke-width:0.5;" x="287.139489" xlink:href="#m8f6a1d1486" y="138.669724"/>
      </g>
     </g>
    </g>
    <g id="ytick_24">
     <g id="line2d_98">
      <g>
       <use style="stroke:#000000;stroke-width:0.5;" x="33.503125" xlink:href="#me9bb54d6c9" y="110.470314"/>
      </g>
     </g>
     <g id="line2d_99">
      <g>
       <use style="stroke:#000000;stroke-width:0.5;" x="287.139489" xlink:href="#m8f6a1d1486" y="110.470314"/>
      </g>
     </g>
    </g>
    <g id="ytick_25">
     <g id="line2d_100">
      <g>
       <use style="stroke:#000000;stroke-width:0.5;" x="33.503125" xlink:href="#me9bb54d6c9" y="94.222082"/>
      </g>
     </g>
     <g id="line2d_101">
      <g>
       <use style="stroke:#000000;stroke-width:0.5;" x="287.139489" xlink:href="#m8f6a1d1486" y="94.222082"/>
      </g>
     </g>
    </g>
    <g id="ytick_26">
     <g id="line2d_102">
      <g>
       <use style="stroke:#000000;stroke-width:0.5;" x="33.503125" xlink:href="#me9bb54d6c9" y="76.349028"/>
      </g>
     </g>
     <g id="line2d_103">
      <g>
       <use style="stroke:#000000;stroke-width:0.5;" x="287.139489" xlink:href="#m8f6a1d1486" y="76.349028"/>
      </g>
     </g>
    </g>
    <g id="ytick_27">
     <g id="line2d_104">
      <g>
       <use style="stroke:#000000;stroke-width:0.5;" x="33.503125" xlink:href="#me9bb54d6c9" y="56.688668"/>
      </g>
     </g>
     <g id="line2d_105">
      <g>
       <use style="stroke:#000000;stroke-width:0.5;" x="287.139489" xlink:href="#m8f6a1d1486" y="56.688668"/>
      </g>
     </g>
    </g>
    <g id="ytick_28">
     <g id="line2d_106">
      <g>
       <use style="stroke:#000000;stroke-width:0.5;" x="33.503125" xlink:href="#me9bb54d6c9" y="11.273237"/>
      </g>
     </g>
     <g id="line2d_107">
      <g>
       <use style="stroke:#000000;stroke-width:0.5;" x="287.139489" xlink:href="#m8f6a1d1486" y="11.273237"/>
      </g>
     </g>
    </g>
    <g id="text_13">
     <!-- Test Accuracy in Percent -->
     <defs>
      <path d="M 19.09375 0 
L 19.09375 5.171875 
L 28.421875 5.171875 
L 28.421875 67.09375 
L 6.984375 67.09375 
L 6.984375 55.71875 
L 0.984375 55.71875 
L 0.984375 72.90625 
L 65.71875 72.90625 
L 65.71875 55.71875 
L 59.71875 55.71875 
L 59.71875 67.09375 
L 38.28125 67.09375 
L 38.28125 5.171875 
L 47.609375 5.171875 
L 47.609375 0 
z
" id="DejaVuSerif-84"/>
      <path d="M 20.015625 26.421875 
L 46.78125 26.421875 
L 33.40625 61.078125 
z
M -0.59375 0 
L -0.59375 5.171875 
L 5.8125 5.171875 
L 31.78125 72.90625 
L 39.984375 72.90625 
L 66.015625 5.171875 
L 73.1875 5.171875 
L 73.1875 0 
L 46.6875 0 
L 46.6875 5.171875 
L 54.78125 5.171875 
L 48.6875 21.1875 
L 18.015625 21.1875 
L 11.921875 5.171875 
L 19.921875 5.171875 
L 19.921875 0 
z
" id="DejaVuSerif-65"/>
      <path d="M 21.578125 -9.515625 
L 25 -0.875 
L 5.609375 46.6875 
L -0.296875 46.6875 
L -0.296875 51.90625 
L 23.578125 51.90625 
L 23.578125 46.6875 
L 15.28125 46.6875 
L 29.890625 10.984375 
L 44.484375 46.6875 
L 36.71875 46.6875 
L 36.71875 51.90625 
L 56.203125 51.90625 
L 56.203125 46.6875 
L 50.390625 46.6875 
L 26.609375 -11.71875 
Q 24.171875 -17.78125 21.1875 -20 
Q 18.21875 -22.21875 12.796875 -22.21875 
Q 10.5 -22.21875 8.078125 -21.828125 
Q 5.671875 -21.4375 3.21875 -20.703125 
L 3.21875 -10.796875 
L 7.8125 -10.796875 
Q 8.109375 -14.109375 9.5 -15.546875 
Q 10.890625 -17 13.8125 -17 
Q 16.5 -17 18.140625 -15.5 
Q 19.78125 -14.015625 21.578125 -9.515625 
z
" id="DejaVuSerif-121"/>
     </defs>
     <g transform="translate(11.05625 191.853438)rotate(-90)scale(0.1 -0.1)">
      <use xlink:href="#DejaVuSerif-84"/>
      <use x="58.949219" xlink:href="#DejaVuSerif-101"/>
      <use x="118.128906" xlink:href="#DejaVuSerif-115"/>
      <use x="169.447266" xlink:href="#DejaVuSerif-116"/>
      <use x="209.632812" xlink:href="#DejaVuSerif-32"/>
      <use x="241.419922" xlink:href="#DejaVuSerif-65"/>
      <use x="313.636719" xlink:href="#DejaVuSerif-99"/>
      <use x="369.642578" xlink:href="#DejaVuSerif-99"/>
      <use x="425.648438" xlink:href="#DejaVuSerif-117"/>
      <use x="490.052734" xlink:href="#DejaVuSerif-114"/>
      <use x="537.855469" xlink:href="#DejaVuSerif-97"/>
      <use x="597.474609" xlink:href="#DejaVuSerif-99"/>
      <use x="653.480469" xlink:href="#DejaVuSerif-121"/>
      <use x="709.974609" xlink:href="#DejaVuSerif-32"/>
      <use x="741.761719" xlink:href="#DejaVuSerif-105"/>
      <use x="773.744141" xlink:href="#DejaVuSerif-110"/>
      <use x="838.148438" xlink:href="#DejaVuSerif-32"/>
      <use x="869.935547" xlink:href="#DejaVuSerif-80"/>
      <use x="932.720703" xlink:href="#DejaVuSerif-101"/>
      <use x="991.900391" xlink:href="#DejaVuSerif-114"/>
      <use x="1039.703125" xlink:href="#DejaVuSerif-99"/>
      <use x="1095.708984" xlink:href="#DejaVuSerif-101"/>
      <use x="1154.888672" xlink:href="#DejaVuSerif-110"/>
      <use x="1219.292969" xlink:href="#DejaVuSerif-116"/>
     </g>
    </g>
   </g>
   <g id="line2d_108">
    <path clip-path="url(#pe738143284)" d="M 29.649962 60.010623 
L 47.730082 54.682499 
L 68.33964 48.770074 
L 90.235339 48.096013 
L 112.219339 45.537693 
L 133.314481 43.681727 
L 152.835865 42.444449 
L 170.383246 44.636675 
L 185.793534 45.795661 
L 199.078338 46.335612 
L 210.359749 49.613899 
L 219.827115 50.9184 
L 227.695935 52.965609 
L 234.186128 59.518885 
L 239.508238 63.436562 
L 243.850365 69.118965 
L 247.378746 75.415372 
L 250.236357 84.907285 
L 252.546418 97.338243 
L 254.407806 113.038765 
L 255.908173 128.08717 
L 257.113498 138.91434 
" style="fill:none;stroke:#0c5da5;stroke-linecap:square;"/>
   </g>
   <g id="line2d_109">
    <path clip-path="url(#pe738143284)" d="M 29.649962 48.260605 
L 47.730082 42.402248 
L 68.33964 39.103739 
L 90.235339 38.872455 
L 112.219339 38.297539 
L 133.314481 38.769588 
L 152.835865 38.254579 
L 170.383246 39.215016 
L 185.793534 39.719379 
L 199.078338 40.171523 
L 210.359749 42.832341 
L 219.827115 43.866326 
L 227.695935 46.650681 
L 234.186128 49.818231 
L 239.508238 52.820584 
L 243.850365 56.504892 
L 247.378746 62.529432 
L 250.236357 68.033966 
L 252.546418 75.690011 
L 254.407806 81.832428 
L 255.908173 89.933674 
L 257.113498 101.009276 
L 258.082253 116.329995 
L 258.85981 130.348255 
L 259.483071 130.836463 
" style="fill:none;stroke:#00b945;stroke-linecap:square;"/>
   </g>
   <g id="line2d_110">
    <path clip-path="url(#pe738143284)" d="M 29.649962 46.849446 
L 47.730082 44.318802 
L 68.33964 40.358948 
L 90.235339 36.564307 
L 112.219339 37.238419 
L 133.314481 40.733345 
L 152.835865 39.480156 
L 170.383246 39.292023 
L 185.793534 40.801353 
L 199.078338 157.943537 
L 210.359749 39.45926 
L 219.827115 168.053053 
L 227.695935 46.961175 
L 234.186128 96.606951 
L 239.508238 57.406429 
L 243.850365 58.441136 
L 247.378746 148.590187 
L 250.236357 68.113979 
L 252.546418 75.730934 
L 254.407806 83.793242 
L 255.908173 94.163615 
L 257.113498 111.54469 
L 258.082253 122.666624 
L 258.85981 132.996574 
L 259.483071 125.878213 
" style="fill:none;stroke:#ff9500;stroke-linecap:square;"/>
   </g>
   <g id="patch_3">
    <path d="M 33.503125 254.16 
L 33.503125 3.6 
" style="fill:none;stroke:#000000;stroke-linecap:square;stroke-linejoin:miter;stroke-width:0.5;"/>
   </g>
   <g id="patch_4">
    <path d="M 287.139489 254.16 
L 287.139489 3.6 
" style="fill:none;stroke:#000000;stroke-linecap:square;stroke-linejoin:miter;stroke-width:0.5;"/>
   </g>
   <g id="patch_5">
    <path d="M 33.503125 254.16 
L 287.139489 254.16 
" style="fill:none;stroke:#000000;stroke-linecap:square;stroke-linejoin:miter;stroke-width:0.5;"/>
   </g>
   <g id="patch_6">
    <path d="M 33.503125 3.6 
L 287.139489 3.6 
" style="fill:none;stroke:#000000;stroke-linecap:square;stroke-linejoin:miter;stroke-width:0.5;"/>
   </g>
  </g>
  <g id="axes_2">
   <g id="patch_7">
    <path d="M 337.866761 254.16 
L 591.503125 254.16 
L 591.503125 3.6 
L 337.866761 3.6 
z
" style="fill:#ffffff;"/>
   </g>
   <g id="PolyCollection_4">
    <path clip-path="url(#p3a05ba10e1)" d="M 333.999815 63.144762 
L 333.999815 68.065336 
L 352.195592 52.361228 
L 372.937139 49.453253 
L 394.973142 42.938144 
L 394.973142 37.863029 
L 394.973142 37.863029 
L 372.937139 45.22836 
L 352.195592 47.63057 
L 333.999815 63.144762 
z
" style="fill:#0c5da5;fill-opacity:0.2;stroke:#0c5da5;stroke-opacity:0.2;"/>
    <path clip-path="url(#p3a05ba10e1)" d="M 417.097861 36.968955 
L 417.097861 42.101346 
L 417.097861 36.968955 
L 417.097861 36.968955 
z
" style="fill:#0c5da5;fill-opacity:0.2;stroke:#0c5da5;stroke-opacity:0.2;"/>
    <path clip-path="url(#p3a05ba10e1)" d="M 438.328312 35.523447 
L 438.328312 40.51711 
L 438.328312 35.523447 
L 438.328312 35.523447 
z
" style="fill:#0c5da5;fill-opacity:0.2;stroke:#0c5da5;stroke-opacity:0.2;"/>
    <path clip-path="url(#p3a05ba10e1)" d="M 457.975008 36.99818 
L 457.975008 40.745296 
L 457.975008 36.99818 
L 457.975008 36.99818 
z
" style="fill:#0c5da5;fill-opacity:0.2;stroke:#0c5da5;stroke-opacity:0.2;"/>
    <path clip-path="url(#p3a05ba10e1)" d="M 475.634424 34.623462 
L 475.634424 41.999628 
L 475.634424 34.623462 
L 475.634424 34.623462 
z
" style="fill:#0c5da5;fill-opacity:0.2;stroke:#0c5da5;stroke-opacity:0.2;"/>
    <path clip-path="url(#p3a05ba10e1)" d="M 491.144539 39.136304 
L 491.144539 46.343673 
L 504.512837 43.613966 
L 515.866893 49.703499 
L 525.394879 55.884557 
L 533.314081 60.427152 
L 539.845348 68.278882 
L 545.201525 77.696319 
L 549.570443 91.550472 
L 553.121395 101.948512 
L 555.996259 118.277565 
L 558.32057 145.18592 
L 560.195421 174.204903 
L 561.704335 196.834356 
L 561.704335 176.265795 
L 561.704335 176.265795 
L 560.195421 160.241446 
L 558.32057 133.549755 
L 555.996259 113.438155 
L 553.121395 94.609312 
L 549.570443 81.977656 
L 545.201525 70.21448 
L 539.845348 62.904049 
L 533.314081 54.873756 
L 525.394879 49.327277 
L 515.866893 44.707793 
L 504.512837 39.097248 
L 491.144539 39.136304 
z
" style="fill:#0c5da5;fill-opacity:0.2;stroke:#0c5da5;stroke-opacity:0.2;"/>
   </g>
   <g id="PolyCollection_5">
    <path clip-path="url(#p3a05ba10e1)" d="M 333.999815 41.632025 
L 333.999815 46.573129 
L 352.195592 38.67252 
L 372.937139 36.600688 
L 394.973142 32.582595 
L 417.097861 34.274975 
L 438.328312 34.771984 
L 457.975008 36.912951 
L 475.634424 35.947006 
L 491.144539 37.467262 
L 504.512837 36.739758 
L 504.512837 29.486326 
L 504.512837 29.486326 
L 491.144539 30.115063 
L 475.634424 31.356219 
L 457.975008 28.441899 
L 438.328312 27.136312 
L 417.097861 28.069923 
L 394.973142 27.843822 
L 372.937139 30.233878 
L 352.195592 32.580622 
L 333.999815 41.632025 
z
" style="fill:#00b945;fill-opacity:0.2;stroke:#00b945;stroke-opacity:0.2;"/>
    <path clip-path="url(#p3a05ba10e1)" d="M 515.866893 35.768997 
L 515.866893 43.278186 
L 515.866893 35.768997 
L 515.866893 35.768997 
z
" style="fill:#00b945;fill-opacity:0.2;stroke:#00b945;stroke-opacity:0.2;"/>
    <path clip-path="url(#p3a05ba10e1)" d="M 525.394879 36.868632 
L 525.394879 42.312866 
L 525.394879 36.868632 
L 525.394879 36.868632 
z
" style="fill:#00b945;fill-opacity:0.2;stroke:#00b945;stroke-opacity:0.2;"/>
    <path clip-path="url(#p3a05ba10e1)" d="M 533.314081 40.573188 
L 533.314081 48.848406 
L 533.314081 40.573188 
L 533.314081 40.573188 
z
" style="fill:#00b945;fill-opacity:0.2;stroke:#00b945;stroke-opacity:0.2;"/>
    <path clip-path="url(#p3a05ba10e1)" d="M 539.845348 47.194884 
L 539.845348 52.496232 
L 539.845348 47.194884 
L 539.845348 47.194884 
z
" style="fill:#00b945;fill-opacity:0.2;stroke:#00b945;stroke-opacity:0.2;"/>
    <path clip-path="url(#p3a05ba10e1)" d="M 545.201525 57.147853 
L 545.201525 62.59146 
L 549.570443 72.398759 
L 553.121395 81.547505 
L 555.996259 93.009576 
L 558.32057 108.785454 
L 560.195421 127.171698 
L 561.704335 144.563591 
L 562.917365 166.142424 
L 563.893373 195.437753 
L 563.893373 184.506516 
L 563.893373 184.506516 
L 562.917365 154.908914 
L 561.704335 129.983819 
L 560.195421 114.504771 
L 558.32057 97.519316 
L 555.996259 82.499503 
L 553.121395 73.843591 
L 549.570443 63.385299 
L 545.201525 57.147853 
z
" style="fill:#00b945;fill-opacity:0.2;stroke:#00b945;stroke-opacity:0.2;"/>
   </g>
   <g id="PolyCollection_6">
    <defs>
     <path d="M 333.999815 -272.836149 
L 333.999815 -259.186058 
L 352.195592 -276.984577 
L 372.937139 -272.520188 
L 394.973142 -260.299944 
L 417.097861 -279.361482 
L 438.328312 -275.541585 
L 457.975008 -250.497038 
L 475.634424 -275.71175 
L 491.144539 -278.328271 
L 504.512837 -270.434874 
L 515.866893 -247.415128 
L 525.394879 -264.958922 
L 533.314081 -252.121372 
L 539.845348 -253.813032 
L 545.201525 -202.194019 
L 549.570443 -211.177729 
L 553.121395 -227.667879 
L 555.996259 -190.097218 
L 558.32057 -179.465309 
L 560.195421 -130.244175 
L 561.704335 -146.724136 
L 562.917365 -65.751713 
L 563.893373 -100.398886 
L 563.893373 -122.560392 
L 563.893373 -122.560392 
L 562.917365 -163.479253 
L 561.704335 -174.593918 
L 560.195421 -195.798374 
L 558.32057 -217.497315 
L 555.996259 -229.091614 
L 553.121395 -241.225064 
L 549.570443 -251.679456 
L 545.201525 -258.138685 
L 539.845348 -270.757269 
L 533.314081 -273.012735 
L 525.394879 -275.86805 
L 515.866893 -280.29324 
L 504.512837 -285.826568 
L 491.144539 -287.970327 
L 475.634424 -290.417651 
L 457.975008 -288.813204 
L 438.328312 -289.702839 
L 417.097861 -291.796871 
L 394.973142 -286.294378 
L 372.937139 -289.904087 
L 352.195592 -283.846217 
L 333.999815 -272.836149 
z
" id="m2bd52edff2" style="stroke:#ff9500;stroke-opacity:0.2;"/>
    </defs>
    <g clip-path="url(#p3a05ba10e1)">
     <use style="fill:#ff9500;fill-opacity:0.2;stroke:#ff9500;stroke-opacity:0.2;" x="0" xlink:href="#m2bd52edff2" y="313.270125"/>
    </g>
   </g>
   <g id="matplotlib.axis_3">
    <g id="xtick_21">
     <g id="line2d_111">
      <path clip-path="url(#p3a05ba10e1)" d="M 352.194821 254.16 
L 352.194821 3.6 
" style="fill:none;stroke:#000000;stroke-dasharray:1.85,0.8;stroke-dashoffset:0;stroke-opacity:0.5;stroke-width:0.5;"/>
     </g>
     <g id="line2d_112">
      <g>
       <use style="stroke:#000000;stroke-width:0.5;" x="352.194821" xlink:href="#m2c4b54a78e" y="254.16"/>
      </g>
     </g>
     <g id="line2d_113">
      <g>
       <use style="stroke:#000000;stroke-width:0.5;" x="352.194821" xlink:href="#m1b75ce9086" y="3.6"/>
      </g>
     </g>
     <g id="text_14">
      <!-- 20 -->
      <g transform="translate(345.832321 265.258438)scale(0.1 -0.1)">
       <use xlink:href="#DejaVuSerif-50"/>
       <use x="63.623047" xlink:href="#DejaVuSerif-48"/>
      </g>
     </g>
    </g>
    <g id="xtick_22">
     <g id="line2d_114">
      <path clip-path="url(#p3a05ba10e1)" d="M 379.231643 254.16 
L 379.231643 3.6 
" style="fill:none;stroke:#000000;stroke-dasharray:1.85,0.8;stroke-dashoffset:0;stroke-opacity:0.5;stroke-width:0.5;"/>
     </g>
     <g id="line2d_115">
      <g>
       <use style="stroke:#000000;stroke-width:0.5;" x="379.231643" xlink:href="#m2c4b54a78e" y="254.16"/>
      </g>
     </g>
     <g id="line2d_116">
      <g>
       <use style="stroke:#000000;stroke-width:0.5;" x="379.231643" xlink:href="#m1b75ce9086" y="3.6"/>
      </g>
     </g>
     <g id="text_15">
      <!-- 40 -->
      <g transform="translate(372.869143 265.258438)scale(0.1 -0.1)">
       <use xlink:href="#DejaVuSerif-52"/>
       <use x="63.623047" xlink:href="#DejaVuSerif-48"/>
      </g>
     </g>
    </g>
    <g id="xtick_23">
     <g id="line2d_117">
      <path clip-path="url(#p3a05ba10e1)" d="M 419.406938 254.16 
L 419.406938 3.6 
" style="fill:none;stroke:#000000;stroke-dasharray:1.85,0.8;stroke-dashoffset:0;stroke-opacity:0.5;stroke-width:0.5;"/>
     </g>
     <g id="line2d_118">
      <g>
       <use style="stroke:#000000;stroke-width:0.5;" x="419.406938" xlink:href="#m2c4b54a78e" y="254.16"/>
      </g>
     </g>
     <g id="line2d_119">
      <g>
       <use style="stroke:#000000;stroke-width:0.5;" x="419.406938" xlink:href="#m1b75ce9086" y="3.6"/>
      </g>
     </g>
     <g id="text_16">
      <!-- 60 -->
      <g transform="translate(413.044438 265.258438)scale(0.1 -0.1)">
       <use xlink:href="#DejaVuSerif-54"/>
       <use x="63.623047" xlink:href="#DejaVuSerif-48"/>
      </g>
     </g>
    </g>
    <g id="xtick_24">
     <g id="line2d_120">
      <path clip-path="url(#p3a05ba10e1)" d="M 479.105313 254.16 
L 479.105313 3.6 
" style="fill:none;stroke:#000000;stroke-dasharray:1.85,0.8;stroke-dashoffset:0;stroke-opacity:0.5;stroke-width:0.5;"/>
     </g>
     <g id="line2d_121">
      <g>
       <use style="stroke:#000000;stroke-width:0.5;" x="479.105313" xlink:href="#m2c4b54a78e" y="254.16"/>
      </g>
     </g>
     <g id="line2d_122">
      <g>
       <use style="stroke:#000000;stroke-width:0.5;" x="479.105313" xlink:href="#m1b75ce9086" y="3.6"/>
      </g>
     </g>
     <g id="text_17">
      <!-- 80 -->
      <g transform="translate(472.742813 265.258438)scale(0.1 -0.1)">
       <use xlink:href="#DejaVuSerif-56"/>
       <use x="63.623047" xlink:href="#DejaVuSerif-48"/>
      </g>
     </g>
    </g>
    <g id="xtick_25">
     <g id="line2d_123">
      <path clip-path="url(#p3a05ba10e1)" d="M 567.813957 254.16 
L 567.813957 3.6 
" style="fill:none;stroke:#000000;stroke-dasharray:1.85,0.8;stroke-dashoffset:0;stroke-opacity:0.5;stroke-width:0.5;"/>
     </g>
     <g id="line2d_124">
      <g>
       <use style="stroke:#000000;stroke-width:0.5;" x="567.813957" xlink:href="#m2c4b54a78e" y="254.16"/>
      </g>
     </g>
     <g id="line2d_125">
      <g>
       <use style="stroke:#000000;stroke-width:0.5;" x="567.813957" xlink:href="#m1b75ce9086" y="3.6"/>
      </g>
     </g>
     <g id="text_18">
      <!-- 100 -->
      <g transform="translate(558.270207 265.258438)scale(0.1 -0.1)">
       <use xlink:href="#DejaVuSerif-49"/>
       <use x="63.623047" xlink:href="#DejaVuSerif-48"/>
       <use x="127.246094" xlink:href="#DejaVuSerif-48"/>
      </g>
     </g>
    </g>
    <g id="xtick_26">
     <g id="line2d_126">
      <g>
       <use style="stroke:#000000;stroke-width:0.5;" x="337.896843" xlink:href="#m030826714f" y="254.16"/>
      </g>
     </g>
     <g id="line2d_127">
      <g>
       <use style="stroke:#000000;stroke-width:0.5;" x="337.896843" xlink:href="#m4d64df50e1" y="3.6"/>
      </g>
     </g>
    </g>
    <g id="xtick_27">
     <g id="line2d_128">
      <g>
       <use style="stroke:#000000;stroke-width:0.5;" x="342.199478" xlink:href="#m030826714f" y="254.16"/>
      </g>
     </g>
     <g id="line2d_129">
      <g>
       <use style="stroke:#000000;stroke-width:0.5;" x="342.199478" xlink:href="#m4d64df50e1" y="3.6"/>
      </g>
     </g>
    </g>
    <g id="xtick_28">
     <g id="line2d_130">
      <g>
       <use style="stroke:#000000;stroke-width:0.5;" x="346.949933" xlink:href="#m030826714f" y="254.16"/>
      </g>
     </g>
     <g id="line2d_131">
      <g>
       <use style="stroke:#000000;stroke-width:0.5;" x="346.949933" xlink:href="#m4d64df50e1" y="3.6"/>
      </g>
     </g>
    </g>
    <g id="xtick_29">
     <g id="line2d_132">
      <g>
       <use style="stroke:#000000;stroke-width:0.5;" x="357.9856" xlink:href="#m030826714f" y="254.16"/>
      </g>
     </g>
     <g id="line2d_133">
      <g>
       <use style="stroke:#000000;stroke-width:0.5;" x="357.9856" xlink:href="#m4d64df50e1" y="3.6"/>
      </g>
     </g>
    </g>
    <g id="xtick_30">
     <g id="line2d_134">
      <g>
       <use style="stroke:#000000;stroke-width:0.5;" x="364.379088" xlink:href="#m030826714f" y="254.16"/>
      </g>
     </g>
     <g id="line2d_135">
      <g>
       <use style="stroke:#000000;stroke-width:0.5;" x="364.379088" xlink:href="#m4d64df50e1" y="3.6"/>
      </g>
     </g>
    </g>
    <g id="xtick_31">
     <g id="line2d_136">
      <g>
       <use style="stroke:#000000;stroke-width:0.5;" x="371.438016" xlink:href="#m030826714f" y="254.16"/>
      </g>
     </g>
     <g id="line2d_137">
      <g>
       <use style="stroke:#000000;stroke-width:0.5;" x="371.438016" xlink:href="#m4d64df50e1" y="3.6"/>
      </g>
     </g>
    </g>
    <g id="xtick_32">
     <g id="line2d_138">
      <g>
       <use style="stroke:#000000;stroke-width:0.5;" x="387.836436" xlink:href="#m030826714f" y="254.16"/>
      </g>
     </g>
     <g id="line2d_139">
      <g>
       <use style="stroke:#000000;stroke-width:0.5;" x="387.836436" xlink:href="#m4d64df50e1" y="3.6"/>
      </g>
     </g>
    </g>
    <g id="xtick_33">
     <g id="line2d_140">
      <g>
       <use style="stroke:#000000;stroke-width:0.5;" x="397.336823" xlink:href="#m030826714f" y="254.16"/>
      </g>
     </g>
     <g id="line2d_141">
      <g>
       <use style="stroke:#000000;stroke-width:0.5;" x="397.336823" xlink:href="#m4d64df50e1" y="3.6"/>
      </g>
     </g>
    </g>
    <g id="xtick_34">
     <g id="line2d_142">
      <g>
       <use style="stroke:#000000;stroke-width:0.5;" x="407.826018" xlink:href="#m030826714f" y="254.16"/>
      </g>
     </g>
     <g id="line2d_143">
      <g>
       <use style="stroke:#000000;stroke-width:0.5;" x="407.826018" xlink:href="#m4d64df50e1" y="3.6"/>
      </g>
     </g>
    </g>
    <g id="xtick_35">
     <g id="line2d_144">
      <g>
       <use style="stroke:#000000;stroke-width:0.5;" x="432.193208" xlink:href="#m030826714f" y="254.16"/>
      </g>
     </g>
     <g id="line2d_145">
      <g>
       <use style="stroke:#000000;stroke-width:0.5;" x="432.193208" xlink:href="#m4d64df50e1" y="3.6"/>
      </g>
     </g>
    </g>
    <g id="xtick_36">
     <g id="line2d_146">
      <g>
       <use style="stroke:#000000;stroke-width:0.5;" x="446.310284" xlink:href="#m030826714f" y="254.16"/>
      </g>
     </g>
     <g id="line2d_147">
      <g>
       <use style="stroke:#000000;stroke-width:0.5;" x="446.310284" xlink:href="#m4d64df50e1" y="3.6"/>
      </g>
     </g>
    </g>
    <g id="xtick_37">
     <g id="line2d_148">
      <g>
       <use style="stroke:#000000;stroke-width:0.5;" x="461.896676" xlink:href="#m030826714f" y="254.16"/>
      </g>
     </g>
     <g id="line2d_149">
      <g>
       <use style="stroke:#000000;stroke-width:0.5;" x="461.896676" xlink:href="#m4d64df50e1" y="3.6"/>
      </g>
     </g>
    </g>
    <g id="xtick_38">
     <g id="line2d_150">
      <g>
       <use style="stroke:#000000;stroke-width:0.5;" x="498.105038" xlink:href="#m030826714f" y="254.16"/>
      </g>
     </g>
     <g id="line2d_151">
      <g>
       <use style="stroke:#000000;stroke-width:0.5;" x="498.105038" xlink:href="#m4d64df50e1" y="3.6"/>
      </g>
     </g>
    </g>
    <g id="xtick_39">
     <g id="line2d_152">
      <g>
       <use style="stroke:#000000;stroke-width:0.5;" x="519.08227" xlink:href="#m030826714f" y="254.16"/>
      </g>
     </g>
     <g id="line2d_153">
      <g>
       <use style="stroke:#000000;stroke-width:0.5;" x="519.08227" xlink:href="#m4d64df50e1" y="3.6"/>
      </g>
     </g>
    </g>
    <g id="xtick_40">
     <g id="line2d_154">
      <g>
       <use style="stroke:#000000;stroke-width:0.5;" x="542.242829" xlink:href="#m030826714f" y="254.16"/>
      </g>
     </g>
     <g id="line2d_155">
      <g>
       <use style="stroke:#000000;stroke-width:0.5;" x="542.242829" xlink:href="#m4d64df50e1" y="3.6"/>
      </g>
     </g>
    </g>
    <g id="text_19">
     <!-- Percentage of Pruned Weights -->
     <g transform="translate(387.795881 278.936563)scale(0.1 -0.1)">
      <use xlink:href="#DejaVuSerif-80"/>
      <use x="62.785156" xlink:href="#DejaVuSerif-101"/>
      <use x="121.964844" xlink:href="#DejaVuSerif-114"/>
      <use x="169.767578" xlink:href="#DejaVuSerif-99"/>
      <use x="225.773438" xlink:href="#DejaVuSerif-101"/>
      <use x="284.953125" xlink:href="#DejaVuSerif-110"/>
      <use x="349.357422" xlink:href="#DejaVuSerif-116"/>
      <use x="389.542969" xlink:href="#DejaVuSerif-97"/>
      <use x="449.162109" xlink:href="#DejaVuSerif-103"/>
      <use x="513.175781" xlink:href="#DejaVuSerif-101"/>
      <use x="572.355469" xlink:href="#DejaVuSerif-32"/>
      <use x="604.142578" xlink:href="#DejaVuSerif-111"/>
      <use x="664.347656" xlink:href="#DejaVuSerif-102"/>
      <use x="701.359375" xlink:href="#DejaVuSerif-32"/>
      <use x="733.146484" xlink:href="#DejaVuSerif-80"/>
      <use x="800.431641" xlink:href="#DejaVuSerif-114"/>
      <use x="848.234375" xlink:href="#DejaVuSerif-117"/>
      <use x="912.638672" xlink:href="#DejaVuSerif-110"/>
      <use x="977.042969" xlink:href="#DejaVuSerif-101"/>
      <use x="1036.222656" xlink:href="#DejaVuSerif-100"/>
      <use x="1100.236328" xlink:href="#DejaVuSerif-32"/>
      <use x="1132.023438" xlink:href="#DejaVuSerif-87"/>
      <use x="1226.681641" xlink:href="#DejaVuSerif-101"/>
      <use x="1285.861328" xlink:href="#DejaVuSerif-105"/>
      <use x="1317.84375" xlink:href="#DejaVuSerif-103"/>
      <use x="1381.857422" xlink:href="#DejaVuSerif-104"/>
      <use x="1446.261719" xlink:href="#DejaVuSerif-116"/>
      <use x="1486.447266" xlink:href="#DejaVuSerif-115"/>
     </g>
    </g>
   </g>
   <g id="matplotlib.axis_4">
    <g id="ytick_29">
     <g id="line2d_156">
      <path clip-path="url(#p3a05ba10e1)" d="M 337.866761 235.447289 
L 591.503125 235.447289 
" style="fill:none;stroke:#000000;stroke-dasharray:1.85,0.8;stroke-dashoffset:0;stroke-opacity:0.5;stroke-width:0.5;"/>
     </g>
     <g id="line2d_157">
      <g>
       <use style="stroke:#000000;stroke-width:0.5;" x="337.866761" xlink:href="#m5d43b77f7b" y="235.447289"/>
      </g>
     </g>
     <g id="line2d_158">
      <g>
       <use style="stroke:#000000;stroke-width:0.5;" x="591.503125" xlink:href="#me01a217c2e" y="235.447289"/>
      </g>
     </g>
     <g id="text_20">
      <!-- 86 -->
      <g transform="translate(321.641761 239.246508)scale(0.1 -0.1)">
       <use xlink:href="#DejaVuSerif-56"/>
       <use x="63.623047" xlink:href="#DejaVuSerif-54"/>
      </g>
     </g>
    </g>
    <g id="ytick_30">
     <g id="line2d_159">
      <path clip-path="url(#p3a05ba10e1)" d="M 337.866761 202.622886 
L 591.503125 202.622886 
" style="fill:none;stroke:#000000;stroke-dasharray:1.85,0.8;stroke-dashoffset:0;stroke-opacity:0.5;stroke-width:0.5;"/>
     </g>
     <g id="line2d_160">
      <g>
       <use style="stroke:#000000;stroke-width:0.5;" x="337.866761" xlink:href="#m5d43b77f7b" y="202.622886"/>
      </g>
     </g>
     <g id="line2d_161">
      <g>
       <use style="stroke:#000000;stroke-width:0.5;" x="591.503125" xlink:href="#me01a217c2e" y="202.622886"/>
      </g>
     </g>
     <g id="text_21">
      <!-- 88 -->
      <g transform="translate(321.641761 206.422105)scale(0.1 -0.1)">
       <use xlink:href="#DejaVuSerif-56"/>
       <use x="63.623047" xlink:href="#DejaVuSerif-56"/>
      </g>
     </g>
    </g>
    <g id="ytick_31">
     <g id="line2d_162">
      <path clip-path="url(#p3a05ba10e1)" d="M 337.866761 162.905359 
L 591.503125 162.905359 
" style="fill:none;stroke:#000000;stroke-dasharray:1.85,0.8;stroke-dashoffset:0;stroke-opacity:0.5;stroke-width:0.5;"/>
     </g>
     <g id="line2d_163">
      <g>
       <use style="stroke:#000000;stroke-width:0.5;" x="337.866761" xlink:href="#m5d43b77f7b" y="162.905359"/>
      </g>
     </g>
     <g id="line2d_164">
      <g>
       <use style="stroke:#000000;stroke-width:0.5;" x="591.503125" xlink:href="#me01a217c2e" y="162.905359"/>
      </g>
     </g>
     <g id="text_22">
      <!-- 90 -->
      <g transform="translate(321.641761 166.704577)scale(0.1 -0.1)">
       <use xlink:href="#DejaVuSerif-57"/>
       <use x="63.623047" xlink:href="#DejaVuSerif-48"/>
      </g>
     </g>
    </g>
    <g id="ytick_32">
     <g id="line2d_165">
      <path clip-path="url(#p3a05ba10e1)" d="M 337.866761 114.847151 
L 591.503125 114.847151 
" style="fill:none;stroke:#000000;stroke-dasharray:1.85,0.8;stroke-dashoffset:0;stroke-opacity:0.5;stroke-width:0.5;"/>
     </g>
     <g id="line2d_166">
      <g>
       <use style="stroke:#000000;stroke-width:0.5;" x="337.866761" xlink:href="#m5d43b77f7b" y="114.847151"/>
      </g>
     </g>
     <g id="line2d_167">
      <g>
       <use style="stroke:#000000;stroke-width:0.5;" x="591.503125" xlink:href="#me01a217c2e" y="114.847151"/>
      </g>
     </g>
     <g id="text_23">
      <!-- 92 -->
      <g transform="translate(321.641761 118.646369)scale(0.1 -0.1)">
       <use xlink:href="#DejaVuSerif-57"/>
       <use x="63.623047" xlink:href="#DejaVuSerif-50"/>
      </g>
     </g>
    </g>
    <g id="ytick_33">
     <g id="line2d_168">
      <path clip-path="url(#p3a05ba10e1)" d="M 337.866761 56.696719 
L 591.503125 56.696719 
" style="fill:none;stroke:#000000;stroke-dasharray:1.85,0.8;stroke-dashoffset:0;stroke-opacity:0.5;stroke-width:0.5;"/>
     </g>
     <g id="line2d_169">
      <g>
       <use style="stroke:#000000;stroke-width:0.5;" x="337.866761" xlink:href="#m5d43b77f7b" y="56.696719"/>
      </g>
     </g>
     <g id="line2d_170">
      <g>
       <use style="stroke:#000000;stroke-width:0.5;" x="591.503125" xlink:href="#me01a217c2e" y="56.696719"/>
      </g>
     </g>
     <g id="text_24">
      <!-- 94 -->
      <g transform="translate(321.641761 60.495937)scale(0.1 -0.1)">
       <use xlink:href="#DejaVuSerif-57"/>
       <use x="63.623047" xlink:href="#DejaVuSerif-52"/>
      </g>
     </g>
    </g>
    <g id="ytick_34">
     <g id="line2d_171">
      <g>
       <use style="stroke:#000000;stroke-width:0.5;" x="337.866761" xlink:href="#me9bb54d6c9" y="249.656987"/>
      </g>
     </g>
     <g id="line2d_172">
      <g>
       <use style="stroke:#000000;stroke-width:0.5;" x="591.503125" xlink:href="#m8f6a1d1486" y="249.656987"/>
      </g>
     </g>
    </g>
    <g id="ytick_35">
     <g id="line2d_173">
      <g>
       <use style="stroke:#000000;stroke-width:0.5;" x="337.866761" xlink:href="#me9bb54d6c9" y="242.721397"/>
      </g>
     </g>
     <g id="line2d_174">
      <g>
       <use style="stroke:#000000;stroke-width:0.5;" x="591.503125" xlink:href="#m8f6a1d1486" y="242.721397"/>
      </g>
     </g>
    </g>
    <g id="ytick_36">
     <g id="line2d_175">
      <g>
       <use style="stroke:#000000;stroke-width:0.5;" x="337.866761" xlink:href="#me9bb54d6c9" y="227.81814"/>
      </g>
     </g>
     <g id="line2d_176">
      <g>
       <use style="stroke:#000000;stroke-width:0.5;" x="591.503125" xlink:href="#m8f6a1d1486" y="227.81814"/>
      </g>
     </g>
    </g>
    <g id="ytick_37">
     <g id="line2d_177">
      <g>
       <use style="stroke:#000000;stroke-width:0.5;" x="337.866761" xlink:href="#me9bb54d6c9" y="219.816621"/>
      </g>
     </g>
     <g id="line2d_178">
      <g>
       <use style="stroke:#000000;stroke-width:0.5;" x="591.503125" xlink:href="#m8f6a1d1486" y="219.816621"/>
      </g>
     </g>
    </g>
    <g id="ytick_38">
     <g id="line2d_179">
      <g>
       <use style="stroke:#000000;stroke-width:0.5;" x="337.866761" xlink:href="#me9bb54d6c9" y="211.424557"/>
      </g>
     </g>
     <g id="line2d_180">
      <g>
       <use style="stroke:#000000;stroke-width:0.5;" x="591.503125" xlink:href="#m8f6a1d1486" y="211.424557"/>
      </g>
     </g>
    </g>
    <g id="ytick_39">
     <g id="line2d_181">
      <g>
       <use style="stroke:#000000;stroke-width:0.5;" x="337.866761" xlink:href="#me9bb54d6c9" y="193.391616"/>
      </g>
     </g>
     <g id="line2d_182">
      <g>
       <use style="stroke:#000000;stroke-width:0.5;" x="591.503125" xlink:href="#m8f6a1d1486" y="193.391616"/>
      </g>
     </g>
    </g>
    <g id="ytick_40">
     <g id="line2d_183">
      <g>
       <use style="stroke:#000000;stroke-width:0.5;" x="337.866761" xlink:href="#me9bb54d6c9" y="183.709778"/>
      </g>
     </g>
     <g id="line2d_184">
      <g>
       <use style="stroke:#000000;stroke-width:0.5;" x="591.503125" xlink:href="#m8f6a1d1486" y="183.709778"/>
      </g>
     </g>
    </g>
    <g id="ytick_41">
     <g id="line2d_185">
      <g>
       <use style="stroke:#000000;stroke-width:0.5;" x="337.866761" xlink:href="#me9bb54d6c9" y="173.555381"/>
      </g>
     </g>
     <g id="line2d_186">
      <g>
       <use style="stroke:#000000;stroke-width:0.5;" x="591.503125" xlink:href="#m8f6a1d1486" y="173.555381"/>
      </g>
     </g>
    </g>
    <g id="ytick_42">
     <g id="line2d_187">
      <g>
       <use style="stroke:#000000;stroke-width:0.5;" x="337.866761" xlink:href="#me9bb54d6c9" y="151.735522"/>
      </g>
     </g>
     <g id="line2d_188">
      <g>
       <use style="stroke:#000000;stroke-width:0.5;" x="591.503125" xlink:href="#m8f6a1d1486" y="151.735522"/>
      </g>
     </g>
    </g>
    <g id="ytick_43">
     <g id="line2d_189">
      <g>
       <use style="stroke:#000000;stroke-width:0.5;" x="337.866761" xlink:href="#me9bb54d6c9" y="140.020498"/>
      </g>
     </g>
     <g id="line2d_190">
      <g>
       <use style="stroke:#000000;stroke-width:0.5;" x="591.503125" xlink:href="#m8f6a1d1486" y="140.020498"/>
      </g>
     </g>
    </g>
    <g id="ytick_44">
     <g id="line2d_191">
      <g>
       <use style="stroke:#000000;stroke-width:0.5;" x="337.866761" xlink:href="#me9bb54d6c9" y="127.733677"/>
      </g>
     </g>
     <g id="line2d_192">
      <g>
       <use style="stroke:#000000;stroke-width:0.5;" x="591.503125" xlink:href="#m8f6a1d1486" y="127.733677"/>
      </g>
     </g>
    </g>
    <g id="ytick_45">
     <g id="line2d_193">
      <g>
       <use style="stroke:#000000;stroke-width:0.5;" x="337.866761" xlink:href="#me9bb54d6c9" y="101.331648"/>
      </g>
     </g>
     <g id="line2d_194">
      <g>
       <use style="stroke:#000000;stroke-width:0.5;" x="591.503125" xlink:href="#m8f6a1d1486" y="101.331648"/>
      </g>
     </g>
    </g>
    <g id="ytick_46">
     <g id="line2d_195">
      <g>
       <use style="stroke:#000000;stroke-width:0.5;" x="337.866761" xlink:href="#me9bb54d6c9" y="87.156469"/>
      </g>
     </g>
     <g id="line2d_196">
      <g>
       <use style="stroke:#000000;stroke-width:0.5;" x="591.503125" xlink:href="#m8f6a1d1486" y="87.156469"/>
      </g>
     </g>
    </g>
    <g id="ytick_47">
     <g id="line2d_197">
      <g>
       <use style="stroke:#000000;stroke-width:0.5;" x="337.866761" xlink:href="#me9bb54d6c9" y="72.289415"/>
      </g>
     </g>
     <g id="line2d_198">
      <g>
       <use style="stroke:#000000;stroke-width:0.5;" x="591.503125" xlink:href="#m8f6a1d1486" y="72.289415"/>
      </g>
     </g>
    </g>
    <g id="ytick_48">
     <g id="line2d_199">
      <g>
       <use style="stroke:#000000;stroke-width:0.5;" x="337.866761" xlink:href="#me9bb54d6c9" y="40.34296"/>
      </g>
     </g>
     <g id="line2d_200">
      <g>
       <use style="stroke:#000000;stroke-width:0.5;" x="591.503125" xlink:href="#m8f6a1d1486" y="40.34296"/>
      </g>
     </g>
    </g>
    <g id="ytick_49">
     <g id="line2d_201">
      <g>
       <use style="stroke:#000000;stroke-width:0.5;" x="337.866761" xlink:href="#me9bb54d6c9" y="23.190994"/>
      </g>
     </g>
     <g id="line2d_202">
      <g>
       <use style="stroke:#000000;stroke-width:0.5;" x="591.503125" xlink:href="#m8f6a1d1486" y="23.190994"/>
      </g>
     </g>
    </g>
    <g id="ytick_50">
     <g id="line2d_203">
      <g>
       <use style="stroke:#000000;stroke-width:0.5;" x="337.866761" xlink:href="#me9bb54d6c9" y="5.201859"/>
      </g>
     </g>
     <g id="line2d_204">
      <g>
       <use style="stroke:#000000;stroke-width:0.5;" x="591.503125" xlink:href="#m8f6a1d1486" y="5.201859"/>
      </g>
     </g>
    </g>
    <g id="text_25">
     <!-- Test Accuracy in Percent -->
     <g transform="translate(315.419886 191.853438)rotate(-90)scale(0.1 -0.1)">
      <use xlink:href="#DejaVuSerif-84"/>
      <use x="58.949219" xlink:href="#DejaVuSerif-101"/>
      <use x="118.128906" xlink:href="#DejaVuSerif-115"/>
      <use x="169.447266" xlink:href="#DejaVuSerif-116"/>
      <use x="209.632812" xlink:href="#DejaVuSerif-32"/>
      <use x="241.419922" xlink:href="#DejaVuSerif-65"/>
      <use x="313.636719" xlink:href="#DejaVuSerif-99"/>
      <use x="369.642578" xlink:href="#DejaVuSerif-99"/>
      <use x="425.648438" xlink:href="#DejaVuSerif-117"/>
      <use x="490.052734" xlink:href="#DejaVuSerif-114"/>
      <use x="537.855469" xlink:href="#DejaVuSerif-97"/>
      <use x="597.474609" xlink:href="#DejaVuSerif-99"/>
      <use x="653.480469" xlink:href="#DejaVuSerif-121"/>
      <use x="709.974609" xlink:href="#DejaVuSerif-32"/>
      <use x="741.761719" xlink:href="#DejaVuSerif-105"/>
      <use x="773.744141" xlink:href="#DejaVuSerif-110"/>
      <use x="838.148438" xlink:href="#DejaVuSerif-32"/>
      <use x="869.935547" xlink:href="#DejaVuSerif-80"/>
      <use x="932.720703" xlink:href="#DejaVuSerif-101"/>
      <use x="991.900391" xlink:href="#DejaVuSerif-114"/>
      <use x="1039.703125" xlink:href="#DejaVuSerif-99"/>
      <use x="1095.708984" xlink:href="#DejaVuSerif-101"/>
      <use x="1154.888672" xlink:href="#DejaVuSerif-110"/>
      <use x="1219.292969" xlink:href="#DejaVuSerif-116"/>
     </g>
    </g>
   </g>
   <g id="line2d_205">
    <path clip-path="url(#p3a05ba10e1)" d="M 333.999815 65.650298 
L 352.195592 49.953875 
L 372.937139 47.164396 
L 394.973142 40.445302 
L 394.973922 42.8097 
L 417.097861 39.486465 
L 417.098815 32.569444 
L 438.328312 37.992934 
L 438.329435 36.102645 
L 457.975008 38.841001 
L 457.976287 37.142829 
L 475.634424 38.093659 
L 475.635842 39.987676 
L 491.144539 42.643576 
L 504.512837 41.324557 
L 515.866893 47.189628 
L 525.394879 52.720773 
L 533.314081 57.89432 
L 539.845348 65.877071 
L 545.201525 73.890146 
L 549.570443 86.426245 
L 553.121395 98.124121 
L 555.996259 115.883369 
L 558.32057 139.588789 
L 560.195421 167.319731 
L 561.704335 186.845463 
" style="fill:none;stroke:#0c5da5;stroke-linecap:square;"/>
   </g>
   <g id="line2d_206">
    <path clip-path="url(#p3a05ba10e1)" d="M 333.999815 44.034024 
L 352.195592 35.542286 
L 372.937139 33.357621 
L 394.973142 30.220973 
L 417.097861 30.948259 
L 438.328312 30.65752 
L 457.975008 32.871783 
L 475.634424 33.449462 
L 491.144539 33.646186 
L 504.512837 32.978345 
L 504.514484 34.144068 
L 515.866893 38.99889 
L 515.86863 40.116444 
L 525.394879 39.701357 
L 525.396691 37.272638 
L 533.314081 44.339433 
L 533.315957 42.426216 
L 539.845348 49.835665 
L 539.847276 54.61464 
L 545.201525 59.807905 
L 549.570443 67.614383 
L 553.121395 77.569522 
L 555.996259 87.642314 
L 558.32057 103.091397 
L 560.195421 120.431035 
L 561.704335 136.430138 
L 562.917365 160.420226 
L 563.893373 190.218416 
" style="fill:none;stroke:#00b945;stroke-linecap:square;"/>
   </g>
   <g id="line2d_207">
    <path clip-path="url(#p3a05ba10e1)" d="M 333.999815 47.177012 
L 352.195592 32.963749 
L 372.937139 30.68396 
L 394.973142 36.844088 
L 417.097861 27.63058 
L 438.328312 30.022368 
L 457.975008 38.994585 
L 475.634424 29.9164 
L 491.144539 30.18126 
L 504.512837 34.510486 
L 515.866893 45.837129 
L 525.394879 42.937435 
L 533.314081 48.587099 
L 539.845348 50.853713 
L 545.201525 77.419946 
L 549.570443 77.78162 
L 553.121395 78.890875 
L 555.996259 100.662171 
L 558.32057 111.705854 
L 560.195421 143.665238 
L 561.704335 152.127134 
L 562.917365 193.741364 
L 563.893373 202.113937 
" style="fill:none;stroke:#ff9500;stroke-linecap:square;"/>
   </g>
   <g id="patch_8">
    <path d="M 337.866761 254.16 
L 337.866761 3.6 
" style="fill:none;stroke:#000000;stroke-linecap:square;stroke-linejoin:miter;stroke-width:0.5;"/>
   </g>
   <g id="patch_9">
    <path d="M 591.503125 254.16 
L 591.503125 3.6 
" style="fill:none;stroke:#000000;stroke-linecap:square;stroke-linejoin:miter;stroke-width:0.5;"/>
   </g>
   <g id="patch_10">
    <path d="M 337.866761 254.16 
L 591.503125 254.16 
" style="fill:none;stroke:#000000;stroke-linecap:square;stroke-linejoin:miter;stroke-width:0.5;"/>
   </g>
   <g id="patch_11">
    <path d="M 337.866761 3.6 
L 591.503125 3.6 
" style="fill:none;stroke:#000000;stroke-linecap:square;stroke-linejoin:miter;stroke-width:0.5;"/>
   </g>
  </g>
  <g id="legend_1">
   <g id="patch_12">
    <path d="M 48.367188 309.670125 
L 558.639063 309.670125 
Q 560.639063 309.670125 560.639063 307.670125 
L 560.639063 293.992 
Q 560.639063 291.992 558.639063 291.992 
L 48.367188 291.992 
Q 46.367188 291.992 46.367188 293.992 
L 46.367188 307.670125 
Q 46.367188 309.670125 48.367188 309.670125 
z
" style="fill:#ffffff;stroke:#cccccc;stroke-linejoin:miter;"/>
   </g>
   <g id="line2d_208">
    <path d="M 50.367188 300.090438 
L 70.367188 300.090438 
" style="fill:none;stroke:#0c5da5;stroke-linecap:square;"/>
   </g>
   <g id="line2d_209"/>
   <g id="text_26">
    <!-- ReLU ResNet20 -->
    <defs>
     <path d="M 47.90625 36.1875 
Q 51.3125 35.25 53.78125 33.03125 
Q 56.25 30.8125 58.203125 26.8125 
L 68.796875 5.171875 
L 77.6875 5.171875 
L 77.6875 0 
L 60.5 0 
L 49.125 23.1875 
Q 45.84375 29.9375 43.109375 31.90625 
Q 40.375 33.890625 35.59375 33.890625 
L 24.703125 33.890625 
L 24.703125 5.171875 
L 35.015625 5.171875 
L 35.015625 0 
L 5.515625 0 
L 5.515625 5.171875 
L 14.796875 5.171875 
L 14.796875 67.671875 
L 5.515625 67.671875 
L 5.515625 72.90625 
L 42.484375 72.90625 
Q 53.125 72.90625 58.90625 67.828125 
Q 64.703125 62.75 64.703125 53.421875 
Q 64.703125 45.90625 60.46875 41.578125 
Q 56.25 37.25 47.90625 36.1875 
z
M 24.703125 39.109375 
L 39.109375 39.109375 
Q 46.484375 39.109375 50 42.59375 
Q 53.515625 46.09375 53.515625 53.421875 
Q 53.515625 60.75 50 64.203125 
Q 46.484375 67.671875 39.109375 67.671875 
L 24.703125 67.671875 
z
" id="DejaVuSerif-82"/>
     <path d="M 5.515625 0 
L 5.515625 5.171875 
L 14.796875 5.171875 
L 14.796875 67.671875 
L 5.515625 67.671875 
L 5.515625 72.90625 
L 33.984375 72.90625 
L 33.984375 67.671875 
L 24.703125 67.671875 
L 24.703125 6 
L 58.015625 6 
L 58.015625 18.21875 
L 64.015625 18.21875 
L 64.015625 0 
z
" id="DejaVuSerif-76"/>
     <path d="M 14.015625 67.671875 
L 4.6875 67.671875 
L 4.6875 72.90625 
L 33.203125 72.90625 
L 33.203125 67.671875 
L 23.875 67.671875 
L 23.875 29.984375 
Q 23.875 16.015625 28.4375 10.5 
Q 33.015625 4.984375 44.1875 4.984375 
Q 55.375 4.984375 59.9375 10.5 
Q 64.5 16.015625 64.5 29.984375 
L 64.5 67.671875 
L 55.171875 67.671875 
L 55.171875 72.90625 
L 79.78125 72.90625 
L 79.78125 67.671875 
L 70.515625 67.671875 
L 70.515625 29 
Q 70.515625 12.359375 64.109375 5.46875 
Q 57.71875 -1.421875 42.390625 -1.421875 
Q 27.046875 -1.421875 20.53125 5.515625 
Q 14.015625 12.453125 14.015625 29 
z
" id="DejaVuSerif-85"/>
     <path d="M 4.890625 0 
L 4.890625 5.171875 
L 14.703125 5.171875 
L 14.703125 67.671875 
L 4.890625 67.671875 
L 4.890625 72.90625 
L 23.578125 72.90625 
L 67.28125 15.375 
L 67.28125 67.671875 
L 57.515625 67.671875 
L 57.515625 72.90625 
L 83.109375 72.90625 
L 83.109375 67.671875 
L 73.296875 67.671875 
L 73.296875 -1.421875 
L 67.390625 -1.421875 
L 20.703125 60.015625 
L 20.703125 5.171875 
L 30.515625 5.171875 
L 30.515625 0 
z
" id="DejaVuSerif-78"/>
    </defs>
    <g transform="translate(78.367188 303.590438)scale(0.1 -0.1)">
     <use xlink:href="#DejaVuSerif-82"/>
     <use x="75.292969" xlink:href="#DejaVuSerif-101"/>
     <use x="134.472656" xlink:href="#DejaVuSerif-76"/>
     <use x="195.378906" xlink:href="#DejaVuSerif-85"/>
     <use x="279.65625" xlink:href="#DejaVuSerif-32"/>
     <use x="311.443359" xlink:href="#DejaVuSerif-82"/>
     <use x="386.736328" xlink:href="#DejaVuSerif-101"/>
     <use x="445.916016" xlink:href="#DejaVuSerif-115"/>
     <use x="497.234375" xlink:href="#DejaVuSerif-78"/>
     <use x="584.734375" xlink:href="#DejaVuSerif-101"/>
     <use x="643.914062" xlink:href="#DejaVuSerif-116"/>
     <use x="684.099609" xlink:href="#DejaVuSerif-50"/>
     <use x="747.722656" xlink:href="#DejaVuSerif-48"/>
    </g>
   </g>
   <g id="line2d_210">
    <path d="M 179.504687 300.090438 
L 199.504687 300.090438 
" style="fill:none;stroke:#00b945;stroke-linecap:square;"/>
   </g>
   <g id="line2d_211"/>
   <g id="text_27">
    <!-- Univariate Rational ResNet20 -->
    <defs>
     <path d="M 24.703125 0 
L 5.609375 46.6875 
L -0.296875 46.6875 
L -0.296875 51.90625 
L 23.578125 51.90625 
L 23.578125 46.6875 
L 15.28125 46.6875 
L 29.890625 10.984375 
L 44.484375 46.6875 
L 36.71875 46.6875 
L 36.71875 51.90625 
L 56.203125 51.90625 
L 56.203125 46.6875 
L 50.390625 46.6875 
L 31.296875 0 
z
" id="DejaVuSerif-118"/>
     <path d="M 20.515625 5.171875 
L 29 5.171875 
L 29 0 
L 2.875 0 
L 2.875 5.171875 
L 11.53125 5.171875 
L 11.53125 70.796875 
L 2.875 70.796875 
L 2.875 75.984375 
L 20.515625 75.984375 
z
" id="DejaVuSerif-108"/>
    </defs>
    <g transform="translate(207.504687 303.590438)scale(0.1 -0.1)">
     <use xlink:href="#DejaVuSerif-85"/>
     <use x="84.277344" xlink:href="#DejaVuSerif-110"/>
     <use x="148.681641" xlink:href="#DejaVuSerif-105"/>
     <use x="180.664062" xlink:href="#DejaVuSerif-118"/>
     <use x="237.158203" xlink:href="#DejaVuSerif-97"/>
     <use x="296.777344" xlink:href="#DejaVuSerif-114"/>
     <use x="344.580078" xlink:href="#DejaVuSerif-105"/>
     <use x="376.5625" xlink:href="#DejaVuSerif-97"/>
     <use x="436.181641" xlink:href="#DejaVuSerif-116"/>
     <use x="476.367188" xlink:href="#DejaVuSerif-101"/>
     <use x="535.546875" xlink:href="#DejaVuSerif-32"/>
     <use x="567.333984" xlink:href="#DejaVuSerif-82"/>
     <use x="644.876953" xlink:href="#DejaVuSerif-97"/>
     <use x="704.496094" xlink:href="#DejaVuSerif-116"/>
     <use x="744.681641" xlink:href="#DejaVuSerif-105"/>
     <use x="776.664062" xlink:href="#DejaVuSerif-111"/>
     <use x="836.869141" xlink:href="#DejaVuSerif-110"/>
     <use x="901.273438" xlink:href="#DejaVuSerif-97"/>
     <use x="960.892578" xlink:href="#DejaVuSerif-108"/>
     <use x="992.875" xlink:href="#DejaVuSerif-32"/>
     <use x="1024.662109" xlink:href="#DejaVuSerif-82"/>
     <use x="1099.955078" xlink:href="#DejaVuSerif-101"/>
     <use x="1159.134766" xlink:href="#DejaVuSerif-115"/>
     <use x="1210.453125" xlink:href="#DejaVuSerif-78"/>
     <use x="1297.953125" xlink:href="#DejaVuSerif-101"/>
     <use x="1357.132812" xlink:href="#DejaVuSerif-116"/>
     <use x="1397.318359" xlink:href="#DejaVuSerif-50"/>
     <use x="1460.941406" xlink:href="#DejaVuSerif-48"/>
    </g>
   </g>
   <g id="line2d_212">
    <path d="M 379.967188 300.090438 
L 399.967188 300.090438 
" style="fill:none;stroke:#ff9500;stroke-linecap:square;"/>
   </g>
   <g id="line2d_213"/>
   <g id="text_28">
    <!-- Mixture of Experts ResNet20 -->
    <defs>
     <path d="M 5.515625 0 
L 5.515625 5.171875 
L 14.796875 5.171875 
L 14.796875 67.671875 
L 4.984375 67.671875 
L 4.984375 72.90625 
L 26.21875 72.90625 
L 51.8125 21 
L 77.390625 72.90625 
L 97.3125 72.90625 
L 97.3125 67.671875 
L 87.59375 67.671875 
L 87.59375 5.171875 
L 96.921875 5.171875 
L 96.921875 0 
L 68.40625 0 
L 68.40625 5.171875 
L 77.6875 5.171875 
L 77.6875 61.53125 
L 52.6875 10.6875 
L 45.796875 10.6875 
L 20.796875 61.53125 
L 20.796875 5.171875 
L 30.078125 5.171875 
L 30.078125 0 
z
" id="DejaVuSerif-77"/>
     <path d="M 29.109375 31.6875 
L 39.984375 46.6875 
L 33.015625 46.6875 
L 33.015625 51.90625 
L 52.984375 51.90625 
L 52.984375 46.6875 
L 46.09375 46.6875 
L 32.171875 27.484375 
L 48.390625 5.171875 
L 55.171875 5.171875 
L 55.171875 0 
L 31.203125 0 
L 31.203125 5.171875 
L 37.796875 5.171875 
L 26.515625 20.703125 
L 15.1875 5.171875 
L 21.921875 5.171875 
L 21.921875 0 
L 2.203125 0 
L 2.203125 5.171875 
L 9.078125 5.171875 
L 23.390625 24.90625 
L 7.625 46.6875 
L 1.21875 46.6875 
L 1.21875 51.90625 
L 24.421875 51.90625 
L 24.421875 46.6875 
L 18.21875 46.6875 
z
" id="DejaVuSerif-120"/>
     <path d="M 5.515625 0 
L 5.515625 5.171875 
L 14.796875 5.171875 
L 14.796875 67.671875 
L 5.515625 67.671875 
L 5.515625 72.90625 
L 64.203125 72.90625 
L 64.203125 56.6875 
L 58.203125 56.6875 
L 58.203125 66.890625 
L 24.703125 66.890625 
L 24.703125 42.484375 
L 48.578125 42.484375 
L 48.578125 51.609375 
L 54.59375 51.609375 
L 54.59375 27.390625 
L 48.578125 27.390625 
L 48.578125 36.53125 
L 24.703125 36.53125 
L 24.703125 6 
L 58.984375 6 
L 58.984375 16.21875 
L 64.984375 16.21875 
L 64.984375 0 
z
" id="DejaVuSerif-69"/>
     <path d="M 20.515625 28.515625 
L 20.515625 23.390625 
Q 20.515625 14.015625 24.09375 9.109375 
Q 27.6875 4.203125 34.515625 4.203125 
Q 41.40625 4.203125 44.9375 9.71875 
Q 48.484375 15.234375 48.484375 25.984375 
Q 48.484375 36.765625 44.9375 42.234375 
Q 41.40625 47.703125 34.515625 47.703125 
Q 27.6875 47.703125 24.09375 42.765625 
Q 20.515625 37.84375 20.515625 28.515625 
z
M 11.53125 46.6875 
L 2.875 46.6875 
L 2.875 51.90625 
L 20.515625 51.90625 
L 20.515625 43.796875 
Q 23.140625 48.6875 27.21875 51 
Q 31.296875 53.328125 37.3125 53.328125 
Q 46.875 53.328125 52.921875 45.75 
Q 58.984375 38.1875 58.984375 25.984375 
Q 58.984375 13.765625 52.921875 6.171875 
Q 46.875 -1.421875 37.3125 -1.421875 
Q 31.296875 -1.421875 27.21875 0.890625 
Q 23.140625 3.21875 20.515625 8.109375 
L 20.515625 -15.578125 
L 29 -15.578125 
L 29 -20.796875 
L 2.875 -20.796875 
L 2.875 -15.578125 
L 11.53125 -15.578125 
z
" id="DejaVuSerif-112"/>
    </defs>
    <g transform="translate(407.967188 303.590438)scale(0.1 -0.1)">
     <use xlink:href="#DejaVuSerif-77"/>
     <use x="102.392578" xlink:href="#DejaVuSerif-105"/>
     <use x="134.375" xlink:href="#DejaVuSerif-120"/>
     <use x="190.771484" xlink:href="#DejaVuSerif-116"/>
     <use x="230.957031" xlink:href="#DejaVuSerif-117"/>
     <use x="295.361328" xlink:href="#DejaVuSerif-114"/>
     <use x="343.164062" xlink:href="#DejaVuSerif-101"/>
     <use x="402.34375" xlink:href="#DejaVuSerif-32"/>
     <use x="434.130859" xlink:href="#DejaVuSerif-111"/>
     <use x="494.335938" xlink:href="#DejaVuSerif-102"/>
     <use x="531.347656" xlink:href="#DejaVuSerif-32"/>
     <use x="563.134766" xlink:href="#DejaVuSerif-69"/>
     <use x="636.132812" xlink:href="#DejaVuSerif-120"/>
     <use x="692.529297" xlink:href="#DejaVuSerif-112"/>
     <use x="756.542969" xlink:href="#DejaVuSerif-101"/>
     <use x="815.722656" xlink:href="#DejaVuSerif-114"/>
     <use x="863.525391" xlink:href="#DejaVuSerif-116"/>
     <use x="903.710938" xlink:href="#DejaVuSerif-115"/>
     <use x="955.029297" xlink:href="#DejaVuSerif-32"/>
     <use x="986.816406" xlink:href="#DejaVuSerif-82"/>
     <use x="1062.109375" xlink:href="#DejaVuSerif-101"/>
     <use x="1121.289062" xlink:href="#DejaVuSerif-115"/>
     <use x="1172.607422" xlink:href="#DejaVuSerif-78"/>
     <use x="1260.107422" xlink:href="#DejaVuSerif-101"/>
     <use x="1319.287109" xlink:href="#DejaVuSerif-116"/>
     <use x="1359.472656" xlink:href="#DejaVuSerif-50"/>
     <use x="1423.095703" xlink:href="#DejaVuSerif-48"/>
    </g>
   </g>
  </g>
 </g>
 <defs>
  <clipPath id="pe738143284">
   <rect height="250.56" width="253.636364" x="33.503125" y="3.6"/>
  </clipPath>
  <clipPath id="p3a05ba10e1">
   <rect height="250.56" width="253.636364" x="337.866761" y="3.6"/>
  </clipPath>
 </defs>
</svg>
