<?xml version="1.0" encoding="utf-8" standalone="no"?>
<!DOCTYPE svg PUBLIC "-//W3C//DTD SVG 1.1//EN"
  "http://www.w3.org/Graphics/SVG/1.1/DTD/svg11.dtd">
<!-- Created with matplotlib (https://matplotlib.org/) -->
<svg height="356.038125pt" version="1.1" viewBox="0 0 606.335937 356.038125" width="606.335937pt" xmlns="http://www.w3.org/2000/svg" xmlns:xlink="http://www.w3.org/1999/xlink">
 <defs>
  <style type="text/css">
*{stroke-linecap:butt;stroke-linejoin:round;}
  </style>
 </defs>
 <g id="figure_1">
  <g id="patch_1">
   <path d="M 0 356.038125 
L 606.335937 356.038125 
L 606.335937 0 
L 0 0 
z
" style="fill:#ffffff;"/>
  </g>
  <g id="axes_1">
   <g id="patch_2">
    <path d="M 44.735938 254.16 
L 298.372301 254.16 
L 298.372301 3.6 
L 44.735938 3.6 
z
" style="fill:#ffffff;"/>
   </g>
   <g id="PolyCollection_1">
    <defs>
     <path d="M 40.882774 -298.083474 
L 40.882774 -293.726409 
L 58.962894 -299.789998 
L 79.572452 -306.0279 
L 101.468151 -306.289298 
L 123.452152 -308.894761 
L 144.547294 -309.790189 
L 164.068677 -311.540672 
L 181.616058 -309.756985 
L 197.026347 -308.045702 
L 210.31115 -307.781631 
L 221.592561 -304.376772 
L 231.059928 -303.510996 
L 238.928747 -301.613869 
L 245.41894 -294.313258 
L 250.74105 -290.526899 
L 255.083177 -284.618185 
L 258.611558 -278.39974 
L 261.469169 -268.495421 
L 263.779231 -255.723662 
L 265.640619 -236.706288 
L 267.140986 -221.145969 
L 268.346311 -213.929876 
L 268.346311 -219.508297 
L 268.346311 -219.508297 
L 267.140986 -234.860296 
L 265.640619 -248.247365 
L 263.779231 -262.039537 
L 261.469169 -273.477792 
L 258.611558 -282.709578 
L 255.083177 -289.142731 
L 250.74105 -294.399134 
L 245.41894 -298.477486 
L 238.928747 -304.393587 
L 231.059928 -306.674805 
L 221.592561 -308.285962 
L 210.31115 -311.440724 
L 197.026347 -312.337221 
L 181.616058 -313.043689 
L 164.068677 -315.234403 
L 144.547294 -314.878485 
L 123.452152 -311.750121 
L 101.468151 -309.649727 
L 79.572452 -308.632997 
L 58.962894 -302.714143 
L 40.882774 -298.083474 
z
" id="m94ea1badd6" style="stroke:#0c5da5;stroke-opacity:0.2;"/>
    </defs>
    <g clip-path="url(#p980b4fb162)">
     <use style="fill:#0c5da5;fill-opacity:0.2;stroke:#0c5da5;stroke-opacity:0.2;" x="0" xlink:href="#m94ea1badd6" y="356.038125"/>
    </g>
   </g>
   <g id="PolyCollection_2">
    <defs>
     <path d="M 40.882774 -309.998864 
L 40.882774 -305.066638 
L 58.962894 -311.206288 
L 79.572452 -316.041909 
L 101.468151 -315.574478 
L 123.452152 -315.081011 
L 144.547294 -315.157694 
L 164.068677 -314.733387 
L 181.616058 -315.523616 
L 197.026347 -314.18246 
L 210.31115 -313.177618 
L 221.592561 -311.13947 
L 231.059928 -309.906234 
L 238.928747 -306.747891 
L 245.41894 -302.866804 
L 250.74105 -300.386178 
L 255.083177 -297.022454 
L 258.611558 -292.035488 
L 261.469169 -286.456768 
L 263.779231 -277.69276 
L 265.640619 -270.633003 
L 267.140986 -263.716487 
L 268.346311 -251.934489 
L 269.315066 -236.992206 
L 270.092622 -221.288077 
L 270.715883 -219.134097 
L 270.715883 -229.956264 
L 270.715883 -229.956264 
L 270.092622 -230.160932 
L 269.315066 -242.186095 
L 268.346311 -258.164336 
L 267.140986 -268.530052 
L 265.640619 -278.185823 
L 263.779231 -282.541697 
L 261.469169 -289.330327 
L 258.611558 -294.832527 
L 255.083177 -302.176352 
L 250.74105 -306.347541 
L 245.41894 -309.011589 
L 238.928747 -311.499475 
L 231.059928 -314.453841 
L 221.592561 -315.081648 
L 210.31115 -318.9276 
L 197.026347 -318.642562 
L 181.616058 -318.091375 
L 164.068677 -320.183394 
L 144.547294 -319.299248 
L 123.452152 -320.583546 
L 101.468151 -318.608708 
L 79.572452 -317.798967 
L 58.962894 -315.907805 
L 40.882774 -309.998864 
z
" id="ma428189107" style="stroke:#00b945;stroke-opacity:0.2;"/>
    </defs>
    <g clip-path="url(#p980b4fb162)">
     <use style="fill:#00b945;fill-opacity:0.2;stroke:#00b945;stroke-opacity:0.2;" x="0" xlink:href="#ma428189107" y="356.038125"/>
    </g>
   </g>
   <g id="PolyCollection_3">
    <defs>
     <path d="M 40.882774 -311.281482 
L 40.882774 -307.190603 
L 58.962894 -303.116036 
L 79.572452 -312.411738 
L 101.468151 -317.136809 
L 123.452152 -316.966101 
L 144.547294 -305.196328 
L 164.068677 -313.785066 
L 181.616058 -314.300965 
L 197.026347 -311.775033 
L 210.31115 -110.317258 
L 221.592561 -313.898648 
L 231.059928 -104.298901 
L 238.928747 -301.227301 
L 245.41894 -189.201408 
L 250.74105 -284.969702 
L 255.083177 -288.042687 
L 258.611558 -127.013226 
L 261.469169 -283.931171 
L 263.779231 -274.938922 
L 265.640619 -269.803472 
L 267.140986 -258.756742 
L 268.346311 -225.942231 
L 269.315066 -227.587423 
L 270.092622 -208.60248 
L 270.092622 -239.047562 
L 270.092622 -239.047562 
L 269.315066 -240.712741 
L 268.346311 -259.501078 
L 267.140986 -264.890048 
L 265.640619 -274.969369 
L 263.779231 -287.49334 
L 261.469169 -292.672496 
L 258.611558 -294.954411 
L 255.083177 -304.402646 
L 250.74105 -308.327729 
L 245.41894 -313.144655 
L 238.928747 -314.062377 
L 231.059928 -317.50504 
L 221.592561 -318.921147 
L 210.31115 -320.784092 
L 197.026347 -318.401811 
L 181.616058 -318.937747 
L 164.068677 -319.308547 
L 144.547294 -321.427764 
L 123.452152 -320.878551 
L 101.468151 -321.750909 
L 79.572452 -318.875788 
L 58.962894 -317.704872 
L 40.882774 -311.281482 
z
" id="maafb28adaf" style="stroke:#ff9500;stroke-opacity:0.2;"/>
    </defs>
    <g clip-path="url(#p980b4fb162)">
     <use style="fill:#ff9500;fill-opacity:0.2;stroke:#ff9500;stroke-opacity:0.2;" x="0" xlink:href="#maafb28adaf" y="356.038125"/>
    </g>
   </g>
   <g id="matplotlib.axis_1">
    <g id="xtick_1">
     <g id="line2d_1">
      <path clip-path="url(#p980b4fb162)" d="M 58.962128 254.16 
L 58.962128 3.6 
" style="fill:none;stroke:#000000;stroke-dasharray:1.85,0.8;stroke-dashoffset:0;stroke-opacity:0.5;stroke-width:0.5;"/>
     </g>
     <g id="line2d_2">
      <defs>
       <path d="M 0 0 
L 0 -3 
" id="m3d5f2726df" style="stroke:#000000;stroke-width:0.5;"/>
      </defs>
      <g>
       <use style="stroke:#000000;stroke-width:0.5;" x="58.962128" xlink:href="#m3d5f2726df" y="254.16"/>
      </g>
     </g>
     <g id="line2d_3">
      <defs>
       <path d="M 0 0 
L 0 3 
" id="ma53dbb433a" style="stroke:#000000;stroke-width:0.5;"/>
      </defs>
      <g>
       <use style="stroke:#000000;stroke-width:0.5;" x="58.962128" xlink:href="#ma53dbb433a" y="3.6"/>
      </g>
     </g>
     <g id="text_1">
      <!-- 20 -->
      <defs>
       <path d="M 12.796875 55.515625 
L 7.328125 55.515625 
L 7.328125 68.5 
Q 12.546875 71.296875 17.84375 72.75 
Q 23.140625 74.21875 28.21875 74.21875 
Q 39.59375 74.21875 46.1875 68.703125 
Q 52.78125 63.1875 52.78125 53.71875 
Q 52.78125 43.015625 37.84375 28.125 
Q 36.671875 27 36.078125 26.421875 
L 17.671875 8.015625 
L 48.09375 8.015625 
L 48.09375 17 
L 53.8125 17 
L 53.8125 0 
L 6.78125 0 
L 6.78125 5.328125 
L 28.90625 27.390625 
Q 36.234375 34.71875 39.359375 40.84375 
Q 42.484375 46.96875 42.484375 53.71875 
Q 42.484375 61.078125 38.640625 65.234375 
Q 34.8125 69.390625 28.078125 69.390625 
Q 21.09375 69.390625 17.28125 65.921875 
Q 13.484375 62.453125 12.796875 55.515625 
z
" id="DejaVuSerif-50"/>
       <path d="M 31.78125 3.421875 
Q 39.265625 3.421875 42.96875 11.625 
Q 46.6875 19.828125 46.6875 36.375 
Q 46.6875 52.984375 42.96875 61.1875 
Q 39.265625 69.390625 31.78125 69.390625 
Q 24.3125 69.390625 20.59375 61.1875 
Q 16.890625 52.984375 16.890625 36.375 
Q 16.890625 19.828125 20.59375 11.625 
Q 24.3125 3.421875 31.78125 3.421875 
z
M 31.78125 -1.421875 
Q 19.921875 -1.421875 13.25 8.53125 
Q 6.59375 18.5 6.59375 36.375 
Q 6.59375 54.296875 13.25 64.25 
Q 19.921875 74.21875 31.78125 74.21875 
Q 43.703125 74.21875 50.34375 64.25 
Q 56.984375 54.296875 56.984375 36.375 
Q 56.984375 18.5 50.34375 8.53125 
Q 43.703125 -1.421875 31.78125 -1.421875 
z
" id="DejaVuSerif-48"/>
      </defs>
      <g transform="translate(52.599628 265.258438)scale(0.1 -0.1)">
       <use xlink:href="#DejaVuSerif-50"/>
       <use x="63.623047" xlink:href="#DejaVuSerif-48"/>
      </g>
     </g>
    </g>
    <g id="xtick_2">
     <g id="line2d_4">
      <path clip-path="url(#p980b4fb162)" d="M 85.827096 254.16 
L 85.827096 3.6 
" style="fill:none;stroke:#000000;stroke-dasharray:1.85,0.8;stroke-dashoffset:0;stroke-opacity:0.5;stroke-width:0.5;"/>
     </g>
     <g id="line2d_5">
      <g>
       <use style="stroke:#000000;stroke-width:0.5;" x="85.827096" xlink:href="#m3d5f2726df" y="254.16"/>
      </g>
     </g>
     <g id="line2d_6">
      <g>
       <use style="stroke:#000000;stroke-width:0.5;" x="85.827096" xlink:href="#ma53dbb433a" y="3.6"/>
      </g>
     </g>
     <g id="text_2">
      <!-- 40 -->
      <defs>
       <path d="M 34.90625 24.703125 
L 34.90625 63.484375 
L 10.015625 24.703125 
z
M 56.390625 0 
L 23.1875 0 
L 23.1875 5.171875 
L 34.90625 5.171875 
L 34.90625 19.484375 
L 3.078125 19.484375 
L 3.078125 24.8125 
L 35.015625 74.21875 
L 44.671875 74.21875 
L 44.671875 24.703125 
L 58.59375 24.703125 
L 58.59375 19.484375 
L 44.671875 19.484375 
L 44.671875 5.171875 
L 56.390625 5.171875 
z
" id="DejaVuSerif-52"/>
      </defs>
      <g transform="translate(79.464596 265.258438)scale(0.1 -0.1)">
       <use xlink:href="#DejaVuSerif-52"/>
       <use x="63.623047" xlink:href="#DejaVuSerif-48"/>
      </g>
     </g>
    </g>
    <g id="xtick_3">
     <g id="line2d_7">
      <path clip-path="url(#p980b4fb162)" d="M 125.747026 254.16 
L 125.747026 3.6 
" style="fill:none;stroke:#000000;stroke-dasharray:1.85,0.8;stroke-dashoffset:0;stroke-opacity:0.5;stroke-width:0.5;"/>
     </g>
     <g id="line2d_8">
      <g>
       <use style="stroke:#000000;stroke-width:0.5;" x="125.747026" xlink:href="#m3d5f2726df" y="254.16"/>
      </g>
     </g>
     <g id="line2d_9">
      <g>
       <use style="stroke:#000000;stroke-width:0.5;" x="125.747026" xlink:href="#ma53dbb433a" y="3.6"/>
      </g>
     </g>
     <g id="text_3">
      <!-- 60 -->
      <defs>
       <path d="M 32.71875 3.421875 
Q 39.59375 3.421875 43.296875 8.46875 
Q 47.015625 13.53125 47.015625 23 
Q 47.015625 32.46875 43.296875 37.515625 
Q 39.59375 42.578125 32.71875 42.578125 
Q 25.734375 42.578125 22.0625 37.6875 
Q 18.40625 32.8125 18.40625 23.578125 
Q 18.40625 13.875 22.109375 8.640625 
Q 25.828125 3.421875 32.71875 3.421875 
z
M 16.796875 40.140625 
Q 20.125 43.796875 24.3125 45.59375 
Q 28.515625 47.40625 33.796875 47.40625 
Q 44.671875 47.40625 51 40.859375 
Q 57.328125 34.328125 57.328125 23 
Q 57.328125 11.921875 50.515625 5.25 
Q 43.703125 -1.421875 32.328125 -1.421875 
Q 19.96875 -1.421875 13.328125 7.78125 
Q 6.6875 17 6.6875 34.078125 
Q 6.6875 53.21875 14.546875 63.71875 
Q 22.40625 74.21875 36.71875 74.21875 
Q 40.578125 74.21875 44.828125 73.484375 
Q 49.078125 72.75 53.515625 71.296875 
L 53.515625 59.28125 
L 48 59.28125 
Q 47.40625 64.203125 44.234375 66.796875 
Q 41.0625 69.390625 35.6875 69.390625 
Q 26.21875 69.390625 21.578125 62.203125 
Q 16.9375 55.03125 16.796875 40.140625 
z
" id="DejaVuSerif-54"/>
      </defs>
      <g transform="translate(119.384526 265.258438)scale(0.1 -0.1)">
       <use xlink:href="#DejaVuSerif-54"/>
       <use x="63.623047" xlink:href="#DejaVuSerif-48"/>
      </g>
     </g>
    </g>
    <g id="xtick_4">
     <g id="line2d_10">
      <path clip-path="url(#p980b4fb162)" d="M 185.065942 254.16 
L 185.065942 3.6 
" style="fill:none;stroke:#000000;stroke-dasharray:1.85,0.8;stroke-dashoffset:0;stroke-opacity:0.5;stroke-width:0.5;"/>
     </g>
     <g id="line2d_11">
      <g>
       <use style="stroke:#000000;stroke-width:0.5;" x="185.065942" xlink:href="#m3d5f2726df" y="254.16"/>
      </g>
     </g>
     <g id="line2d_12">
      <g>
       <use style="stroke:#000000;stroke-width:0.5;" x="185.065942" xlink:href="#ma53dbb433a" y="3.6"/>
      </g>
     </g>
     <g id="text_4">
      <!-- 80 -->
      <defs>
       <path d="M 46.578125 19.921875 
Q 46.578125 27.734375 42.6875 32.046875 
Q 38.8125 36.375 31.78125 36.375 
Q 24.75 36.375 20.875 32.046875 
Q 17 27.734375 17 19.921875 
Q 17 12.0625 20.875 7.734375 
Q 24.75 3.421875 31.78125 3.421875 
Q 38.8125 3.421875 42.6875 7.734375 
Q 46.578125 12.0625 46.578125 19.921875 
z
M 44.578125 55.328125 
Q 44.578125 61.96875 41.203125 65.671875 
Q 37.84375 69.390625 31.78125 69.390625 
Q 25.78125 69.390625 22.390625 65.671875 
Q 19 61.96875 19 55.328125 
Q 19 48.640625 22.390625 44.921875 
Q 25.78125 41.21875 31.78125 41.21875 
Q 37.84375 41.21875 41.203125 44.921875 
Q 44.578125 48.640625 44.578125 55.328125 
z
M 39.3125 38.8125 
Q 47.609375 37.703125 52.25 32.6875 
Q 56.890625 27.6875 56.890625 19.921875 
Q 56.890625 9.671875 50.390625 4.125 
Q 43.890625 -1.421875 31.78125 -1.421875 
Q 19.734375 -1.421875 13.203125 4.125 
Q 6.6875 9.671875 6.6875 19.921875 
Q 6.6875 27.6875 11.328125 32.6875 
Q 15.96875 37.703125 24.3125 38.8125 
Q 16.9375 40.140625 13 44.40625 
Q 9.078125 48.6875 9.078125 55.328125 
Q 9.078125 64.109375 15.125 69.15625 
Q 21.1875 74.21875 31.78125 74.21875 
Q 42.390625 74.21875 48.4375 69.15625 
Q 54.5 64.109375 54.5 55.328125 
Q 54.5 48.6875 50.5625 44.40625 
Q 46.625 40.140625 39.3125 38.8125 
z
" id="DejaVuSerif-56"/>
      </defs>
      <g transform="translate(178.703442 265.258438)scale(0.1 -0.1)">
       <use xlink:href="#DejaVuSerif-56"/>
       <use x="63.623047" xlink:href="#DejaVuSerif-48"/>
      </g>
     </g>
    </g>
    <g id="xtick_5">
     <g id="line2d_13">
      <path clip-path="url(#p980b4fb162)" d="M 273.21073 254.16 
L 273.21073 3.6 
" style="fill:none;stroke:#000000;stroke-dasharray:1.85,0.8;stroke-dashoffset:0;stroke-opacity:0.5;stroke-width:0.5;"/>
     </g>
     <g id="line2d_14">
      <g>
       <use style="stroke:#000000;stroke-width:0.5;" x="273.21073" xlink:href="#m3d5f2726df" y="254.16"/>
      </g>
     </g>
     <g id="line2d_15">
      <g>
       <use style="stroke:#000000;stroke-width:0.5;" x="273.21073" xlink:href="#ma53dbb433a" y="3.6"/>
      </g>
     </g>
     <g id="text_5">
      <!-- 100 -->
      <defs>
       <path d="M 14.203125 0 
L 14.203125 5.171875 
L 26.90625 5.171875 
L 26.90625 65.828125 
L 12.203125 56.296875 
L 12.203125 62.703125 
L 29.984375 74.21875 
L 36.71875 74.21875 
L 36.71875 5.171875 
L 49.421875 5.171875 
L 49.421875 0 
z
" id="DejaVuSerif-49"/>
      </defs>
      <g transform="translate(263.66698 265.258438)scale(0.1 -0.1)">
       <use xlink:href="#DejaVuSerif-49"/>
       <use x="63.623047" xlink:href="#DejaVuSerif-48"/>
       <use x="127.246094" xlink:href="#DejaVuSerif-48"/>
      </g>
     </g>
    </g>
    <g id="xtick_6">
     <g id="line2d_16">
      <defs>
       <path d="M 0 0 
L 0 -1.5 
" id="ma2be11af76" style="stroke:#000000;stroke-width:0.5;"/>
      </defs>
      <g>
       <use style="stroke:#000000;stroke-width:0.5;" x="44.755032" xlink:href="#ma2be11af76" y="254.16"/>
      </g>
     </g>
     <g id="line2d_17">
      <defs>
       <path d="M 0 0 
L 0 1.5 
" id="me0ce2c6b48" style="stroke:#000000;stroke-width:0.5;"/>
      </defs>
      <g>
       <use style="stroke:#000000;stroke-width:0.5;" x="44.755032" xlink:href="#me0ce2c6b48" y="3.6"/>
      </g>
     </g>
    </g>
    <g id="xtick_7">
     <g id="line2d_18">
      <g>
       <use style="stroke:#000000;stroke-width:0.5;" x="49.030318" xlink:href="#ma2be11af76" y="254.16"/>
      </g>
     </g>
     <g id="line2d_19">
      <g>
       <use style="stroke:#000000;stroke-width:0.5;" x="49.030318" xlink:href="#me0ce2c6b48" y="3.6"/>
      </g>
     </g>
    </g>
    <g id="xtick_8">
     <g id="line2d_20">
      <g>
       <use style="stroke:#000000;stroke-width:0.5;" x="53.750579" xlink:href="#ma2be11af76" y="254.16"/>
      </g>
     </g>
     <g id="line2d_21">
      <g>
       <use style="stroke:#000000;stroke-width:0.5;" x="53.750579" xlink:href="#me0ce2c6b48" y="3.6"/>
      </g>
     </g>
    </g>
    <g id="xtick_9">
     <g id="line2d_22">
      <g>
       <use style="stroke:#000000;stroke-width:0.5;" x="64.7161" xlink:href="#ma2be11af76" y="254.16"/>
      </g>
     </g>
     <g id="line2d_23">
      <g>
       <use style="stroke:#000000;stroke-width:0.5;" x="64.7161" xlink:href="#me0ce2c6b48" y="3.6"/>
      </g>
     </g>
    </g>
    <g id="xtick_10">
     <g id="line2d_24">
      <g>
       <use style="stroke:#000000;stroke-width:0.5;" x="71.068949" xlink:href="#ma2be11af76" y="254.16"/>
      </g>
     </g>
     <g id="line2d_25">
      <g>
       <use style="stroke:#000000;stroke-width:0.5;" x="71.068949" xlink:href="#me0ce2c6b48" y="3.6"/>
      </g>
     </g>
    </g>
    <g id="xtick_11">
     <g id="line2d_26">
      <g>
       <use style="stroke:#000000;stroke-width:0.5;" x="78.083008" xlink:href="#ma2be11af76" y="254.16"/>
      </g>
     </g>
     <g id="line2d_27">
      <g>
       <use style="stroke:#000000;stroke-width:0.5;" x="78.083008" xlink:href="#me0ce2c6b48" y="3.6"/>
      </g>
     </g>
    </g>
    <g id="xtick_12">
     <g id="line2d_28">
      <g>
       <use style="stroke:#000000;stroke-width:0.5;" x="94.377195" xlink:href="#ma2be11af76" y="254.16"/>
      </g>
     </g>
     <g id="line2d_29">
      <g>
       <use style="stroke:#000000;stroke-width:0.5;" x="94.377195" xlink:href="#me0ce2c6b48" y="3.6"/>
      </g>
     </g>
    </g>
    <g id="xtick_13">
     <g id="line2d_30">
      <g>
       <use style="stroke:#000000;stroke-width:0.5;" x="103.817196" xlink:href="#ma2be11af76" y="254.16"/>
      </g>
     </g>
     <g id="line2d_31">
      <g>
       <use style="stroke:#000000;stroke-width:0.5;" x="103.817196" xlink:href="#me0ce2c6b48" y="3.6"/>
      </g>
     </g>
    </g>
    <g id="xtick_14">
     <g id="line2d_32">
      <g>
       <use style="stroke:#000000;stroke-width:0.5;" x="114.239719" xlink:href="#ma2be11af76" y="254.16"/>
      </g>
     </g>
     <g id="line2d_33">
      <g>
       <use style="stroke:#000000;stroke-width:0.5;" x="114.239719" xlink:href="#me0ce2c6b48" y="3.6"/>
      </g>
     </g>
    </g>
    <g id="xtick_15">
     <g id="line2d_34">
      <g>
       <use style="stroke:#000000;stroke-width:0.5;" x="138.452024" xlink:href="#ma2be11af76" y="254.16"/>
      </g>
     </g>
     <g id="line2d_35">
      <g>
       <use style="stroke:#000000;stroke-width:0.5;" x="138.452024" xlink:href="#me0ce2c6b48" y="3.6"/>
      </g>
     </g>
    </g>
    <g id="xtick_16">
     <g id="line2d_36">
      <g>
       <use style="stroke:#000000;stroke-width:0.5;" x="152.479367" xlink:href="#ma2be11af76" y="254.16"/>
      </g>
     </g>
     <g id="line2d_37">
      <g>
       <use style="stroke:#000000;stroke-width:0.5;" x="152.479367" xlink:href="#me0ce2c6b48" y="3.6"/>
      </g>
     </g>
    </g>
    <g id="xtick_17">
     <g id="line2d_38">
      <g>
       <use style="stroke:#000000;stroke-width:0.5;" x="167.966688" xlink:href="#ma2be11af76" y="254.16"/>
      </g>
     </g>
     <g id="line2d_39">
      <g>
       <use style="stroke:#000000;stroke-width:0.5;" x="167.966688" xlink:href="#me0ce2c6b48" y="3.6"/>
      </g>
     </g>
    </g>
    <g id="xtick_18">
     <g id="line2d_40">
      <g>
       <use style="stroke:#000000;stroke-width:0.5;" x="203.9449" xlink:href="#ma2be11af76" y="254.16"/>
      </g>
     </g>
     <g id="line2d_41">
      <g>
       <use style="stroke:#000000;stroke-width:0.5;" x="203.9449" xlink:href="#me0ce2c6b48" y="3.6"/>
      </g>
     </g>
    </g>
    <g id="xtick_19">
     <g id="line2d_42">
      <g>
       <use style="stroke:#000000;stroke-width:0.5;" x="224.788795" xlink:href="#ma2be11af76" y="254.16"/>
      </g>
     </g>
     <g id="line2d_43">
      <g>
       <use style="stroke:#000000;stroke-width:0.5;" x="224.788795" xlink:href="#me0ce2c6b48" y="3.6"/>
      </g>
     </g>
    </g>
    <g id="xtick_20">
     <g id="line2d_44">
      <g>
       <use style="stroke:#000000;stroke-width:0.5;" x="247.802139" xlink:href="#ma2be11af76" y="254.16"/>
      </g>
     </g>
     <g id="line2d_45">
      <g>
       <use style="stroke:#000000;stroke-width:0.5;" x="247.802139" xlink:href="#me0ce2c6b48" y="3.6"/>
      </g>
     </g>
    </g>
    <g id="text_6">
     <!-- Percentage of Pruned Weights -->
     <defs>
      <path d="M 24.703125 37.109375 
L 37.59375 37.109375 
Q 44.875 37.109375 48.671875 41.03125 
Q 52.484375 44.96875 52.484375 52.390625 
Q 52.484375 59.859375 48.671875 63.765625 
Q 44.875 67.671875 37.59375 67.671875 
L 24.703125 67.671875 
z
M 5.515625 0 
L 5.515625 5.171875 
L 14.796875 5.171875 
L 14.796875 67.671875 
L 5.515625 67.671875 
L 5.515625 72.90625 
L 39.984375 72.90625 
Q 50.921875 72.90625 57.3125 67.359375 
Q 63.71875 61.8125 63.71875 52.390625 
Q 63.71875 43.015625 57.3125 37.453125 
Q 50.921875 31.890625 39.984375 31.890625 
L 24.703125 31.890625 
L 24.703125 5.171875 
L 35.984375 5.171875 
L 35.984375 0 
z
" id="DejaVuSerif-80"/>
      <path d="M 54.203125 25 
L 15.484375 25 
L 15.484375 24.609375 
Q 15.484375 14.109375 19.4375 8.765625 
Q 23.390625 3.421875 31.109375 3.421875 
Q 37.015625 3.421875 40.796875 6.515625 
Q 44.578125 9.625 46.09375 15.71875 
L 53.328125 15.71875 
Q 51.171875 7.171875 45.375 2.875 
Q 39.59375 -1.421875 30.171875 -1.421875 
Q 18.796875 -1.421875 11.890625 6.078125 
Q 4.984375 13.578125 4.984375 25.984375 
Q 4.984375 38.28125 11.765625 45.796875 
Q 18.5625 53.328125 29.59375 53.328125 
Q 41.359375 53.328125 47.65625 46.0625 
Q 53.953125 38.8125 54.203125 25 
z
M 43.609375 30.171875 
Q 43.3125 39.265625 39.765625 43.875 
Q 36.234375 48.484375 29.59375 48.484375 
Q 23.390625 48.484375 19.828125 43.84375 
Q 16.265625 39.203125 15.484375 30.171875 
z
" id="DejaVuSerif-101"/>
      <path d="M 47.796875 52 
L 47.796875 39.015625 
L 42.625 39.015625 
Q 42.390625 42.875 40.484375 44.78125 
Q 38.578125 46.6875 34.90625 46.6875 
Q 28.265625 46.6875 24.71875 42.09375 
Q 21.1875 37.5 21.1875 28.90625 
L 21.1875 5.171875 
L 31.59375 5.171875 
L 31.59375 0 
L 4.109375 0 
L 4.109375 5.171875 
L 12.203125 5.171875 
L 12.203125 46.78125 
L 3.609375 46.78125 
L 3.609375 51.90625 
L 21.1875 51.90625 
L 21.1875 42.671875 
Q 23.828125 48.09375 27.96875 50.703125 
Q 32.125 53.328125 38.09375 53.328125 
Q 40.28125 53.328125 42.703125 52.984375 
Q 45.125 52.640625 47.796875 52 
z
" id="DejaVuSerif-114"/>
      <path d="M 51.421875 15.578125 
Q 49.515625 7.28125 44.09375 2.921875 
Q 38.671875 -1.421875 30.078125 -1.421875 
Q 18.75 -1.421875 11.859375 6.078125 
Q 4.984375 13.578125 4.984375 25.984375 
Q 4.984375 38.421875 11.859375 45.875 
Q 18.75 53.328125 30.078125 53.328125 
Q 35.015625 53.328125 39.890625 52.171875 
Q 44.78125 51.03125 49.703125 48.6875 
L 49.703125 35.40625 
L 44.484375 35.40625 
Q 43.453125 42.234375 40.015625 45.359375 
Q 36.578125 48.484375 30.171875 48.484375 
Q 22.90625 48.484375 19.1875 42.84375 
Q 15.484375 37.203125 15.484375 25.984375 
Q 15.484375 14.75 19.171875 9.078125 
Q 22.859375 3.421875 30.171875 3.421875 
Q 35.984375 3.421875 39.453125 6.4375 
Q 42.921875 9.46875 44.1875 15.578125 
z
" id="DejaVuSerif-99"/>
      <path d="M 4.109375 0 
L 4.109375 5.171875 
L 12.203125 5.171875 
L 12.203125 46.6875 
L 3.609375 46.6875 
L 3.609375 51.90625 
L 21.1875 51.90625 
L 21.1875 42.671875 
Q 23.6875 47.953125 27.65625 50.640625 
Q 31.640625 53.328125 36.921875 53.328125 
Q 45.515625 53.328125 49.5625 48.390625 
Q 53.609375 43.453125 53.609375 33.015625 
L 53.609375 5.171875 
L 61.625 5.171875 
L 61.625 0 
L 36.8125 0 
L 36.8125 5.171875 
L 44.578125 5.171875 
L 44.578125 30.171875 
Q 44.578125 39.703125 42.234375 43.234375 
Q 39.890625 46.78125 33.984375 46.78125 
Q 27.734375 46.78125 24.453125 42.203125 
Q 21.1875 37.640625 21.1875 28.90625 
L 21.1875 5.171875 
L 29 5.171875 
L 29 0 
z
" id="DejaVuSerif-110"/>
      <path d="M 10.796875 46.6875 
L 2.875 46.6875 
L 2.875 51.90625 
L 10.796875 51.90625 
L 10.796875 68.015625 
L 19.828125 68.015625 
L 19.828125 51.90625 
L 36.71875 51.90625 
L 36.71875 46.6875 
L 19.828125 46.6875 
L 19.828125 13.71875 
Q 19.828125 7.125 21.09375 5.265625 
Q 22.359375 3.421875 25.78125 3.421875 
Q 29.296875 3.421875 30.90625 5.484375 
Q 32.515625 7.5625 32.625 12.203125 
L 39.40625 12.203125 
Q 39.015625 5.125 35.546875 1.84375 
Q 32.078125 -1.421875 25 -1.421875 
Q 17.234375 -1.421875 14.015625 2.015625 
Q 10.796875 5.46875 10.796875 13.71875 
z
" id="DejaVuSerif-116"/>
      <path d="M 39.796875 16.3125 
L 39.796875 27.296875 
L 28.21875 27.296875 
Q 21.53125 27.296875 18.25 24.40625 
Q 14.984375 21.53125 14.984375 15.578125 
Q 14.984375 10.15625 18.296875 6.984375 
Q 21.625 3.8125 27.296875 3.8125 
Q 32.90625 3.8125 36.34375 7.28125 
Q 39.796875 10.75 39.796875 16.3125 
z
M 48.78125 32.421875 
L 48.78125 5.171875 
L 56.78125 5.171875 
L 56.78125 0 
L 39.796875 0 
L 39.796875 5.609375 
Q 36.8125 2 32.90625 0.28125 
Q 29 -1.421875 23.78125 -1.421875 
Q 15.140625 -1.421875 10.0625 3.171875 
Q 4.984375 7.765625 4.984375 15.578125 
Q 4.984375 23.640625 10.796875 28.078125 
Q 16.609375 32.515625 27.203125 32.515625 
L 39.796875 32.515625 
L 39.796875 36.078125 
Q 39.796875 42 36.203125 45.234375 
Q 32.625 48.484375 26.125 48.484375 
Q 20.75 48.484375 17.578125 46.046875 
Q 14.40625 43.609375 13.625 38.8125 
L 8.984375 38.8125 
L 8.984375 49.3125 
Q 13.671875 51.3125 18.09375 52.3125 
Q 22.515625 53.328125 26.703125 53.328125 
Q 37.5 53.328125 43.140625 47.96875 
Q 48.78125 42.625 48.78125 32.421875 
z
" id="DejaVuSerif-97"/>
      <path d="M 52.484375 46.6875 
L 52.484375 1.125 
Q 52.484375 -10.0625 46.328125 -16.140625 
Q 40.1875 -22.21875 28.8125 -22.21875 
Q 23.6875 -22.21875 19 -21.28125 
Q 14.3125 -20.359375 10.015625 -18.5 
L 10.015625 -7.625 
L 14.703125 -7.625 
Q 15.578125 -12.703125 18.84375 -15.046875 
Q 22.125 -17.390625 28.21875 -17.390625 
Q 36.140625 -17.390625 39.8125 -12.921875 
Q 43.5 -8.453125 43.5 1.125 
L 43.5 8.109375 
Q 40.875 3.21875 36.796875 0.890625 
Q 32.71875 -1.421875 26.703125 -1.421875 
Q 17.140625 -1.421875 11.0625 6.171875 
Q 4.984375 13.765625 4.984375 25.984375 
Q 4.984375 38.1875 11.03125 45.75 
Q 17.09375 53.328125 26.703125 53.328125 
Q 32.71875 53.328125 36.796875 51 
Q 40.875 48.6875 43.5 43.796875 
L 43.5 51.90625 
L 61.078125 51.90625 
L 61.078125 46.6875 
z
M 43.5 28.515625 
Q 43.5 37.84375 39.90625 42.765625 
Q 36.328125 47.703125 29.5 47.703125 
Q 22.5625 47.703125 19.015625 42.234375 
Q 15.484375 36.765625 15.484375 25.984375 
Q 15.484375 15.234375 19.015625 9.71875 
Q 22.5625 4.203125 29.5 4.203125 
Q 36.328125 4.203125 39.90625 9.109375 
Q 43.5 14.015625 43.5 23.390625 
z
" id="DejaVuSerif-103"/>
      <path id="DejaVuSerif-32"/>
      <path d="M 30.078125 3.421875 
Q 37.3125 3.421875 40.984375 9.125 
Q 44.671875 14.84375 44.671875 25.984375 
Q 44.671875 37.109375 40.984375 42.796875 
Q 37.3125 48.484375 30.078125 48.484375 
Q 22.859375 48.484375 19.171875 42.796875 
Q 15.484375 37.109375 15.484375 25.984375 
Q 15.484375 14.84375 19.1875 9.125 
Q 22.90625 3.421875 30.078125 3.421875 
z
M 30.078125 -1.421875 
Q 18.75 -1.421875 11.859375 6.078125 
Q 4.984375 13.578125 4.984375 25.984375 
Q 4.984375 38.375 11.84375 45.84375 
Q 18.703125 53.328125 30.078125 53.328125 
Q 41.453125 53.328125 48.3125 45.84375 
Q 55.171875 38.375 55.171875 25.984375 
Q 55.171875 13.578125 48.3125 6.078125 
Q 41.453125 -1.421875 30.078125 -1.421875 
z
" id="DejaVuSerif-111"/>
      <path d="M 43.015625 63.71875 
L 38.28125 63.71875 
Q 38.234375 67.390625 36.203125 69.28125 
Q 34.1875 71.1875 30.328125 71.1875 
Q 25.296875 71.1875 23.234375 68.421875 
Q 21.1875 65.671875 21.1875 58.59375 
L 21.1875 51.90625 
L 35.6875 51.90625 
L 35.6875 46.6875 
L 21.1875 46.6875 
L 21.1875 5.171875 
L 32.71875 5.171875 
L 32.71875 0 
L 3.609375 0 
L 3.609375 5.171875 
L 12.203125 5.171875 
L 12.203125 46.6875 
L 3.609375 46.6875 
L 3.609375 51.90625 
L 12.203125 51.90625 
L 12.203125 58.40625 
Q 12.203125 67.09375 16.71875 71.53125 
Q 21.234375 75.984375 29.984375 75.984375 
Q 33.25 75.984375 36.515625 75.390625 
Q 39.796875 74.8125 43.015625 73.578125 
z
" id="DejaVuSerif-102"/>
      <path d="M 35.40625 51.90625 
L 52.203125 51.90625 
L 52.203125 5.171875 
L 60.6875 5.171875 
L 60.6875 0 
L 43.21875 0 
L 43.21875 9.1875 
Q 40.71875 4 36.765625 1.28125 
Q 32.8125 -1.421875 27.59375 -1.421875 
Q 18.953125 -1.421875 14.875 3.484375 
Q 10.796875 8.40625 10.796875 18.890625 
L 10.796875 46.6875 
L 2.6875 46.6875 
L 2.6875 51.90625 
L 19.828125 51.90625 
L 19.828125 21.6875 
Q 19.828125 12.203125 22.140625 8.6875 
Q 24.46875 5.171875 30.421875 5.171875 
Q 36.671875 5.171875 39.9375 9.765625 
Q 43.21875 14.359375 43.21875 23.09375 
L 43.21875 46.6875 
L 35.40625 46.6875 
z
" id="DejaVuSerif-117"/>
      <path d="M 52.484375 5.171875 
L 61.078125 5.171875 
L 61.078125 0 
L 43.5 0 
L 43.5 8.109375 
Q 40.875 3.21875 36.796875 0.890625 
Q 32.71875 -1.421875 26.703125 -1.421875 
Q 17.140625 -1.421875 11.0625 6.171875 
Q 4.984375 13.765625 4.984375 25.984375 
Q 4.984375 38.1875 11.03125 45.75 
Q 17.09375 53.328125 26.703125 53.328125 
Q 32.71875 53.328125 36.796875 51 
Q 40.875 48.6875 43.5 43.796875 
L 43.5 70.796875 
L 35.015625 70.796875 
L 35.015625 75.984375 
L 52.484375 75.984375 
z
M 43.5 23.390625 
L 43.5 28.515625 
Q 43.5 37.84375 39.90625 42.765625 
Q 36.328125 47.703125 29.5 47.703125 
Q 22.5625 47.703125 19.015625 42.234375 
Q 15.484375 36.765625 15.484375 25.984375 
Q 15.484375 15.234375 19.015625 9.71875 
Q 22.5625 4.203125 29.5 4.203125 
Q 36.328125 4.203125 39.90625 9.109375 
Q 43.5 14.015625 43.5 23.390625 
z
" id="DejaVuSerif-100"/>
      <path d="M 76.21875 0 
L 68.21875 0 
L 51.515625 59.28125 
L 34.8125 0 
L 26.8125 0 
L 7.71875 67.671875 
L 0.484375 67.671875 
L 0.484375 72.90625 
L 27.09375 72.90625 
L 27.09375 67.671875 
L 18.015625 67.671875 
L 33.203125 13.8125 
L 49.8125 72.90625 
L 57.71875 72.90625 
L 74.609375 13.1875 
L 89.890625 67.671875 
L 81.5 67.671875 
L 81.5 72.90625 
L 102.484375 72.90625 
L 102.484375 67.671875 
L 95.3125 67.671875 
z
" id="DejaVuSerif-87"/>
      <path d="M 9.71875 68.015625 
Q 9.71875 70.265625 11.34375 71.921875 
Q 12.984375 73.578125 15.28125 73.578125 
Q 17.53125 73.578125 19.15625 71.921875 
Q 20.796875 70.265625 20.796875 68.015625 
Q 20.796875 65.71875 19.1875 64.109375 
Q 17.578125 62.5 15.28125 62.5 
Q 12.984375 62.5 11.34375 64.109375 
Q 9.71875 65.71875 9.71875 68.015625 
z
M 21.1875 5.171875 
L 29.6875 5.171875 
L 29.6875 0 
L 3.609375 0 
L 3.609375 5.171875 
L 12.203125 5.171875 
L 12.203125 46.6875 
L 3.609375 46.6875 
L 3.609375 51.90625 
L 21.1875 51.90625 
z
" id="DejaVuSerif-105"/>
      <path d="M 4.109375 0 
L 4.109375 5.171875 
L 12.203125 5.171875 
L 12.203125 70.796875 
L 3.609375 70.796875 
L 3.609375 75.984375 
L 21.1875 75.984375 
L 21.1875 42.671875 
Q 23.6875 47.953125 27.65625 50.640625 
Q 31.640625 53.328125 36.921875 53.328125 
Q 45.515625 53.328125 49.5625 48.390625 
Q 53.609375 43.453125 53.609375 33.015625 
L 53.609375 5.171875 
L 61.625 5.171875 
L 61.625 0 
L 36.8125 0 
L 36.8125 5.171875 
L 44.578125 5.171875 
L 44.578125 30.171875 
Q 44.578125 39.703125 42.25 43.1875 
Q 39.9375 46.6875 33.984375 46.6875 
Q 27.734375 46.6875 24.453125 42.140625 
Q 21.1875 37.59375 21.1875 28.90625 
L 21.1875 5.171875 
L 29 5.171875 
L 29 0 
z
" id="DejaVuSerif-104"/>
      <path d="M 5.609375 2.875 
L 5.609375 14.984375 
L 10.796875 14.984375 
Q 10.984375 9.1875 14.421875 6.296875 
Q 17.875 3.421875 24.609375 3.421875 
Q 30.671875 3.421875 33.84375 5.6875 
Q 37.015625 7.953125 37.015625 12.3125 
Q 37.015625 15.71875 34.6875 17.8125 
Q 32.375 19.921875 24.90625 22.3125 
L 18.40625 24.515625 
Q 11.71875 26.65625 8.71875 29.875 
Q 5.71875 33.109375 5.71875 38.09375 
Q 5.71875 45.21875 10.9375 49.265625 
Q 16.15625 53.328125 25.390625 53.328125 
Q 29.5 53.328125 34.03125 52.25 
Q 38.578125 51.171875 43.40625 49.125 
L 43.40625 37.796875 
L 38.234375 37.796875 
Q 38.03125 42.828125 34.703125 45.65625 
Q 31.390625 48.484375 25.6875 48.484375 
Q 20.015625 48.484375 17.109375 46.484375 
Q 14.203125 44.484375 14.203125 40.484375 
Q 14.203125 37.203125 16.40625 35.21875 
Q 18.609375 33.25 25.203125 31.203125 
L 32.328125 29 
Q 39.703125 26.703125 42.9375 23.265625 
Q 46.1875 19.828125 46.1875 14.40625 
Q 46.1875 7.03125 40.546875 2.796875 
Q 34.90625 -1.421875 25 -1.421875 
Q 19.96875 -1.421875 15.1875 -0.34375 
Q 10.40625 0.734375 5.609375 2.875 
z
" id="DejaVuSerif-115"/>
     </defs>
     <g transform="translate(94.665057 278.936563)scale(0.1 -0.1)">
      <use xlink:href="#DejaVuSerif-80"/>
      <use x="62.785156" xlink:href="#DejaVuSerif-101"/>
      <use x="121.964844" xlink:href="#DejaVuSerif-114"/>
      <use x="169.767578" xlink:href="#DejaVuSerif-99"/>
      <use x="225.773438" xlink:href="#DejaVuSerif-101"/>
      <use x="284.953125" xlink:href="#DejaVuSerif-110"/>
      <use x="349.357422" xlink:href="#DejaVuSerif-116"/>
      <use x="389.542969" xlink:href="#DejaVuSerif-97"/>
      <use x="449.162109" xlink:href="#DejaVuSerif-103"/>
      <use x="513.175781" xlink:href="#DejaVuSerif-101"/>
      <use x="572.355469" xlink:href="#DejaVuSerif-32"/>
      <use x="604.142578" xlink:href="#DejaVuSerif-111"/>
      <use x="664.347656" xlink:href="#DejaVuSerif-102"/>
      <use x="701.359375" xlink:href="#DejaVuSerif-32"/>
      <use x="733.146484" xlink:href="#DejaVuSerif-80"/>
      <use x="800.431641" xlink:href="#DejaVuSerif-114"/>
      <use x="848.234375" xlink:href="#DejaVuSerif-117"/>
      <use x="912.638672" xlink:href="#DejaVuSerif-110"/>
      <use x="977.042969" xlink:href="#DejaVuSerif-101"/>
      <use x="1036.222656" xlink:href="#DejaVuSerif-100"/>
      <use x="1100.236328" xlink:href="#DejaVuSerif-32"/>
      <use x="1132.023438" xlink:href="#DejaVuSerif-87"/>
      <use x="1226.681641" xlink:href="#DejaVuSerif-101"/>
      <use x="1285.861328" xlink:href="#DejaVuSerif-105"/>
      <use x="1317.84375" xlink:href="#DejaVuSerif-103"/>
      <use x="1381.857422" xlink:href="#DejaVuSerif-104"/>
      <use x="1446.261719" xlink:href="#DejaVuSerif-116"/>
      <use x="1486.447266" xlink:href="#DejaVuSerif-115"/>
     </g>
    </g>
   </g>
   <g id="matplotlib.axis_2">
    <g id="ytick_1">
     <g id="line2d_46">
      <path clip-path="url(#p980b4fb162)" d="M 44.735938 251.034567 
L 298.372301 251.034567 
" style="fill:none;stroke:#000000;stroke-dasharray:1.85,0.8;stroke-dashoffset:0;stroke-opacity:0.5;stroke-width:0.5;"/>
     </g>
     <g id="line2d_47">
      <defs>
       <path d="M 0 0 
L 3 0 
" id="m929547adb0" style="stroke:#000000;stroke-width:0.5;"/>
      </defs>
      <g>
       <use style="stroke:#000000;stroke-width:0.5;" x="44.735938" xlink:href="#m929547adb0" y="251.034567"/>
      </g>
     </g>
     <g id="line2d_48">
      <defs>
       <path d="M 0 0 
L -3 0 
" id="m12dfd3ec12" style="stroke:#000000;stroke-width:0.5;"/>
      </defs>
      <g>
       <use style="stroke:#000000;stroke-width:0.5;" x="298.372301" xlink:href="#m12dfd3ec12" y="251.034567"/>
      </g>
     </g>
     <g id="text_7">
      <!-- 70 -->
      <defs>
       <path d="M 56.390625 67.921875 
L 27.875 0 
L 20.609375 0 
L 47.796875 64.890625 
L 14.109375 64.890625 
L 14.109375 55.90625 
L 8.40625 55.90625 
L 8.40625 72.90625 
L 56.390625 72.90625 
z
" id="DejaVuSerif-55"/>
      </defs>
      <g transform="translate(28.510938 254.833785)scale(0.1 -0.1)">
       <use xlink:href="#DejaVuSerif-55"/>
       <use x="63.623047" xlink:href="#DejaVuSerif-48"/>
      </g>
     </g>
    </g>
    <g id="ytick_2">
     <g id="line2d_49">
      <path clip-path="url(#p980b4fb162)" d="M 44.735938 237.63043 
L 298.372301 237.63043 
" style="fill:none;stroke:#000000;stroke-dasharray:1.85,0.8;stroke-dashoffset:0;stroke-opacity:0.5;stroke-width:0.5;"/>
     </g>
     <g id="line2d_50">
      <g>
       <use style="stroke:#000000;stroke-width:0.5;" x="44.735938" xlink:href="#m929547adb0" y="237.63043"/>
      </g>
     </g>
     <g id="line2d_51">
      <g>
       <use style="stroke:#000000;stroke-width:0.5;" x="298.372301" xlink:href="#m12dfd3ec12" y="237.63043"/>
      </g>
     </g>
     <g id="text_8">
      <!-- 75 -->
      <defs>
       <path d="M 50.296875 72.90625 
L 50.296875 64.890625 
L 16.890625 64.890625 
L 16.890625 44 
Q 19.4375 45.75 22.828125 46.625 
Q 26.21875 47.515625 30.421875 47.515625 
Q 42.234375 47.515625 49.0625 40.96875 
Q 55.90625 34.421875 55.90625 23.09375 
Q 55.90625 11.53125 49 5.046875 
Q 42.09375 -1.421875 29.59375 -1.421875 
Q 24.5625 -1.421875 19.28125 -0.1875 
Q 14.015625 1.03125 8.5 3.515625 
L 8.5 17.671875 
L 14.015625 17.671875 
Q 14.453125 10.75 18.421875 7.078125 
Q 22.40625 3.421875 29.59375 3.421875 
Q 37.3125 3.421875 41.453125 8.5 
Q 45.609375 13.578125 45.609375 23.09375 
Q 45.609375 32.5625 41.484375 37.609375 
Q 37.359375 42.671875 29.59375 42.671875 
Q 25.203125 42.671875 21.84375 41.109375 
Q 18.5 39.546875 15.921875 36.28125 
L 11.71875 36.28125 
L 11.71875 72.90625 
z
" id="DejaVuSerif-53"/>
      </defs>
      <g transform="translate(28.510938 241.429649)scale(0.1 -0.1)">
       <use xlink:href="#DejaVuSerif-55"/>
       <use x="63.623047" xlink:href="#DejaVuSerif-53"/>
      </g>
     </g>
    </g>
    <g id="ytick_3">
     <g id="line2d_52">
      <path clip-path="url(#p980b4fb162)" d="M 44.735938 216.042934 
L 298.372301 216.042934 
" style="fill:none;stroke:#000000;stroke-dasharray:1.85,0.8;stroke-dashoffset:0;stroke-opacity:0.5;stroke-width:0.5;"/>
     </g>
     <g id="line2d_53">
      <g>
       <use style="stroke:#000000;stroke-width:0.5;" x="44.735938" xlink:href="#m929547adb0" y="216.042934"/>
      </g>
     </g>
     <g id="line2d_54">
      <g>
       <use style="stroke:#000000;stroke-width:0.5;" x="298.372301" xlink:href="#m12dfd3ec12" y="216.042934"/>
      </g>
     </g>
     <g id="text_9">
      <!-- 80 -->
      <g transform="translate(28.510938 219.842153)scale(0.1 -0.1)">
       <use xlink:href="#DejaVuSerif-56"/>
       <use x="63.623047" xlink:href="#DejaVuSerif-48"/>
      </g>
     </g>
    </g>
    <g id="ytick_4">
     <g id="line2d_55">
      <path clip-path="url(#p980b4fb162)" d="M 44.735938 181.276056 
L 298.372301 181.276056 
" style="fill:none;stroke:#000000;stroke-dasharray:1.85,0.8;stroke-dashoffset:0;stroke-opacity:0.5;stroke-width:0.5;"/>
     </g>
     <g id="line2d_56">
      <g>
       <use style="stroke:#000000;stroke-width:0.5;" x="44.735938" xlink:href="#m929547adb0" y="181.276056"/>
      </g>
     </g>
     <g id="line2d_57">
      <g>
       <use style="stroke:#000000;stroke-width:0.5;" x="298.372301" xlink:href="#m12dfd3ec12" y="181.276056"/>
      </g>
     </g>
     <g id="text_10">
      <!-- 85 -->
      <g transform="translate(28.510938 185.075275)scale(0.1 -0.1)">
       <use xlink:href="#DejaVuSerif-56"/>
       <use x="63.623047" xlink:href="#DejaVuSerif-53"/>
      </g>
     </g>
    </g>
    <g id="ytick_5">
     <g id="line2d_58">
      <path clip-path="url(#p980b4fb162)" d="M 44.735938 125.283651 
L 298.372301 125.283651 
" style="fill:none;stroke:#000000;stroke-dasharray:1.85,0.8;stroke-dashoffset:0;stroke-opacity:0.5;stroke-width:0.5;"/>
     </g>
     <g id="line2d_59">
      <g>
       <use style="stroke:#000000;stroke-width:0.5;" x="44.735938" xlink:href="#m929547adb0" y="125.283651"/>
      </g>
     </g>
     <g id="line2d_60">
      <g>
       <use style="stroke:#000000;stroke-width:0.5;" x="298.372301" xlink:href="#m12dfd3ec12" y="125.283651"/>
      </g>
     </g>
     <g id="text_11">
      <!-- 90 -->
      <defs>
       <path d="M 46.78125 32.671875 
Q 43.5 29 39.25 27.1875 
Q 35.015625 25.390625 29.6875 25.390625 
Q 18.84375 25.390625 12.5625 31.9375 
Q 6.296875 38.484375 6.296875 49.8125 
Q 6.296875 60.890625 13.109375 67.546875 
Q 19.921875 74.21875 31.296875 74.21875 
Q 43.65625 74.21875 50.265625 65.015625 
Q 56.890625 55.8125 56.890625 38.71875 
Q 56.890625 19.578125 49.015625 9.078125 
Q 41.15625 -1.421875 26.90625 -1.421875 
Q 23.046875 -1.421875 18.796875 -0.6875 
Q 14.546875 0.046875 10.109375 1.515625 
L 10.109375 13.625 
L 15.578125 13.625 
Q 16.21875 8.6875 19.390625 6.046875 
Q 22.5625 3.421875 27.875 3.421875 
Q 37.359375 3.421875 41.984375 10.5625 
Q 46.625 17.71875 46.78125 32.671875 
z
M 30.90625 69.390625 
Q 23.96875 69.390625 20.28125 64.328125 
Q 16.609375 59.28125 16.609375 49.8125 
Q 16.609375 40.328125 20.28125 35.25 
Q 23.96875 30.171875 30.90625 30.171875 
Q 37.84375 30.171875 41.53125 35.078125 
Q 45.21875 39.984375 45.21875 49.21875 
Q 45.21875 58.9375 41.5 64.15625 
Q 37.796875 69.390625 30.90625 69.390625 
z
" id="DejaVuSerif-57"/>
      </defs>
      <g transform="translate(28.510938 129.08287)scale(0.1 -0.1)">
       <use xlink:href="#DejaVuSerif-57"/>
       <use x="63.623047" xlink:href="#DejaVuSerif-48"/>
      </g>
     </g>
    </g>
    <g id="ytick_6">
     <g id="line2d_61">
      <path clip-path="url(#p980b4fb162)" d="M 44.735938 35.107323 
L 298.372301 35.107323 
" style="fill:none;stroke:#000000;stroke-dasharray:1.85,0.8;stroke-dashoffset:0;stroke-opacity:0.5;stroke-width:0.5;"/>
     </g>
     <g id="line2d_62">
      <g>
       <use style="stroke:#000000;stroke-width:0.5;" x="44.735938" xlink:href="#m929547adb0" y="35.107323"/>
      </g>
     </g>
     <g id="line2d_63">
      <g>
       <use style="stroke:#000000;stroke-width:0.5;" x="298.372301" xlink:href="#m12dfd3ec12" y="35.107323"/>
      </g>
     </g>
     <g id="text_12">
      <!-- 95 -->
      <g transform="translate(28.510938 38.906541)scale(0.1 -0.1)">
       <use xlink:href="#DejaVuSerif-57"/>
       <use x="63.623047" xlink:href="#DejaVuSerif-53"/>
      </g>
     </g>
    </g>
    <g id="ytick_7">
     <g id="line2d_64">
      <defs>
       <path d="M 0 0 
L 1.5 0 
" id="m73c72d80d5" style="stroke:#000000;stroke-width:0.5;"/>
      </defs>
      <g>
       <use style="stroke:#000000;stroke-width:0.5;" x="44.735938" xlink:href="#m73c72d80d5" y="253.030534"/>
      </g>
     </g>
     <g id="line2d_65">
      <defs>
       <path d="M 0 0 
L -1.5 0 
" id="m8d6bd39fdb" style="stroke:#000000;stroke-width:0.5;"/>
      </defs>
      <g>
       <use style="stroke:#000000;stroke-width:0.5;" x="298.372301" xlink:href="#m8d6bd39fdb" y="253.030534"/>
      </g>
     </g>
    </g>
    <g id="ytick_8">
     <g id="line2d_66">
      <g>
       <use style="stroke:#000000;stroke-width:0.5;" x="44.735938" xlink:href="#m73c72d80d5" y="248.839003"/>
      </g>
     </g>
     <g id="line2d_67">
      <g>
       <use style="stroke:#000000;stroke-width:0.5;" x="298.372301" xlink:href="#m8d6bd39fdb" y="248.839003"/>
      </g>
     </g>
    </g>
    <g id="ytick_9">
     <g id="line2d_68">
      <g>
       <use style="stroke:#000000;stroke-width:0.5;" x="44.735938" xlink:href="#m73c72d80d5" y="246.423883"/>
      </g>
     </g>
     <g id="line2d_69">
      <g>
       <use style="stroke:#000000;stroke-width:0.5;" x="298.372301" xlink:href="#m8d6bd39fdb" y="246.423883"/>
      </g>
     </g>
    </g>
    <g id="ytick_10">
     <g id="line2d_70">
      <g>
       <use style="stroke:#000000;stroke-width:0.5;" x="44.735938" xlink:href="#m73c72d80d5" y="243.767251"/>
      </g>
     </g>
     <g id="line2d_71">
      <g>
       <use style="stroke:#000000;stroke-width:0.5;" x="298.372301" xlink:href="#m8d6bd39fdb" y="243.767251"/>
      </g>
     </g>
    </g>
    <g id="ytick_11">
     <g id="line2d_72">
      <g>
       <use style="stroke:#000000;stroke-width:0.5;" x="44.735938" xlink:href="#m73c72d80d5" y="240.844955"/>
      </g>
     </g>
     <g id="line2d_73">
      <g>
       <use style="stroke:#000000;stroke-width:0.5;" x="298.372301" xlink:href="#m8d6bd39fdb" y="240.844955"/>
      </g>
     </g>
    </g>
    <g id="ytick_12">
     <g id="line2d_74">
      <g>
       <use style="stroke:#000000;stroke-width:0.5;" x="44.735938" xlink:href="#m73c72d80d5" y="234.094453"/>
      </g>
     </g>
     <g id="line2d_75">
      <g>
       <use style="stroke:#000000;stroke-width:0.5;" x="298.372301" xlink:href="#m8d6bd39fdb" y="234.094453"/>
      </g>
     </g>
    </g>
    <g id="ytick_13">
     <g id="line2d_76">
      <g>
       <use style="stroke:#000000;stroke-width:0.5;" x="44.735938" xlink:href="#m73c72d80d5" y="230.204877"/>
      </g>
     </g>
     <g id="line2d_77">
      <g>
       <use style="stroke:#000000;stroke-width:0.5;" x="298.372301" xlink:href="#m8d6bd39fdb" y="230.204877"/>
      </g>
     </g>
    </g>
    <g id="ytick_14">
     <g id="line2d_78">
      <g>
       <use style="stroke:#000000;stroke-width:0.5;" x="44.735938" xlink:href="#m73c72d80d5" y="225.926345"/>
      </g>
     </g>
     <g id="line2d_79">
      <g>
       <use style="stroke:#000000;stroke-width:0.5;" x="298.372301" xlink:href="#m8d6bd39fdb" y="225.926345"/>
      </g>
     </g>
    </g>
    <g id="ytick_15">
     <g id="line2d_80">
      <g>
       <use style="stroke:#000000;stroke-width:0.5;" x="44.735938" xlink:href="#m73c72d80d5" y="221.219959"/>
      </g>
     </g>
     <g id="line2d_81">
      <g>
       <use style="stroke:#000000;stroke-width:0.5;" x="298.372301" xlink:href="#m8d6bd39fdb" y="221.219959"/>
      </g>
     </g>
    </g>
    <g id="ytick_16">
     <g id="line2d_82">
      <g>
       <use style="stroke:#000000;stroke-width:0.5;" x="44.735938" xlink:href="#m73c72d80d5" y="210.348207"/>
      </g>
     </g>
     <g id="line2d_83">
      <g>
       <use style="stroke:#000000;stroke-width:0.5;" x="298.372301" xlink:href="#m8d6bd39fdb" y="210.348207"/>
      </g>
     </g>
    </g>
    <g id="ytick_17">
     <g id="line2d_84">
      <g>
       <use style="stroke:#000000;stroke-width:0.5;" x="44.735938" xlink:href="#m73c72d80d5" y="204.084007"/>
      </g>
     </g>
     <g id="line2d_85">
      <g>
       <use style="stroke:#000000;stroke-width:0.5;" x="298.372301" xlink:href="#m8d6bd39fdb" y="204.084007"/>
      </g>
     </g>
    </g>
    <g id="ytick_18">
     <g id="line2d_86">
      <g>
       <use style="stroke:#000000;stroke-width:0.5;" x="44.735938" xlink:href="#m73c72d80d5" y="197.193388"/>
      </g>
     </g>
     <g id="line2d_87">
      <g>
       <use style="stroke:#000000;stroke-width:0.5;" x="298.372301" xlink:href="#m8d6bd39fdb" y="197.193388"/>
      </g>
     </g>
    </g>
    <g id="ytick_19">
     <g id="line2d_88">
      <g>
       <use style="stroke:#000000;stroke-width:0.5;" x="44.735938" xlink:href="#m73c72d80d5" y="189.613706"/>
      </g>
     </g>
     <g id="line2d_89">
      <g>
       <use style="stroke:#000000;stroke-width:0.5;" x="298.372301" xlink:href="#m8d6bd39fdb" y="189.613706"/>
      </g>
     </g>
    </g>
    <g id="ytick_20">
     <g id="line2d_90">
      <g>
       <use style="stroke:#000000;stroke-width:0.5;" x="44.735938" xlink:href="#m73c72d80d5" y="172.104641"/>
      </g>
     </g>
     <g id="line2d_91">
      <g>
       <use style="stroke:#000000;stroke-width:0.5;" x="298.372301" xlink:href="#m8d6bd39fdb" y="172.104641"/>
      </g>
     </g>
    </g>
    <g id="ytick_21">
     <g id="line2d_92">
      <g>
       <use style="stroke:#000000;stroke-width:0.5;" x="44.735938" xlink:href="#m73c72d80d5" y="162.016085"/>
      </g>
     </g>
     <g id="line2d_93">
      <g>
       <use style="stroke:#000000;stroke-width:0.5;" x="298.372301" xlink:href="#m8d6bd39fdb" y="162.016085"/>
      </g>
     </g>
    </g>
    <g id="ytick_22">
     <g id="line2d_94">
      <g>
       <use style="stroke:#000000;stroke-width:0.5;" x="44.735938" xlink:href="#m73c72d80d5" y="150.918673"/>
      </g>
     </g>
     <g id="line2d_95">
      <g>
       <use style="stroke:#000000;stroke-width:0.5;" x="298.372301" xlink:href="#m8d6bd39fdb" y="150.918673"/>
      </g>
     </g>
    </g>
    <g id="ytick_23">
     <g id="line2d_96">
      <g>
       <use style="stroke:#000000;stroke-width:0.5;" x="44.735938" xlink:href="#m73c72d80d5" y="138.711519"/>
      </g>
     </g>
     <g id="line2d_97">
      <g>
       <use style="stroke:#000000;stroke-width:0.5;" x="298.372301" xlink:href="#m8d6bd39fdb" y="138.711519"/>
      </g>
     </g>
    </g>
    <g id="ytick_24">
     <g id="line2d_98">
      <g>
       <use style="stroke:#000000;stroke-width:0.5;" x="44.735938" xlink:href="#m73c72d80d5" y="110.512995"/>
      </g>
     </g>
     <g id="line2d_99">
      <g>
       <use style="stroke:#000000;stroke-width:0.5;" x="298.372301" xlink:href="#m8d6bd39fdb" y="110.512995"/>
      </g>
     </g>
    </g>
    <g id="ytick_25">
     <g id="line2d_100">
      <g>
       <use style="stroke:#000000;stroke-width:0.5;" x="44.735938" xlink:href="#m73c72d80d5" y="94.265275"/>
      </g>
     </g>
     <g id="line2d_101">
      <g>
       <use style="stroke:#000000;stroke-width:0.5;" x="298.372301" xlink:href="#m8d6bd39fdb" y="94.265275"/>
      </g>
     </g>
    </g>
    <g id="ytick_26">
     <g id="line2d_102">
      <g>
       <use style="stroke:#000000;stroke-width:0.5;" x="44.735938" xlink:href="#m73c72d80d5" y="76.392782"/>
      </g>
     </g>
     <g id="line2d_103">
      <g>
       <use style="stroke:#000000;stroke-width:0.5;" x="298.372301" xlink:href="#m8d6bd39fdb" y="76.392782"/>
      </g>
     </g>
    </g>
    <g id="ytick_27">
     <g id="line2d_104">
      <g>
       <use style="stroke:#000000;stroke-width:0.5;" x="44.735938" xlink:href="#m73c72d80d5" y="56.733039"/>
      </g>
     </g>
     <g id="line2d_105">
      <g>
       <use style="stroke:#000000;stroke-width:0.5;" x="298.372301" xlink:href="#m8d6bd39fdb" y="56.733039"/>
      </g>
     </g>
    </g>
    <g id="ytick_28">
     <g id="line2d_106">
      <g>
       <use style="stroke:#000000;stroke-width:0.5;" x="44.735938" xlink:href="#m73c72d80d5" y="11.319034"/>
      </g>
     </g>
     <g id="line2d_107">
      <g>
       <use style="stroke:#000000;stroke-width:0.5;" x="298.372301" xlink:href="#m8d6bd39fdb" y="11.319034"/>
      </g>
     </g>
    </g>
    <g id="text_13">
     <!-- Test Accuracy in Percent -->
     <defs>
      <path d="M 19.09375 0 
L 19.09375 5.171875 
L 28.421875 5.171875 
L 28.421875 67.09375 
L 6.984375 67.09375 
L 6.984375 55.71875 
L 0.984375 55.71875 
L 0.984375 72.90625 
L 65.71875 72.90625 
L 65.71875 55.71875 
L 59.71875 55.71875 
L 59.71875 67.09375 
L 38.28125 67.09375 
L 38.28125 5.171875 
L 47.609375 5.171875 
L 47.609375 0 
z
" id="DejaVuSerif-84"/>
      <path d="M 20.015625 26.421875 
L 46.78125 26.421875 
L 33.40625 61.078125 
z
M -0.59375 0 
L -0.59375 5.171875 
L 5.8125 5.171875 
L 31.78125 72.90625 
L 39.984375 72.90625 
L 66.015625 5.171875 
L 73.1875 5.171875 
L 73.1875 0 
L 46.6875 0 
L 46.6875 5.171875 
L 54.78125 5.171875 
L 48.6875 21.1875 
L 18.015625 21.1875 
L 11.921875 5.171875 
L 19.921875 5.171875 
L 19.921875 0 
z
" id="DejaVuSerif-65"/>
      <path d="M 21.578125 -9.515625 
L 25 -0.875 
L 5.609375 46.6875 
L -0.296875 46.6875 
L -0.296875 51.90625 
L 23.578125 51.90625 
L 23.578125 46.6875 
L 15.28125 46.6875 
L 29.890625 10.984375 
L 44.484375 46.6875 
L 36.71875 46.6875 
L 36.71875 51.90625 
L 56.203125 51.90625 
L 56.203125 46.6875 
L 50.390625 46.6875 
L 26.609375 -11.71875 
Q 24.171875 -17.78125 21.1875 -20 
Q 18.21875 -22.21875 12.796875 -22.21875 
Q 10.5 -22.21875 8.078125 -21.828125 
Q 5.671875 -21.4375 3.21875 -20.703125 
L 3.21875 -10.796875 
L 7.8125 -10.796875 
Q 8.109375 -14.109375 9.5 -15.546875 
Q 10.890625 -17 13.8125 -17 
Q 16.5 -17 18.140625 -15.5 
Q 19.78125 -14.015625 21.578125 -9.515625 
z
" id="DejaVuSerif-121"/>
     </defs>
     <g transform="translate(22.289063 191.853438)rotate(-90)scale(0.1 -0.1)">
      <use xlink:href="#DejaVuSerif-84"/>
      <use x="58.949219" xlink:href="#DejaVuSerif-101"/>
      <use x="118.128906" xlink:href="#DejaVuSerif-115"/>
      <use x="169.447266" xlink:href="#DejaVuSerif-116"/>
      <use x="209.632812" xlink:href="#DejaVuSerif-32"/>
      <use x="241.419922" xlink:href="#DejaVuSerif-65"/>
      <use x="313.636719" xlink:href="#DejaVuSerif-99"/>
      <use x="369.642578" xlink:href="#DejaVuSerif-99"/>
      <use x="425.648438" xlink:href="#DejaVuSerif-117"/>
      <use x="490.052734" xlink:href="#DejaVuSerif-114"/>
      <use x="537.855469" xlink:href="#DejaVuSerif-97"/>
      <use x="597.474609" xlink:href="#DejaVuSerif-99"/>
      <use x="653.480469" xlink:href="#DejaVuSerif-121"/>
      <use x="709.974609" xlink:href="#DejaVuSerif-32"/>
      <use x="741.761719" xlink:href="#DejaVuSerif-105"/>
      <use x="773.744141" xlink:href="#DejaVuSerif-110"/>
      <use x="838.148438" xlink:href="#DejaVuSerif-32"/>
      <use x="869.935547" xlink:href="#DejaVuSerif-80"/>
      <use x="932.720703" xlink:href="#DejaVuSerif-101"/>
      <use x="991.900391" xlink:href="#DejaVuSerif-114"/>
      <use x="1039.703125" xlink:href="#DejaVuSerif-99"/>
      <use x="1095.708984" xlink:href="#DejaVuSerif-101"/>
      <use x="1154.888672" xlink:href="#DejaVuSerif-110"/>
      <use x="1219.292969" xlink:href="#DejaVuSerif-116"/>
     </g>
    </g>
   </g>
   <g id="line2d_108">
    <path clip-path="url(#p980b4fb162)" d="M 40.882774 60.05489 
L 58.962894 54.726933 
L 79.572452 48.814694 
L 101.468151 48.140654 
L 123.452152 45.582414 
L 144.547294 43.726507 
L 164.068677 42.489268 
L 181.616058 44.681425 
L 197.026347 45.840374 
L 210.31115 46.380308 
L 221.592561 49.658492 
L 231.059928 50.962952 
L 238.928747 53.010097 
L 245.41894 59.563167 
L 250.74105 63.480721 
L 255.083177 69.162945 
L 258.611558 75.459155 
L 261.469169 84.950769 
L 263.779231 97.381337 
L 265.640619 113.081366 
L 267.140986 128.129299 
L 268.346311 138.956128 
" style="fill:none;stroke:#0c5da5;stroke-linecap:square;"/>
   </g>
   <g id="line2d_109">
    <path clip-path="url(#p980b4fb162)" d="M 40.882774 48.305241 
L 58.962894 42.447068 
L 79.572452 39.148662 
L 101.468151 38.917386 
L 123.452152 38.342488 
L 144.547294 38.814523 
L 164.068677 38.299529 
L 181.616058 39.259936 
L 197.026347 39.764284 
L 210.31115 40.216413 
L 221.592561 42.877147 
L 231.059928 43.9111 
L 238.928747 46.695368 
L 245.41894 49.862818 
L 250.74105 52.865076 
L 255.083177 56.549269 
L 258.611558 62.57362 
L 261.469169 68.077981 
L 263.779231 75.733786 
L 265.640619 81.87601 
L 267.140986 89.977 
L 268.346311 101.052255 
L 269.315066 116.372493 
L 270.092622 130.390312 
L 270.715883 130.878505 
" style="fill:none;stroke:#00b945;stroke-linecap:square;"/>
   </g>
   <g id="line2d_110">
    <path clip-path="url(#p980b4fb162)" d="M 40.882774 46.894127 
L 58.962894 44.363562 
L 79.572452 40.403832 
L 101.468151 36.60931 
L 123.452152 37.283402 
L 144.547294 40.778218 
L 164.068677 39.525068 
L 181.616058 39.336941 
L 197.026347 40.846223 
L 210.31115 157.984727 
L 221.592561 39.504173 
L 231.059928 168.093926 
L 238.928747 47.005852 
L 245.41894 96.650069 
L 250.74105 57.450778 
L 255.083177 58.485453 
L 258.611558 148.631671 
L 261.469169 68.157991 
L 263.779231 75.774707 
L 265.640619 83.836762 
L 267.140986 94.206809 
L 268.346311 111.587338 
L 269.315066 122.708922 
L 270.092622 133.038548 
L 270.715883 125.920411 
" style="fill:none;stroke:#ff9500;stroke-linecap:square;"/>
   </g>
   <g id="patch_3">
    <path d="M 44.735938 254.16 
L 44.735938 3.6 
" style="fill:none;stroke:#000000;stroke-linecap:square;stroke-linejoin:miter;stroke-width:0.5;"/>
   </g>
   <g id="patch_4">
    <path d="M 298.372301 254.16 
L 298.372301 3.6 
" style="fill:none;stroke:#000000;stroke-linecap:square;stroke-linejoin:miter;stroke-width:0.5;"/>
   </g>
   <g id="patch_5">
    <path d="M 44.735938 254.16 
L 298.372301 254.16 
" style="fill:none;stroke:#000000;stroke-linecap:square;stroke-linejoin:miter;stroke-width:0.5;"/>
   </g>
   <g id="patch_6">
    <path d="M 44.735938 3.6 
L 298.372301 3.6 
" style="fill:none;stroke:#000000;stroke-linecap:square;stroke-linejoin:miter;stroke-width:0.5;"/>
   </g>
  </g>
  <g id="axes_2">
   <g id="patch_7">
    <path d="M 349.099574 254.16 
L 602.735937 254.16 
L 602.735937 3.6 
L 349.099574 3.6 
z
" style="fill:#ffffff;"/>
   </g>
   <g id="PolyCollection_4">
    <path clip-path="url(#p94daa659bb)" d="M 345.232627 63.162104 
L 345.232627 68.002357 
L 363.428404 52.272258 
L 384.169952 49.186495 
L 406.205954 42.677795 
L 406.205954 37.409654 
L 406.205954 37.409654 
L 384.169952 44.96858 
L 363.428404 47.412119 
L 345.232627 63.162104 
z
" style="fill:#0c5da5;fill-opacity:0.2;stroke:#0c5da5;stroke-opacity:0.2;"/>
    <path clip-path="url(#p94daa659bb)" d="M 428.330673 36.600682 
L 428.330673 41.8107 
L 428.330673 36.600682 
L 428.330673 36.600682 
z
" style="fill:#0c5da5;fill-opacity:0.2;stroke:#0c5da5;stroke-opacity:0.2;"/>
    <path clip-path="url(#p94daa659bb)" d="M 449.561124 35.268245 
L 449.561124 40.325829 
L 449.561124 35.268245 
L 449.561124 35.268245 
z
" style="fill:#0c5da5;fill-opacity:0.2;stroke:#0c5da5;stroke-opacity:0.2;"/>
    <path clip-path="url(#p94daa659bb)" d="M 469.207821 36.730762 
L 469.207821 40.370528 
L 469.207821 36.730762 
L 469.207821 36.730762 
z
" style="fill:#0c5da5;fill-opacity:0.2;stroke:#0c5da5;stroke-opacity:0.2;"/>
    <path clip-path="url(#p94daa659bb)" d="M 486.867236 34.396573 
L 486.867236 41.740897 
L 486.867236 34.396573 
L 486.867236 34.396573 
z
" style="fill:#0c5da5;fill-opacity:0.2;stroke:#0c5da5;stroke-opacity:0.2;"/>
    <path clip-path="url(#p94daa659bb)" d="M 502.377352 38.97254 
L 502.377352 45.655185 
L 515.745649 43.377902 
L 527.099706 49.362771 
L 536.627691 55.651143 
L 544.546894 60.080203 
L 551.078161 67.765651 
L 556.434337 77.283563 
L 560.803256 91.085047 
L 564.354208 101.327864 
L 567.229071 118.033399 
L 569.553382 144.878462 
L 571.428233 174.68114 
L 572.937147 196.760395 
L 572.937147 176.16322 
L 572.937147 176.16322 
L 571.428233 160.090475 
L 569.553382 133.049809 
L 567.229071 113.115236 
L 564.354208 94.500701 
L 560.803256 81.733403 
L 556.434337 70.058665 
L 551.078161 62.957096 
L 544.546894 54.749868 
L 536.627691 49.110876 
L 527.099706 44.191817 
L 515.745649 38.830352 
L 502.377352 38.97254 
z
" style="fill:#0c5da5;fill-opacity:0.2;stroke:#0c5da5;stroke-opacity:0.2;"/>
   </g>
   <g id="PolyCollection_5">
    <path clip-path="url(#p94daa659bb)" d="M 345.232627 41.239121 
L 345.232627 46.110689 
L 363.428404 38.455221 
L 384.169952 36.209072 
L 406.205954 32.33313 
L 428.330673 33.727723 
L 449.561124 34.289283 
L 469.207821 36.523479 
L 486.867236 35.701399 
L 502.377352 37.249847 
L 515.745649 36.500199 
L 515.745649 29.387212 
L 515.745649 29.387212 
L 502.377352 29.304974 
L 486.867236 31.079796 
L 469.207821 28.413627 
L 449.561124 27.00035 
L 428.330673 27.50708 
L 406.205954 27.681502 
L 384.169952 29.663289 
L 363.428404 32.371311 
L 345.232627 41.239121 
z
" style="fill:#00b945;fill-opacity:0.2;stroke:#00b945;stroke-opacity:0.2;"/>
    <path clip-path="url(#p94daa659bb)" d="M 527.099706 35.369438 
L 527.099706 42.990602 
L 527.099706 35.369438 
L 527.099706 35.369438 
z
" style="fill:#00b945;fill-opacity:0.2;stroke:#00b945;stroke-opacity:0.2;"/>
    <path clip-path="url(#p94daa659bb)" d="M 536.627691 36.398242 
L 536.627691 41.867315 
L 536.627691 36.398242 
L 536.627691 36.398242 
z
" style="fill:#00b945;fill-opacity:0.2;stroke:#00b945;stroke-opacity:0.2;"/>
    <path clip-path="url(#p94daa659bb)" d="M 544.546894 40.138392 
L 544.546894 48.051326 
L 544.546894 40.138392 
L 544.546894 40.138392 
z
" style="fill:#00b945;fill-opacity:0.2;stroke:#00b945;stroke-opacity:0.2;"/>
    <path clip-path="url(#p94daa659bb)" d="M 551.078161 46.801492 
L 551.078161 52.223544 
L 551.078161 46.801492 
L 551.078161 46.801492 
z
" style="fill:#00b945;fill-opacity:0.2;stroke:#00b945;stroke-opacity:0.2;"/>
    <path clip-path="url(#p94daa659bb)" d="M 556.434337 56.939978 
L 556.434337 62.294839 
L 560.803256 71.987429 
L 564.354208 81.336759 
L 567.229071 93.247571 
L 569.553382 109.395778 
L 571.428233 126.846783 
L 572.937147 144.416685 
L 574.150178 165.876204 
L 575.126185 195.031078 
L 575.126185 184.896082 
L 575.126185 184.896082 
L 574.150178 154.992967 
L 572.937147 129.421624 
L 571.428233 114.103746 
L 569.553382 97.199564 
L 567.229071 82.175479 
L 564.354208 73.714773 
L 560.803256 63.101909 
L 556.434337 56.939978 
z
" style="fill:#00b945;fill-opacity:0.2;stroke:#00b945;stroke-opacity:0.2;"/>
   </g>
   <g id="PolyCollection_6">
    <defs>
     <path d="M 345.232627 -315.71251 
L 345.232627 -302.647179 
L 363.428404 -320.3364 
L 384.169952 -315.038883 
L 406.205954 -303.075718 
L 428.330673 -322.994044 
L 449.561124 -318.562708 
L 469.207821 -293.989598 
L 486.867236 -317.99277 
L 502.377352 -321.0019 
L 515.745649 -313.706697 
L 527.099706 -291.414273 
L 536.627691 -307.000374 
L 544.546894 -295.03757 
L 551.078161 -296.944198 
L 556.434337 -246.983684 
L 560.803256 -253.002091 
L 564.354208 -270.639017 
L 567.229071 -234.923545 
L 569.553382 -223.318695 
L 571.428233 -173.137052 
L 572.937147 -190.659653 
L 574.150178 -108.523164 
L 575.126185 -143.218537 
L 575.126185 -165.410873 
L 575.126185 -165.410873 
L 574.150178 -206.38666 
L 572.937147 -216.951029 
L 571.428233 -238.292849 
L 569.553382 -260.846004 
L 567.229071 -271.802874 
L 564.354208 -284.370245 
L 560.803256 -294.749917 
L 556.434337 -300.289724 
L 551.078161 -313.704457 
L 544.546894 -316.021621 
L 536.627691 -318.94545 
L 527.099706 -323.56052 
L 515.745649 -329.254635 
L 502.377352 -330.725255 
L 486.867236 -333.501989 
L 469.207821 -331.936047 
L 449.561124 -332.774033 
L 428.330673 -334.571355 
L 406.205954 -329.318481 
L 384.169952 -332.516974 
L 363.428404 -327.291565 
L 345.232627 -315.71251 
z
" id="m6032821cac" style="stroke:#ff9500;stroke-opacity:0.2;"/>
    </defs>
    <g clip-path="url(#p94daa659bb)">
     <use style="fill:#ff9500;fill-opacity:0.2;stroke:#ff9500;stroke-opacity:0.2;" x="0" xlink:href="#m6032821cac" y="356.038125"/>
    </g>
   </g>
   <g id="matplotlib.axis_3">
    <g id="xtick_21">
     <g id="line2d_111">
      <path clip-path="url(#p94daa659bb)" d="M 363.427633 254.16 
L 363.427633 3.6 
" style="fill:none;stroke:#000000;stroke-dasharray:1.85,0.8;stroke-dashoffset:0;stroke-opacity:0.5;stroke-width:0.5;"/>
     </g>
     <g id="line2d_112">
      <g>
       <use style="stroke:#000000;stroke-width:0.5;" x="363.427633" xlink:href="#m3d5f2726df" y="254.16"/>
      </g>
     </g>
     <g id="line2d_113">
      <g>
       <use style="stroke:#000000;stroke-width:0.5;" x="363.427633" xlink:href="#ma53dbb433a" y="3.6"/>
      </g>
     </g>
     <g id="text_14">
      <!-- 20 -->
      <g transform="translate(357.065133 265.258438)scale(0.1 -0.1)">
       <use xlink:href="#DejaVuSerif-50"/>
       <use x="63.623047" xlink:href="#DejaVuSerif-48"/>
      </g>
     </g>
    </g>
    <g id="xtick_22">
     <g id="line2d_114">
      <path clip-path="url(#p94daa659bb)" d="M 390.464455 254.16 
L 390.464455 3.6 
" style="fill:none;stroke:#000000;stroke-dasharray:1.85,0.8;stroke-dashoffset:0;stroke-opacity:0.5;stroke-width:0.5;"/>
     </g>
     <g id="line2d_115">
      <g>
       <use style="stroke:#000000;stroke-width:0.5;" x="390.464455" xlink:href="#m3d5f2726df" y="254.16"/>
      </g>
     </g>
     <g id="line2d_116">
      <g>
       <use style="stroke:#000000;stroke-width:0.5;" x="390.464455" xlink:href="#ma53dbb433a" y="3.6"/>
      </g>
     </g>
     <g id="text_15">
      <!-- 40 -->
      <g transform="translate(384.101955 265.258438)scale(0.1 -0.1)">
       <use xlink:href="#DejaVuSerif-52"/>
       <use x="63.623047" xlink:href="#DejaVuSerif-48"/>
      </g>
     </g>
    </g>
    <g id="xtick_23">
     <g id="line2d_117">
      <path clip-path="url(#p94daa659bb)" d="M 430.63975 254.16 
L 430.63975 3.6 
" style="fill:none;stroke:#000000;stroke-dasharray:1.85,0.8;stroke-dashoffset:0;stroke-opacity:0.5;stroke-width:0.5;"/>
     </g>
     <g id="line2d_118">
      <g>
       <use style="stroke:#000000;stroke-width:0.5;" x="430.63975" xlink:href="#m3d5f2726df" y="254.16"/>
      </g>
     </g>
     <g id="line2d_119">
      <g>
       <use style="stroke:#000000;stroke-width:0.5;" x="430.63975" xlink:href="#ma53dbb433a" y="3.6"/>
      </g>
     </g>
     <g id="text_16">
      <!-- 60 -->
      <g transform="translate(424.27725 265.258438)scale(0.1 -0.1)">
       <use xlink:href="#DejaVuSerif-54"/>
       <use x="63.623047" xlink:href="#DejaVuSerif-48"/>
      </g>
     </g>
    </g>
    <g id="xtick_24">
     <g id="line2d_120">
      <path clip-path="url(#p94daa659bb)" d="M 490.338125 254.16 
L 490.338125 3.6 
" style="fill:none;stroke:#000000;stroke-dasharray:1.85,0.8;stroke-dashoffset:0;stroke-opacity:0.5;stroke-width:0.5;"/>
     </g>
     <g id="line2d_121">
      <g>
       <use style="stroke:#000000;stroke-width:0.5;" x="490.338125" xlink:href="#m3d5f2726df" y="254.16"/>
      </g>
     </g>
     <g id="line2d_122">
      <g>
       <use style="stroke:#000000;stroke-width:0.5;" x="490.338125" xlink:href="#ma53dbb433a" y="3.6"/>
      </g>
     </g>
     <g id="text_17">
      <!-- 80 -->
      <g transform="translate(483.975625 265.258438)scale(0.1 -0.1)">
       <use xlink:href="#DejaVuSerif-56"/>
       <use x="63.623047" xlink:href="#DejaVuSerif-48"/>
      </g>
     </g>
    </g>
    <g id="xtick_25">
     <g id="line2d_123">
      <path clip-path="url(#p94daa659bb)" d="M 579.04677 254.16 
L 579.04677 3.6 
" style="fill:none;stroke:#000000;stroke-dasharray:1.85,0.8;stroke-dashoffset:0;stroke-opacity:0.5;stroke-width:0.5;"/>
     </g>
     <g id="line2d_124">
      <g>
       <use style="stroke:#000000;stroke-width:0.5;" x="579.04677" xlink:href="#m3d5f2726df" y="254.16"/>
      </g>
     </g>
     <g id="line2d_125">
      <g>
       <use style="stroke:#000000;stroke-width:0.5;" x="579.04677" xlink:href="#ma53dbb433a" y="3.6"/>
      </g>
     </g>
     <g id="text_18">
      <!-- 100 -->
      <g transform="translate(569.50302 265.258438)scale(0.1 -0.1)">
       <use xlink:href="#DejaVuSerif-49"/>
       <use x="63.623047" xlink:href="#DejaVuSerif-48"/>
       <use x="127.246094" xlink:href="#DejaVuSerif-48"/>
      </g>
     </g>
    </g>
    <g id="xtick_26">
     <g id="line2d_126">
      <g>
       <use style="stroke:#000000;stroke-width:0.5;" x="349.129656" xlink:href="#ma2be11af76" y="254.16"/>
      </g>
     </g>
     <g id="line2d_127">
      <g>
       <use style="stroke:#000000;stroke-width:0.5;" x="349.129656" xlink:href="#me0ce2c6b48" y="3.6"/>
      </g>
     </g>
    </g>
    <g id="xtick_27">
     <g id="line2d_128">
      <g>
       <use style="stroke:#000000;stroke-width:0.5;" x="353.43229" xlink:href="#ma2be11af76" y="254.16"/>
      </g>
     </g>
     <g id="line2d_129">
      <g>
       <use style="stroke:#000000;stroke-width:0.5;" x="353.43229" xlink:href="#me0ce2c6b48" y="3.6"/>
      </g>
     </g>
    </g>
    <g id="xtick_28">
     <g id="line2d_130">
      <g>
       <use style="stroke:#000000;stroke-width:0.5;" x="358.182746" xlink:href="#ma2be11af76" y="254.16"/>
      </g>
     </g>
     <g id="line2d_131">
      <g>
       <use style="stroke:#000000;stroke-width:0.5;" x="358.182746" xlink:href="#me0ce2c6b48" y="3.6"/>
      </g>
     </g>
    </g>
    <g id="xtick_29">
     <g id="line2d_132">
      <g>
       <use style="stroke:#000000;stroke-width:0.5;" x="369.218413" xlink:href="#ma2be11af76" y="254.16"/>
      </g>
     </g>
     <g id="line2d_133">
      <g>
       <use style="stroke:#000000;stroke-width:0.5;" x="369.218413" xlink:href="#me0ce2c6b48" y="3.6"/>
      </g>
     </g>
    </g>
    <g id="xtick_30">
     <g id="line2d_134">
      <g>
       <use style="stroke:#000000;stroke-width:0.5;" x="375.611901" xlink:href="#ma2be11af76" y="254.16"/>
      </g>
     </g>
     <g id="line2d_135">
      <g>
       <use style="stroke:#000000;stroke-width:0.5;" x="375.611901" xlink:href="#me0ce2c6b48" y="3.6"/>
      </g>
     </g>
    </g>
    <g id="xtick_31">
     <g id="line2d_136">
      <g>
       <use style="stroke:#000000;stroke-width:0.5;" x="382.670829" xlink:href="#ma2be11af76" y="254.16"/>
      </g>
     </g>
     <g id="line2d_137">
      <g>
       <use style="stroke:#000000;stroke-width:0.5;" x="382.670829" xlink:href="#me0ce2c6b48" y="3.6"/>
      </g>
     </g>
    </g>
    <g id="xtick_32">
     <g id="line2d_138">
      <g>
       <use style="stroke:#000000;stroke-width:0.5;" x="399.069249" xlink:href="#ma2be11af76" y="254.16"/>
      </g>
     </g>
     <g id="line2d_139">
      <g>
       <use style="stroke:#000000;stroke-width:0.5;" x="399.069249" xlink:href="#me0ce2c6b48" y="3.6"/>
      </g>
     </g>
    </g>
    <g id="xtick_33">
     <g id="line2d_140">
      <g>
       <use style="stroke:#000000;stroke-width:0.5;" x="408.569636" xlink:href="#ma2be11af76" y="254.16"/>
      </g>
     </g>
     <g id="line2d_141">
      <g>
       <use style="stroke:#000000;stroke-width:0.5;" x="408.569636" xlink:href="#me0ce2c6b48" y="3.6"/>
      </g>
     </g>
    </g>
    <g id="xtick_34">
     <g id="line2d_142">
      <g>
       <use style="stroke:#000000;stroke-width:0.5;" x="419.058831" xlink:href="#ma2be11af76" y="254.16"/>
      </g>
     </g>
     <g id="line2d_143">
      <g>
       <use style="stroke:#000000;stroke-width:0.5;" x="419.058831" xlink:href="#me0ce2c6b48" y="3.6"/>
      </g>
     </g>
    </g>
    <g id="xtick_35">
     <g id="line2d_144">
      <g>
       <use style="stroke:#000000;stroke-width:0.5;" x="443.42602" xlink:href="#ma2be11af76" y="254.16"/>
      </g>
     </g>
     <g id="line2d_145">
      <g>
       <use style="stroke:#000000;stroke-width:0.5;" x="443.42602" xlink:href="#me0ce2c6b48" y="3.6"/>
      </g>
     </g>
    </g>
    <g id="xtick_36">
     <g id="line2d_146">
      <g>
       <use style="stroke:#000000;stroke-width:0.5;" x="457.543096" xlink:href="#ma2be11af76" y="254.16"/>
      </g>
     </g>
     <g id="line2d_147">
      <g>
       <use style="stroke:#000000;stroke-width:0.5;" x="457.543096" xlink:href="#me0ce2c6b48" y="3.6"/>
      </g>
     </g>
    </g>
    <g id="xtick_37">
     <g id="line2d_148">
      <g>
       <use style="stroke:#000000;stroke-width:0.5;" x="473.129488" xlink:href="#ma2be11af76" y="254.16"/>
      </g>
     </g>
     <g id="line2d_149">
      <g>
       <use style="stroke:#000000;stroke-width:0.5;" x="473.129488" xlink:href="#me0ce2c6b48" y="3.6"/>
      </g>
     </g>
    </g>
    <g id="xtick_38">
     <g id="line2d_150">
      <g>
       <use style="stroke:#000000;stroke-width:0.5;" x="509.33785" xlink:href="#ma2be11af76" y="254.16"/>
      </g>
     </g>
     <g id="line2d_151">
      <g>
       <use style="stroke:#000000;stroke-width:0.5;" x="509.33785" xlink:href="#me0ce2c6b48" y="3.6"/>
      </g>
     </g>
    </g>
    <g id="xtick_39">
     <g id="line2d_152">
      <g>
       <use style="stroke:#000000;stroke-width:0.5;" x="530.315082" xlink:href="#ma2be11af76" y="254.16"/>
      </g>
     </g>
     <g id="line2d_153">
      <g>
       <use style="stroke:#000000;stroke-width:0.5;" x="530.315082" xlink:href="#me0ce2c6b48" y="3.6"/>
      </g>
     </g>
    </g>
    <g id="xtick_40">
     <g id="line2d_154">
      <g>
       <use style="stroke:#000000;stroke-width:0.5;" x="553.475641" xlink:href="#ma2be11af76" y="254.16"/>
      </g>
     </g>
     <g id="line2d_155">
      <g>
       <use style="stroke:#000000;stroke-width:0.5;" x="553.475641" xlink:href="#me0ce2c6b48" y="3.6"/>
      </g>
     </g>
    </g>
    <g id="text_19">
     <!-- Percentage of Pruned Weights -->
     <g transform="translate(399.028693 278.936563)scale(0.1 -0.1)">
      <use xlink:href="#DejaVuSerif-80"/>
      <use x="62.785156" xlink:href="#DejaVuSerif-101"/>
      <use x="121.964844" xlink:href="#DejaVuSerif-114"/>
      <use x="169.767578" xlink:href="#DejaVuSerif-99"/>
      <use x="225.773438" xlink:href="#DejaVuSerif-101"/>
      <use x="284.953125" xlink:href="#DejaVuSerif-110"/>
      <use x="349.357422" xlink:href="#DejaVuSerif-116"/>
      <use x="389.542969" xlink:href="#DejaVuSerif-97"/>
      <use x="449.162109" xlink:href="#DejaVuSerif-103"/>
      <use x="513.175781" xlink:href="#DejaVuSerif-101"/>
      <use x="572.355469" xlink:href="#DejaVuSerif-32"/>
      <use x="604.142578" xlink:href="#DejaVuSerif-111"/>
      <use x="664.347656" xlink:href="#DejaVuSerif-102"/>
      <use x="701.359375" xlink:href="#DejaVuSerif-32"/>
      <use x="733.146484" xlink:href="#DejaVuSerif-80"/>
      <use x="800.431641" xlink:href="#DejaVuSerif-114"/>
      <use x="848.234375" xlink:href="#DejaVuSerif-117"/>
      <use x="912.638672" xlink:href="#DejaVuSerif-110"/>
      <use x="977.042969" xlink:href="#DejaVuSerif-101"/>
      <use x="1036.222656" xlink:href="#DejaVuSerif-100"/>
      <use x="1100.236328" xlink:href="#DejaVuSerif-32"/>
      <use x="1132.023438" xlink:href="#DejaVuSerif-87"/>
      <use x="1226.681641" xlink:href="#DejaVuSerif-101"/>
      <use x="1285.861328" xlink:href="#DejaVuSerif-105"/>
      <use x="1317.84375" xlink:href="#DejaVuSerif-103"/>
      <use x="1381.857422" xlink:href="#DejaVuSerif-104"/>
      <use x="1446.261719" xlink:href="#DejaVuSerif-116"/>
      <use x="1486.447266" xlink:href="#DejaVuSerif-115"/>
     </g>
    </g>
   </g>
   <g id="matplotlib.axis_4">
    <g id="ytick_29">
     <g id="line2d_156">
      <path clip-path="url(#p94daa659bb)" d="M 349.099574 235.427045 
L 602.735937 235.427045 
" style="fill:none;stroke:#000000;stroke-dasharray:1.85,0.8;stroke-dashoffset:0;stroke-opacity:0.5;stroke-width:0.5;"/>
     </g>
     <g id="line2d_157">
      <g>
       <use style="stroke:#000000;stroke-width:0.5;" x="349.099574" xlink:href="#m929547adb0" y="235.427045"/>
      </g>
     </g>
     <g id="line2d_158">
      <g>
       <use style="stroke:#000000;stroke-width:0.5;" x="602.735937" xlink:href="#m12dfd3ec12" y="235.427045"/>
      </g>
     </g>
     <g id="text_20">
      <!-- 86 -->
      <g transform="translate(332.874574 239.226264)scale(0.1 -0.1)">
       <use xlink:href="#DejaVuSerif-56"/>
       <use x="63.623047" xlink:href="#DejaVuSerif-54"/>
      </g>
     </g>
    </g>
    <g id="ytick_30">
     <g id="line2d_159">
      <path clip-path="url(#p94daa659bb)" d="M 349.099574 202.556978 
L 602.735937 202.556978 
" style="fill:none;stroke:#000000;stroke-dasharray:1.85,0.8;stroke-dashoffset:0;stroke-opacity:0.5;stroke-width:0.5;"/>
     </g>
     <g id="line2d_160">
      <g>
       <use style="stroke:#000000;stroke-width:0.5;" x="349.099574" xlink:href="#m929547adb0" y="202.556978"/>
      </g>
     </g>
     <g id="line2d_161">
      <g>
       <use style="stroke:#000000;stroke-width:0.5;" x="602.735937" xlink:href="#m12dfd3ec12" y="202.556978"/>
      </g>
     </g>
     <g id="text_21">
      <!-- 88 -->
      <g transform="translate(332.874574 206.356197)scale(0.1 -0.1)">
       <use xlink:href="#DejaVuSerif-56"/>
       <use x="63.623047" xlink:href="#DejaVuSerif-56"/>
      </g>
     </g>
    </g>
    <g id="ytick_31">
     <g id="line2d_162">
      <path clip-path="url(#p94daa659bb)" d="M 349.099574 162.784197 
L 602.735937 162.784197 
" style="fill:none;stroke:#000000;stroke-dasharray:1.85,0.8;stroke-dashoffset:0;stroke-opacity:0.5;stroke-width:0.5;"/>
     </g>
     <g id="line2d_163">
      <g>
       <use style="stroke:#000000;stroke-width:0.5;" x="349.099574" xlink:href="#m929547adb0" y="162.784197"/>
      </g>
     </g>
     <g id="line2d_164">
      <g>
       <use style="stroke:#000000;stroke-width:0.5;" x="602.735937" xlink:href="#m12dfd3ec12" y="162.784197"/>
      </g>
     </g>
     <g id="text_22">
      <!-- 90 -->
      <g transform="translate(332.874574 166.583415)scale(0.1 -0.1)">
       <use xlink:href="#DejaVuSerif-57"/>
       <use x="63.623047" xlink:href="#DejaVuSerif-48"/>
      </g>
     </g>
    </g>
    <g id="ytick_32">
     <g id="line2d_165">
      <path clip-path="url(#p94daa659bb)" d="M 349.099574 114.659131 
L 602.735937 114.659131 
" style="fill:none;stroke:#000000;stroke-dasharray:1.85,0.8;stroke-dashoffset:0;stroke-opacity:0.5;stroke-width:0.5;"/>
     </g>
     <g id="line2d_166">
      <g>
       <use style="stroke:#000000;stroke-width:0.5;" x="349.099574" xlink:href="#m929547adb0" y="114.659131"/>
      </g>
     </g>
     <g id="line2d_167">
      <g>
       <use style="stroke:#000000;stroke-width:0.5;" x="602.735937" xlink:href="#m12dfd3ec12" y="114.659131"/>
      </g>
     </g>
     <g id="text_23">
      <!-- 92 -->
      <g transform="translate(332.874574 118.45835)scale(0.1 -0.1)">
       <use xlink:href="#DejaVuSerif-57"/>
       <use x="63.623047" xlink:href="#DejaVuSerif-50"/>
      </g>
     </g>
    </g>
    <g id="ytick_33">
     <g id="line2d_168">
      <path clip-path="url(#p94daa659bb)" d="M 349.099574 56.427802 
L 602.735937 56.427802 
" style="fill:none;stroke:#000000;stroke-dasharray:1.85,0.8;stroke-dashoffset:0;stroke-opacity:0.5;stroke-width:0.5;"/>
     </g>
     <g id="line2d_169">
      <g>
       <use style="stroke:#000000;stroke-width:0.5;" x="349.099574" xlink:href="#m929547adb0" y="56.427802"/>
      </g>
     </g>
     <g id="line2d_170">
      <g>
       <use style="stroke:#000000;stroke-width:0.5;" x="602.735937" xlink:href="#m12dfd3ec12" y="56.427802"/>
      </g>
     </g>
     <g id="text_24">
      <!-- 94 -->
      <g transform="translate(332.874574 60.227021)scale(0.1 -0.1)">
       <use xlink:href="#DejaVuSerif-57"/>
       <use x="63.623047" xlink:href="#DejaVuSerif-52"/>
      </g>
     </g>
    </g>
    <g id="ytick_34">
     <g id="line2d_171">
      <g>
       <use style="stroke:#000000;stroke-width:0.5;" x="349.099574" xlink:href="#m73c72d80d5" y="249.656512"/>
      </g>
     </g>
     <g id="line2d_172">
      <g>
       <use style="stroke:#000000;stroke-width:0.5;" x="602.735937" xlink:href="#m8d6bd39fdb" y="249.656512"/>
      </g>
     </g>
    </g>
    <g id="ytick_35">
     <g id="line2d_173">
      <g>
       <use style="stroke:#000000;stroke-width:0.5;" x="349.099574" xlink:href="#m73c72d80d5" y="242.711273"/>
      </g>
     </g>
     <g id="line2d_174">
      <g>
       <use style="stroke:#000000;stroke-width:0.5;" x="602.735937" xlink:href="#m8d6bd39fdb" y="242.711273"/>
      </g>
     </g>
    </g>
    <g id="ytick_36">
     <g id="line2d_175">
      <g>
       <use style="stroke:#000000;stroke-width:0.5;" x="349.099574" xlink:href="#m73c72d80d5" y="227.787283"/>
      </g>
     </g>
     <g id="line2d_176">
      <g>
       <use style="stroke:#000000;stroke-width:0.5;" x="602.735937" xlink:href="#m8d6bd39fdb" y="227.787283"/>
      </g>
     </g>
    </g>
    <g id="ytick_37">
     <g id="line2d_177">
      <g>
       <use style="stroke:#000000;stroke-width:0.5;" x="349.099574" xlink:href="#m73c72d80d5" y="219.774632"/>
      </g>
     </g>
     <g id="line2d_178">
      <g>
       <use style="stroke:#000000;stroke-width:0.5;" x="602.735937" xlink:href="#m8d6bd39fdb" y="219.774632"/>
      </g>
     </g>
    </g>
    <g id="ytick_38">
     <g id="line2d_179">
      <g>
       <use style="stroke:#000000;stroke-width:0.5;" x="349.099574" xlink:href="#m73c72d80d5" y="211.370894"/>
      </g>
     </g>
     <g id="line2d_180">
      <g>
       <use style="stroke:#000000;stroke-width:0.5;" x="602.735937" xlink:href="#m8d6bd39fdb" y="211.370894"/>
      </g>
     </g>
    </g>
    <g id="ytick_39">
     <g id="line2d_181">
      <g>
       <use style="stroke:#000000;stroke-width:0.5;" x="349.099574" xlink:href="#m73c72d80d5" y="193.312865"/>
      </g>
     </g>
     <g id="line2d_182">
      <g>
       <use style="stroke:#000000;stroke-width:0.5;" x="602.735937" xlink:href="#m8d6bd39fdb" y="193.312865"/>
      </g>
     </g>
    </g>
    <g id="ytick_40">
     <g id="line2d_183">
      <g>
       <use style="stroke:#000000;stroke-width:0.5;" x="349.099574" xlink:href="#m73c72d80d5" y="183.617558"/>
      </g>
     </g>
     <g id="line2d_184">
      <g>
       <use style="stroke:#000000;stroke-width:0.5;" x="602.735937" xlink:href="#m8d6bd39fdb" y="183.617558"/>
      </g>
     </g>
    </g>
    <g id="ytick_41">
     <g id="line2d_185">
      <g>
       <use style="stroke:#000000;stroke-width:0.5;" x="349.099574" xlink:href="#m73c72d80d5" y="173.449034"/>
      </g>
     </g>
     <g id="line2d_186">
      <g>
       <use style="stroke:#000000;stroke-width:0.5;" x="602.735937" xlink:href="#m8d6bd39fdb" y="173.449034"/>
      </g>
     </g>
    </g>
    <g id="ytick_42">
     <g id="line2d_187">
      <g>
       <use style="stroke:#000000;stroke-width:0.5;" x="349.099574" xlink:href="#m73c72d80d5" y="151.59882"/>
      </g>
     </g>
     <g id="line2d_188">
      <g>
       <use style="stroke:#000000;stroke-width:0.5;" x="602.735937" xlink:href="#m8d6bd39fdb" y="151.59882"/>
      </g>
     </g>
    </g>
    <g id="ytick_43">
     <g id="line2d_189">
      <g>
       <use style="stroke:#000000;stroke-width:0.5;" x="349.099574" xlink:href="#m73c72d80d5" y="139.867499"/>
      </g>
     </g>
     <g id="line2d_190">
      <g>
       <use style="stroke:#000000;stroke-width:0.5;" x="602.735937" xlink:href="#m8d6bd39fdb" y="139.867499"/>
      </g>
     </g>
    </g>
    <g id="ytick_44">
     <g id="line2d_191">
      <g>
       <use style="stroke:#000000;stroke-width:0.5;" x="349.099574" xlink:href="#m73c72d80d5" y="127.563585"/>
      </g>
     </g>
     <g id="line2d_192">
      <g>
       <use style="stroke:#000000;stroke-width:0.5;" x="602.735937" xlink:href="#m8d6bd39fdb" y="127.563585"/>
      </g>
     </g>
    </g>
    <g id="ytick_45">
     <g id="line2d_193">
      <g>
       <use style="stroke:#000000;stroke-width:0.5;" x="349.099574" xlink:href="#m73c72d80d5" y="101.124826"/>
      </g>
     </g>
     <g id="line2d_194">
      <g>
       <use style="stroke:#000000;stroke-width:0.5;" x="602.735937" xlink:href="#m8d6bd39fdb" y="101.124826"/>
      </g>
     </g>
    </g>
    <g id="ytick_46">
     <g id="line2d_195">
      <g>
       <use style="stroke:#000000;stroke-width:0.5;" x="349.099574" xlink:href="#m73c72d80d5" y="86.929927"/>
      </g>
     </g>
     <g id="line2d_196">
      <g>
       <use style="stroke:#000000;stroke-width:0.5;" x="602.735937" xlink:href="#m8d6bd39fdb" y="86.929927"/>
      </g>
     </g>
    </g>
    <g id="ytick_47">
     <g id="line2d_197">
      <g>
       <use style="stroke:#000000;stroke-width:0.5;" x="349.099574" xlink:href="#m73c72d80d5" y="72.042191"/>
      </g>
     </g>
     <g id="line2d_198">
      <g>
       <use style="stroke:#000000;stroke-width:0.5;" x="602.735937" xlink:href="#m8d6bd39fdb" y="72.042191"/>
      </g>
     </g>
    </g>
    <g id="ytick_48">
     <g id="line2d_199">
      <g>
       <use style="stroke:#000000;stroke-width:0.5;" x="349.099574" xlink:href="#m73c72d80d5" y="40.051292"/>
      </g>
     </g>
     <g id="line2d_200">
      <g>
       <use style="stroke:#000000;stroke-width:0.5;" x="602.735937" xlink:href="#m8d6bd39fdb" y="40.051292"/>
      </g>
     </g>
    </g>
    <g id="ytick_49">
     <g id="line2d_201">
      <g>
       <use style="stroke:#000000;stroke-width:0.5;" x="349.099574" xlink:href="#m73c72d80d5" y="22.875464"/>
      </g>
     </g>
     <g id="line2d_202">
      <g>
       <use style="stroke:#000000;stroke-width:0.5;" x="602.735937" xlink:href="#m8d6bd39fdb" y="22.875464"/>
      </g>
     </g>
    </g>
    <g id="ytick_50">
     <g id="line2d_203">
      <g>
       <use style="stroke:#000000;stroke-width:0.5;" x="349.099574" xlink:href="#m73c72d80d5" y="4.861304"/>
      </g>
     </g>
     <g id="line2d_204">
      <g>
       <use style="stroke:#000000;stroke-width:0.5;" x="602.735937" xlink:href="#m8d6bd39fdb" y="4.861304"/>
      </g>
     </g>
    </g>
    <g id="text_25">
     <!-- Test Accuracy in Percent -->
     <g transform="translate(326.652699 191.853438)rotate(-90)scale(0.1 -0.1)">
      <use xlink:href="#DejaVuSerif-84"/>
      <use x="58.949219" xlink:href="#DejaVuSerif-101"/>
      <use x="118.128906" xlink:href="#DejaVuSerif-115"/>
      <use x="169.447266" xlink:href="#DejaVuSerif-116"/>
      <use x="209.632812" xlink:href="#DejaVuSerif-32"/>
      <use x="241.419922" xlink:href="#DejaVuSerif-65"/>
      <use x="313.636719" xlink:href="#DejaVuSerif-99"/>
      <use x="369.642578" xlink:href="#DejaVuSerif-99"/>
      <use x="425.648438" xlink:href="#DejaVuSerif-117"/>
      <use x="490.052734" xlink:href="#DejaVuSerif-114"/>
      <use x="537.855469" xlink:href="#DejaVuSerif-97"/>
      <use x="597.474609" xlink:href="#DejaVuSerif-99"/>
      <use x="653.480469" xlink:href="#DejaVuSerif-121"/>
      <use x="709.974609" xlink:href="#DejaVuSerif-32"/>
      <use x="741.761719" xlink:href="#DejaVuSerif-105"/>
      <use x="773.744141" xlink:href="#DejaVuSerif-110"/>
      <use x="838.148438" xlink:href="#DejaVuSerif-32"/>
      <use x="869.935547" xlink:href="#DejaVuSerif-80"/>
      <use x="932.720703" xlink:href="#DejaVuSerif-101"/>
      <use x="991.900391" xlink:href="#DejaVuSerif-114"/>
      <use x="1039.703125" xlink:href="#DejaVuSerif-99"/>
      <use x="1095.708984" xlink:href="#DejaVuSerif-101"/>
      <use x="1154.888672" xlink:href="#DejaVuSerif-110"/>
      <use x="1219.292969" xlink:href="#DejaVuSerif-116"/>
     </g>
    </g>
   </g>
   <g id="line2d_205">
    <path clip-path="url(#p94daa659bb)" d="M 345.232627 65.393838 
L 363.428404 49.675578 
L 384.169952 46.882218 
L 406.205954 40.153777 
L 406.206734 42.521464 
L 428.330673 39.193606 
L 428.331628 32.266962 
L 449.561124 37.697997 
L 449.562247 35.805078 
L 469.207821 38.547244 
L 469.209099 36.84671 
L 486.867236 37.798862 
L 486.868655 39.695514 
L 502.377352 42.355108 
L 515.745649 41.034255 
L 527.099706 46.907485 
L 536.627691 52.446325 
L 544.546894 57.627069 
L 551.078161 65.620925 
L 556.434337 73.645148 
L 560.803256 86.198687 
L 564.354208 97.912837 
L 567.229071 115.696792 
L 569.553382 139.43519 
L 571.428233 167.20471 
L 572.937147 186.757606 
" style="fill:none;stroke:#0c5da5;stroke-linecap:square;"/>
   </g>
   <g id="line2d_206">
    <path clip-path="url(#p94daa659bb)" d="M 345.232627 43.747491 
L 363.428404 35.243939 
L 384.169952 33.056235 
L 406.205954 29.915223 
L 428.330673 30.643521 
L 449.561124 30.352378 
L 469.207821 32.569722 
L 486.867236 33.148204 
L 502.377352 33.345202 
L 515.745649 32.676431 
L 515.747296 33.843777 
L 527.099706 38.705353 
L 527.101443 39.824461 
L 536.627691 39.408797 
L 536.629504 36.976699 
L 544.546894 44.053325 
L 544.548769 42.137447 
L 551.078161 49.557203 
L 551.080088 54.342827 
L 556.434337 59.543316 
L 560.803256 67.360655 
L 564.354208 77.329643 
L 567.229071 87.416448 
L 569.553382 102.887023 
L 571.428233 120.250784 
L 572.937147 136.272144 
L 574.150178 160.295607 
L 575.126185 190.135251 
" style="fill:none;stroke:#00b945;stroke-linecap:square;"/>
   </g>
   <g id="line2d_207">
    <path clip-path="url(#p94daa659bb)" d="M 345.232627 46.894852 
L 363.428404 32.661816 
L 384.169952 30.378855 
L 406.205954 36.547553 
L 428.330673 27.321227 
L 449.561124 29.716342 
L 469.207821 38.701042 
L 486.867236 29.610227 
L 502.377352 29.875456 
L 515.745649 34.210705 
L 527.099706 45.553105 
L 536.627691 42.649377 
L 544.546894 48.306901 
L 551.078161 50.576667 
L 556.434337 77.179859 
L 560.803256 77.542036 
L 564.354208 78.652834 
L 567.229071 100.454417 
L 569.553382 111.513465 
L 571.428233 143.51731 
L 572.937147 151.990978 
L 574.150178 193.6631 
L 575.126185 202.047321 
" style="fill:none;stroke:#ff9500;stroke-linecap:square;"/>
   </g>
   <g id="patch_8">
    <path d="M 349.099574 254.16 
L 349.099574 3.6 
" style="fill:none;stroke:#000000;stroke-linecap:square;stroke-linejoin:miter;stroke-width:0.5;"/>
   </g>
   <g id="patch_9">
    <path d="M 602.735937 254.16 
L 602.735937 3.6 
" style="fill:none;stroke:#000000;stroke-linecap:square;stroke-linejoin:miter;stroke-width:0.5;"/>
   </g>
   <g id="patch_10">
    <path d="M 349.099574 254.16 
L 602.735937 254.16 
" style="fill:none;stroke:#000000;stroke-linecap:square;stroke-linejoin:miter;stroke-width:0.5;"/>
   </g>
   <g id="patch_11">
    <path d="M 349.099574 3.6 
L 602.735937 3.6 
" style="fill:none;stroke:#000000;stroke-linecap:square;stroke-linejoin:miter;stroke-width:0.5;"/>
   </g>
  </g>
  <g id="legend_1">
   <g id="patch_12">
    <path d="M 50.864062 324.71625 
L 561.135937 324.71625 
Q 563.135937 324.71625 563.135937 322.71625 
L 563.135937 309.038125 
Q 563.135937 307.038125 561.135937 307.038125 
L 50.864062 307.038125 
Q 48.864062 307.038125 48.864062 309.038125 
L 48.864062 322.71625 
Q 48.864062 324.71625 50.864062 324.71625 
z
" style="fill:#ffffff;stroke:#cccccc;stroke-linejoin:miter;"/>
   </g>
   <g id="line2d_208">
    <path d="M 52.864062 315.136563 
L 72.864062 315.136563 
" style="fill:none;stroke:#0c5da5;stroke-linecap:square;"/>
   </g>
   <g id="line2d_209"/>
   <g id="text_26">
    <!-- ReLU ResNet20 -->
    <defs>
     <path d="M 47.90625 36.1875 
Q 51.3125 35.25 53.78125 33.03125 
Q 56.25 30.8125 58.203125 26.8125 
L 68.796875 5.171875 
L 77.6875 5.171875 
L 77.6875 0 
L 60.5 0 
L 49.125 23.1875 
Q 45.84375 29.9375 43.109375 31.90625 
Q 40.375 33.890625 35.59375 33.890625 
L 24.703125 33.890625 
L 24.703125 5.171875 
L 35.015625 5.171875 
L 35.015625 0 
L 5.515625 0 
L 5.515625 5.171875 
L 14.796875 5.171875 
L 14.796875 67.671875 
L 5.515625 67.671875 
L 5.515625 72.90625 
L 42.484375 72.90625 
Q 53.125 72.90625 58.90625 67.828125 
Q 64.703125 62.75 64.703125 53.421875 
Q 64.703125 45.90625 60.46875 41.578125 
Q 56.25 37.25 47.90625 36.1875 
z
M 24.703125 39.109375 
L 39.109375 39.109375 
Q 46.484375 39.109375 50 42.59375 
Q 53.515625 46.09375 53.515625 53.421875 
Q 53.515625 60.75 50 64.203125 
Q 46.484375 67.671875 39.109375 67.671875 
L 24.703125 67.671875 
z
" id="DejaVuSerif-82"/>
     <path d="M 5.515625 0 
L 5.515625 5.171875 
L 14.796875 5.171875 
L 14.796875 67.671875 
L 5.515625 67.671875 
L 5.515625 72.90625 
L 33.984375 72.90625 
L 33.984375 67.671875 
L 24.703125 67.671875 
L 24.703125 6 
L 58.015625 6 
L 58.015625 18.21875 
L 64.015625 18.21875 
L 64.015625 0 
z
" id="DejaVuSerif-76"/>
     <path d="M 14.015625 67.671875 
L 4.6875 67.671875 
L 4.6875 72.90625 
L 33.203125 72.90625 
L 33.203125 67.671875 
L 23.875 67.671875 
L 23.875 29.984375 
Q 23.875 16.015625 28.4375 10.5 
Q 33.015625 4.984375 44.1875 4.984375 
Q 55.375 4.984375 59.9375 10.5 
Q 64.5 16.015625 64.5 29.984375 
L 64.5 67.671875 
L 55.171875 67.671875 
L 55.171875 72.90625 
L 79.78125 72.90625 
L 79.78125 67.671875 
L 70.515625 67.671875 
L 70.515625 29 
Q 70.515625 12.359375 64.109375 5.46875 
Q 57.71875 -1.421875 42.390625 -1.421875 
Q 27.046875 -1.421875 20.53125 5.515625 
Q 14.015625 12.453125 14.015625 29 
z
" id="DejaVuSerif-85"/>
     <path d="M 4.890625 0 
L 4.890625 5.171875 
L 14.703125 5.171875 
L 14.703125 67.671875 
L 4.890625 67.671875 
L 4.890625 72.90625 
L 23.578125 72.90625 
L 67.28125 15.375 
L 67.28125 67.671875 
L 57.515625 67.671875 
L 57.515625 72.90625 
L 83.109375 72.90625 
L 83.109375 67.671875 
L 73.296875 67.671875 
L 73.296875 -1.421875 
L 67.390625 -1.421875 
L 20.703125 60.015625 
L 20.703125 5.171875 
L 30.515625 5.171875 
L 30.515625 0 
z
" id="DejaVuSerif-78"/>
    </defs>
    <g transform="translate(80.864062 318.636563)scale(0.1 -0.1)">
     <use xlink:href="#DejaVuSerif-82"/>
     <use x="75.292969" xlink:href="#DejaVuSerif-101"/>
     <use x="134.472656" xlink:href="#DejaVuSerif-76"/>
     <use x="195.378906" xlink:href="#DejaVuSerif-85"/>
     <use x="279.65625" xlink:href="#DejaVuSerif-32"/>
     <use x="311.443359" xlink:href="#DejaVuSerif-82"/>
     <use x="386.736328" xlink:href="#DejaVuSerif-101"/>
     <use x="445.916016" xlink:href="#DejaVuSerif-115"/>
     <use x="497.234375" xlink:href="#DejaVuSerif-78"/>
     <use x="584.734375" xlink:href="#DejaVuSerif-101"/>
     <use x="643.914062" xlink:href="#DejaVuSerif-116"/>
     <use x="684.099609" xlink:href="#DejaVuSerif-50"/>
     <use x="747.722656" xlink:href="#DejaVuSerif-48"/>
    </g>
   </g>
   <g id="line2d_210">
    <path d="M 182.001562 315.136563 
L 202.001562 315.136563 
" style="fill:none;stroke:#00b945;stroke-linecap:square;"/>
   </g>
   <g id="line2d_211"/>
   <g id="text_27">
    <!-- Univariate Rational ResNet20 -->
    <defs>
     <path d="M 24.703125 0 
L 5.609375 46.6875 
L -0.296875 46.6875 
L -0.296875 51.90625 
L 23.578125 51.90625 
L 23.578125 46.6875 
L 15.28125 46.6875 
L 29.890625 10.984375 
L 44.484375 46.6875 
L 36.71875 46.6875 
L 36.71875 51.90625 
L 56.203125 51.90625 
L 56.203125 46.6875 
L 50.390625 46.6875 
L 31.296875 0 
z
" id="DejaVuSerif-118"/>
     <path d="M 20.515625 5.171875 
L 29 5.171875 
L 29 0 
L 2.875 0 
L 2.875 5.171875 
L 11.53125 5.171875 
L 11.53125 70.796875 
L 2.875 70.796875 
L 2.875 75.984375 
L 20.515625 75.984375 
z
" id="DejaVuSerif-108"/>
    </defs>
    <g transform="translate(210.001562 318.636563)scale(0.1 -0.1)">
     <use xlink:href="#DejaVuSerif-85"/>
     <use x="84.277344" xlink:href="#DejaVuSerif-110"/>
     <use x="148.681641" xlink:href="#DejaVuSerif-105"/>
     <use x="180.664062" xlink:href="#DejaVuSerif-118"/>
     <use x="237.158203" xlink:href="#DejaVuSerif-97"/>
     <use x="296.777344" xlink:href="#DejaVuSerif-114"/>
     <use x="344.580078" xlink:href="#DejaVuSerif-105"/>
     <use x="376.5625" xlink:href="#DejaVuSerif-97"/>
     <use x="436.181641" xlink:href="#DejaVuSerif-116"/>
     <use x="476.367188" xlink:href="#DejaVuSerif-101"/>
     <use x="535.546875" xlink:href="#DejaVuSerif-32"/>
     <use x="567.333984" xlink:href="#DejaVuSerif-82"/>
     <use x="644.876953" xlink:href="#DejaVuSerif-97"/>
     <use x="704.496094" xlink:href="#DejaVuSerif-116"/>
     <use x="744.681641" xlink:href="#DejaVuSerif-105"/>
     <use x="776.664062" xlink:href="#DejaVuSerif-111"/>
     <use x="836.869141" xlink:href="#DejaVuSerif-110"/>
     <use x="901.273438" xlink:href="#DejaVuSerif-97"/>
     <use x="960.892578" xlink:href="#DejaVuSerif-108"/>
     <use x="992.875" xlink:href="#DejaVuSerif-32"/>
     <use x="1024.662109" xlink:href="#DejaVuSerif-82"/>
     <use x="1099.955078" xlink:href="#DejaVuSerif-101"/>
     <use x="1159.134766" xlink:href="#DejaVuSerif-115"/>
     <use x="1210.453125" xlink:href="#DejaVuSerif-78"/>
     <use x="1297.953125" xlink:href="#DejaVuSerif-101"/>
     <use x="1357.132812" xlink:href="#DejaVuSerif-116"/>
     <use x="1397.318359" xlink:href="#DejaVuSerif-50"/>
     <use x="1460.941406" xlink:href="#DejaVuSerif-48"/>
    </g>
   </g>
   <g id="line2d_212">
    <path d="M 382.464063 315.136563 
L 402.464063 315.136563 
" style="fill:none;stroke:#ff9500;stroke-linecap:square;"/>
   </g>
   <g id="line2d_213"/>
   <g id="text_28">
    <!-- Mixture of Experts ResNet20 -->
    <defs>
     <path d="M 5.515625 0 
L 5.515625 5.171875 
L 14.796875 5.171875 
L 14.796875 67.671875 
L 4.984375 67.671875 
L 4.984375 72.90625 
L 26.21875 72.90625 
L 51.8125 21 
L 77.390625 72.90625 
L 97.3125 72.90625 
L 97.3125 67.671875 
L 87.59375 67.671875 
L 87.59375 5.171875 
L 96.921875 5.171875 
L 96.921875 0 
L 68.40625 0 
L 68.40625 5.171875 
L 77.6875 5.171875 
L 77.6875 61.53125 
L 52.6875 10.6875 
L 45.796875 10.6875 
L 20.796875 61.53125 
L 20.796875 5.171875 
L 30.078125 5.171875 
L 30.078125 0 
z
" id="DejaVuSerif-77"/>
     <path d="M 29.109375 31.6875 
L 39.984375 46.6875 
L 33.015625 46.6875 
L 33.015625 51.90625 
L 52.984375 51.90625 
L 52.984375 46.6875 
L 46.09375 46.6875 
L 32.171875 27.484375 
L 48.390625 5.171875 
L 55.171875 5.171875 
L 55.171875 0 
L 31.203125 0 
L 31.203125 5.171875 
L 37.796875 5.171875 
L 26.515625 20.703125 
L 15.1875 5.171875 
L 21.921875 5.171875 
L 21.921875 0 
L 2.203125 0 
L 2.203125 5.171875 
L 9.078125 5.171875 
L 23.390625 24.90625 
L 7.625 46.6875 
L 1.21875 46.6875 
L 1.21875 51.90625 
L 24.421875 51.90625 
L 24.421875 46.6875 
L 18.21875 46.6875 
z
" id="DejaVuSerif-120"/>
     <path d="M 5.515625 0 
L 5.515625 5.171875 
L 14.796875 5.171875 
L 14.796875 67.671875 
L 5.515625 67.671875 
L 5.515625 72.90625 
L 64.203125 72.90625 
L 64.203125 56.6875 
L 58.203125 56.6875 
L 58.203125 66.890625 
L 24.703125 66.890625 
L 24.703125 42.484375 
L 48.578125 42.484375 
L 48.578125 51.609375 
L 54.59375 51.609375 
L 54.59375 27.390625 
L 48.578125 27.390625 
L 48.578125 36.53125 
L 24.703125 36.53125 
L 24.703125 6 
L 58.984375 6 
L 58.984375 16.21875 
L 64.984375 16.21875 
L 64.984375 0 
z
" id="DejaVuSerif-69"/>
     <path d="M 20.515625 28.515625 
L 20.515625 23.390625 
Q 20.515625 14.015625 24.09375 9.109375 
Q 27.6875 4.203125 34.515625 4.203125 
Q 41.40625 4.203125 44.9375 9.71875 
Q 48.484375 15.234375 48.484375 25.984375 
Q 48.484375 36.765625 44.9375 42.234375 
Q 41.40625 47.703125 34.515625 47.703125 
Q 27.6875 47.703125 24.09375 42.765625 
Q 20.515625 37.84375 20.515625 28.515625 
z
M 11.53125 46.6875 
L 2.875 46.6875 
L 2.875 51.90625 
L 20.515625 51.90625 
L 20.515625 43.796875 
Q 23.140625 48.6875 27.21875 51 
Q 31.296875 53.328125 37.3125 53.328125 
Q 46.875 53.328125 52.921875 45.75 
Q 58.984375 38.1875 58.984375 25.984375 
Q 58.984375 13.765625 52.921875 6.171875 
Q 46.875 -1.421875 37.3125 -1.421875 
Q 31.296875 -1.421875 27.21875 0.890625 
Q 23.140625 3.21875 20.515625 8.109375 
L 20.515625 -15.578125 
L 29 -15.578125 
L 29 -20.796875 
L 2.875 -20.796875 
L 2.875 -15.578125 
L 11.53125 -15.578125 
z
" id="DejaVuSerif-112"/>
    </defs>
    <g transform="translate(410.464063 318.636563)scale(0.1 -0.1)">
     <use xlink:href="#DejaVuSerif-77"/>
     <use x="102.392578" xlink:href="#DejaVuSerif-105"/>
     <use x="134.375" xlink:href="#DejaVuSerif-120"/>
     <use x="190.771484" xlink:href="#DejaVuSerif-116"/>
     <use x="230.957031" xlink:href="#DejaVuSerif-117"/>
     <use x="295.361328" xlink:href="#DejaVuSerif-114"/>
     <use x="343.164062" xlink:href="#DejaVuSerif-101"/>
     <use x="402.34375" xlink:href="#DejaVuSerif-32"/>
     <use x="434.130859" xlink:href="#DejaVuSerif-111"/>
     <use x="494.335938" xlink:href="#DejaVuSerif-102"/>
     <use x="531.347656" xlink:href="#DejaVuSerif-32"/>
     <use x="563.134766" xlink:href="#DejaVuSerif-69"/>
     <use x="636.132812" xlink:href="#DejaVuSerif-120"/>
     <use x="692.529297" xlink:href="#DejaVuSerif-112"/>
     <use x="756.542969" xlink:href="#DejaVuSerif-101"/>
     <use x="815.722656" xlink:href="#DejaVuSerif-114"/>
     <use x="863.525391" xlink:href="#DejaVuSerif-116"/>
     <use x="903.710938" xlink:href="#DejaVuSerif-115"/>
     <use x="955.029297" xlink:href="#DejaVuSerif-32"/>
     <use x="986.816406" xlink:href="#DejaVuSerif-82"/>
     <use x="1062.109375" xlink:href="#DejaVuSerif-101"/>
     <use x="1121.289062" xlink:href="#DejaVuSerif-115"/>
     <use x="1172.607422" xlink:href="#DejaVuSerif-78"/>
     <use x="1260.107422" xlink:href="#DejaVuSerif-101"/>
     <use x="1319.287109" xlink:href="#DejaVuSerif-116"/>
     <use x="1359.472656" xlink:href="#DejaVuSerif-50"/>
     <use x="1423.095703" xlink:href="#DejaVuSerif-48"/>
    </g>
   </g>
  </g>
 </g>
 <defs>
  <clipPath id="p980b4fb162">
   <rect height="250.56" width="253.636364" x="44.735938" y="3.6"/>
  </clipPath>
  <clipPath id="p94daa659bb">
   <rect height="250.56" width="253.636364" x="349.099574" y="3.6"/>
  </clipPath>
 </defs>
</svg>
