<?xml version="1.0" encoding="utf-8" standalone="no"?>
<!DOCTYPE svg PUBLIC "-//W3C//DTD SVG 1.1//EN"
  "http://www.w3.org/Graphics/SVG/1.1/DTD/svg11.dtd">
<!-- Created with matplotlib (https://matplotlib.org/) -->
<svg height="313.270125pt" version="1.1" viewBox="0 0 604.646875 313.270125" width="604.646875pt" xmlns="http://www.w3.org/2000/svg" xmlns:xlink="http://www.w3.org/1999/xlink">
 <defs>
  <style type="text/css">
*{stroke-linecap:butt;stroke-linejoin:round;}
  </style>
 </defs>
 <g id="figure_1">
  <g id="patch_1">
   <path d="M 0 313.270125 
L 604.646875 313.270125 
L 604.646875 0 
L 0 0 
z
" style="fill:#ffffff;"/>
  </g>
  <g id="axes_1">
   <g id="patch_2">
    <path d="M 33.503125 254.16 
L 287.139489 254.16 
L 287.139489 3.6 
L 33.503125 3.6 
z
" style="fill:#ffffff;"/>
   </g>
   <g id="PolyCollection_1">
    <defs>
     <path d="M -15.350731 -255.368867 
L -15.350731 -250.571936 
L -15.350595 -256.941077 
L -15.348146 -263.135119 
L -15.324021 -263.379998 
L -15.177923 -266.214691 
L -14.581188 -267.001585 
L -12.808797 -268.601995 
L -8.739168 -266.795017 
L -1.146617 -265.034633 
L 10.838498 -264.879595 
L 27.373758 -261.436171 
L 47.850644 -260.628462 
L 71.098258 -258.645053 
L 95.714649 -251.398027 
L 120.372543 -247.735797 
L 143.986766 -241.755458 
L 165.802361 -235.532008 
L 185.381391 -225.344057 
L 202.564722 -212.885357 
L 217.351847 -193.710743 
L 229.91511 -178.001917 
L 240.442086 -171.087645 
L 240.442086 -176.668062 
L 240.442086 -176.668062 
L 229.91511 -192.081056 
L 217.351847 -205.849773 
L 202.564722 -218.773074 
L 185.381391 -230.657296 
L 165.802361 -239.789255 
L 143.986766 -246.110369 
L 120.372543 -251.529451 
L 95.714649 -255.873775 
L 71.098258 -261.477262 
L 47.850644 -263.723484 
L 27.373758 -265.39035 
L 10.838498 -268.451804 
L -1.146617 -269.431177 
L -8.739168 -270.229907 
L -12.808797 -272.275452 
L -14.581188 -271.995571 
L -15.177923 -268.886772 
L -15.324021 -266.745684 
L -15.348146 -265.572544 
L -15.350595 -259.735114 
L -15.350731 -255.368867 
z
" id="m38bf4af8f5" style="stroke:#0c5da5;stroke-opacity:0.2;"/>
    </defs>
    <g clip-path="url(#p67955f3b26)">
     <use style="fill:#0c5da5;fill-opacity:0.2;stroke:#0c5da5;stroke-opacity:0.2;" x="0" xlink:href="#m38bf4af8f5" y="313.270125"/>
    </g>
   </g>
   <g id="PolyCollection_2">
    <defs>
     <path d="M -15.350731 -266.978347 
L -15.350731 -262.085201 
L -15.350595 -268.376433 
L -15.348146 -273.11755 
L -15.324021 -272.683251 
L -15.177923 -272.156371 
L -14.581188 -272.29987 
L -12.808797 -272.342555 
L -8.739168 -272.589473 
L -1.146617 -271.241431 
L 10.838498 -270.271369 
L 27.373758 -268.259562 
L 47.850644 -267.00283 
L 71.098258 -264.091668 
L 95.714649 -260.145213 
L 120.372543 -257.385887 
L 143.986766 -254.213354 
L 165.802361 -249.160425 
L 185.381391 -243.59325 
L 202.564722 -234.748787 
L 217.351847 -227.367576 
L 229.91511 -220.781548 
L 240.442086 -209.203686 
L 249.192884 -194.025439 
L 256.408582 -178.687482 
L 262.318542 -176.287615 
L 262.318542 -187.100943 
L 262.318542 -187.100943 
L 256.408582 -187.235362 
L 249.192884 -199.402018 
L 240.442086 -215.214239 
L 229.91511 -225.535027 
L 217.351847 -234.942694 
L 202.564722 -239.781952 
L 185.381391 -246.397457 
L 165.802361 -251.955207 
L 143.986766 -259.262041 
L 120.372543 -263.813683 
L 95.714649 -266.13303 
L 71.098258 -268.727613 
L 47.850644 -271.419476 
L 27.373758 -272.020808 
L 10.838498 -275.930583 
L -1.146617 -275.663956 
L -8.739168 -275.232647 
L -12.808797 -277.21946 
L -14.581188 -276.388021 
L -15.177923 -277.315759 
L -15.324021 -275.714801 
L -15.348146 -274.786247 
L -15.350595 -272.888591 
L -15.350731 -266.978347 
z
" id="m61ef18a648" style="stroke:#00b945;stroke-opacity:0.2;"/>
    </defs>
    <g clip-path="url(#p67955f3b26)">
     <use style="fill:#00b945;fill-opacity:0.2;stroke:#00b945;stroke-opacity:0.2;" x="0" xlink:href="#m61ef18a648" y="313.270125"/>
    </g>
   </g>
   <g id="PolyCollection_3">
    <defs>
     <path d="M -15.350731 -268.244957 
L -15.350731 -264.157428 
L -15.350595 -260.297587 
L -15.348146 -269.144255 
L -15.324021 -274.322059 
L -15.177923 -273.971688 
L -14.581188 -262.190782 
L -12.808797 -270.608181 
L -8.739168 -271.241642 
L -1.146617 -268.801636 
L 10.838498 -67.591775 
L 27.373758 -271.162508 
L 47.850644 -61.528259 
L 71.098258 -258.719707 
L 95.714649 -146.290095 
L 120.372543 -241.316339 
L 143.986766 -245.9977 
L 165.802361 -84.582612 
L 185.381391 -240.883615 
L 202.564722 -232.087812 
L 217.351847 -226.81372 
L 229.91511 -215.966034 
L 240.442086 -182.976971 
L 249.192884 -184.755188 
L 256.408582 -165.7646 
L 256.408582 -196.184814 
L 256.408582 -196.184814 
L 249.192884 -197.848634 
L 240.442086 -215.948081 
L 229.91511 -221.984573 
L 217.351847 -231.936034 
L 202.564722 -244.311367 
L 185.381391 -249.765947 
L 165.802361 -252.123811 
L 143.986766 -261.337625 
L 120.372543 -265.410747 
L 95.714649 -270.337681 
L 71.098258 -271.349468 
L 47.850644 -274.768649 
L 27.373758 -276.078983 
L 10.838498 -278.463284 
L -1.146617 -275.250495 
L -8.739168 -276.060233 
L -12.808797 -276.285403 
L -14.581188 -278.699477 
L -15.177923 -277.819578 
L -15.324021 -278.969106 
L -15.348146 -276.215433 
L -15.350595 -274.737748 
L -15.350731 -268.244957 
z
" id="m8050f025e4" style="stroke:#ff9500;stroke-opacity:0.2;"/>
    </defs>
    <g clip-path="url(#p67955f3b26)">
     <use style="fill:#ff9500;fill-opacity:0.2;stroke:#ff9500;stroke-opacity:0.2;" x="0" xlink:href="#m8050f025e4" y="313.270125"/>
    </g>
   </g>
   <g id="matplotlib.axis_1">
    <g id="xtick_1">
     <g id="line2d_1">
      <path clip-path="url(#p67955f3b26)" d="M 33.503125 254.16 
L 33.503125 3.6 
" style="fill:none;stroke:#000000;stroke-dasharray:1.85,0.8;stroke-dashoffset:0;stroke-opacity:0.5;stroke-width:0.5;"/>
     </g>
     <g id="line2d_2">
      <defs>
       <path d="M 0 0 
L 0 -3 
" id="m32bc3cc699" style="stroke:#000000;stroke-width:0.5;"/>
      </defs>
      <g>
       <use style="stroke:#000000;stroke-width:0.5;" x="33.503125" xlink:href="#m32bc3cc699" y="254.16"/>
      </g>
     </g>
     <g id="line2d_3">
      <defs>
       <path d="M 0 0 
L 0 3 
" id="me59455c83f" style="stroke:#000000;stroke-width:0.5;"/>
      </defs>
      <g>
       <use style="stroke:#000000;stroke-width:0.5;" x="33.503125" xlink:href="#me59455c83f" y="3.6"/>
      </g>
     </g>
     <g id="text_1">
      <!-- 90 -->
      <defs>
       <path d="M 46.78125 32.671875 
Q 43.5 29 39.25 27.1875 
Q 35.015625 25.390625 29.6875 25.390625 
Q 18.84375 25.390625 12.5625 31.9375 
Q 6.296875 38.484375 6.296875 49.8125 
Q 6.296875 60.890625 13.109375 67.546875 
Q 19.921875 74.21875 31.296875 74.21875 
Q 43.65625 74.21875 50.265625 65.015625 
Q 56.890625 55.8125 56.890625 38.71875 
Q 56.890625 19.578125 49.015625 9.078125 
Q 41.15625 -1.421875 26.90625 -1.421875 
Q 23.046875 -1.421875 18.796875 -0.6875 
Q 14.546875 0.046875 10.109375 1.515625 
L 10.109375 13.625 
L 15.578125 13.625 
Q 16.21875 8.6875 19.390625 6.046875 
Q 22.5625 3.421875 27.875 3.421875 
Q 37.359375 3.421875 41.984375 10.5625 
Q 46.625 17.71875 46.78125 32.671875 
z
M 30.90625 69.390625 
Q 23.96875 69.390625 20.28125 64.328125 
Q 16.609375 59.28125 16.609375 49.8125 
Q 16.609375 40.328125 20.28125 35.25 
Q 23.96875 30.171875 30.90625 30.171875 
Q 37.84375 30.171875 41.53125 35.078125 
Q 45.21875 39.984375 45.21875 49.21875 
Q 45.21875 58.9375 41.5 64.15625 
Q 37.796875 69.390625 30.90625 69.390625 
z
" id="DejaVuSerif-57"/>
       <path d="M 31.78125 3.421875 
Q 39.265625 3.421875 42.96875 11.625 
Q 46.6875 19.828125 46.6875 36.375 
Q 46.6875 52.984375 42.96875 61.1875 
Q 39.265625 69.390625 31.78125 69.390625 
Q 24.3125 69.390625 20.59375 61.1875 
Q 16.890625 52.984375 16.890625 36.375 
Q 16.890625 19.828125 20.59375 11.625 
Q 24.3125 3.421875 31.78125 3.421875 
z
M 31.78125 -1.421875 
Q 19.921875 -1.421875 13.25 8.53125 
Q 6.59375 18.5 6.59375 36.375 
Q 6.59375 54.296875 13.25 64.25 
Q 19.921875 74.21875 31.78125 74.21875 
Q 43.703125 74.21875 50.34375 64.25 
Q 56.984375 54.296875 56.984375 36.375 
Q 56.984375 18.5 50.34375 8.53125 
Q 43.703125 -1.421875 31.78125 -1.421875 
z
" id="DejaVuSerif-48"/>
      </defs>
      <g transform="translate(27.140625 265.258438)scale(0.1 -0.1)">
       <use xlink:href="#DejaVuSerif-57"/>
       <use x="63.623047" xlink:href="#DejaVuSerif-48"/>
      </g>
     </g>
    </g>
    <g id="xtick_2">
     <g id="line2d_4">
      <path clip-path="url(#p67955f3b26)" d="M 54.998823 254.16 
L 54.998823 3.6 
" style="fill:none;stroke:#000000;stroke-dasharray:1.85,0.8;stroke-dashoffset:0;stroke-opacity:0.5;stroke-width:0.5;"/>
     </g>
     <g id="line2d_5">
      <g>
       <use style="stroke:#000000;stroke-width:0.5;" x="54.998823" xlink:href="#m32bc3cc699" y="254.16"/>
      </g>
     </g>
     <g id="line2d_6">
      <g>
       <use style="stroke:#000000;stroke-width:0.5;" x="54.998823" xlink:href="#me59455c83f" y="3.6"/>
      </g>
     </g>
     <g id="text_2">
      <!-- 92 -->
      <defs>
       <path d="M 12.796875 55.515625 
L 7.328125 55.515625 
L 7.328125 68.5 
Q 12.546875 71.296875 17.84375 72.75 
Q 23.140625 74.21875 28.21875 74.21875 
Q 39.59375 74.21875 46.1875 68.703125 
Q 52.78125 63.1875 52.78125 53.71875 
Q 52.78125 43.015625 37.84375 28.125 
Q 36.671875 27 36.078125 26.421875 
L 17.671875 8.015625 
L 48.09375 8.015625 
L 48.09375 17 
L 53.8125 17 
L 53.8125 0 
L 6.78125 0 
L 6.78125 5.328125 
L 28.90625 27.390625 
Q 36.234375 34.71875 39.359375 40.84375 
Q 42.484375 46.96875 42.484375 53.71875 
Q 42.484375 61.078125 38.640625 65.234375 
Q 34.8125 69.390625 28.078125 69.390625 
Q 21.09375 69.390625 17.28125 65.921875 
Q 13.484375 62.453125 12.796875 55.515625 
z
" id="DejaVuSerif-50"/>
      </defs>
      <g transform="translate(48.636323 265.258438)scale(0.1 -0.1)">
       <use xlink:href="#DejaVuSerif-57"/>
       <use x="63.623047" xlink:href="#DejaVuSerif-50"/>
      </g>
     </g>
    </g>
    <g id="xtick_3">
     <g id="line2d_7">
      <path clip-path="url(#p67955f3b26)" d="M 85.952629 254.16 
L 85.952629 3.6 
" style="fill:none;stroke:#000000;stroke-dasharray:1.85,0.8;stroke-dashoffset:0;stroke-opacity:0.5;stroke-width:0.5;"/>
     </g>
     <g id="line2d_8">
      <g>
       <use style="stroke:#000000;stroke-width:0.5;" x="85.952629" xlink:href="#m32bc3cc699" y="254.16"/>
      </g>
     </g>
     <g id="line2d_9">
      <g>
       <use style="stroke:#000000;stroke-width:0.5;" x="85.952629" xlink:href="#me59455c83f" y="3.6"/>
      </g>
     </g>
     <g id="text_3">
      <!-- 94 -->
      <defs>
       <path d="M 34.90625 24.703125 
L 34.90625 63.484375 
L 10.015625 24.703125 
z
M 56.390625 0 
L 23.1875 0 
L 23.1875 5.171875 
L 34.90625 5.171875 
L 34.90625 19.484375 
L 3.078125 19.484375 
L 3.078125 24.8125 
L 35.015625 74.21875 
L 44.671875 74.21875 
L 44.671875 24.703125 
L 58.59375 24.703125 
L 58.59375 19.484375 
L 44.671875 19.484375 
L 44.671875 5.171875 
L 56.390625 5.171875 
z
" id="DejaVuSerif-52"/>
      </defs>
      <g transform="translate(79.590129 265.258438)scale(0.1 -0.1)">
       <use xlink:href="#DejaVuSerif-57"/>
       <use x="63.623047" xlink:href="#DejaVuSerif-52"/>
      </g>
     </g>
    </g>
    <g id="xtick_4">
     <g id="line2d_10">
      <path clip-path="url(#p67955f3b26)" d="M 130.526109 254.16 
L 130.526109 3.6 
" style="fill:none;stroke:#000000;stroke-dasharray:1.85,0.8;stroke-dashoffset:0;stroke-opacity:0.5;stroke-width:0.5;"/>
     </g>
     <g id="line2d_11">
      <g>
       <use style="stroke:#000000;stroke-width:0.5;" x="130.526109" xlink:href="#m32bc3cc699" y="254.16"/>
      </g>
     </g>
     <g id="line2d_12">
      <g>
       <use style="stroke:#000000;stroke-width:0.5;" x="130.526109" xlink:href="#me59455c83f" y="3.6"/>
      </g>
     </g>
     <g id="text_4">
      <!-- 96 -->
      <defs>
       <path d="M 32.71875 3.421875 
Q 39.59375 3.421875 43.296875 8.46875 
Q 47.015625 13.53125 47.015625 23 
Q 47.015625 32.46875 43.296875 37.515625 
Q 39.59375 42.578125 32.71875 42.578125 
Q 25.734375 42.578125 22.0625 37.6875 
Q 18.40625 32.8125 18.40625 23.578125 
Q 18.40625 13.875 22.109375 8.640625 
Q 25.828125 3.421875 32.71875 3.421875 
z
M 16.796875 40.140625 
Q 20.125 43.796875 24.3125 45.59375 
Q 28.515625 47.40625 33.796875 47.40625 
Q 44.671875 47.40625 51 40.859375 
Q 57.328125 34.328125 57.328125 23 
Q 57.328125 11.921875 50.515625 5.25 
Q 43.703125 -1.421875 32.328125 -1.421875 
Q 19.96875 -1.421875 13.328125 7.78125 
Q 6.6875 17 6.6875 34.078125 
Q 6.6875 53.21875 14.546875 63.71875 
Q 22.40625 74.21875 36.71875 74.21875 
Q 40.578125 74.21875 44.828125 73.484375 
Q 49.078125 72.75 53.515625 71.296875 
L 53.515625 59.28125 
L 48 59.28125 
Q 47.40625 64.203125 44.234375 66.796875 
Q 41.0625 69.390625 35.6875 69.390625 
Q 26.21875 69.390625 21.578125 62.203125 
Q 16.9375 55.03125 16.796875 40.140625 
z
" id="DejaVuSerif-54"/>
      </defs>
      <g transform="translate(124.163609 265.258438)scale(0.1 -0.1)">
       <use xlink:href="#DejaVuSerif-57"/>
       <use x="63.623047" xlink:href="#DejaVuSerif-54"/>
      </g>
     </g>
    </g>
    <g id="xtick_5">
     <g id="line2d_13">
      <path clip-path="url(#p67955f3b26)" d="M 194.71192 254.16 
L 194.71192 3.6 
" style="fill:none;stroke:#000000;stroke-dasharray:1.85,0.8;stroke-dashoffset:0;stroke-opacity:0.5;stroke-width:0.5;"/>
     </g>
     <g id="line2d_14">
      <g>
       <use style="stroke:#000000;stroke-width:0.5;" x="194.71192" xlink:href="#m32bc3cc699" y="254.16"/>
      </g>
     </g>
     <g id="line2d_15">
      <g>
       <use style="stroke:#000000;stroke-width:0.5;" x="194.71192" xlink:href="#me59455c83f" y="3.6"/>
      </g>
     </g>
     <g id="text_5">
      <!-- 98 -->
      <defs>
       <path d="M 46.578125 19.921875 
Q 46.578125 27.734375 42.6875 32.046875 
Q 38.8125 36.375 31.78125 36.375 
Q 24.75 36.375 20.875 32.046875 
Q 17 27.734375 17 19.921875 
Q 17 12.0625 20.875 7.734375 
Q 24.75 3.421875 31.78125 3.421875 
Q 38.8125 3.421875 42.6875 7.734375 
Q 46.578125 12.0625 46.578125 19.921875 
z
M 44.578125 55.328125 
Q 44.578125 61.96875 41.203125 65.671875 
Q 37.84375 69.390625 31.78125 69.390625 
Q 25.78125 69.390625 22.390625 65.671875 
Q 19 61.96875 19 55.328125 
Q 19 48.640625 22.390625 44.921875 
Q 25.78125 41.21875 31.78125 41.21875 
Q 37.84375 41.21875 41.203125 44.921875 
Q 44.578125 48.640625 44.578125 55.328125 
z
M 39.3125 38.8125 
Q 47.609375 37.703125 52.25 32.6875 
Q 56.890625 27.6875 56.890625 19.921875 
Q 56.890625 9.671875 50.390625 4.125 
Q 43.890625 -1.421875 31.78125 -1.421875 
Q 19.734375 -1.421875 13.203125 4.125 
Q 6.6875 9.671875 6.6875 19.921875 
Q 6.6875 27.6875 11.328125 32.6875 
Q 15.96875 37.703125 24.3125 38.8125 
Q 16.9375 40.140625 13 44.40625 
Q 9.078125 48.6875 9.078125 55.328125 
Q 9.078125 64.109375 15.125 69.15625 
Q 21.1875 74.21875 31.78125 74.21875 
Q 42.390625 74.21875 48.4375 69.15625 
Q 54.5 64.109375 54.5 55.328125 
Q 54.5 48.6875 50.5625 44.40625 
Q 46.625 40.140625 39.3125 38.8125 
z
" id="DejaVuSerif-56"/>
      </defs>
      <g transform="translate(188.34942 265.258438)scale(0.1 -0.1)">
       <use xlink:href="#DejaVuSerif-57"/>
       <use x="63.623047" xlink:href="#DejaVuSerif-56"/>
      </g>
     </g>
    </g>
    <g id="xtick_6">
     <g id="line2d_16">
      <path clip-path="url(#p67955f3b26)" d="M 287.139489 254.16 
L 287.139489 3.6 
" style="fill:none;stroke:#000000;stroke-dasharray:1.85,0.8;stroke-dashoffset:0;stroke-opacity:0.5;stroke-width:0.5;"/>
     </g>
     <g id="line2d_17">
      <g>
       <use style="stroke:#000000;stroke-width:0.5;" x="287.139489" xlink:href="#m32bc3cc699" y="254.16"/>
      </g>
     </g>
     <g id="line2d_18">
      <g>
       <use style="stroke:#000000;stroke-width:0.5;" x="287.139489" xlink:href="#me59455c83f" y="3.6"/>
      </g>
     </g>
     <g id="text_6">
      <!-- 100 -->
      <defs>
       <path d="M 14.203125 0 
L 14.203125 5.171875 
L 26.90625 5.171875 
L 26.90625 65.828125 
L 12.203125 56.296875 
L 12.203125 62.703125 
L 29.984375 74.21875 
L 36.71875 74.21875 
L 36.71875 5.171875 
L 49.421875 5.171875 
L 49.421875 0 
z
" id="DejaVuSerif-49"/>
      </defs>
      <g transform="translate(277.595739 265.258438)scale(0.1 -0.1)">
       <use xlink:href="#DejaVuSerif-49"/>
       <use x="63.623047" xlink:href="#DejaVuSerif-48"/>
       <use x="127.246094" xlink:href="#DejaVuSerif-48"/>
      </g>
     </g>
    </g>
    <g id="xtick_7">
     <g id="line2d_19">
      <defs>
       <path d="M 0 0 
L 0 -1.5 
" id="m621db79337" style="stroke:#000000;stroke-width:0.5;"/>
      </defs>
      <g>
       <use style="stroke:#000000;stroke-width:0.5;" x="38.165987" xlink:href="#m621db79337" y="254.16"/>
      </g>
     </g>
     <g id="line2d_20">
      <defs>
       <path d="M 0 0 
L 0 1.5 
" id="m0d1c8dbf6d" style="stroke:#000000;stroke-width:0.5;"/>
      </defs>
      <g>
       <use style="stroke:#000000;stroke-width:0.5;" x="38.165987" xlink:href="#m0d1c8dbf6d" y="3.6"/>
      </g>
     </g>
    </g>
    <g id="xtick_8">
     <g id="line2d_21">
      <g>
       <use style="stroke:#000000;stroke-width:0.5;" x="43.273897" xlink:href="#m621db79337" y="254.16"/>
      </g>
     </g>
     <g id="line2d_22">
      <g>
       <use style="stroke:#000000;stroke-width:0.5;" x="43.273897" xlink:href="#m0d1c8dbf6d" y="3.6"/>
      </g>
     </g>
    </g>
    <g id="xtick_9">
     <g id="line2d_23">
      <g>
       <use style="stroke:#000000;stroke-width:0.5;" x="48.869332" xlink:href="#m621db79337" y="254.16"/>
      </g>
     </g>
     <g id="line2d_24">
      <g>
       <use style="stroke:#000000;stroke-width:0.5;" x="48.869332" xlink:href="#m0d1c8dbf6d" y="3.6"/>
      </g>
     </g>
    </g>
    <g id="xtick_10">
     <g id="line2d_25">
      <g>
       <use style="stroke:#000000;stroke-width:0.5;" x="61.713345" xlink:href="#m621db79337" y="254.16"/>
      </g>
     </g>
     <g id="line2d_26">
      <g>
       <use style="stroke:#000000;stroke-width:0.5;" x="61.713345" xlink:href="#m0d1c8dbf6d" y="3.6"/>
      </g>
     </g>
    </g>
    <g id="xtick_11">
     <g id="line2d_27">
      <g>
       <use style="stroke:#000000;stroke-width:0.5;" x="69.068735" xlink:href="#m621db79337" y="254.16"/>
      </g>
     </g>
     <g id="line2d_28">
      <g>
       <use style="stroke:#000000;stroke-width:0.5;" x="69.068735" xlink:href="#m0d1c8dbf6d" y="3.6"/>
      </g>
     </g>
    </g>
    <g id="xtick_12">
     <g id="line2d_29">
      <g>
       <use style="stroke:#000000;stroke-width:0.5;" x="77.126161" xlink:href="#m621db79337" y="254.16"/>
      </g>
     </g>
     <g id="line2d_30">
      <g>
       <use style="stroke:#000000;stroke-width:0.5;" x="77.126161" xlink:href="#m0d1c8dbf6d" y="3.6"/>
      </g>
     </g>
    </g>
    <g id="xtick_13">
     <g id="line2d_31">
      <g>
       <use style="stroke:#000000;stroke-width:0.5;" x="95.62154" xlink:href="#m621db79337" y="254.16"/>
      </g>
     </g>
     <g id="line2d_32">
      <g>
       <use style="stroke:#000000;stroke-width:0.5;" x="95.62154" xlink:href="#m0d1c8dbf6d" y="3.6"/>
      </g>
     </g>
    </g>
    <g id="xtick_14">
     <g id="line2d_33">
      <g>
       <use style="stroke:#000000;stroke-width:0.5;" x="106.213302" xlink:href="#m621db79337" y="254.16"/>
      </g>
     </g>
     <g id="line2d_34">
      <g>
       <use style="stroke:#000000;stroke-width:0.5;" x="106.213302" xlink:href="#m0d1c8dbf6d" y="3.6"/>
      </g>
     </g>
    </g>
    <g id="xtick_15">
     <g id="line2d_35">
      <g>
       <use style="stroke:#000000;stroke-width:0.5;" x="117.815995" xlink:href="#m621db79337" y="254.16"/>
      </g>
     </g>
     <g id="line2d_36">
      <g>
       <use style="stroke:#000000;stroke-width:0.5;" x="117.815995" xlink:href="#m0d1c8dbf6d" y="3.6"/>
      </g>
     </g>
    </g>
    <g id="xtick_16">
     <g id="line2d_37">
      <g>
       <use style="stroke:#000000;stroke-width:0.5;" x="144.449341" xlink:href="#m621db79337" y="254.16"/>
      </g>
     </g>
     <g id="line2d_38">
      <g>
       <use style="stroke:#000000;stroke-width:0.5;" x="144.449341" xlink:href="#m0d1c8dbf6d" y="3.6"/>
      </g>
     </g>
    </g>
    <g id="xtick_17">
     <g id="line2d_39">
      <g>
       <use style="stroke:#000000;stroke-width:0.5;" x="159.701478" xlink:href="#m621db79337" y="254.16"/>
      </g>
     </g>
     <g id="line2d_40">
      <g>
       <use style="stroke:#000000;stroke-width:0.5;" x="159.701478" xlink:href="#m0d1c8dbf6d" y="3.6"/>
      </g>
     </g>
    </g>
    <g id="xtick_18">
     <g id="line2d_41">
      <g>
       <use style="stroke:#000000;stroke-width:0.5;" x="176.409356" xlink:href="#m621db79337" y="254.16"/>
      </g>
     </g>
     <g id="line2d_42">
      <g>
       <use style="stroke:#000000;stroke-width:0.5;" x="176.409356" xlink:href="#m0d1c8dbf6d" y="3.6"/>
      </g>
     </g>
    </g>
    <g id="xtick_19">
     <g id="line2d_43">
      <g>
       <use style="stroke:#000000;stroke-width:0.5;" x="214.761375" xlink:href="#m621db79337" y="254.16"/>
      </g>
     </g>
     <g id="line2d_44">
      <g>
       <use style="stroke:#000000;stroke-width:0.5;" x="214.761375" xlink:href="#m0d1c8dbf6d" y="3.6"/>
      </g>
     </g>
    </g>
    <g id="xtick_20">
     <g id="line2d_45">
      <g>
       <use style="stroke:#000000;stroke-width:0.5;" x="236.724451" xlink:href="#m621db79337" y="254.16"/>
      </g>
     </g>
     <g id="line2d_46">
      <g>
       <use style="stroke:#000000;stroke-width:0.5;" x="236.724451" xlink:href="#m0d1c8dbf6d" y="3.6"/>
      </g>
     </g>
    </g>
    <g id="xtick_21">
     <g id="line2d_47">
      <g>
       <use style="stroke:#000000;stroke-width:0.5;" x="260.783797" xlink:href="#m621db79337" y="254.16"/>
      </g>
     </g>
     <g id="line2d_48">
      <g>
       <use style="stroke:#000000;stroke-width:0.5;" x="260.783797" xlink:href="#m0d1c8dbf6d" y="3.6"/>
      </g>
     </g>
    </g>
    <g id="text_7">
     <!-- Percentage of Pruned Weights -->
     <defs>
      <path d="M 24.703125 37.109375 
L 37.59375 37.109375 
Q 44.875 37.109375 48.671875 41.03125 
Q 52.484375 44.96875 52.484375 52.390625 
Q 52.484375 59.859375 48.671875 63.765625 
Q 44.875 67.671875 37.59375 67.671875 
L 24.703125 67.671875 
z
M 5.515625 0 
L 5.515625 5.171875 
L 14.796875 5.171875 
L 14.796875 67.671875 
L 5.515625 67.671875 
L 5.515625 72.90625 
L 39.984375 72.90625 
Q 50.921875 72.90625 57.3125 67.359375 
Q 63.71875 61.8125 63.71875 52.390625 
Q 63.71875 43.015625 57.3125 37.453125 
Q 50.921875 31.890625 39.984375 31.890625 
L 24.703125 31.890625 
L 24.703125 5.171875 
L 35.984375 5.171875 
L 35.984375 0 
z
" id="DejaVuSerif-80"/>
      <path d="M 54.203125 25 
L 15.484375 25 
L 15.484375 24.609375 
Q 15.484375 14.109375 19.4375 8.765625 
Q 23.390625 3.421875 31.109375 3.421875 
Q 37.015625 3.421875 40.796875 6.515625 
Q 44.578125 9.625 46.09375 15.71875 
L 53.328125 15.71875 
Q 51.171875 7.171875 45.375 2.875 
Q 39.59375 -1.421875 30.171875 -1.421875 
Q 18.796875 -1.421875 11.890625 6.078125 
Q 4.984375 13.578125 4.984375 25.984375 
Q 4.984375 38.28125 11.765625 45.796875 
Q 18.5625 53.328125 29.59375 53.328125 
Q 41.359375 53.328125 47.65625 46.0625 
Q 53.953125 38.8125 54.203125 25 
z
M 43.609375 30.171875 
Q 43.3125 39.265625 39.765625 43.875 
Q 36.234375 48.484375 29.59375 48.484375 
Q 23.390625 48.484375 19.828125 43.84375 
Q 16.265625 39.203125 15.484375 30.171875 
z
" id="DejaVuSerif-101"/>
      <path d="M 47.796875 52 
L 47.796875 39.015625 
L 42.625 39.015625 
Q 42.390625 42.875 40.484375 44.78125 
Q 38.578125 46.6875 34.90625 46.6875 
Q 28.265625 46.6875 24.71875 42.09375 
Q 21.1875 37.5 21.1875 28.90625 
L 21.1875 5.171875 
L 31.59375 5.171875 
L 31.59375 0 
L 4.109375 0 
L 4.109375 5.171875 
L 12.203125 5.171875 
L 12.203125 46.78125 
L 3.609375 46.78125 
L 3.609375 51.90625 
L 21.1875 51.90625 
L 21.1875 42.671875 
Q 23.828125 48.09375 27.96875 50.703125 
Q 32.125 53.328125 38.09375 53.328125 
Q 40.28125 53.328125 42.703125 52.984375 
Q 45.125 52.640625 47.796875 52 
z
" id="DejaVuSerif-114"/>
      <path d="M 51.421875 15.578125 
Q 49.515625 7.28125 44.09375 2.921875 
Q 38.671875 -1.421875 30.078125 -1.421875 
Q 18.75 -1.421875 11.859375 6.078125 
Q 4.984375 13.578125 4.984375 25.984375 
Q 4.984375 38.421875 11.859375 45.875 
Q 18.75 53.328125 30.078125 53.328125 
Q 35.015625 53.328125 39.890625 52.171875 
Q 44.78125 51.03125 49.703125 48.6875 
L 49.703125 35.40625 
L 44.484375 35.40625 
Q 43.453125 42.234375 40.015625 45.359375 
Q 36.578125 48.484375 30.171875 48.484375 
Q 22.90625 48.484375 19.1875 42.84375 
Q 15.484375 37.203125 15.484375 25.984375 
Q 15.484375 14.75 19.171875 9.078125 
Q 22.859375 3.421875 30.171875 3.421875 
Q 35.984375 3.421875 39.453125 6.4375 
Q 42.921875 9.46875 44.1875 15.578125 
z
" id="DejaVuSerif-99"/>
      <path d="M 4.109375 0 
L 4.109375 5.171875 
L 12.203125 5.171875 
L 12.203125 46.6875 
L 3.609375 46.6875 
L 3.609375 51.90625 
L 21.1875 51.90625 
L 21.1875 42.671875 
Q 23.6875 47.953125 27.65625 50.640625 
Q 31.640625 53.328125 36.921875 53.328125 
Q 45.515625 53.328125 49.5625 48.390625 
Q 53.609375 43.453125 53.609375 33.015625 
L 53.609375 5.171875 
L 61.625 5.171875 
L 61.625 0 
L 36.8125 0 
L 36.8125 5.171875 
L 44.578125 5.171875 
L 44.578125 30.171875 
Q 44.578125 39.703125 42.234375 43.234375 
Q 39.890625 46.78125 33.984375 46.78125 
Q 27.734375 46.78125 24.453125 42.203125 
Q 21.1875 37.640625 21.1875 28.90625 
L 21.1875 5.171875 
L 29 5.171875 
L 29 0 
z
" id="DejaVuSerif-110"/>
      <path d="M 10.796875 46.6875 
L 2.875 46.6875 
L 2.875 51.90625 
L 10.796875 51.90625 
L 10.796875 68.015625 
L 19.828125 68.015625 
L 19.828125 51.90625 
L 36.71875 51.90625 
L 36.71875 46.6875 
L 19.828125 46.6875 
L 19.828125 13.71875 
Q 19.828125 7.125 21.09375 5.265625 
Q 22.359375 3.421875 25.78125 3.421875 
Q 29.296875 3.421875 30.90625 5.484375 
Q 32.515625 7.5625 32.625 12.203125 
L 39.40625 12.203125 
Q 39.015625 5.125 35.546875 1.84375 
Q 32.078125 -1.421875 25 -1.421875 
Q 17.234375 -1.421875 14.015625 2.015625 
Q 10.796875 5.46875 10.796875 13.71875 
z
" id="DejaVuSerif-116"/>
      <path d="M 39.796875 16.3125 
L 39.796875 27.296875 
L 28.21875 27.296875 
Q 21.53125 27.296875 18.25 24.40625 
Q 14.984375 21.53125 14.984375 15.578125 
Q 14.984375 10.15625 18.296875 6.984375 
Q 21.625 3.8125 27.296875 3.8125 
Q 32.90625 3.8125 36.34375 7.28125 
Q 39.796875 10.75 39.796875 16.3125 
z
M 48.78125 32.421875 
L 48.78125 5.171875 
L 56.78125 5.171875 
L 56.78125 0 
L 39.796875 0 
L 39.796875 5.609375 
Q 36.8125 2 32.90625 0.28125 
Q 29 -1.421875 23.78125 -1.421875 
Q 15.140625 -1.421875 10.0625 3.171875 
Q 4.984375 7.765625 4.984375 15.578125 
Q 4.984375 23.640625 10.796875 28.078125 
Q 16.609375 32.515625 27.203125 32.515625 
L 39.796875 32.515625 
L 39.796875 36.078125 
Q 39.796875 42 36.203125 45.234375 
Q 32.625 48.484375 26.125 48.484375 
Q 20.75 48.484375 17.578125 46.046875 
Q 14.40625 43.609375 13.625 38.8125 
L 8.984375 38.8125 
L 8.984375 49.3125 
Q 13.671875 51.3125 18.09375 52.3125 
Q 22.515625 53.328125 26.703125 53.328125 
Q 37.5 53.328125 43.140625 47.96875 
Q 48.78125 42.625 48.78125 32.421875 
z
" id="DejaVuSerif-97"/>
      <path d="M 52.484375 46.6875 
L 52.484375 1.125 
Q 52.484375 -10.0625 46.328125 -16.140625 
Q 40.1875 -22.21875 28.8125 -22.21875 
Q 23.6875 -22.21875 19 -21.28125 
Q 14.3125 -20.359375 10.015625 -18.5 
L 10.015625 -7.625 
L 14.703125 -7.625 
Q 15.578125 -12.703125 18.84375 -15.046875 
Q 22.125 -17.390625 28.21875 -17.390625 
Q 36.140625 -17.390625 39.8125 -12.921875 
Q 43.5 -8.453125 43.5 1.125 
L 43.5 8.109375 
Q 40.875 3.21875 36.796875 0.890625 
Q 32.71875 -1.421875 26.703125 -1.421875 
Q 17.140625 -1.421875 11.0625 6.171875 
Q 4.984375 13.765625 4.984375 25.984375 
Q 4.984375 38.1875 11.03125 45.75 
Q 17.09375 53.328125 26.703125 53.328125 
Q 32.71875 53.328125 36.796875 51 
Q 40.875 48.6875 43.5 43.796875 
L 43.5 51.90625 
L 61.078125 51.90625 
L 61.078125 46.6875 
z
M 43.5 28.515625 
Q 43.5 37.84375 39.90625 42.765625 
Q 36.328125 47.703125 29.5 47.703125 
Q 22.5625 47.703125 19.015625 42.234375 
Q 15.484375 36.765625 15.484375 25.984375 
Q 15.484375 15.234375 19.015625 9.71875 
Q 22.5625 4.203125 29.5 4.203125 
Q 36.328125 4.203125 39.90625 9.109375 
Q 43.5 14.015625 43.5 23.390625 
z
" id="DejaVuSerif-103"/>
      <path id="DejaVuSerif-32"/>
      <path d="M 30.078125 3.421875 
Q 37.3125 3.421875 40.984375 9.125 
Q 44.671875 14.84375 44.671875 25.984375 
Q 44.671875 37.109375 40.984375 42.796875 
Q 37.3125 48.484375 30.078125 48.484375 
Q 22.859375 48.484375 19.171875 42.796875 
Q 15.484375 37.109375 15.484375 25.984375 
Q 15.484375 14.84375 19.1875 9.125 
Q 22.90625 3.421875 30.078125 3.421875 
z
M 30.078125 -1.421875 
Q 18.75 -1.421875 11.859375 6.078125 
Q 4.984375 13.578125 4.984375 25.984375 
Q 4.984375 38.375 11.84375 45.84375 
Q 18.703125 53.328125 30.078125 53.328125 
Q 41.453125 53.328125 48.3125 45.84375 
Q 55.171875 38.375 55.171875 25.984375 
Q 55.171875 13.578125 48.3125 6.078125 
Q 41.453125 -1.421875 30.078125 -1.421875 
z
" id="DejaVuSerif-111"/>
      <path d="M 43.015625 63.71875 
L 38.28125 63.71875 
Q 38.234375 67.390625 36.203125 69.28125 
Q 34.1875 71.1875 30.328125 71.1875 
Q 25.296875 71.1875 23.234375 68.421875 
Q 21.1875 65.671875 21.1875 58.59375 
L 21.1875 51.90625 
L 35.6875 51.90625 
L 35.6875 46.6875 
L 21.1875 46.6875 
L 21.1875 5.171875 
L 32.71875 5.171875 
L 32.71875 0 
L 3.609375 0 
L 3.609375 5.171875 
L 12.203125 5.171875 
L 12.203125 46.6875 
L 3.609375 46.6875 
L 3.609375 51.90625 
L 12.203125 51.90625 
L 12.203125 58.40625 
Q 12.203125 67.09375 16.71875 71.53125 
Q 21.234375 75.984375 29.984375 75.984375 
Q 33.25 75.984375 36.515625 75.390625 
Q 39.796875 74.8125 43.015625 73.578125 
z
" id="DejaVuSerif-102"/>
      <path d="M 35.40625 51.90625 
L 52.203125 51.90625 
L 52.203125 5.171875 
L 60.6875 5.171875 
L 60.6875 0 
L 43.21875 0 
L 43.21875 9.1875 
Q 40.71875 4 36.765625 1.28125 
Q 32.8125 -1.421875 27.59375 -1.421875 
Q 18.953125 -1.421875 14.875 3.484375 
Q 10.796875 8.40625 10.796875 18.890625 
L 10.796875 46.6875 
L 2.6875 46.6875 
L 2.6875 51.90625 
L 19.828125 51.90625 
L 19.828125 21.6875 
Q 19.828125 12.203125 22.140625 8.6875 
Q 24.46875 5.171875 30.421875 5.171875 
Q 36.671875 5.171875 39.9375 9.765625 
Q 43.21875 14.359375 43.21875 23.09375 
L 43.21875 46.6875 
L 35.40625 46.6875 
z
" id="DejaVuSerif-117"/>
      <path d="M 52.484375 5.171875 
L 61.078125 5.171875 
L 61.078125 0 
L 43.5 0 
L 43.5 8.109375 
Q 40.875 3.21875 36.796875 0.890625 
Q 32.71875 -1.421875 26.703125 -1.421875 
Q 17.140625 -1.421875 11.0625 6.171875 
Q 4.984375 13.765625 4.984375 25.984375 
Q 4.984375 38.1875 11.03125 45.75 
Q 17.09375 53.328125 26.703125 53.328125 
Q 32.71875 53.328125 36.796875 51 
Q 40.875 48.6875 43.5 43.796875 
L 43.5 70.796875 
L 35.015625 70.796875 
L 35.015625 75.984375 
L 52.484375 75.984375 
z
M 43.5 23.390625 
L 43.5 28.515625 
Q 43.5 37.84375 39.90625 42.765625 
Q 36.328125 47.703125 29.5 47.703125 
Q 22.5625 47.703125 19.015625 42.234375 
Q 15.484375 36.765625 15.484375 25.984375 
Q 15.484375 15.234375 19.015625 9.71875 
Q 22.5625 4.203125 29.5 4.203125 
Q 36.328125 4.203125 39.90625 9.109375 
Q 43.5 14.015625 43.5 23.390625 
z
" id="DejaVuSerif-100"/>
      <path d="M 76.21875 0 
L 68.21875 0 
L 51.515625 59.28125 
L 34.8125 0 
L 26.8125 0 
L 7.71875 67.671875 
L 0.484375 67.671875 
L 0.484375 72.90625 
L 27.09375 72.90625 
L 27.09375 67.671875 
L 18.015625 67.671875 
L 33.203125 13.8125 
L 49.8125 72.90625 
L 57.71875 72.90625 
L 74.609375 13.1875 
L 89.890625 67.671875 
L 81.5 67.671875 
L 81.5 72.90625 
L 102.484375 72.90625 
L 102.484375 67.671875 
L 95.3125 67.671875 
z
" id="DejaVuSerif-87"/>
      <path d="M 9.71875 68.015625 
Q 9.71875 70.265625 11.34375 71.921875 
Q 12.984375 73.578125 15.28125 73.578125 
Q 17.53125 73.578125 19.15625 71.921875 
Q 20.796875 70.265625 20.796875 68.015625 
Q 20.796875 65.71875 19.1875 64.109375 
Q 17.578125 62.5 15.28125 62.5 
Q 12.984375 62.5 11.34375 64.109375 
Q 9.71875 65.71875 9.71875 68.015625 
z
M 21.1875 5.171875 
L 29.6875 5.171875 
L 29.6875 0 
L 3.609375 0 
L 3.609375 5.171875 
L 12.203125 5.171875 
L 12.203125 46.6875 
L 3.609375 46.6875 
L 3.609375 51.90625 
L 21.1875 51.90625 
z
" id="DejaVuSerif-105"/>
      <path d="M 4.109375 0 
L 4.109375 5.171875 
L 12.203125 5.171875 
L 12.203125 70.796875 
L 3.609375 70.796875 
L 3.609375 75.984375 
L 21.1875 75.984375 
L 21.1875 42.671875 
Q 23.6875 47.953125 27.65625 50.640625 
Q 31.640625 53.328125 36.921875 53.328125 
Q 45.515625 53.328125 49.5625 48.390625 
Q 53.609375 43.453125 53.609375 33.015625 
L 53.609375 5.171875 
L 61.625 5.171875 
L 61.625 0 
L 36.8125 0 
L 36.8125 5.171875 
L 44.578125 5.171875 
L 44.578125 30.171875 
Q 44.578125 39.703125 42.25 43.1875 
Q 39.9375 46.6875 33.984375 46.6875 
Q 27.734375 46.6875 24.453125 42.140625 
Q 21.1875 37.59375 21.1875 28.90625 
L 21.1875 5.171875 
L 29 5.171875 
L 29 0 
z
" id="DejaVuSerif-104"/>
      <path d="M 5.609375 2.875 
L 5.609375 14.984375 
L 10.796875 14.984375 
Q 10.984375 9.1875 14.421875 6.296875 
Q 17.875 3.421875 24.609375 3.421875 
Q 30.671875 3.421875 33.84375 5.6875 
Q 37.015625 7.953125 37.015625 12.3125 
Q 37.015625 15.71875 34.6875 17.8125 
Q 32.375 19.921875 24.90625 22.3125 
L 18.40625 24.515625 
Q 11.71875 26.65625 8.71875 29.875 
Q 5.71875 33.109375 5.71875 38.09375 
Q 5.71875 45.21875 10.9375 49.265625 
Q 16.15625 53.328125 25.390625 53.328125 
Q 29.5 53.328125 34.03125 52.25 
Q 38.578125 51.171875 43.40625 49.125 
L 43.40625 37.796875 
L 38.234375 37.796875 
Q 38.03125 42.828125 34.703125 45.65625 
Q 31.390625 48.484375 25.6875 48.484375 
Q 20.015625 48.484375 17.109375 46.484375 
Q 14.203125 44.484375 14.203125 40.484375 
Q 14.203125 37.203125 16.40625 35.21875 
Q 18.609375 33.25 25.203125 31.203125 
L 32.328125 29 
Q 39.703125 26.703125 42.9375 23.265625 
Q 46.1875 19.828125 46.1875 14.40625 
Q 46.1875 7.03125 40.546875 2.796875 
Q 34.90625 -1.421875 25 -1.421875 
Q 19.96875 -1.421875 15.1875 -0.34375 
Q 10.40625 0.734375 5.609375 2.875 
z
" id="DejaVuSerif-115"/>
     </defs>
     <g transform="translate(83.432244 278.936563)scale(0.1 -0.1)">
      <use xlink:href="#DejaVuSerif-80"/>
      <use x="62.785156" xlink:href="#DejaVuSerif-101"/>
      <use x="121.964844" xlink:href="#DejaVuSerif-114"/>
      <use x="169.767578" xlink:href="#DejaVuSerif-99"/>
      <use x="225.773438" xlink:href="#DejaVuSerif-101"/>
      <use x="284.953125" xlink:href="#DejaVuSerif-110"/>
      <use x="349.357422" xlink:href="#DejaVuSerif-116"/>
      <use x="389.542969" xlink:href="#DejaVuSerif-97"/>
      <use x="449.162109" xlink:href="#DejaVuSerif-103"/>
      <use x="513.175781" xlink:href="#DejaVuSerif-101"/>
      <use x="572.355469" xlink:href="#DejaVuSerif-32"/>
      <use x="604.142578" xlink:href="#DejaVuSerif-111"/>
      <use x="664.347656" xlink:href="#DejaVuSerif-102"/>
      <use x="701.359375" xlink:href="#DejaVuSerif-32"/>
      <use x="733.146484" xlink:href="#DejaVuSerif-80"/>
      <use x="800.431641" xlink:href="#DejaVuSerif-114"/>
      <use x="848.234375" xlink:href="#DejaVuSerif-117"/>
      <use x="912.638672" xlink:href="#DejaVuSerif-110"/>
      <use x="977.042969" xlink:href="#DejaVuSerif-101"/>
      <use x="1036.222656" xlink:href="#DejaVuSerif-100"/>
      <use x="1100.236328" xlink:href="#DejaVuSerif-32"/>
      <use x="1132.023438" xlink:href="#DejaVuSerif-87"/>
      <use x="1226.681641" xlink:href="#DejaVuSerif-101"/>
      <use x="1285.861328" xlink:href="#DejaVuSerif-105"/>
      <use x="1317.84375" xlink:href="#DejaVuSerif-103"/>
      <use x="1381.857422" xlink:href="#DejaVuSerif-104"/>
      <use x="1446.261719" xlink:href="#DejaVuSerif-116"/>
      <use x="1486.447266" xlink:href="#DejaVuSerif-115"/>
     </g>
    </g>
   </g>
   <g id="matplotlib.axis_2">
    <g id="ytick_1">
     <g id="line2d_49">
      <path clip-path="url(#p67955f3b26)" d="M 33.503125 251.019826 
L 287.139489 251.019826 
" style="fill:none;stroke:#000000;stroke-dasharray:1.85,0.8;stroke-dashoffset:0;stroke-opacity:0.5;stroke-width:0.5;"/>
     </g>
     <g id="line2d_50">
      <defs>
       <path d="M 0 0 
L 3 0 
" id="mdfa02c2ffb" style="stroke:#000000;stroke-width:0.5;"/>
      </defs>
      <g>
       <use style="stroke:#000000;stroke-width:0.5;" x="33.503125" xlink:href="#mdfa02c2ffb" y="251.019826"/>
      </g>
     </g>
     <g id="line2d_51">
      <defs>
       <path d="M 0 0 
L -3 0 
" id="m1aebfa1f03" style="stroke:#000000;stroke-width:0.5;"/>
      </defs>
      <g>
       <use style="stroke:#000000;stroke-width:0.5;" x="287.139489" xlink:href="#m1aebfa1f03" y="251.019826"/>
      </g>
     </g>
     <g id="text_8">
      <!-- 70 -->
      <defs>
       <path d="M 56.390625 67.921875 
L 27.875 0 
L 20.609375 0 
L 47.796875 64.890625 
L 14.109375 64.890625 
L 14.109375 55.90625 
L 8.40625 55.90625 
L 8.40625 72.90625 
L 56.390625 72.90625 
z
" id="DejaVuSerif-55"/>
      </defs>
      <g transform="translate(17.278125 254.819044)scale(0.1 -0.1)">
       <use xlink:href="#DejaVuSerif-55"/>
       <use x="63.623047" xlink:href="#DejaVuSerif-48"/>
      </g>
     </g>
    </g>
    <g id="ytick_2">
     <g id="line2d_52">
      <path clip-path="url(#p67955f3b26)" d="M 33.503125 237.626638 
L 287.139489 237.626638 
" style="fill:none;stroke:#000000;stroke-dasharray:1.85,0.8;stroke-dashoffset:0;stroke-opacity:0.5;stroke-width:0.5;"/>
     </g>
     <g id="line2d_53">
      <g>
       <use style="stroke:#000000;stroke-width:0.5;" x="33.503125" xlink:href="#mdfa02c2ffb" y="237.626638"/>
      </g>
     </g>
     <g id="line2d_54">
      <g>
       <use style="stroke:#000000;stroke-width:0.5;" x="287.139489" xlink:href="#m1aebfa1f03" y="237.626638"/>
      </g>
     </g>
     <g id="text_9">
      <!-- 75 -->
      <defs>
       <path d="M 50.296875 72.90625 
L 50.296875 64.890625 
L 16.890625 64.890625 
L 16.890625 44 
Q 19.4375 45.75 22.828125 46.625 
Q 26.21875 47.515625 30.421875 47.515625 
Q 42.234375 47.515625 49.0625 40.96875 
Q 55.90625 34.421875 55.90625 23.09375 
Q 55.90625 11.53125 49 5.046875 
Q 42.09375 -1.421875 29.59375 -1.421875 
Q 24.5625 -1.421875 19.28125 -0.1875 
Q 14.015625 1.03125 8.5 3.515625 
L 8.5 17.671875 
L 14.015625 17.671875 
Q 14.453125 10.75 18.421875 7.078125 
Q 22.40625 3.421875 29.59375 3.421875 
Q 37.3125 3.421875 41.453125 8.5 
Q 45.609375 13.578125 45.609375 23.09375 
Q 45.609375 32.5625 41.484375 37.609375 
Q 37.359375 42.671875 29.59375 42.671875 
Q 25.203125 42.671875 21.84375 41.109375 
Q 18.5 39.546875 15.921875 36.28125 
L 11.71875 36.28125 
L 11.71875 72.90625 
z
" id="DejaVuSerif-53"/>
      </defs>
      <g transform="translate(17.278125 241.425856)scale(0.1 -0.1)">
       <use xlink:href="#DejaVuSerif-55"/>
       <use x="63.623047" xlink:href="#DejaVuSerif-53"/>
      </g>
     </g>
    </g>
    <g id="ytick_3">
     <g id="line2d_55">
      <path clip-path="url(#p67955f3b26)" d="M 33.503125 216.056775 
L 287.139489 216.056775 
" style="fill:none;stroke:#000000;stroke-dasharray:1.85,0.8;stroke-dashoffset:0;stroke-opacity:0.5;stroke-width:0.5;"/>
     </g>
     <g id="line2d_56">
      <g>
       <use style="stroke:#000000;stroke-width:0.5;" x="33.503125" xlink:href="#mdfa02c2ffb" y="216.056775"/>
      </g>
     </g>
     <g id="line2d_57">
      <g>
       <use style="stroke:#000000;stroke-width:0.5;" x="287.139489" xlink:href="#m1aebfa1f03" y="216.056775"/>
      </g>
     </g>
     <g id="text_10">
      <!-- 80 -->
      <g transform="translate(17.278125 219.855993)scale(0.1 -0.1)">
       <use xlink:href="#DejaVuSerif-56"/>
       <use x="63.623047" xlink:href="#DejaVuSerif-48"/>
      </g>
     </g>
    </g>
    <g id="ytick_4">
     <g id="line2d_58">
      <path clip-path="url(#p67955f3b26)" d="M 33.503125 181.318294 
L 287.139489 181.318294 
" style="fill:none;stroke:#000000;stroke-dasharray:1.85,0.8;stroke-dashoffset:0;stroke-opacity:0.5;stroke-width:0.5;"/>
     </g>
     <g id="line2d_59">
      <g>
       <use style="stroke:#000000;stroke-width:0.5;" x="33.503125" xlink:href="#mdfa02c2ffb" y="181.318294"/>
      </g>
     </g>
     <g id="line2d_60">
      <g>
       <use style="stroke:#000000;stroke-width:0.5;" x="287.139489" xlink:href="#m1aebfa1f03" y="181.318294"/>
      </g>
     </g>
     <g id="text_11">
      <!-- 85 -->
      <g transform="translate(17.278125 185.117513)scale(0.1 -0.1)">
       <use xlink:href="#DejaVuSerif-56"/>
       <use x="63.623047" xlink:href="#DejaVuSerif-53"/>
      </g>
     </g>
    </g>
    <g id="ytick_5">
     <g id="line2d_61">
      <path clip-path="url(#p67955f3b26)" d="M 33.503125 125.371624 
L 287.139489 125.371624 
" style="fill:none;stroke:#000000;stroke-dasharray:1.85,0.8;stroke-dashoffset:0;stroke-opacity:0.5;stroke-width:0.5;"/>
     </g>
     <g id="line2d_62">
      <g>
       <use style="stroke:#000000;stroke-width:0.5;" x="33.503125" xlink:href="#mdfa02c2ffb" y="125.371624"/>
      </g>
     </g>
     <g id="line2d_63">
      <g>
       <use style="stroke:#000000;stroke-width:0.5;" x="287.139489" xlink:href="#m1aebfa1f03" y="125.371624"/>
      </g>
     </g>
     <g id="text_12">
      <!-- 90 -->
      <g transform="translate(17.278125 129.170843)scale(0.1 -0.1)">
       <use xlink:href="#DejaVuSerif-57"/>
       <use x="63.623047" xlink:href="#DejaVuSerif-48"/>
      </g>
     </g>
    </g>
    <g id="ytick_6">
     <g id="line2d_64">
      <path clip-path="url(#p67955f3b26)" d="M 33.503125 35.268953 
L 287.139489 35.268953 
" style="fill:none;stroke:#000000;stroke-dasharray:1.85,0.8;stroke-dashoffset:0;stroke-opacity:0.5;stroke-width:0.5;"/>
     </g>
     <g id="line2d_65">
      <g>
       <use style="stroke:#000000;stroke-width:0.5;" x="33.503125" xlink:href="#mdfa02c2ffb" y="35.268953"/>
      </g>
     </g>
     <g id="line2d_66">
      <g>
       <use style="stroke:#000000;stroke-width:0.5;" x="287.139489" xlink:href="#m1aebfa1f03" y="35.268953"/>
      </g>
     </g>
     <g id="text_13">
      <!-- 95 -->
      <g transform="translate(17.278125 39.068172)scale(0.1 -0.1)">
       <use xlink:href="#DejaVuSerif-57"/>
       <use x="63.623047" xlink:href="#DejaVuSerif-53"/>
      </g>
     </g>
    </g>
    <g id="ytick_7">
     <g id="line2d_67">
      <defs>
       <path d="M 0 0 
L 1.5 0 
" id="m6d0d6e87ea" style="stroke:#000000;stroke-width:0.5;"/>
      </defs>
      <g>
       <use style="stroke:#000000;stroke-width:0.5;" x="33.503125" xlink:href="#m6d0d6e87ea" y="253.014162"/>
      </g>
     </g>
     <g id="line2d_68">
      <defs>
       <path d="M 0 0 
L -1.5 0 
" id="m70abfe1729" style="stroke:#000000;stroke-width:0.5;"/>
      </defs>
      <g>
       <use style="stroke:#000000;stroke-width:0.5;" x="287.139489" xlink:href="#m70abfe1729" y="253.014162"/>
      </g>
     </g>
    </g>
    <g id="ytick_8">
     <g id="line2d_69">
      <g>
       <use style="stroke:#000000;stroke-width:0.5;" x="33.503125" xlink:href="#m6d0d6e87ea" y="248.826055"/>
      </g>
     </g>
     <g id="line2d_70">
      <g>
       <use style="stroke:#000000;stroke-width:0.5;" x="287.139489" xlink:href="#m70abfe1729" y="248.826055"/>
      </g>
     </g>
    </g>
    <g id="ytick_9">
     <g id="line2d_71">
      <g>
       <use style="stroke:#000000;stroke-width:0.5;" x="33.503125" xlink:href="#m6d0d6e87ea" y="246.412908"/>
      </g>
     </g>
     <g id="line2d_72">
      <g>
       <use style="stroke:#000000;stroke-width:0.5;" x="287.139489" xlink:href="#m70abfe1729" y="246.412908"/>
      </g>
     </g>
    </g>
    <g id="ytick_10">
     <g id="line2d_73">
      <g>
       <use style="stroke:#000000;stroke-width:0.5;" x="33.503125" xlink:href="#m6d0d6e87ea" y="243.758445"/>
      </g>
     </g>
     <g id="line2d_74">
      <g>
       <use style="stroke:#000000;stroke-width:0.5;" x="287.139489" xlink:href="#m70abfe1729" y="243.758445"/>
      </g>
     </g>
    </g>
    <g id="ytick_11">
     <g id="line2d_75">
      <g>
       <use style="stroke:#000000;stroke-width:0.5;" x="33.503125" xlink:href="#m6d0d6e87ea" y="240.838537"/>
      </g>
     </g>
     <g id="line2d_76">
      <g>
       <use style="stroke:#000000;stroke-width:0.5;" x="287.139489" xlink:href="#m70abfe1729" y="240.838537"/>
      </g>
     </g>
    </g>
    <g id="ytick_12">
     <g id="line2d_77">
      <g>
       <use style="stroke:#000000;stroke-width:0.5;" x="33.503125" xlink:href="#m6d0d6e87ea" y="234.093548"/>
      </g>
     </g>
     <g id="line2d_78">
      <g>
       <use style="stroke:#000000;stroke-width:0.5;" x="287.139489" xlink:href="#m70abfe1729" y="234.093548"/>
      </g>
     </g>
    </g>
    <g id="ytick_13">
     <g id="line2d_79">
      <g>
       <use style="stroke:#000000;stroke-width:0.5;" x="33.503125" xlink:href="#m6d0d6e87ea" y="230.20715"/>
      </g>
     </g>
     <g id="line2d_80">
      <g>
       <use style="stroke:#000000;stroke-width:0.5;" x="287.139489" xlink:href="#m70abfe1729" y="230.20715"/>
      </g>
     </g>
    </g>
    <g id="ytick_14">
     <g id="line2d_81">
      <g>
       <use style="stroke:#000000;stroke-width:0.5;" x="33.503125" xlink:href="#m6d0d6e87ea" y="225.932112"/>
      </g>
     </g>
     <g id="line2d_82">
      <g>
       <use style="stroke:#000000;stroke-width:0.5;" x="287.139489" xlink:href="#m70abfe1729" y="225.932112"/>
      </g>
     </g>
    </g>
    <g id="ytick_15">
     <g id="line2d_83">
      <g>
       <use style="stroke:#000000;stroke-width:0.5;" x="33.503125" xlink:href="#m6d0d6e87ea" y="221.229571"/>
      </g>
     </g>
     <g id="line2d_84">
      <g>
       <use style="stroke:#000000;stroke-width:0.5;" x="287.139489" xlink:href="#m70abfe1729" y="221.229571"/>
      </g>
     </g>
    </g>
    <g id="ytick_16">
     <g id="line2d_85">
      <g>
       <use style="stroke:#000000;stroke-width:0.5;" x="33.503125" xlink:href="#m6d0d6e87ea" y="210.366699"/>
      </g>
     </g>
     <g id="line2d_86">
      <g>
       <use style="stroke:#000000;stroke-width:0.5;" x="287.139489" xlink:href="#m70abfe1729" y="210.366699"/>
      </g>
     </g>
    </g>
    <g id="ytick_17">
     <g id="line2d_87">
      <g>
       <use style="stroke:#000000;stroke-width:0.5;" x="33.503125" xlink:href="#m6d0d6e87ea" y="204.107616"/>
      </g>
     </g>
     <g id="line2d_88">
      <g>
       <use style="stroke:#000000;stroke-width:0.5;" x="287.139489" xlink:href="#m70abfe1729" y="204.107616"/>
      </g>
     </g>
    </g>
    <g id="ytick_18">
     <g id="line2d_89">
      <g>
       <use style="stroke:#000000;stroke-width:0.5;" x="33.503125" xlink:href="#m6d0d6e87ea" y="197.222624"/>
      </g>
     </g>
     <g id="line2d_90">
      <g>
       <use style="stroke:#000000;stroke-width:0.5;" x="287.139489" xlink:href="#m70abfe1729" y="197.222624"/>
      </g>
     </g>
    </g>
    <g id="ytick_19">
     <g id="line2d_91">
      <g>
       <use style="stroke:#000000;stroke-width:0.5;" x="33.503125" xlink:href="#m6d0d6e87ea" y="189.649134"/>
      </g>
     </g>
     <g id="line2d_92">
      <g>
       <use style="stroke:#000000;stroke-width:0.5;" x="287.139489" xlink:href="#m70abfe1729" y="189.649134"/>
      </g>
     </g>
    </g>
    <g id="ytick_20">
     <g id="line2d_93">
      <g>
       <use style="stroke:#000000;stroke-width:0.5;" x="33.503125" xlink:href="#m6d0d6e87ea" y="172.154371"/>
      </g>
     </g>
     <g id="line2d_94">
      <g>
       <use style="stroke:#000000;stroke-width:0.5;" x="287.139489" xlink:href="#m70abfe1729" y="172.154371"/>
      </g>
     </g>
    </g>
    <g id="ytick_21">
     <g id="line2d_95">
      <g>
       <use style="stroke:#000000;stroke-width:0.5;" x="33.503125" xlink:href="#m6d0d6e87ea" y="162.074055"/>
      </g>
     </g>
     <g id="line2d_96">
      <g>
       <use style="stroke:#000000;stroke-width:0.5;" x="287.139489" xlink:href="#m70abfe1729" y="162.074055"/>
      </g>
     </g>
    </g>
    <g id="ytick_22">
     <g id="line2d_97">
      <g>
       <use style="stroke:#000000;stroke-width:0.5;" x="33.503125" xlink:href="#m6d0d6e87ea" y="150.985707"/>
      </g>
     </g>
     <g id="line2d_98">
      <g>
       <use style="stroke:#000000;stroke-width:0.5;" x="287.139489" xlink:href="#m70abfe1729" y="150.985707"/>
      </g>
     </g>
    </g>
    <g id="ytick_23">
     <g id="line2d_99">
      <g>
       <use style="stroke:#000000;stroke-width:0.5;" x="33.503125" xlink:href="#m6d0d6e87ea" y="138.788525"/>
      </g>
     </g>
     <g id="line2d_100">
      <g>
       <use style="stroke:#000000;stroke-width:0.5;" x="287.139489" xlink:href="#m70abfe1729" y="138.788525"/>
      </g>
     </g>
    </g>
    <g id="ytick_24">
     <g id="line2d_101">
      <g>
       <use style="stroke:#000000;stroke-width:0.5;" x="33.503125" xlink:href="#m6d0d6e87ea" y="110.613034"/>
      </g>
     </g>
     <g id="line2d_102">
      <g>
       <use style="stroke:#000000;stroke-width:0.5;" x="287.139489" xlink:href="#m70abfe1729" y="110.613034"/>
      </g>
     </g>
    </g>
    <g id="ytick_25">
     <g id="line2d_103">
      <g>
       <use style="stroke:#000000;stroke-width:0.5;" x="33.503125" xlink:href="#m6d0d6e87ea" y="94.378584"/>
      </g>
     </g>
     <g id="line2d_104">
      <g>
       <use style="stroke:#000000;stroke-width:0.5;" x="287.139489" xlink:href="#m70abfe1729" y="94.378584"/>
      </g>
     </g>
    </g>
    <g id="ytick_26">
     <g id="line2d_105">
      <g>
       <use style="stroke:#000000;stroke-width:0.5;" x="33.503125" xlink:href="#m6d0d6e87ea" y="76.520689"/>
      </g>
     </g>
     <g id="line2d_106">
      <g>
       <use style="stroke:#000000;stroke-width:0.5;" x="287.139489" xlink:href="#m70abfe1729" y="76.520689"/>
      </g>
     </g>
    </g>
    <g id="ytick_27">
     <g id="line2d_107">
      <g>
       <use style="stroke:#000000;stroke-width:0.5;" x="33.503125" xlink:href="#m6d0d6e87ea" y="56.877005"/>
      </g>
     </g>
     <g id="line2d_108">
      <g>
       <use style="stroke:#000000;stroke-width:0.5;" x="287.139489" xlink:href="#m70abfe1729" y="56.877005"/>
      </g>
     </g>
    </g>
    <g id="ytick_28">
     <g id="line2d_109">
      <g>
       <use style="stroke:#000000;stroke-width:0.5;" x="33.503125" xlink:href="#m6d0d6e87ea" y="11.500095"/>
      </g>
     </g>
     <g id="line2d_110">
      <g>
       <use style="stroke:#000000;stroke-width:0.5;" x="287.139489" xlink:href="#m70abfe1729" y="11.500095"/>
      </g>
     </g>
    </g>
    <g id="text_14">
     <!-- Test Accuracy in Percent -->
     <defs>
      <path d="M 19.09375 0 
L 19.09375 5.171875 
L 28.421875 5.171875 
L 28.421875 67.09375 
L 6.984375 67.09375 
L 6.984375 55.71875 
L 0.984375 55.71875 
L 0.984375 72.90625 
L 65.71875 72.90625 
L 65.71875 55.71875 
L 59.71875 55.71875 
L 59.71875 67.09375 
L 38.28125 67.09375 
L 38.28125 5.171875 
L 47.609375 5.171875 
L 47.609375 0 
z
" id="DejaVuSerif-84"/>
      <path d="M 20.015625 26.421875 
L 46.78125 26.421875 
L 33.40625 61.078125 
z
M -0.59375 0 
L -0.59375 5.171875 
L 5.8125 5.171875 
L 31.78125 72.90625 
L 39.984375 72.90625 
L 66.015625 5.171875 
L 73.1875 5.171875 
L 73.1875 0 
L 46.6875 0 
L 46.6875 5.171875 
L 54.78125 5.171875 
L 48.6875 21.1875 
L 18.015625 21.1875 
L 11.921875 5.171875 
L 19.921875 5.171875 
L 19.921875 0 
z
" id="DejaVuSerif-65"/>
      <path d="M 21.578125 -9.515625 
L 25 -0.875 
L 5.609375 46.6875 
L -0.296875 46.6875 
L -0.296875 51.90625 
L 23.578125 51.90625 
L 23.578125 46.6875 
L 15.28125 46.6875 
L 29.890625 10.984375 
L 44.484375 46.6875 
L 36.71875 46.6875 
L 36.71875 51.90625 
L 56.203125 51.90625 
L 56.203125 46.6875 
L 50.390625 46.6875 
L 26.609375 -11.71875 
Q 24.171875 -17.78125 21.1875 -20 
Q 18.21875 -22.21875 12.796875 -22.21875 
Q 10.5 -22.21875 8.078125 -21.828125 
Q 5.671875 -21.4375 3.21875 -20.703125 
L 3.21875 -10.796875 
L 7.8125 -10.796875 
Q 8.109375 -14.109375 9.5 -15.546875 
Q 10.890625 -17 13.8125 -17 
Q 16.5 -17 18.140625 -15.5 
Q 19.78125 -14.015625 21.578125 -9.515625 
z
" id="DejaVuSerif-121"/>
     </defs>
     <g transform="translate(11.05625 191.853438)rotate(-90)scale(0.1 -0.1)">
      <use xlink:href="#DejaVuSerif-84"/>
      <use x="58.949219" xlink:href="#DejaVuSerif-101"/>
      <use x="118.128906" xlink:href="#DejaVuSerif-115"/>
      <use x="169.447266" xlink:href="#DejaVuSerif-116"/>
      <use x="209.632812" xlink:href="#DejaVuSerif-32"/>
      <use x="241.419922" xlink:href="#DejaVuSerif-65"/>
      <use x="313.636719" xlink:href="#DejaVuSerif-99"/>
      <use x="369.642578" xlink:href="#DejaVuSerif-99"/>
      <use x="425.648438" xlink:href="#DejaVuSerif-117"/>
      <use x="490.052734" xlink:href="#DejaVuSerif-114"/>
      <use x="537.855469" xlink:href="#DejaVuSerif-97"/>
      <use x="597.474609" xlink:href="#DejaVuSerif-99"/>
      <use x="653.480469" xlink:href="#DejaVuSerif-121"/>
      <use x="709.974609" xlink:href="#DejaVuSerif-32"/>
      <use x="741.761719" xlink:href="#DejaVuSerif-105"/>
      <use x="773.744141" xlink:href="#DejaVuSerif-110"/>
      <use x="838.148438" xlink:href="#DejaVuSerif-32"/>
      <use x="869.935547" xlink:href="#DejaVuSerif-80"/>
      <use x="932.720703" xlink:href="#DejaVuSerif-101"/>
      <use x="991.900391" xlink:href="#DejaVuSerif-114"/>
      <use x="1039.703125" xlink:href="#DejaVuSerif-99"/>
      <use x="1095.708984" xlink:href="#DejaVuSerif-101"/>
      <use x="1154.888672" xlink:href="#DejaVuSerif-110"/>
      <use x="1219.292969" xlink:href="#DejaVuSerif-116"/>
     </g>
    </g>
   </g>
   <g id="line2d_111">
    <path clip-path="url(#p67955f3b26)" d="M -1 45.999837 
L 10.838498 46.532731 
L 27.373758 49.808237 
L 47.850644 51.111631 
L 71.098258 53.157105 
L 95.714649 59.704821 
L 120.372543 63.619176 
L 143.986766 69.296759 
L 165.802361 75.587826 
L 185.381391 85.071687 
L 202.564722 97.492101 
L 217.351847 113.179306 
L 229.91511 128.214948 
L 240.442086 139.032934 
" style="fill:none;stroke:#0c5da5;stroke-linecap:square;"/>
   </g>
   <g id="line2d_112">
    <path clip-path="url(#p67955f3b26)" d="M -1 39.927637 
L 10.838498 40.373871 
L 27.373758 43.032431 
L 47.850644 44.065539 
L 71.098258 46.847533 
L 95.714649 50.012396 
L 120.372543 53.012202 
L 143.986766 56.693385 
L 165.802361 62.712815 
L 185.381391 68.212681 
L 202.564722 75.862232 
L 217.351847 81.999439 
L 229.91511 90.093813 
L 240.442086 101.160021 
L 249.192884 116.467745 
L 256.408582 130.474114 
L 262.318542 130.961908 
" style="fill:none;stroke:#00b945;stroke-linecap:square;"/>
   </g>
   <g id="line2d_113">
    <path clip-path="url(#p67955f3b26)" d="M -1 42.434981 
L 10.838498 158.04599 
L 27.373758 39.662211 
L 47.850644 168.146931 
L 71.098258 47.157763 
L 95.714649 96.76143 
L 120.372543 57.594158 
L 143.986766 58.627987 
L 165.802361 148.700574 
L 185.381391 68.292625 
L 202.564722 75.903119 
L 217.351847 83.95859 
L 229.91511 94.320166 
L 240.442086 111.686498 
L 249.192884 122.798999 
L 256.408582 133.120187 
L 262.318542 126.007864 
" style="fill:none;stroke:#ff9500;stroke-linecap:square;"/>
   </g>
   <g id="patch_3">
    <path d="M 33.503125 254.16 
L 33.503125 3.6 
" style="fill:none;stroke:#000000;stroke-linecap:square;stroke-linejoin:miter;stroke-width:0.5;"/>
   </g>
   <g id="patch_4">
    <path d="M 287.139489 254.16 
L 287.139489 3.6 
" style="fill:none;stroke:#000000;stroke-linecap:square;stroke-linejoin:miter;stroke-width:0.5;"/>
   </g>
   <g id="patch_5">
    <path d="M 33.503125 254.16 
L 287.139489 254.16 
" style="fill:none;stroke:#000000;stroke-linecap:square;stroke-linejoin:miter;stroke-width:0.5;"/>
   </g>
   <g id="patch_6">
    <path d="M 33.503125 3.6 
L 287.139489 3.6 
" style="fill:none;stroke:#000000;stroke-linecap:square;stroke-linejoin:miter;stroke-width:0.5;"/>
   </g>
  </g>
  <g id="axes_2">
   <g id="patch_7">
    <path d="M 337.866761 254.16 
L 591.503125 254.16 
L 591.503125 3.6 
L 337.866761 3.6 
z
" style="fill:#ffffff;"/>
   </g>
   <g id="PolyCollection_4">
    <path clip-path="url(#p07d5ff2d89)" d="M 289.012905 63.100506 
L 289.012905 68.140314 
L 289.013042 52.350776 
L 289.015491 49.1671 
L 289.039616 42.846689 
L 289.039616 37.668789 
L 289.039616 37.668789 
L 289.015491 45.254535 
L 289.013042 47.479787 
L 289.012905 63.100506 
z
" style="fill:#0c5da5;fill-opacity:0.2;stroke:#0c5da5;stroke-opacity:0.2;"/>
    <path clip-path="url(#p07d5ff2d89)" d="M 289.18572 36.601846 
L 289.18572 42.050831 
L 289.18572 36.601846 
L 289.18572 36.601846 
z
" style="fill:#0c5da5;fill-opacity:0.2;stroke:#0c5da5;stroke-opacity:0.2;"/>
    <path clip-path="url(#p07d5ff2d89)" d="M 289.78249 35.660654 
L 289.78249 40.396489 
L 289.78249 35.660654 
L 289.78249 35.660654 
z
" style="fill:#0c5da5;fill-opacity:0.2;stroke:#0c5da5;stroke-opacity:0.2;"/>
    <path clip-path="url(#p07d5ff2d89)" d="M 291.555025 36.89072 
L 291.555025 40.754045 
L 291.555025 36.89072 
L 291.555025 36.89072 
z
" style="fill:#0c5da5;fill-opacity:0.2;stroke:#0c5da5;stroke-opacity:0.2;"/>
    <path clip-path="url(#p07d5ff2d89)" d="M 295.62483 34.413239 
L 295.62483 41.823821 
L 295.62483 34.413239 
L 295.62483 34.413239 
z
" style="fill:#0c5da5;fill-opacity:0.2;stroke:#0c5da5;stroke-opacity:0.2;"/>
    <path clip-path="url(#p07d5ff2d89)" d="M 303.218573 39.173481 
L 303.218573 46.421118 
L 315.203089 43.449125 
L 331.739731 49.717992 
L 352.217738 55.997012 
L 375.466623 60.47893 
L 400.082336 68.081059 
L 424.741128 77.712852 
L 448.350402 91.016129 
L 470.165998 101.924899 
L 489.737708 118.227905 
L 506.916439 144.71989 
L 521.715484 174.500413 
L 534.269803 196.818254 
L 534.269803 176.243464 
L 534.269803 176.243464 
L 521.715484 160.29967 
L 506.916439 133.807233 
L 489.737708 113.386603 
L 470.165998 94.475177 
L 448.350402 82.142819 
L 424.741128 70.206836 
L 400.082336 63.11224 
L 375.466623 54.838409 
L 352.217738 49.392201 
L 331.739731 44.327401 
L 315.203089 38.83894 
L 303.218573 39.173481 
z
" style="fill:#0c5da5;fill-opacity:0.2;stroke:#0c5da5;stroke-opacity:0.2;"/>
   </g>
   <g id="PolyCollection_5">
    <path clip-path="url(#p07d5ff2d89)" d="M 289.012905 41.376203 
L 289.012905 46.534589 
L 289.013042 38.492117 
L 289.015491 36.376686 
L 289.039616 32.320367 
L 289.18572 33.843525 
L 289.78249 34.839803 
L 291.555025 36.858486 
L 295.62483 35.986084 
L 303.218573 37.377592 
L 315.203089 36.414312 
L 315.203089 29.742979 
L 315.203089 29.742979 
L 303.218573 30.061382 
L 295.62483 31.396567 
L 291.555025 28.734543 
L 289.78249 27.189312 
L 289.18572 27.734555 
L 289.039616 27.776207 
L 289.015491 30.18089 
L 289.013042 32.687383 
L 289.012905 41.376203 
z
" style="fill:#00b945;fill-opacity:0.2;stroke:#00b945;stroke-opacity:0.2;"/>
    <path clip-path="url(#p07d5ff2d89)" d="M 331.739731 35.558862 
L 331.739731 43.27584 
L 331.739731 35.558862 
L 331.739731 35.558862 
z
" style="fill:#00b945;fill-opacity:0.2;stroke:#00b945;stroke-opacity:0.2;"/>
    <path clip-path="url(#p07d5ff2d89)" d="M 352.217738 36.498155 
L 352.217738 42.251032 
L 352.217738 36.498155 
L 352.217738 36.498155 
z
" style="fill:#00b945;fill-opacity:0.2;stroke:#00b945;stroke-opacity:0.2;"/>
    <path clip-path="url(#p07d5ff2d89)" d="M 375.466623 40.481893 
L 375.466623 48.534478 
L 375.466623 40.481893 
L 375.466623 40.481893 
z
" style="fill:#00b945;fill-opacity:0.2;stroke:#00b945;stroke-opacity:0.2;"/>
    <path clip-path="url(#p07d5ff2d89)" d="M 400.082336 47.289413 
L 400.082336 52.436415 
L 400.082336 47.289413 
L 400.082336 47.289413 
z
" style="fill:#00b945;fill-opacity:0.2;stroke:#00b945;stroke-opacity:0.2;"/>
    <path clip-path="url(#p07d5ff2d89)" d="M 424.741128 57.052374 
L 424.741128 62.294414 
L 448.350402 72.179721 
L 470.165998 81.930172 
L 489.737708 93.068687 
L 506.916439 108.875824 
L 521.715484 126.910564 
L 534.269803 144.109653 
L 544.796395 165.771793 
L 553.556521 195.445192 
L 553.556521 184.966836 
L 553.556521 184.966836 
L 544.796395 155.328793 
L 534.269803 129.168808 
L 521.715484 114.688046 
L 506.916439 97.592994 
L 489.737708 82.470292 
L 470.165998 73.801301 
L 448.350402 63.112541 
L 424.741128 57.052374 
z
" style="fill:#00b945;fill-opacity:0.2;stroke:#00b945;stroke-opacity:0.2;"/>
   </g>
   <g id="PolyCollection_6">
    <defs>
     <path d="M 289.012905 -272.922458 
L 289.012905 -259.702035 
L 289.013042 -277.115053 
L 289.015491 -272.534395 
L 289.039616 -260.583957 
L 289.18572 -279.518351 
L 289.78249 -275.514153 
L 291.555025 -250.407084 
L 295.62483 -275.177939 
L 303.218573 -277.84302 
L 315.203089 -270.242135 
L 331.739731 -248.296397 
L 352.217738 -264.516619 
L 375.466623 -252.157683 
L 400.082336 -253.604325 
L 424.741128 -202.983377 
L 448.350402 -209.810038 
L 470.165998 -227.132068 
L 489.737708 -191.716005 
L 506.916439 -181.135574 
L 521.715484 -129.392637 
L 534.269803 -147.976188 
L 544.796395 -65.752465 
L 553.556521 -100.410131 
L 553.556521 -122.578349 
L 553.556521 -122.578349 
L 544.796395 -167.4628 
L 534.269803 -173.96425 
L 521.715484 -195.409055 
L 506.916439 -217.746327 
L 489.737708 -228.229508 
L 470.165998 -241.356378 
L 448.350402 -251.393423 
L 424.741128 -257.409302 
L 400.082336 -270.868716 
L 375.466623 -273.127432 
L 352.217738 -276.31029 
L 331.739731 -280.227923 
L 315.203089 -285.827265 
L 303.218573 -287.753967 
L 295.62483 -290.040528 
L 291.555025 -288.870078 
L 289.78249 -289.689171 
L 289.18572 -291.798284 
L 289.039616 -286.896698 
L 289.015491 -289.63626 
L 289.013042 -284.124074 
L 289.012905 -272.922458 
z
" id="m77abbee33a" style="stroke:#ff9500;stroke-opacity:0.2;"/>
    </defs>
    <g clip-path="url(#p07d5ff2d89)">
     <use style="fill:#ff9500;fill-opacity:0.2;stroke:#ff9500;stroke-opacity:0.2;" x="0" xlink:href="#m77abbee33a" y="313.270125"/>
    </g>
   </g>
   <g id="matplotlib.axis_3">
    <g id="xtick_22">
     <g id="line2d_114">
      <path clip-path="url(#p07d5ff2d89)" d="M 337.866761 254.16 
L 337.866761 3.6 
" style="fill:none;stroke:#000000;stroke-dasharray:1.85,0.8;stroke-dashoffset:0;stroke-opacity:0.5;stroke-width:0.5;"/>
     </g>
     <g id="line2d_115">
      <g>
       <use style="stroke:#000000;stroke-width:0.5;" x="337.866761" xlink:href="#m32bc3cc699" y="254.16"/>
      </g>
     </g>
     <g id="line2d_116">
      <g>
       <use style="stroke:#000000;stroke-width:0.5;" x="337.866761" xlink:href="#me59455c83f" y="3.6"/>
      </g>
     </g>
     <g id="text_15">
      <!-- 90 -->
      <g transform="translate(331.504261 265.258438)scale(0.1 -0.1)">
       <use xlink:href="#DejaVuSerif-57"/>
       <use x="63.623047" xlink:href="#DejaVuSerif-48"/>
      </g>
     </g>
    </g>
    <g id="xtick_23">
     <g id="line2d_117">
      <path clip-path="url(#p07d5ff2d89)" d="M 359.36246 254.16 
L 359.36246 3.6 
" style="fill:none;stroke:#000000;stroke-dasharray:1.85,0.8;stroke-dashoffset:0;stroke-opacity:0.5;stroke-width:0.5;"/>
     </g>
     <g id="line2d_118">
      <g>
       <use style="stroke:#000000;stroke-width:0.5;" x="359.36246" xlink:href="#m32bc3cc699" y="254.16"/>
      </g>
     </g>
     <g id="line2d_119">
      <g>
       <use style="stroke:#000000;stroke-width:0.5;" x="359.36246" xlink:href="#me59455c83f" y="3.6"/>
      </g>
     </g>
     <g id="text_16">
      <!-- 92 -->
      <g transform="translate(352.99996 265.258438)scale(0.1 -0.1)">
       <use xlink:href="#DejaVuSerif-57"/>
       <use x="63.623047" xlink:href="#DejaVuSerif-50"/>
      </g>
     </g>
    </g>
    <g id="xtick_24">
     <g id="line2d_120">
      <path clip-path="url(#p07d5ff2d89)" d="M 390.316265 254.16 
L 390.316265 3.6 
" style="fill:none;stroke:#000000;stroke-dasharray:1.85,0.8;stroke-dashoffset:0;stroke-opacity:0.5;stroke-width:0.5;"/>
     </g>
     <g id="line2d_121">
      <g>
       <use style="stroke:#000000;stroke-width:0.5;" x="390.316265" xlink:href="#m32bc3cc699" y="254.16"/>
      </g>
     </g>
     <g id="line2d_122">
      <g>
       <use style="stroke:#000000;stroke-width:0.5;" x="390.316265" xlink:href="#me59455c83f" y="3.6"/>
      </g>
     </g>
     <g id="text_17">
      <!-- 94 -->
      <g transform="translate(383.953765 265.258438)scale(0.1 -0.1)">
       <use xlink:href="#DejaVuSerif-57"/>
       <use x="63.623047" xlink:href="#DejaVuSerif-52"/>
      </g>
     </g>
    </g>
    <g id="xtick_25">
     <g id="line2d_123">
      <path clip-path="url(#p07d5ff2d89)" d="M 434.889745 254.16 
L 434.889745 3.6 
" style="fill:none;stroke:#000000;stroke-dasharray:1.85,0.8;stroke-dashoffset:0;stroke-opacity:0.5;stroke-width:0.5;"/>
     </g>
     <g id="line2d_124">
      <g>
       <use style="stroke:#000000;stroke-width:0.5;" x="434.889745" xlink:href="#m32bc3cc699" y="254.16"/>
      </g>
     </g>
     <g id="line2d_125">
      <g>
       <use style="stroke:#000000;stroke-width:0.5;" x="434.889745" xlink:href="#me59455c83f" y="3.6"/>
      </g>
     </g>
     <g id="text_18">
      <!-- 96 -->
      <g transform="translate(428.527245 265.258438)scale(0.1 -0.1)">
       <use xlink:href="#DejaVuSerif-57"/>
       <use x="63.623047" xlink:href="#DejaVuSerif-54"/>
      </g>
     </g>
    </g>
    <g id="xtick_26">
     <g id="line2d_126">
      <path clip-path="url(#p07d5ff2d89)" d="M 499.075557 254.16 
L 499.075557 3.6 
" style="fill:none;stroke:#000000;stroke-dasharray:1.85,0.8;stroke-dashoffset:0;stroke-opacity:0.5;stroke-width:0.5;"/>
     </g>
     <g id="line2d_127">
      <g>
       <use style="stroke:#000000;stroke-width:0.5;" x="499.075557" xlink:href="#m32bc3cc699" y="254.16"/>
      </g>
     </g>
     <g id="line2d_128">
      <g>
       <use style="stroke:#000000;stroke-width:0.5;" x="499.075557" xlink:href="#me59455c83f" y="3.6"/>
      </g>
     </g>
     <g id="text_19">
      <!-- 98 -->
      <g transform="translate(492.713057 265.258438)scale(0.1 -0.1)">
       <use xlink:href="#DejaVuSerif-57"/>
       <use x="63.623047" xlink:href="#DejaVuSerif-56"/>
      </g>
     </g>
    </g>
    <g id="xtick_27">
     <g id="line2d_129">
      <path clip-path="url(#p07d5ff2d89)" d="M 591.503125 254.16 
L 591.503125 3.6 
" style="fill:none;stroke:#000000;stroke-dasharray:1.85,0.8;stroke-dashoffset:0;stroke-opacity:0.5;stroke-width:0.5;"/>
     </g>
     <g id="line2d_130">
      <g>
       <use style="stroke:#000000;stroke-width:0.5;" x="591.503125" xlink:href="#m32bc3cc699" y="254.16"/>
      </g>
     </g>
     <g id="line2d_131">
      <g>
       <use style="stroke:#000000;stroke-width:0.5;" x="591.503125" xlink:href="#me59455c83f" y="3.6"/>
      </g>
     </g>
     <g id="text_20">
      <!-- 100 -->
      <g transform="translate(581.959375 265.258438)scale(0.1 -0.1)">
       <use xlink:href="#DejaVuSerif-49"/>
       <use x="63.623047" xlink:href="#DejaVuSerif-48"/>
       <use x="127.246094" xlink:href="#DejaVuSerif-48"/>
      </g>
     </g>
    </g>
    <g id="xtick_28">
     <g id="line2d_132">
      <g>
       <use style="stroke:#000000;stroke-width:0.5;" x="342.529624" xlink:href="#m621db79337" y="254.16"/>
      </g>
     </g>
     <g id="line2d_133">
      <g>
       <use style="stroke:#000000;stroke-width:0.5;" x="342.529624" xlink:href="#m0d1c8dbf6d" y="3.6"/>
      </g>
     </g>
    </g>
    <g id="xtick_29">
     <g id="line2d_134">
      <g>
       <use style="stroke:#000000;stroke-width:0.5;" x="347.637533" xlink:href="#m621db79337" y="254.16"/>
      </g>
     </g>
     <g id="line2d_135">
      <g>
       <use style="stroke:#000000;stroke-width:0.5;" x="347.637533" xlink:href="#m0d1c8dbf6d" y="3.6"/>
      </g>
     </g>
    </g>
    <g id="xtick_30">
     <g id="line2d_136">
      <g>
       <use style="stroke:#000000;stroke-width:0.5;" x="353.232968" xlink:href="#m621db79337" y="254.16"/>
      </g>
     </g>
     <g id="line2d_137">
      <g>
       <use style="stroke:#000000;stroke-width:0.5;" x="353.232968" xlink:href="#m0d1c8dbf6d" y="3.6"/>
      </g>
     </g>
    </g>
    <g id="xtick_31">
     <g id="line2d_138">
      <g>
       <use style="stroke:#000000;stroke-width:0.5;" x="366.076981" xlink:href="#m621db79337" y="254.16"/>
      </g>
     </g>
     <g id="line2d_139">
      <g>
       <use style="stroke:#000000;stroke-width:0.5;" x="366.076981" xlink:href="#m0d1c8dbf6d" y="3.6"/>
      </g>
     </g>
    </g>
    <g id="xtick_32">
     <g id="line2d_140">
      <g>
       <use style="stroke:#000000;stroke-width:0.5;" x="373.432371" xlink:href="#m621db79337" y="254.16"/>
      </g>
     </g>
     <g id="line2d_141">
      <g>
       <use style="stroke:#000000;stroke-width:0.5;" x="373.432371" xlink:href="#m0d1c8dbf6d" y="3.6"/>
      </g>
     </g>
    </g>
    <g id="xtick_33">
     <g id="line2d_142">
      <g>
       <use style="stroke:#000000;stroke-width:0.5;" x="381.489797" xlink:href="#m621db79337" y="254.16"/>
      </g>
     </g>
     <g id="line2d_143">
      <g>
       <use style="stroke:#000000;stroke-width:0.5;" x="381.489797" xlink:href="#m0d1c8dbf6d" y="3.6"/>
      </g>
     </g>
    </g>
    <g id="xtick_34">
     <g id="line2d_144">
      <g>
       <use style="stroke:#000000;stroke-width:0.5;" x="399.985177" xlink:href="#m621db79337" y="254.16"/>
      </g>
     </g>
     <g id="line2d_145">
      <g>
       <use style="stroke:#000000;stroke-width:0.5;" x="399.985177" xlink:href="#m0d1c8dbf6d" y="3.6"/>
      </g>
     </g>
    </g>
    <g id="xtick_35">
     <g id="line2d_146">
      <g>
       <use style="stroke:#000000;stroke-width:0.5;" x="410.576938" xlink:href="#m621db79337" y="254.16"/>
      </g>
     </g>
     <g id="line2d_147">
      <g>
       <use style="stroke:#000000;stroke-width:0.5;" x="410.576938" xlink:href="#m0d1c8dbf6d" y="3.6"/>
      </g>
     </g>
    </g>
    <g id="xtick_36">
     <g id="line2d_148">
      <g>
       <use style="stroke:#000000;stroke-width:0.5;" x="422.179632" xlink:href="#m621db79337" y="254.16"/>
      </g>
     </g>
     <g id="line2d_149">
      <g>
       <use style="stroke:#000000;stroke-width:0.5;" x="422.179632" xlink:href="#m0d1c8dbf6d" y="3.6"/>
      </g>
     </g>
    </g>
    <g id="xtick_37">
     <g id="line2d_150">
      <g>
       <use style="stroke:#000000;stroke-width:0.5;" x="448.812978" xlink:href="#m621db79337" y="254.16"/>
      </g>
     </g>
     <g id="line2d_151">
      <g>
       <use style="stroke:#000000;stroke-width:0.5;" x="448.812978" xlink:href="#m0d1c8dbf6d" y="3.6"/>
      </g>
     </g>
    </g>
    <g id="xtick_38">
     <g id="line2d_152">
      <g>
       <use style="stroke:#000000;stroke-width:0.5;" x="464.065114" xlink:href="#m621db79337" y="254.16"/>
      </g>
     </g>
     <g id="line2d_153">
      <g>
       <use style="stroke:#000000;stroke-width:0.5;" x="464.065114" xlink:href="#m0d1c8dbf6d" y="3.6"/>
      </g>
     </g>
    </g>
    <g id="xtick_39">
     <g id="line2d_154">
      <g>
       <use style="stroke:#000000;stroke-width:0.5;" x="480.772993" xlink:href="#m621db79337" y="254.16"/>
      </g>
     </g>
     <g id="line2d_155">
      <g>
       <use style="stroke:#000000;stroke-width:0.5;" x="480.772993" xlink:href="#m0d1c8dbf6d" y="3.6"/>
      </g>
     </g>
    </g>
    <g id="xtick_40">
     <g id="line2d_156">
      <g>
       <use style="stroke:#000000;stroke-width:0.5;" x="519.125011" xlink:href="#m621db79337" y="254.16"/>
      </g>
     </g>
     <g id="line2d_157">
      <g>
       <use style="stroke:#000000;stroke-width:0.5;" x="519.125011" xlink:href="#m0d1c8dbf6d" y="3.6"/>
      </g>
     </g>
    </g>
    <g id="xtick_41">
     <g id="line2d_158">
      <g>
       <use style="stroke:#000000;stroke-width:0.5;" x="541.088088" xlink:href="#m621db79337" y="254.16"/>
      </g>
     </g>
     <g id="line2d_159">
      <g>
       <use style="stroke:#000000;stroke-width:0.5;" x="541.088088" xlink:href="#m0d1c8dbf6d" y="3.6"/>
      </g>
     </g>
    </g>
    <g id="xtick_42">
     <g id="line2d_160">
      <g>
       <use style="stroke:#000000;stroke-width:0.5;" x="565.147433" xlink:href="#m621db79337" y="254.16"/>
      </g>
     </g>
     <g id="line2d_161">
      <g>
       <use style="stroke:#000000;stroke-width:0.5;" x="565.147433" xlink:href="#m0d1c8dbf6d" y="3.6"/>
      </g>
     </g>
    </g>
    <g id="text_21">
     <!-- Percentage of Pruned Weights -->
     <g transform="translate(387.795881 278.936563)scale(0.1 -0.1)">
      <use xlink:href="#DejaVuSerif-80"/>
      <use x="62.785156" xlink:href="#DejaVuSerif-101"/>
      <use x="121.964844" xlink:href="#DejaVuSerif-114"/>
      <use x="169.767578" xlink:href="#DejaVuSerif-99"/>
      <use x="225.773438" xlink:href="#DejaVuSerif-101"/>
      <use x="284.953125" xlink:href="#DejaVuSerif-110"/>
      <use x="349.357422" xlink:href="#DejaVuSerif-116"/>
      <use x="389.542969" xlink:href="#DejaVuSerif-97"/>
      <use x="449.162109" xlink:href="#DejaVuSerif-103"/>
      <use x="513.175781" xlink:href="#DejaVuSerif-101"/>
      <use x="572.355469" xlink:href="#DejaVuSerif-32"/>
      <use x="604.142578" xlink:href="#DejaVuSerif-111"/>
      <use x="664.347656" xlink:href="#DejaVuSerif-102"/>
      <use x="701.359375" xlink:href="#DejaVuSerif-32"/>
      <use x="733.146484" xlink:href="#DejaVuSerif-80"/>
      <use x="800.431641" xlink:href="#DejaVuSerif-114"/>
      <use x="848.234375" xlink:href="#DejaVuSerif-117"/>
      <use x="912.638672" xlink:href="#DejaVuSerif-110"/>
      <use x="977.042969" xlink:href="#DejaVuSerif-101"/>
      <use x="1036.222656" xlink:href="#DejaVuSerif-100"/>
      <use x="1100.236328" xlink:href="#DejaVuSerif-32"/>
      <use x="1132.023438" xlink:href="#DejaVuSerif-87"/>
      <use x="1226.681641" xlink:href="#DejaVuSerif-101"/>
      <use x="1285.861328" xlink:href="#DejaVuSerif-105"/>
      <use x="1317.84375" xlink:href="#DejaVuSerif-103"/>
      <use x="1381.857422" xlink:href="#DejaVuSerif-104"/>
      <use x="1446.261719" xlink:href="#DejaVuSerif-116"/>
      <use x="1486.447266" xlink:href="#DejaVuSerif-115"/>
     </g>
    </g>
   </g>
   <g id="matplotlib.axis_4">
    <g id="ytick_29">
     <g id="line2d_162">
      <path clip-path="url(#p07d5ff2d89)" d="M 337.866761 235.442881 
L 591.503125 235.442881 
" style="fill:none;stroke:#000000;stroke-dasharray:1.85,0.8;stroke-dashoffset:0;stroke-opacity:0.5;stroke-width:0.5;"/>
     </g>
     <g id="line2d_163">
      <g>
       <use style="stroke:#000000;stroke-width:0.5;" x="337.866761" xlink:href="#mdfa02c2ffb" y="235.442881"/>
      </g>
     </g>
     <g id="line2d_164">
      <g>
       <use style="stroke:#000000;stroke-width:0.5;" x="591.503125" xlink:href="#m1aebfa1f03" y="235.442881"/>
      </g>
     </g>
     <g id="text_22">
      <!-- 86 -->
      <g transform="translate(321.641761 239.2421)scale(0.1 -0.1)">
       <use xlink:href="#DejaVuSerif-56"/>
       <use x="63.623047" xlink:href="#DejaVuSerif-54"/>
      </g>
     </g>
    </g>
    <g id="ytick_30">
     <g id="line2d_165">
      <path clip-path="url(#p07d5ff2d89)" d="M 337.866761 202.608537 
L 591.503125 202.608537 
" style="fill:none;stroke:#000000;stroke-dasharray:1.85,0.8;stroke-dashoffset:0;stroke-opacity:0.5;stroke-width:0.5;"/>
     </g>
     <g id="line2d_166">
      <g>
       <use style="stroke:#000000;stroke-width:0.5;" x="337.866761" xlink:href="#mdfa02c2ffb" y="202.608537"/>
      </g>
     </g>
     <g id="line2d_167">
      <g>
       <use style="stroke:#000000;stroke-width:0.5;" x="591.503125" xlink:href="#m1aebfa1f03" y="202.608537"/>
      </g>
     </g>
     <g id="text_23">
      <!-- 88 -->
      <g transform="translate(321.641761 206.407756)scale(0.1 -0.1)">
       <use xlink:href="#DejaVuSerif-56"/>
       <use x="63.623047" xlink:href="#DejaVuSerif-56"/>
      </g>
     </g>
    </g>
    <g id="ytick_31">
     <g id="line2d_168">
      <path clip-path="url(#p07d5ff2d89)" d="M 337.866761 162.878981 
L 591.503125 162.878981 
" style="fill:none;stroke:#000000;stroke-dasharray:1.85,0.8;stroke-dashoffset:0;stroke-opacity:0.5;stroke-width:0.5;"/>
     </g>
     <g id="line2d_169">
      <g>
       <use style="stroke:#000000;stroke-width:0.5;" x="337.866761" xlink:href="#mdfa02c2ffb" y="162.878981"/>
      </g>
     </g>
     <g id="line2d_170">
      <g>
       <use style="stroke:#000000;stroke-width:0.5;" x="591.503125" xlink:href="#m1aebfa1f03" y="162.878981"/>
      </g>
     </g>
     <g id="text_24">
      <!-- 90 -->
      <g transform="translate(321.641761 166.6782)scale(0.1 -0.1)">
       <use xlink:href="#DejaVuSerif-57"/>
       <use x="63.623047" xlink:href="#DejaVuSerif-48"/>
      </g>
     </g>
    </g>
    <g id="ytick_32">
     <g id="line2d_171">
      <path clip-path="url(#p07d5ff2d89)" d="M 337.866761 114.806218 
L 591.503125 114.806218 
" style="fill:none;stroke:#000000;stroke-dasharray:1.85,0.8;stroke-dashoffset:0;stroke-opacity:0.5;stroke-width:0.5;"/>
     </g>
     <g id="line2d_172">
      <g>
       <use style="stroke:#000000;stroke-width:0.5;" x="337.866761" xlink:href="#mdfa02c2ffb" y="114.806218"/>
      </g>
     </g>
     <g id="line2d_173">
      <g>
       <use style="stroke:#000000;stroke-width:0.5;" x="591.503125" xlink:href="#m1aebfa1f03" y="114.806218"/>
      </g>
     </g>
     <g id="text_25">
      <!-- 92 -->
      <g transform="translate(321.641761 118.605437)scale(0.1 -0.1)">
       <use xlink:href="#DejaVuSerif-57"/>
       <use x="63.623047" xlink:href="#DejaVuSerif-50"/>
      </g>
     </g>
    </g>
    <g id="ytick_33">
     <g id="line2d_174">
      <path clip-path="url(#p07d5ff2d89)" d="M 337.866761 56.638174 
L 591.503125 56.638174 
" style="fill:none;stroke:#000000;stroke-dasharray:1.85,0.8;stroke-dashoffset:0;stroke-opacity:0.5;stroke-width:0.5;"/>
     </g>
     <g id="line2d_175">
      <g>
       <use style="stroke:#000000;stroke-width:0.5;" x="337.866761" xlink:href="#mdfa02c2ffb" y="56.638174"/>
      </g>
     </g>
     <g id="line2d_176">
      <g>
       <use style="stroke:#000000;stroke-width:0.5;" x="591.503125" xlink:href="#m1aebfa1f03" y="56.638174"/>
      </g>
     </g>
     <g id="text_26">
      <!-- 94 -->
      <g transform="translate(321.641761 60.437393)scale(0.1 -0.1)">
       <use xlink:href="#DejaVuSerif-57"/>
       <use x="63.623047" xlink:href="#DejaVuSerif-52"/>
      </g>
     </g>
    </g>
    <g id="ytick_34">
     <g id="line2d_177">
      <g>
       <use style="stroke:#000000;stroke-width:0.5;" x="337.866761" xlink:href="#m6d0d6e87ea" y="249.656883"/>
      </g>
     </g>
     <g id="line2d_178">
      <g>
       <use style="stroke:#000000;stroke-width:0.5;" x="591.503125" xlink:href="#m70abfe1729" y="249.656883"/>
      </g>
     </g>
    </g>
    <g id="ytick_35">
     <g id="line2d_179">
      <g>
       <use style="stroke:#000000;stroke-width:0.5;" x="337.866761" xlink:href="#m6d0d6e87ea" y="242.719193"/>
      </g>
     </g>
     <g id="line2d_180">
      <g>
       <use style="stroke:#000000;stroke-width:0.5;" x="591.503125" xlink:href="#m70abfe1729" y="242.719193"/>
      </g>
     </g>
    </g>
    <g id="ytick_36">
     <g id="line2d_181">
      <g>
       <use style="stroke:#000000;stroke-width:0.5;" x="337.866761" xlink:href="#m6d0d6e87ea" y="227.811422"/>
      </g>
     </g>
     <g id="line2d_182">
      <g>
       <use style="stroke:#000000;stroke-width:0.5;" x="591.503125" xlink:href="#m70abfe1729" y="227.811422"/>
      </g>
     </g>
    </g>
    <g id="ytick_37">
     <g id="line2d_183">
      <g>
       <use style="stroke:#000000;stroke-width:0.5;" x="337.866761" xlink:href="#m6d0d6e87ea" y="219.80748"/>
      </g>
     </g>
     <g id="line2d_184">
      <g>
       <use style="stroke:#000000;stroke-width:0.5;" x="591.503125" xlink:href="#m70abfe1729" y="219.80748"/>
      </g>
     </g>
    </g>
    <g id="ytick_38">
     <g id="line2d_185">
      <g>
       <use style="stroke:#000000;stroke-width:0.5;" x="337.866761" xlink:href="#m6d0d6e87ea" y="211.412874"/>
      </g>
     </g>
     <g id="line2d_186">
      <g>
       <use style="stroke:#000000;stroke-width:0.5;" x="591.503125" xlink:href="#m70abfe1729" y="211.412874"/>
      </g>
     </g>
    </g>
    <g id="ytick_39">
     <g id="line2d_187">
      <g>
       <use style="stroke:#000000;stroke-width:0.5;" x="337.866761" xlink:href="#m6d0d6e87ea" y="193.374471"/>
      </g>
     </g>
     <g id="line2d_188">
      <g>
       <use style="stroke:#000000;stroke-width:0.5;" x="591.503125" xlink:href="#m70abfe1729" y="193.374471"/>
      </g>
     </g>
    </g>
    <g id="ytick_40">
     <g id="line2d_189">
      <g>
       <use style="stroke:#000000;stroke-width:0.5;" x="337.866761" xlink:href="#m6d0d6e87ea" y="183.689701"/>
      </g>
     </g>
     <g id="line2d_190">
      <g>
       <use style="stroke:#000000;stroke-width:0.5;" x="591.503125" xlink:href="#m70abfe1729" y="183.689701"/>
      </g>
     </g>
    </g>
    <g id="ytick_41">
     <g id="line2d_191">
      <g>
       <use style="stroke:#000000;stroke-width:0.5;" x="337.866761" xlink:href="#m6d0d6e87ea" y="173.532228"/>
      </g>
     </g>
     <g id="line2d_192">
      <g>
       <use style="stroke:#000000;stroke-width:0.5;" x="591.503125" xlink:href="#m70abfe1729" y="173.532228"/>
      </g>
     </g>
    </g>
    <g id="ytick_42">
     <g id="line2d_193">
      <g>
       <use style="stroke:#000000;stroke-width:0.5;" x="337.866761" xlink:href="#m6d0d6e87ea" y="151.705761"/>
      </g>
     </g>
     <g id="line2d_194">
      <g>
       <use style="stroke:#000000;stroke-width:0.5;" x="591.503125" xlink:href="#m70abfe1729" y="151.705761"/>
      </g>
     </g>
    </g>
    <g id="ytick_43">
     <g id="line2d_195">
      <g>
       <use style="stroke:#000000;stroke-width:0.5;" x="337.866761" xlink:href="#m6d0d6e87ea" y="139.987189"/>
      </g>
     </g>
     <g id="line2d_196">
      <g>
       <use style="stroke:#000000;stroke-width:0.5;" x="591.503125" xlink:href="#m70abfe1729" y="139.987189"/>
      </g>
     </g>
    </g>
    <g id="ytick_44">
     <g id="line2d_197">
      <g>
       <use style="stroke:#000000;stroke-width:0.5;" x="337.866761" xlink:href="#m6d0d6e87ea" y="127.696647"/>
      </g>
     </g>
     <g id="line2d_198">
      <g>
       <use style="stroke:#000000;stroke-width:0.5;" x="591.503125" xlink:href="#m70abfe1729" y="127.696647"/>
      </g>
     </g>
    </g>
    <g id="ytick_45">
     <g id="line2d_199">
      <g>
       <use style="stroke:#000000;stroke-width:0.5;" x="337.866761" xlink:href="#m6d0d6e87ea" y="101.286622"/>
      </g>
     </g>
     <g id="line2d_200">
      <g>
       <use style="stroke:#000000;stroke-width:0.5;" x="591.503125" xlink:href="#m70abfe1729" y="101.286622"/>
      </g>
     </g>
    </g>
    <g id="ytick_46">
     <g id="line2d_201">
      <g>
       <use style="stroke:#000000;stroke-width:0.5;" x="337.866761" xlink:href="#m6d0d6e87ea" y="87.10715"/>
      </g>
     </g>
     <g id="line2d_202">
      <g>
       <use style="stroke:#000000;stroke-width:0.5;" x="591.503125" xlink:href="#m70abfe1729" y="87.10715"/>
      </g>
     </g>
    </g>
    <g id="ytick_47">
     <g id="line2d_203">
      <g>
       <use style="stroke:#000000;stroke-width:0.5;" x="337.866761" xlink:href="#m6d0d6e87ea" y="72.235594"/>
      </g>
     </g>
     <g id="line2d_204">
      <g>
       <use style="stroke:#000000;stroke-width:0.5;" x="591.503125" xlink:href="#m70abfe1729" y="72.235594"/>
      </g>
     </g>
    </g>
    <g id="ytick_48">
     <g id="line2d_205">
      <g>
       <use style="stroke:#000000;stroke-width:0.5;" x="337.866761" xlink:href="#m6d0d6e87ea" y="40.279463"/>
      </g>
     </g>
     <g id="line2d_206">
      <g>
       <use style="stroke:#000000;stroke-width:0.5;" x="591.503125" xlink:href="#m70abfe1729" y="40.279463"/>
      </g>
     </g>
    </g>
    <g id="ytick_49">
     <g id="line2d_207">
      <g>
       <use style="stroke:#000000;stroke-width:0.5;" x="337.866761" xlink:href="#m6d0d6e87ea" y="23.122302"/>
      </g>
     </g>
     <g id="line2d_208">
      <g>
       <use style="stroke:#000000;stroke-width:0.5;" x="591.503125" xlink:href="#m70abfe1729" y="23.122302"/>
      </g>
     </g>
    </g>
    <g id="ytick_50">
     <g id="line2d_209">
      <g>
       <use style="stroke:#000000;stroke-width:0.5;" x="337.866761" xlink:href="#m6d0d6e87ea" y="5.127719"/>
      </g>
     </g>
     <g id="line2d_210">
      <g>
       <use style="stroke:#000000;stroke-width:0.5;" x="591.503125" xlink:href="#m70abfe1729" y="5.127719"/>
      </g>
     </g>
    </g>
    <g id="text_27">
     <!-- Test Accuracy in Percent -->
     <g transform="translate(315.419886 191.853438)rotate(-90)scale(0.1 -0.1)">
      <use xlink:href="#DejaVuSerif-84"/>
      <use x="58.949219" xlink:href="#DejaVuSerif-101"/>
      <use x="118.128906" xlink:href="#DejaVuSerif-115"/>
      <use x="169.447266" xlink:href="#DejaVuSerif-116"/>
      <use x="209.632812" xlink:href="#DejaVuSerif-32"/>
      <use x="241.419922" xlink:href="#DejaVuSerif-65"/>
      <use x="313.636719" xlink:href="#DejaVuSerif-99"/>
      <use x="369.642578" xlink:href="#DejaVuSerif-99"/>
      <use x="425.648438" xlink:href="#DejaVuSerif-117"/>
      <use x="490.052734" xlink:href="#DejaVuSerif-114"/>
      <use x="537.855469" xlink:href="#DejaVuSerif-97"/>
      <use x="597.474609" xlink:href="#DejaVuSerif-99"/>
      <use x="653.480469" xlink:href="#DejaVuSerif-121"/>
      <use x="709.974609" xlink:href="#DejaVuSerif-32"/>
      <use x="741.761719" xlink:href="#DejaVuSerif-105"/>
      <use x="773.744141" xlink:href="#DejaVuSerif-110"/>
      <use x="838.148438" xlink:href="#DejaVuSerif-32"/>
      <use x="869.935547" xlink:href="#DejaVuSerif-80"/>
      <use x="932.720703" xlink:href="#DejaVuSerif-101"/>
      <use x="991.900391" xlink:href="#DejaVuSerif-114"/>
      <use x="1039.703125" xlink:href="#DejaVuSerif-99"/>
      <use x="1095.708984" xlink:href="#DejaVuSerif-101"/>
      <use x="1154.888672" xlink:href="#DejaVuSerif-110"/>
      <use x="1219.292969" xlink:href="#DejaVuSerif-116"/>
     </g>
    </g>
   </g>
   <g id="line2d_211">
    <path clip-path="url(#p07d5ff2d89)" d="M 289.012905 65.594466 
L 289.013042 49.893289 
L 289.015491 47.102965 
L 289.039616 40.381836 
L 289.039618 42.74695 
L 289.18572 39.422708 
L 289.185733 32.503593 
L 289.78249 37.928725 
L 289.782546 36.037864 
L 291.555025 38.777049 
L 291.555211 37.078363 
L 295.62483 38.02948 
L 295.625312 39.924071 
L 303.218573 42.580775 
L 315.203089 41.261357 
L 331.739731 47.128205 
L 352.217738 52.661025 
L 375.466623 57.836139 
L 400.082336 65.821307 
L 424.741128 73.836809 
L 448.350402 86.376705 
L 470.165998 98.078123 
L 489.737708 115.842751 
L 506.916439 139.55535 
L 521.715484 167.29469 
L 534.269803 186.826336 
" style="fill:none;stroke:#0c5da5;stroke-linecap:square;"/>
   </g>
   <g id="line2d_212">
    <path clip-path="url(#p07d5ff2d89)" d="M 289.012905 43.971644 
L 289.013042 35.477335 
L 289.015491 33.292008 
L 289.039616 30.15441 
L 289.18572 30.881916 
L 289.78249 30.591089 
L 291.555025 32.806023 
L 295.62483 33.383877 
L 303.218573 33.58066 
L 315.203089 32.912617 
L 315.204999 34.078694 
L 331.739731 38.934986 
L 331.742847 40.052878 
L 352.217738 39.637666 
L 352.222347 37.208211 
L 375.466623 44.277146 
L 375.472928 42.36335 
L 400.082336 49.775043 
L 400.090436 54.555466 
L 424.741128 59.750303 
L 448.350402 67.559146 
L 470.165998 77.5173 
L 489.737708 87.593142 
L 506.916439 103.046904 
L 521.715484 120.391794 
L 534.269803 136.395742 
L 544.796395 160.393096 
L 553.556521 190.20031 
" style="fill:none;stroke:#00b945;stroke-linecap:square;"/>
   </g>
   <g id="line2d_213">
    <path clip-path="url(#p07d5ff2d89)" d="M 289.012905 47.115585 
L 289.013042 32.898017 
L 289.015491 30.617538 
L 289.039616 36.779531 
L 289.18572 27.563233 
L 289.78249 29.955745 
L 291.555025 38.93068 
L 295.62483 29.849745 
L 303.218573 30.114686 
L 315.203089 34.445223 
L 331.739731 45.775296 
L 352.217738 42.874724 
L 375.466623 48.526099 
L 400.082336 50.793399 
L 424.741128 77.367678 
L 448.350402 77.729461 
L 470.165998 78.839053 
L 489.737708 100.616942 
L 506.916439 111.66397 
L 521.715484 143.633034 
L 534.269803 152.097492 
L 544.796395 193.724325 
L 553.556521 202.099434 
" style="fill:none;stroke:#ff9500;stroke-linecap:square;"/>
   </g>
   <g id="patch_8">
    <path d="M 337.866761 254.16 
L 337.866761 3.6 
" style="fill:none;stroke:#000000;stroke-linecap:square;stroke-linejoin:miter;stroke-width:0.5;"/>
   </g>
   <g id="patch_9">
    <path d="M 591.503125 254.16 
L 591.503125 3.6 
" style="fill:none;stroke:#000000;stroke-linecap:square;stroke-linejoin:miter;stroke-width:0.5;"/>
   </g>
   <g id="patch_10">
    <path d="M 337.866761 254.16 
L 591.503125 254.16 
" style="fill:none;stroke:#000000;stroke-linecap:square;stroke-linejoin:miter;stroke-width:0.5;"/>
   </g>
   <g id="patch_11">
    <path d="M 337.866761 3.6 
L 591.503125 3.6 
" style="fill:none;stroke:#000000;stroke-linecap:square;stroke-linejoin:miter;stroke-width:0.5;"/>
   </g>
  </g>
  <g id="legend_1">
   <g id="patch_12">
    <path d="M 48.367188 309.670125 
L 558.639063 309.670125 
Q 560.639063 309.670125 560.639063 307.670125 
L 560.639063 293.992 
Q 560.639063 291.992 558.639063 291.992 
L 48.367188 291.992 
Q 46.367188 291.992 46.367188 293.992 
L 46.367188 307.670125 
Q 46.367188 309.670125 48.367188 309.670125 
z
" style="fill:#ffffff;stroke:#cccccc;stroke-linejoin:miter;"/>
   </g>
   <g id="line2d_214">
    <path d="M 50.367188 300.090438 
L 70.367188 300.090438 
" style="fill:none;stroke:#0c5da5;stroke-linecap:square;"/>
   </g>
   <g id="line2d_215"/>
   <g id="text_28">
    <!-- ReLU ResNet20 -->
    <defs>
     <path d="M 47.90625 36.1875 
Q 51.3125 35.25 53.78125 33.03125 
Q 56.25 30.8125 58.203125 26.8125 
L 68.796875 5.171875 
L 77.6875 5.171875 
L 77.6875 0 
L 60.5 0 
L 49.125 23.1875 
Q 45.84375 29.9375 43.109375 31.90625 
Q 40.375 33.890625 35.59375 33.890625 
L 24.703125 33.890625 
L 24.703125 5.171875 
L 35.015625 5.171875 
L 35.015625 0 
L 5.515625 0 
L 5.515625 5.171875 
L 14.796875 5.171875 
L 14.796875 67.671875 
L 5.515625 67.671875 
L 5.515625 72.90625 
L 42.484375 72.90625 
Q 53.125 72.90625 58.90625 67.828125 
Q 64.703125 62.75 64.703125 53.421875 
Q 64.703125 45.90625 60.46875 41.578125 
Q 56.25 37.25 47.90625 36.1875 
z
M 24.703125 39.109375 
L 39.109375 39.109375 
Q 46.484375 39.109375 50 42.59375 
Q 53.515625 46.09375 53.515625 53.421875 
Q 53.515625 60.75 50 64.203125 
Q 46.484375 67.671875 39.109375 67.671875 
L 24.703125 67.671875 
z
" id="DejaVuSerif-82"/>
     <path d="M 5.515625 0 
L 5.515625 5.171875 
L 14.796875 5.171875 
L 14.796875 67.671875 
L 5.515625 67.671875 
L 5.515625 72.90625 
L 33.984375 72.90625 
L 33.984375 67.671875 
L 24.703125 67.671875 
L 24.703125 6 
L 58.015625 6 
L 58.015625 18.21875 
L 64.015625 18.21875 
L 64.015625 0 
z
" id="DejaVuSerif-76"/>
     <path d="M 14.015625 67.671875 
L 4.6875 67.671875 
L 4.6875 72.90625 
L 33.203125 72.90625 
L 33.203125 67.671875 
L 23.875 67.671875 
L 23.875 29.984375 
Q 23.875 16.015625 28.4375 10.5 
Q 33.015625 4.984375 44.1875 4.984375 
Q 55.375 4.984375 59.9375 10.5 
Q 64.5 16.015625 64.5 29.984375 
L 64.5 67.671875 
L 55.171875 67.671875 
L 55.171875 72.90625 
L 79.78125 72.90625 
L 79.78125 67.671875 
L 70.515625 67.671875 
L 70.515625 29 
Q 70.515625 12.359375 64.109375 5.46875 
Q 57.71875 -1.421875 42.390625 -1.421875 
Q 27.046875 -1.421875 20.53125 5.515625 
Q 14.015625 12.453125 14.015625 29 
z
" id="DejaVuSerif-85"/>
     <path d="M 4.890625 0 
L 4.890625 5.171875 
L 14.703125 5.171875 
L 14.703125 67.671875 
L 4.890625 67.671875 
L 4.890625 72.90625 
L 23.578125 72.90625 
L 67.28125 15.375 
L 67.28125 67.671875 
L 57.515625 67.671875 
L 57.515625 72.90625 
L 83.109375 72.90625 
L 83.109375 67.671875 
L 73.296875 67.671875 
L 73.296875 -1.421875 
L 67.390625 -1.421875 
L 20.703125 60.015625 
L 20.703125 5.171875 
L 30.515625 5.171875 
L 30.515625 0 
z
" id="DejaVuSerif-78"/>
    </defs>
    <g transform="translate(78.367188 303.590438)scale(0.1 -0.1)">
     <use xlink:href="#DejaVuSerif-82"/>
     <use x="75.292969" xlink:href="#DejaVuSerif-101"/>
     <use x="134.472656" xlink:href="#DejaVuSerif-76"/>
     <use x="195.378906" xlink:href="#DejaVuSerif-85"/>
     <use x="279.65625" xlink:href="#DejaVuSerif-32"/>
     <use x="311.443359" xlink:href="#DejaVuSerif-82"/>
     <use x="386.736328" xlink:href="#DejaVuSerif-101"/>
     <use x="445.916016" xlink:href="#DejaVuSerif-115"/>
     <use x="497.234375" xlink:href="#DejaVuSerif-78"/>
     <use x="584.734375" xlink:href="#DejaVuSerif-101"/>
     <use x="643.914062" xlink:href="#DejaVuSerif-116"/>
     <use x="684.099609" xlink:href="#DejaVuSerif-50"/>
     <use x="747.722656" xlink:href="#DejaVuSerif-48"/>
    </g>
   </g>
   <g id="line2d_216">
    <path d="M 179.504687 300.090438 
L 199.504687 300.090438 
" style="fill:none;stroke:#00b945;stroke-linecap:square;"/>
   </g>
   <g id="line2d_217"/>
   <g id="text_29">
    <!-- Univariate Rational ResNet20 -->
    <defs>
     <path d="M 24.703125 0 
L 5.609375 46.6875 
L -0.296875 46.6875 
L -0.296875 51.90625 
L 23.578125 51.90625 
L 23.578125 46.6875 
L 15.28125 46.6875 
L 29.890625 10.984375 
L 44.484375 46.6875 
L 36.71875 46.6875 
L 36.71875 51.90625 
L 56.203125 51.90625 
L 56.203125 46.6875 
L 50.390625 46.6875 
L 31.296875 0 
z
" id="DejaVuSerif-118"/>
     <path d="M 20.515625 5.171875 
L 29 5.171875 
L 29 0 
L 2.875 0 
L 2.875 5.171875 
L 11.53125 5.171875 
L 11.53125 70.796875 
L 2.875 70.796875 
L 2.875 75.984375 
L 20.515625 75.984375 
z
" id="DejaVuSerif-108"/>
    </defs>
    <g transform="translate(207.504687 303.590438)scale(0.1 -0.1)">
     <use xlink:href="#DejaVuSerif-85"/>
     <use x="84.277344" xlink:href="#DejaVuSerif-110"/>
     <use x="148.681641" xlink:href="#DejaVuSerif-105"/>
     <use x="180.664062" xlink:href="#DejaVuSerif-118"/>
     <use x="237.158203" xlink:href="#DejaVuSerif-97"/>
     <use x="296.777344" xlink:href="#DejaVuSerif-114"/>
     <use x="344.580078" xlink:href="#DejaVuSerif-105"/>
     <use x="376.5625" xlink:href="#DejaVuSerif-97"/>
     <use x="436.181641" xlink:href="#DejaVuSerif-116"/>
     <use x="476.367188" xlink:href="#DejaVuSerif-101"/>
     <use x="535.546875" xlink:href="#DejaVuSerif-32"/>
     <use x="567.333984" xlink:href="#DejaVuSerif-82"/>
     <use x="644.876953" xlink:href="#DejaVuSerif-97"/>
     <use x="704.496094" xlink:href="#DejaVuSerif-116"/>
     <use x="744.681641" xlink:href="#DejaVuSerif-105"/>
     <use x="776.664062" xlink:href="#DejaVuSerif-111"/>
     <use x="836.869141" xlink:href="#DejaVuSerif-110"/>
     <use x="901.273438" xlink:href="#DejaVuSerif-97"/>
     <use x="960.892578" xlink:href="#DejaVuSerif-108"/>
     <use x="992.875" xlink:href="#DejaVuSerif-32"/>
     <use x="1024.662109" xlink:href="#DejaVuSerif-82"/>
     <use x="1099.955078" xlink:href="#DejaVuSerif-101"/>
     <use x="1159.134766" xlink:href="#DejaVuSerif-115"/>
     <use x="1210.453125" xlink:href="#DejaVuSerif-78"/>
     <use x="1297.953125" xlink:href="#DejaVuSerif-101"/>
     <use x="1357.132812" xlink:href="#DejaVuSerif-116"/>
     <use x="1397.318359" xlink:href="#DejaVuSerif-50"/>
     <use x="1460.941406" xlink:href="#DejaVuSerif-48"/>
    </g>
   </g>
   <g id="line2d_218">
    <path d="M 379.967188 300.090438 
L 399.967188 300.090438 
" style="fill:none;stroke:#ff9500;stroke-linecap:square;"/>
   </g>
   <g id="line2d_219"/>
   <g id="text_30">
    <!-- Mixture of Experts ResNet20 -->
    <defs>
     <path d="M 5.515625 0 
L 5.515625 5.171875 
L 14.796875 5.171875 
L 14.796875 67.671875 
L 4.984375 67.671875 
L 4.984375 72.90625 
L 26.21875 72.90625 
L 51.8125 21 
L 77.390625 72.90625 
L 97.3125 72.90625 
L 97.3125 67.671875 
L 87.59375 67.671875 
L 87.59375 5.171875 
L 96.921875 5.171875 
L 96.921875 0 
L 68.40625 0 
L 68.40625 5.171875 
L 77.6875 5.171875 
L 77.6875 61.53125 
L 52.6875 10.6875 
L 45.796875 10.6875 
L 20.796875 61.53125 
L 20.796875 5.171875 
L 30.078125 5.171875 
L 30.078125 0 
z
" id="DejaVuSerif-77"/>
     <path d="M 29.109375 31.6875 
L 39.984375 46.6875 
L 33.015625 46.6875 
L 33.015625 51.90625 
L 52.984375 51.90625 
L 52.984375 46.6875 
L 46.09375 46.6875 
L 32.171875 27.484375 
L 48.390625 5.171875 
L 55.171875 5.171875 
L 55.171875 0 
L 31.203125 0 
L 31.203125 5.171875 
L 37.796875 5.171875 
L 26.515625 20.703125 
L 15.1875 5.171875 
L 21.921875 5.171875 
L 21.921875 0 
L 2.203125 0 
L 2.203125 5.171875 
L 9.078125 5.171875 
L 23.390625 24.90625 
L 7.625 46.6875 
L 1.21875 46.6875 
L 1.21875 51.90625 
L 24.421875 51.90625 
L 24.421875 46.6875 
L 18.21875 46.6875 
z
" id="DejaVuSerif-120"/>
     <path d="M 5.515625 0 
L 5.515625 5.171875 
L 14.796875 5.171875 
L 14.796875 67.671875 
L 5.515625 67.671875 
L 5.515625 72.90625 
L 64.203125 72.90625 
L 64.203125 56.6875 
L 58.203125 56.6875 
L 58.203125 66.890625 
L 24.703125 66.890625 
L 24.703125 42.484375 
L 48.578125 42.484375 
L 48.578125 51.609375 
L 54.59375 51.609375 
L 54.59375 27.390625 
L 48.578125 27.390625 
L 48.578125 36.53125 
L 24.703125 36.53125 
L 24.703125 6 
L 58.984375 6 
L 58.984375 16.21875 
L 64.984375 16.21875 
L 64.984375 0 
z
" id="DejaVuSerif-69"/>
     <path d="M 20.515625 28.515625 
L 20.515625 23.390625 
Q 20.515625 14.015625 24.09375 9.109375 
Q 27.6875 4.203125 34.515625 4.203125 
Q 41.40625 4.203125 44.9375 9.71875 
Q 48.484375 15.234375 48.484375 25.984375 
Q 48.484375 36.765625 44.9375 42.234375 
Q 41.40625 47.703125 34.515625 47.703125 
Q 27.6875 47.703125 24.09375 42.765625 
Q 20.515625 37.84375 20.515625 28.515625 
z
M 11.53125 46.6875 
L 2.875 46.6875 
L 2.875 51.90625 
L 20.515625 51.90625 
L 20.515625 43.796875 
Q 23.140625 48.6875 27.21875 51 
Q 31.296875 53.328125 37.3125 53.328125 
Q 46.875 53.328125 52.921875 45.75 
Q 58.984375 38.1875 58.984375 25.984375 
Q 58.984375 13.765625 52.921875 6.171875 
Q 46.875 -1.421875 37.3125 -1.421875 
Q 31.296875 -1.421875 27.21875 0.890625 
Q 23.140625 3.21875 20.515625 8.109375 
L 20.515625 -15.578125 
L 29 -15.578125 
L 29 -20.796875 
L 2.875 -20.796875 
L 2.875 -15.578125 
L 11.53125 -15.578125 
z
" id="DejaVuSerif-112"/>
    </defs>
    <g transform="translate(407.967188 303.590438)scale(0.1 -0.1)">
     <use xlink:href="#DejaVuSerif-77"/>
     <use x="102.392578" xlink:href="#DejaVuSerif-105"/>
     <use x="134.375" xlink:href="#DejaVuSerif-120"/>
     <use x="190.771484" xlink:href="#DejaVuSerif-116"/>
     <use x="230.957031" xlink:href="#DejaVuSerif-117"/>
     <use x="295.361328" xlink:href="#DejaVuSerif-114"/>
     <use x="343.164062" xlink:href="#DejaVuSerif-101"/>
     <use x="402.34375" xlink:href="#DejaVuSerif-32"/>
     <use x="434.130859" xlink:href="#DejaVuSerif-111"/>
     <use x="494.335938" xlink:href="#DejaVuSerif-102"/>
     <use x="531.347656" xlink:href="#DejaVuSerif-32"/>
     <use x="563.134766" xlink:href="#DejaVuSerif-69"/>
     <use x="636.132812" xlink:href="#DejaVuSerif-120"/>
     <use x="692.529297" xlink:href="#DejaVuSerif-112"/>
     <use x="756.542969" xlink:href="#DejaVuSerif-101"/>
     <use x="815.722656" xlink:href="#DejaVuSerif-114"/>
     <use x="863.525391" xlink:href="#DejaVuSerif-116"/>
     <use x="903.710938" xlink:href="#DejaVuSerif-115"/>
     <use x="955.029297" xlink:href="#DejaVuSerif-32"/>
     <use x="986.816406" xlink:href="#DejaVuSerif-82"/>
     <use x="1062.109375" xlink:href="#DejaVuSerif-101"/>
     <use x="1121.289062" xlink:href="#DejaVuSerif-115"/>
     <use x="1172.607422" xlink:href="#DejaVuSerif-78"/>
     <use x="1260.107422" xlink:href="#DejaVuSerif-101"/>
     <use x="1319.287109" xlink:href="#DejaVuSerif-116"/>
     <use x="1359.472656" xlink:href="#DejaVuSerif-50"/>
     <use x="1423.095703" xlink:href="#DejaVuSerif-48"/>
    </g>
   </g>
  </g>
 </g>
 <defs>
  <clipPath id="p67955f3b26">
   <rect height="250.56" width="253.636364" x="33.503125" y="3.6"/>
  </clipPath>
  <clipPath id="p07d5ff2d89">
   <rect height="250.56" width="253.636364" x="337.866761" y="3.6"/>
  </clipPath>
 </defs>
</svg>
