<?xml version="1.0" encoding="utf-8" standalone="no"?>
<!DOCTYPE svg PUBLIC "-//W3C//DTD SVG 1.1//EN"
  "http://www.w3.org/Graphics/SVG/1.1/DTD/svg11.dtd">
<!-- Created with matplotlib (https://matplotlib.org/) -->
<svg height="356.038125pt" version="1.1" viewBox="0 0 615.879688 356.038125" width="615.879688pt" xmlns="http://www.w3.org/2000/svg" xmlns:xlink="http://www.w3.org/1999/xlink">
 <defs>
  <style type="text/css">
*{stroke-linecap:butt;stroke-linejoin:round;}
  </style>
 </defs>
 <g id="figure_1">
  <g id="patch_1">
   <path d="M 0 356.038125 
L 615.879687 356.038125 
L 615.879687 0 
L 0 0 
z
" style="fill:#ffffff;"/>
  </g>
  <g id="axes_1">
   <g id="patch_2">
    <path d="M 44.735938 254.16 
L 298.372301 254.16 
L 298.372301 3.6 
L 44.735938 3.6 
z
" style="fill:#ffffff;"/>
   </g>
   <g id="PolyCollection_1">
    <defs>
     <path d="M -4.117919 -298.323009 
L -4.117919 -293.598927 
L -4.117782 -299.967397 
L -4.115333 -306.12918 
L -4.091209 -306.325687 
L -3.94511 -309.10537 
L -3.348376 -309.45282 
L -1.575984 -311.76114 
L 2.493644 -309.610777 
L 10.086196 -308.12183 
L 22.07131 -307.817769 
L 38.60657 -304.356232 
L 59.083457 -303.668813 
L 82.33107 -301.650755 
L 106.947462 -294.263087 
L 131.605355 -290.508036 
L 155.219578 -284.527542 
L 177.035174 -278.382522 
L 196.614204 -268.270388 
L 213.797534 -255.741324 
L 228.58466 -236.900123 
L 241.147922 -220.84154 
L 251.674898 -213.960985 
L 251.674898 -219.540206 
L 251.674898 -219.540206 
L 241.147922 -235.742206 
L 228.58466 -249.181727 
L 213.797534 -261.972383 
L 196.614204 -273.824685 
L 177.035174 -282.911282 
L 155.219578 -289.175952 
L 131.605355 -294.620059 
L 106.947462 -298.615014 
L 82.33107 -304.307826 
L 59.083457 -306.743377 
L 38.60657 -308.486337 
L 22.07131 -311.410356 
L 10.086196 -312.205988 
L 2.493644 -313.063542 
L -1.575984 -315.169968 
L -3.348376 -315.144262 
L -3.94511 -312.012897 
L -4.091209 -309.595225 
L -4.115333 -308.519147 
L -4.117782 -302.701691 
L -4.117919 -298.323009 
z
" id="mfffad4689e" style="stroke:#0c5da5;stroke-opacity:0.2;"/>
    </defs>
    <g clip-path="url(#p882a089edc)">
     <use style="fill:#0c5da5;fill-opacity:0.2;stroke:#0c5da5;stroke-opacity:0.2;" x="0" xlink:href="#mfffad4689e" y="356.038125"/>
    </g>
   </g>
   <g id="PolyCollection_2">
    <defs>
     <path d="M -4.117919 -309.885288 
L -4.117919 -305.142937 
L -4.117782 -311.3182 
L -4.115333 -316.106224 
L -4.091209 -315.645928 
L -3.94511 -315.09201 
L -3.348376 -315.058669 
L -1.575984 -315.109639 
L 2.493644 -315.518016 
L 10.086196 -314.184579 
L 22.07131 -313.079963 
L 38.60657 -311.250935 
L 59.083457 -310.008646 
L 82.33107 -307.062387 
L 106.947462 -303.095884 
L 131.605355 -299.97653 
L 155.219578 -297.049813 
L 177.035174 -292.078567 
L 196.614204 -286.469421 
L 213.797534 -277.830331 
L 228.58466 -270.548131 
L 241.147922 -263.465037 
L 251.674898 -251.952807 
L 260.425697 -237.049738 
L 267.641395 -221.496641 
L 273.551355 -219.165953 
L 273.551355 -229.989672 
L 273.551355 -229.989672 
L 267.641395 -229.957399 
L 260.425697 -242.023398 
L 251.674898 -258.10451 
L 241.147922 -268.570353 
L 228.58466 -278.504489 
L 213.797534 -282.845622 
L 196.614204 -289.424946 
L 177.035174 -294.945244 
L 155.219578 -302.308604 
L 131.605355 -306.826723 
L 106.947462 -309.421532 
L 82.33107 -311.66947 
L 59.083457 -314.611038 
L 38.60657 -314.974593 
L 22.07131 -318.939225 
L 10.086196 -318.707026 
L 2.493644 -318.102787 
L -1.575984 -320.179605 
L -3.348376 -319.337904 
L -3.94511 -320.360251 
L -4.091209 -318.715007 
L -4.115333 -317.861956 
L -4.117782 -315.818006 
L -4.117919 -309.885288 
z
" id="m02a1b5ac27" style="stroke:#00b945;stroke-opacity:0.2;"/>
    </defs>
    <g clip-path="url(#p882a089edc)">
     <use style="fill:#00b945;fill-opacity:0.2;stroke:#00b945;stroke-opacity:0.2;" x="0" xlink:href="#m02a1b5ac27" y="356.038125"/>
    </g>
   </g>
   <g id="PolyCollection_3">
    <defs>
     <path d="M -4.117919 -311.376916 
L -4.117919 -307.267719 
L -4.117782 -302.883709 
L -4.115333 -312.406798 
L -4.091209 -317.183796 
L -3.94511 -316.892532 
L -3.348376 -305.451521 
L -1.575984 -313.576322 
L 2.493644 -314.311757 
L 10.086196 -311.903531 
L 22.07131 -110.322745 
L 38.60657 -314.037574 
L 59.083457 -104.297904 
L 82.33107 -301.460012 
L 106.947462 -188.88261 
L 131.605355 -284.69173 
L 155.219578 -288.191423 
L 177.035174 -127.086637 
L 196.614204 -283.972322 
L 213.797534 -274.516752 
L 228.58466 -269.570106 
L 241.147922 -258.861048 
L 251.674898 -225.861738 
L 260.425697 -227.641664 
L 267.641395 -208.632824 
L 267.641395 -239.082274 
L 267.641395 -239.082274 
L 260.425697 -240.747692 
L 251.674898 -259.538994 
L 241.147922 -264.906828 
L 228.58466 -275.008356 
L 213.797534 -286.084385 
L 196.614204 -292.626006 
L 177.035174 -294.963891 
L 155.219578 -304.296254 
L 131.605355 -308.265754 
L 106.947462 -313.094702 
L 82.33107 -314.08644 
L 59.083457 -317.695572 
L 38.60657 -319.015787 
L 22.07131 -321.206902 
L 10.086196 -318.335467 
L 2.493644 -318.835614 
L -1.575984 -319.32947 
L -3.348376 -321.745703 
L -3.94511 -320.951349 
L -4.091209 -321.614218 
L -4.115333 -318.965135 
L -4.117782 -317.990942 
L -4.117919 -311.376916 
z
" id="m03b3349ebb" style="stroke:#ff9500;stroke-opacity:0.2;"/>
    </defs>
    <g clip-path="url(#p882a089edc)">
     <use style="fill:#ff9500;fill-opacity:0.2;stroke:#ff9500;stroke-opacity:0.2;" x="0" xlink:href="#m03b3349ebb" y="356.038125"/>
    </g>
   </g>
   <g id="matplotlib.axis_1">
    <g id="xtick_1">
     <g id="line2d_1">
      <path clip-path="url(#p882a089edc)" d="M 44.735938 254.16 
L 44.735938 3.6 
" style="fill:none;stroke:#000000;stroke-dasharray:1.85,0.8;stroke-dashoffset:0;stroke-opacity:0.5;stroke-width:0.5;"/>
     </g>
     <g id="line2d_2">
      <defs>
       <path d="M 0 0 
L 0 -3 
" id="m80d8460d41" style="stroke:#000000;stroke-width:0.5;"/>
      </defs>
      <g>
       <use style="stroke:#000000;stroke-width:0.5;" x="44.735938" xlink:href="#m80d8460d41" y="254.16"/>
      </g>
     </g>
     <g id="line2d_3">
      <defs>
       <path d="M 0 0 
L 0 3 
" id="m64a3152e13" style="stroke:#000000;stroke-width:0.5;"/>
      </defs>
      <g>
       <use style="stroke:#000000;stroke-width:0.5;" x="44.735938" xlink:href="#m64a3152e13" y="3.6"/>
      </g>
     </g>
     <g id="text_1">
      <!-- 90 -->
      <defs>
       <path d="M 46.78125 32.671875 
Q 43.5 29 39.25 27.1875 
Q 35.015625 25.390625 29.6875 25.390625 
Q 18.84375 25.390625 12.5625 31.9375 
Q 6.296875 38.484375 6.296875 49.8125 
Q 6.296875 60.890625 13.109375 67.546875 
Q 19.921875 74.21875 31.296875 74.21875 
Q 43.65625 74.21875 50.265625 65.015625 
Q 56.890625 55.8125 56.890625 38.71875 
Q 56.890625 19.578125 49.015625 9.078125 
Q 41.15625 -1.421875 26.90625 -1.421875 
Q 23.046875 -1.421875 18.796875 -0.6875 
Q 14.546875 0.046875 10.109375 1.515625 
L 10.109375 13.625 
L 15.578125 13.625 
Q 16.21875 8.6875 19.390625 6.046875 
Q 22.5625 3.421875 27.875 3.421875 
Q 37.359375 3.421875 41.984375 10.5625 
Q 46.625 17.71875 46.78125 32.671875 
z
M 30.90625 69.390625 
Q 23.96875 69.390625 20.28125 64.328125 
Q 16.609375 59.28125 16.609375 49.8125 
Q 16.609375 40.328125 20.28125 35.25 
Q 23.96875 30.171875 30.90625 30.171875 
Q 37.84375 30.171875 41.53125 35.078125 
Q 45.21875 39.984375 45.21875 49.21875 
Q 45.21875 58.9375 41.5 64.15625 
Q 37.796875 69.390625 30.90625 69.390625 
z
" id="DejaVuSerif-57"/>
       <path d="M 31.78125 3.421875 
Q 39.265625 3.421875 42.96875 11.625 
Q 46.6875 19.828125 46.6875 36.375 
Q 46.6875 52.984375 42.96875 61.1875 
Q 39.265625 69.390625 31.78125 69.390625 
Q 24.3125 69.390625 20.59375 61.1875 
Q 16.890625 52.984375 16.890625 36.375 
Q 16.890625 19.828125 20.59375 11.625 
Q 24.3125 3.421875 31.78125 3.421875 
z
M 31.78125 -1.421875 
Q 19.921875 -1.421875 13.25 8.53125 
Q 6.59375 18.5 6.59375 36.375 
Q 6.59375 54.296875 13.25 64.25 
Q 19.921875 74.21875 31.78125 74.21875 
Q 43.703125 74.21875 50.34375 64.25 
Q 56.984375 54.296875 56.984375 36.375 
Q 56.984375 18.5 50.34375 8.53125 
Q 43.703125 -1.421875 31.78125 -1.421875 
z
" id="DejaVuSerif-48"/>
      </defs>
      <g transform="translate(38.373438 265.258438)scale(0.1 -0.1)">
       <use xlink:href="#DejaVuSerif-57"/>
       <use x="63.623047" xlink:href="#DejaVuSerif-48"/>
      </g>
     </g>
    </g>
    <g id="xtick_2">
     <g id="line2d_4">
      <path clip-path="url(#p882a089edc)" d="M 66.231636 254.16 
L 66.231636 3.6 
" style="fill:none;stroke:#000000;stroke-dasharray:1.85,0.8;stroke-dashoffset:0;stroke-opacity:0.5;stroke-width:0.5;"/>
     </g>
     <g id="line2d_5">
      <g>
       <use style="stroke:#000000;stroke-width:0.5;" x="66.231636" xlink:href="#m80d8460d41" y="254.16"/>
      </g>
     </g>
     <g id="line2d_6">
      <g>
       <use style="stroke:#000000;stroke-width:0.5;" x="66.231636" xlink:href="#m64a3152e13" y="3.6"/>
      </g>
     </g>
     <g id="text_2">
      <!-- 92 -->
      <defs>
       <path d="M 12.796875 55.515625 
L 7.328125 55.515625 
L 7.328125 68.5 
Q 12.546875 71.296875 17.84375 72.75 
Q 23.140625 74.21875 28.21875 74.21875 
Q 39.59375 74.21875 46.1875 68.703125 
Q 52.78125 63.1875 52.78125 53.71875 
Q 52.78125 43.015625 37.84375 28.125 
Q 36.671875 27 36.078125 26.421875 
L 17.671875 8.015625 
L 48.09375 8.015625 
L 48.09375 17 
L 53.8125 17 
L 53.8125 0 
L 6.78125 0 
L 6.78125 5.328125 
L 28.90625 27.390625 
Q 36.234375 34.71875 39.359375 40.84375 
Q 42.484375 46.96875 42.484375 53.71875 
Q 42.484375 61.078125 38.640625 65.234375 
Q 34.8125 69.390625 28.078125 69.390625 
Q 21.09375 69.390625 17.28125 65.921875 
Q 13.484375 62.453125 12.796875 55.515625 
z
" id="DejaVuSerif-50"/>
      </defs>
      <g transform="translate(59.869136 265.258438)scale(0.1 -0.1)">
       <use xlink:href="#DejaVuSerif-57"/>
       <use x="63.623047" xlink:href="#DejaVuSerif-50"/>
      </g>
     </g>
    </g>
    <g id="xtick_3">
     <g id="line2d_7">
      <path clip-path="url(#p882a089edc)" d="M 97.185441 254.16 
L 97.185441 3.6 
" style="fill:none;stroke:#000000;stroke-dasharray:1.85,0.8;stroke-dashoffset:0;stroke-opacity:0.5;stroke-width:0.5;"/>
     </g>
     <g id="line2d_8">
      <g>
       <use style="stroke:#000000;stroke-width:0.5;" x="97.185441" xlink:href="#m80d8460d41" y="254.16"/>
      </g>
     </g>
     <g id="line2d_9">
      <g>
       <use style="stroke:#000000;stroke-width:0.5;" x="97.185441" xlink:href="#m64a3152e13" y="3.6"/>
      </g>
     </g>
     <g id="text_3">
      <!-- 94 -->
      <defs>
       <path d="M 34.90625 24.703125 
L 34.90625 63.484375 
L 10.015625 24.703125 
z
M 56.390625 0 
L 23.1875 0 
L 23.1875 5.171875 
L 34.90625 5.171875 
L 34.90625 19.484375 
L 3.078125 19.484375 
L 3.078125 24.8125 
L 35.015625 74.21875 
L 44.671875 74.21875 
L 44.671875 24.703125 
L 58.59375 24.703125 
L 58.59375 19.484375 
L 44.671875 19.484375 
L 44.671875 5.171875 
L 56.390625 5.171875 
z
" id="DejaVuSerif-52"/>
      </defs>
      <g transform="translate(90.822941 265.258438)scale(0.1 -0.1)">
       <use xlink:href="#DejaVuSerif-57"/>
       <use x="63.623047" xlink:href="#DejaVuSerif-52"/>
      </g>
     </g>
    </g>
    <g id="xtick_4">
     <g id="line2d_10">
      <path clip-path="url(#p882a089edc)" d="M 141.758922 254.16 
L 141.758922 3.6 
" style="fill:none;stroke:#000000;stroke-dasharray:1.85,0.8;stroke-dashoffset:0;stroke-opacity:0.5;stroke-width:0.5;"/>
     </g>
     <g id="line2d_11">
      <g>
       <use style="stroke:#000000;stroke-width:0.5;" x="141.758922" xlink:href="#m80d8460d41" y="254.16"/>
      </g>
     </g>
     <g id="line2d_12">
      <g>
       <use style="stroke:#000000;stroke-width:0.5;" x="141.758922" xlink:href="#m64a3152e13" y="3.6"/>
      </g>
     </g>
     <g id="text_4">
      <!-- 96 -->
      <defs>
       <path d="M 32.71875 3.421875 
Q 39.59375 3.421875 43.296875 8.46875 
Q 47.015625 13.53125 47.015625 23 
Q 47.015625 32.46875 43.296875 37.515625 
Q 39.59375 42.578125 32.71875 42.578125 
Q 25.734375 42.578125 22.0625 37.6875 
Q 18.40625 32.8125 18.40625 23.578125 
Q 18.40625 13.875 22.109375 8.640625 
Q 25.828125 3.421875 32.71875 3.421875 
z
M 16.796875 40.140625 
Q 20.125 43.796875 24.3125 45.59375 
Q 28.515625 47.40625 33.796875 47.40625 
Q 44.671875 47.40625 51 40.859375 
Q 57.328125 34.328125 57.328125 23 
Q 57.328125 11.921875 50.515625 5.25 
Q 43.703125 -1.421875 32.328125 -1.421875 
Q 19.96875 -1.421875 13.328125 7.78125 
Q 6.6875 17 6.6875 34.078125 
Q 6.6875 53.21875 14.546875 63.71875 
Q 22.40625 74.21875 36.71875 74.21875 
Q 40.578125 74.21875 44.828125 73.484375 
Q 49.078125 72.75 53.515625 71.296875 
L 53.515625 59.28125 
L 48 59.28125 
Q 47.40625 64.203125 44.234375 66.796875 
Q 41.0625 69.390625 35.6875 69.390625 
Q 26.21875 69.390625 21.578125 62.203125 
Q 16.9375 55.03125 16.796875 40.140625 
z
" id="DejaVuSerif-54"/>
      </defs>
      <g transform="translate(135.396422 265.258438)scale(0.1 -0.1)">
       <use xlink:href="#DejaVuSerif-57"/>
       <use x="63.623047" xlink:href="#DejaVuSerif-54"/>
      </g>
     </g>
    </g>
    <g id="xtick_5">
     <g id="line2d_13">
      <path clip-path="url(#p882a089edc)" d="M 205.944733 254.16 
L 205.944733 3.6 
" style="fill:none;stroke:#000000;stroke-dasharray:1.85,0.8;stroke-dashoffset:0;stroke-opacity:0.5;stroke-width:0.5;"/>
     </g>
     <g id="line2d_14">
      <g>
       <use style="stroke:#000000;stroke-width:0.5;" x="205.944733" xlink:href="#m80d8460d41" y="254.16"/>
      </g>
     </g>
     <g id="line2d_15">
      <g>
       <use style="stroke:#000000;stroke-width:0.5;" x="205.944733" xlink:href="#m64a3152e13" y="3.6"/>
      </g>
     </g>
     <g id="text_5">
      <!-- 98 -->
      <defs>
       <path d="M 46.578125 19.921875 
Q 46.578125 27.734375 42.6875 32.046875 
Q 38.8125 36.375 31.78125 36.375 
Q 24.75 36.375 20.875 32.046875 
Q 17 27.734375 17 19.921875 
Q 17 12.0625 20.875 7.734375 
Q 24.75 3.421875 31.78125 3.421875 
Q 38.8125 3.421875 42.6875 7.734375 
Q 46.578125 12.0625 46.578125 19.921875 
z
M 44.578125 55.328125 
Q 44.578125 61.96875 41.203125 65.671875 
Q 37.84375 69.390625 31.78125 69.390625 
Q 25.78125 69.390625 22.390625 65.671875 
Q 19 61.96875 19 55.328125 
Q 19 48.640625 22.390625 44.921875 
Q 25.78125 41.21875 31.78125 41.21875 
Q 37.84375 41.21875 41.203125 44.921875 
Q 44.578125 48.640625 44.578125 55.328125 
z
M 39.3125 38.8125 
Q 47.609375 37.703125 52.25 32.6875 
Q 56.890625 27.6875 56.890625 19.921875 
Q 56.890625 9.671875 50.390625 4.125 
Q 43.890625 -1.421875 31.78125 -1.421875 
Q 19.734375 -1.421875 13.203125 4.125 
Q 6.6875 9.671875 6.6875 19.921875 
Q 6.6875 27.6875 11.328125 32.6875 
Q 15.96875 37.703125 24.3125 38.8125 
Q 16.9375 40.140625 13 44.40625 
Q 9.078125 48.6875 9.078125 55.328125 
Q 9.078125 64.109375 15.125 69.15625 
Q 21.1875 74.21875 31.78125 74.21875 
Q 42.390625 74.21875 48.4375 69.15625 
Q 54.5 64.109375 54.5 55.328125 
Q 54.5 48.6875 50.5625 44.40625 
Q 46.625 40.140625 39.3125 38.8125 
z
" id="DejaVuSerif-56"/>
      </defs>
      <g transform="translate(199.582233 265.258438)scale(0.1 -0.1)">
       <use xlink:href="#DejaVuSerif-57"/>
       <use x="63.623047" xlink:href="#DejaVuSerif-56"/>
      </g>
     </g>
    </g>
    <g id="xtick_6">
     <g id="line2d_16">
      <path clip-path="url(#p882a089edc)" d="M 298.372301 254.16 
L 298.372301 3.6 
" style="fill:none;stroke:#000000;stroke-dasharray:1.85,0.8;stroke-dashoffset:0;stroke-opacity:0.5;stroke-width:0.5;"/>
     </g>
     <g id="line2d_17">
      <g>
       <use style="stroke:#000000;stroke-width:0.5;" x="298.372301" xlink:href="#m80d8460d41" y="254.16"/>
      </g>
     </g>
     <g id="line2d_18">
      <g>
       <use style="stroke:#000000;stroke-width:0.5;" x="298.372301" xlink:href="#m64a3152e13" y="3.6"/>
      </g>
     </g>
     <g id="text_6">
      <!-- 100 -->
      <defs>
       <path d="M 14.203125 0 
L 14.203125 5.171875 
L 26.90625 5.171875 
L 26.90625 65.828125 
L 12.203125 56.296875 
L 12.203125 62.703125 
L 29.984375 74.21875 
L 36.71875 74.21875 
L 36.71875 5.171875 
L 49.421875 5.171875 
L 49.421875 0 
z
" id="DejaVuSerif-49"/>
      </defs>
      <g transform="translate(288.828551 265.258438)scale(0.1 -0.1)">
       <use xlink:href="#DejaVuSerif-49"/>
       <use x="63.623047" xlink:href="#DejaVuSerif-48"/>
       <use x="127.246094" xlink:href="#DejaVuSerif-48"/>
      </g>
     </g>
    </g>
    <g id="xtick_7">
     <g id="line2d_19">
      <defs>
       <path d="M 0 0 
L 0 -1.5 
" id="mff8bc4c01c" style="stroke:#000000;stroke-width:0.5;"/>
      </defs>
      <g>
       <use style="stroke:#000000;stroke-width:0.5;" x="49.3988" xlink:href="#mff8bc4c01c" y="254.16"/>
      </g>
     </g>
     <g id="line2d_20">
      <defs>
       <path d="M 0 0 
L 0 1.5 
" id="m08978652bb" style="stroke:#000000;stroke-width:0.5;"/>
      </defs>
      <g>
       <use style="stroke:#000000;stroke-width:0.5;" x="49.3988" xlink:href="#m08978652bb" y="3.6"/>
      </g>
     </g>
    </g>
    <g id="xtick_8">
     <g id="line2d_21">
      <g>
       <use style="stroke:#000000;stroke-width:0.5;" x="54.506709" xlink:href="#mff8bc4c01c" y="254.16"/>
      </g>
     </g>
     <g id="line2d_22">
      <g>
       <use style="stroke:#000000;stroke-width:0.5;" x="54.506709" xlink:href="#m08978652bb" y="3.6"/>
      </g>
     </g>
    </g>
    <g id="xtick_9">
     <g id="line2d_23">
      <g>
       <use style="stroke:#000000;stroke-width:0.5;" x="60.102144" xlink:href="#mff8bc4c01c" y="254.16"/>
      </g>
     </g>
     <g id="line2d_24">
      <g>
       <use style="stroke:#000000;stroke-width:0.5;" x="60.102144" xlink:href="#m08978652bb" y="3.6"/>
      </g>
     </g>
    </g>
    <g id="xtick_10">
     <g id="line2d_25">
      <g>
       <use style="stroke:#000000;stroke-width:0.5;" x="72.946158" xlink:href="#mff8bc4c01c" y="254.16"/>
      </g>
     </g>
     <g id="line2d_26">
      <g>
       <use style="stroke:#000000;stroke-width:0.5;" x="72.946158" xlink:href="#m08978652bb" y="3.6"/>
      </g>
     </g>
    </g>
    <g id="xtick_11">
     <g id="line2d_27">
      <g>
       <use style="stroke:#000000;stroke-width:0.5;" x="80.301547" xlink:href="#mff8bc4c01c" y="254.16"/>
      </g>
     </g>
     <g id="line2d_28">
      <g>
       <use style="stroke:#000000;stroke-width:0.5;" x="80.301547" xlink:href="#m08978652bb" y="3.6"/>
      </g>
     </g>
    </g>
    <g id="xtick_12">
     <g id="line2d_29">
      <g>
       <use style="stroke:#000000;stroke-width:0.5;" x="88.358973" xlink:href="#mff8bc4c01c" y="254.16"/>
      </g>
     </g>
     <g id="line2d_30">
      <g>
       <use style="stroke:#000000;stroke-width:0.5;" x="88.358973" xlink:href="#m08978652bb" y="3.6"/>
      </g>
     </g>
    </g>
    <g id="xtick_13">
     <g id="line2d_31">
      <g>
       <use style="stroke:#000000;stroke-width:0.5;" x="106.854353" xlink:href="#mff8bc4c01c" y="254.16"/>
      </g>
     </g>
     <g id="line2d_32">
      <g>
       <use style="stroke:#000000;stroke-width:0.5;" x="106.854353" xlink:href="#m08978652bb" y="3.6"/>
      </g>
     </g>
    </g>
    <g id="xtick_14">
     <g id="line2d_33">
      <g>
       <use style="stroke:#000000;stroke-width:0.5;" x="117.446114" xlink:href="#mff8bc4c01c" y="254.16"/>
      </g>
     </g>
     <g id="line2d_34">
      <g>
       <use style="stroke:#000000;stroke-width:0.5;" x="117.446114" xlink:href="#m08978652bb" y="3.6"/>
      </g>
     </g>
    </g>
    <g id="xtick_15">
     <g id="line2d_35">
      <g>
       <use style="stroke:#000000;stroke-width:0.5;" x="129.048808" xlink:href="#mff8bc4c01c" y="254.16"/>
      </g>
     </g>
     <g id="line2d_36">
      <g>
       <use style="stroke:#000000;stroke-width:0.5;" x="129.048808" xlink:href="#m08978652bb" y="3.6"/>
      </g>
     </g>
    </g>
    <g id="xtick_16">
     <g id="line2d_37">
      <g>
       <use style="stroke:#000000;stroke-width:0.5;" x="155.682154" xlink:href="#mff8bc4c01c" y="254.16"/>
      </g>
     </g>
     <g id="line2d_38">
      <g>
       <use style="stroke:#000000;stroke-width:0.5;" x="155.682154" xlink:href="#m08978652bb" y="3.6"/>
      </g>
     </g>
    </g>
    <g id="xtick_17">
     <g id="line2d_39">
      <g>
       <use style="stroke:#000000;stroke-width:0.5;" x="170.93429" xlink:href="#mff8bc4c01c" y="254.16"/>
      </g>
     </g>
     <g id="line2d_40">
      <g>
       <use style="stroke:#000000;stroke-width:0.5;" x="170.93429" xlink:href="#m08978652bb" y="3.6"/>
      </g>
     </g>
    </g>
    <g id="xtick_18">
     <g id="line2d_41">
      <g>
       <use style="stroke:#000000;stroke-width:0.5;" x="187.642169" xlink:href="#mff8bc4c01c" y="254.16"/>
      </g>
     </g>
     <g id="line2d_42">
      <g>
       <use style="stroke:#000000;stroke-width:0.5;" x="187.642169" xlink:href="#m08978652bb" y="3.6"/>
      </g>
     </g>
    </g>
    <g id="xtick_19">
     <g id="line2d_43">
      <g>
       <use style="stroke:#000000;stroke-width:0.5;" x="225.994187" xlink:href="#mff8bc4c01c" y="254.16"/>
      </g>
     </g>
     <g id="line2d_44">
      <g>
       <use style="stroke:#000000;stroke-width:0.5;" x="225.994187" xlink:href="#m08978652bb" y="3.6"/>
      </g>
     </g>
    </g>
    <g id="xtick_20">
     <g id="line2d_45">
      <g>
       <use style="stroke:#000000;stroke-width:0.5;" x="247.957264" xlink:href="#mff8bc4c01c" y="254.16"/>
      </g>
     </g>
     <g id="line2d_46">
      <g>
       <use style="stroke:#000000;stroke-width:0.5;" x="247.957264" xlink:href="#m08978652bb" y="3.6"/>
      </g>
     </g>
    </g>
    <g id="xtick_21">
     <g id="line2d_47">
      <g>
       <use style="stroke:#000000;stroke-width:0.5;" x="272.016609" xlink:href="#mff8bc4c01c" y="254.16"/>
      </g>
     </g>
     <g id="line2d_48">
      <g>
       <use style="stroke:#000000;stroke-width:0.5;" x="272.016609" xlink:href="#m08978652bb" y="3.6"/>
      </g>
     </g>
    </g>
    <g id="text_7">
     <!-- Percentage of Pruned Weights -->
     <defs>
      <path d="M 24.703125 37.109375 
L 37.59375 37.109375 
Q 44.875 37.109375 48.671875 41.03125 
Q 52.484375 44.96875 52.484375 52.390625 
Q 52.484375 59.859375 48.671875 63.765625 
Q 44.875 67.671875 37.59375 67.671875 
L 24.703125 67.671875 
z
M 5.515625 0 
L 5.515625 5.171875 
L 14.796875 5.171875 
L 14.796875 67.671875 
L 5.515625 67.671875 
L 5.515625 72.90625 
L 39.984375 72.90625 
Q 50.921875 72.90625 57.3125 67.359375 
Q 63.71875 61.8125 63.71875 52.390625 
Q 63.71875 43.015625 57.3125 37.453125 
Q 50.921875 31.890625 39.984375 31.890625 
L 24.703125 31.890625 
L 24.703125 5.171875 
L 35.984375 5.171875 
L 35.984375 0 
z
" id="DejaVuSerif-80"/>
      <path d="M 54.203125 25 
L 15.484375 25 
L 15.484375 24.609375 
Q 15.484375 14.109375 19.4375 8.765625 
Q 23.390625 3.421875 31.109375 3.421875 
Q 37.015625 3.421875 40.796875 6.515625 
Q 44.578125 9.625 46.09375 15.71875 
L 53.328125 15.71875 
Q 51.171875 7.171875 45.375 2.875 
Q 39.59375 -1.421875 30.171875 -1.421875 
Q 18.796875 -1.421875 11.890625 6.078125 
Q 4.984375 13.578125 4.984375 25.984375 
Q 4.984375 38.28125 11.765625 45.796875 
Q 18.5625 53.328125 29.59375 53.328125 
Q 41.359375 53.328125 47.65625 46.0625 
Q 53.953125 38.8125 54.203125 25 
z
M 43.609375 30.171875 
Q 43.3125 39.265625 39.765625 43.875 
Q 36.234375 48.484375 29.59375 48.484375 
Q 23.390625 48.484375 19.828125 43.84375 
Q 16.265625 39.203125 15.484375 30.171875 
z
" id="DejaVuSerif-101"/>
      <path d="M 47.796875 52 
L 47.796875 39.015625 
L 42.625 39.015625 
Q 42.390625 42.875 40.484375 44.78125 
Q 38.578125 46.6875 34.90625 46.6875 
Q 28.265625 46.6875 24.71875 42.09375 
Q 21.1875 37.5 21.1875 28.90625 
L 21.1875 5.171875 
L 31.59375 5.171875 
L 31.59375 0 
L 4.109375 0 
L 4.109375 5.171875 
L 12.203125 5.171875 
L 12.203125 46.78125 
L 3.609375 46.78125 
L 3.609375 51.90625 
L 21.1875 51.90625 
L 21.1875 42.671875 
Q 23.828125 48.09375 27.96875 50.703125 
Q 32.125 53.328125 38.09375 53.328125 
Q 40.28125 53.328125 42.703125 52.984375 
Q 45.125 52.640625 47.796875 52 
z
" id="DejaVuSerif-114"/>
      <path d="M 51.421875 15.578125 
Q 49.515625 7.28125 44.09375 2.921875 
Q 38.671875 -1.421875 30.078125 -1.421875 
Q 18.75 -1.421875 11.859375 6.078125 
Q 4.984375 13.578125 4.984375 25.984375 
Q 4.984375 38.421875 11.859375 45.875 
Q 18.75 53.328125 30.078125 53.328125 
Q 35.015625 53.328125 39.890625 52.171875 
Q 44.78125 51.03125 49.703125 48.6875 
L 49.703125 35.40625 
L 44.484375 35.40625 
Q 43.453125 42.234375 40.015625 45.359375 
Q 36.578125 48.484375 30.171875 48.484375 
Q 22.90625 48.484375 19.1875 42.84375 
Q 15.484375 37.203125 15.484375 25.984375 
Q 15.484375 14.75 19.171875 9.078125 
Q 22.859375 3.421875 30.171875 3.421875 
Q 35.984375 3.421875 39.453125 6.4375 
Q 42.921875 9.46875 44.1875 15.578125 
z
" id="DejaVuSerif-99"/>
      <path d="M 4.109375 0 
L 4.109375 5.171875 
L 12.203125 5.171875 
L 12.203125 46.6875 
L 3.609375 46.6875 
L 3.609375 51.90625 
L 21.1875 51.90625 
L 21.1875 42.671875 
Q 23.6875 47.953125 27.65625 50.640625 
Q 31.640625 53.328125 36.921875 53.328125 
Q 45.515625 53.328125 49.5625 48.390625 
Q 53.609375 43.453125 53.609375 33.015625 
L 53.609375 5.171875 
L 61.625 5.171875 
L 61.625 0 
L 36.8125 0 
L 36.8125 5.171875 
L 44.578125 5.171875 
L 44.578125 30.171875 
Q 44.578125 39.703125 42.234375 43.234375 
Q 39.890625 46.78125 33.984375 46.78125 
Q 27.734375 46.78125 24.453125 42.203125 
Q 21.1875 37.640625 21.1875 28.90625 
L 21.1875 5.171875 
L 29 5.171875 
L 29 0 
z
" id="DejaVuSerif-110"/>
      <path d="M 10.796875 46.6875 
L 2.875 46.6875 
L 2.875 51.90625 
L 10.796875 51.90625 
L 10.796875 68.015625 
L 19.828125 68.015625 
L 19.828125 51.90625 
L 36.71875 51.90625 
L 36.71875 46.6875 
L 19.828125 46.6875 
L 19.828125 13.71875 
Q 19.828125 7.125 21.09375 5.265625 
Q 22.359375 3.421875 25.78125 3.421875 
Q 29.296875 3.421875 30.90625 5.484375 
Q 32.515625 7.5625 32.625 12.203125 
L 39.40625 12.203125 
Q 39.015625 5.125 35.546875 1.84375 
Q 32.078125 -1.421875 25 -1.421875 
Q 17.234375 -1.421875 14.015625 2.015625 
Q 10.796875 5.46875 10.796875 13.71875 
z
" id="DejaVuSerif-116"/>
      <path d="M 39.796875 16.3125 
L 39.796875 27.296875 
L 28.21875 27.296875 
Q 21.53125 27.296875 18.25 24.40625 
Q 14.984375 21.53125 14.984375 15.578125 
Q 14.984375 10.15625 18.296875 6.984375 
Q 21.625 3.8125 27.296875 3.8125 
Q 32.90625 3.8125 36.34375 7.28125 
Q 39.796875 10.75 39.796875 16.3125 
z
M 48.78125 32.421875 
L 48.78125 5.171875 
L 56.78125 5.171875 
L 56.78125 0 
L 39.796875 0 
L 39.796875 5.609375 
Q 36.8125 2 32.90625 0.28125 
Q 29 -1.421875 23.78125 -1.421875 
Q 15.140625 -1.421875 10.0625 3.171875 
Q 4.984375 7.765625 4.984375 15.578125 
Q 4.984375 23.640625 10.796875 28.078125 
Q 16.609375 32.515625 27.203125 32.515625 
L 39.796875 32.515625 
L 39.796875 36.078125 
Q 39.796875 42 36.203125 45.234375 
Q 32.625 48.484375 26.125 48.484375 
Q 20.75 48.484375 17.578125 46.046875 
Q 14.40625 43.609375 13.625 38.8125 
L 8.984375 38.8125 
L 8.984375 49.3125 
Q 13.671875 51.3125 18.09375 52.3125 
Q 22.515625 53.328125 26.703125 53.328125 
Q 37.5 53.328125 43.140625 47.96875 
Q 48.78125 42.625 48.78125 32.421875 
z
" id="DejaVuSerif-97"/>
      <path d="M 52.484375 46.6875 
L 52.484375 1.125 
Q 52.484375 -10.0625 46.328125 -16.140625 
Q 40.1875 -22.21875 28.8125 -22.21875 
Q 23.6875 -22.21875 19 -21.28125 
Q 14.3125 -20.359375 10.015625 -18.5 
L 10.015625 -7.625 
L 14.703125 -7.625 
Q 15.578125 -12.703125 18.84375 -15.046875 
Q 22.125 -17.390625 28.21875 -17.390625 
Q 36.140625 -17.390625 39.8125 -12.921875 
Q 43.5 -8.453125 43.5 1.125 
L 43.5 8.109375 
Q 40.875 3.21875 36.796875 0.890625 
Q 32.71875 -1.421875 26.703125 -1.421875 
Q 17.140625 -1.421875 11.0625 6.171875 
Q 4.984375 13.765625 4.984375 25.984375 
Q 4.984375 38.1875 11.03125 45.75 
Q 17.09375 53.328125 26.703125 53.328125 
Q 32.71875 53.328125 36.796875 51 
Q 40.875 48.6875 43.5 43.796875 
L 43.5 51.90625 
L 61.078125 51.90625 
L 61.078125 46.6875 
z
M 43.5 28.515625 
Q 43.5 37.84375 39.90625 42.765625 
Q 36.328125 47.703125 29.5 47.703125 
Q 22.5625 47.703125 19.015625 42.234375 
Q 15.484375 36.765625 15.484375 25.984375 
Q 15.484375 15.234375 19.015625 9.71875 
Q 22.5625 4.203125 29.5 4.203125 
Q 36.328125 4.203125 39.90625 9.109375 
Q 43.5 14.015625 43.5 23.390625 
z
" id="DejaVuSerif-103"/>
      <path id="DejaVuSerif-32"/>
      <path d="M 30.078125 3.421875 
Q 37.3125 3.421875 40.984375 9.125 
Q 44.671875 14.84375 44.671875 25.984375 
Q 44.671875 37.109375 40.984375 42.796875 
Q 37.3125 48.484375 30.078125 48.484375 
Q 22.859375 48.484375 19.171875 42.796875 
Q 15.484375 37.109375 15.484375 25.984375 
Q 15.484375 14.84375 19.1875 9.125 
Q 22.90625 3.421875 30.078125 3.421875 
z
M 30.078125 -1.421875 
Q 18.75 -1.421875 11.859375 6.078125 
Q 4.984375 13.578125 4.984375 25.984375 
Q 4.984375 38.375 11.84375 45.84375 
Q 18.703125 53.328125 30.078125 53.328125 
Q 41.453125 53.328125 48.3125 45.84375 
Q 55.171875 38.375 55.171875 25.984375 
Q 55.171875 13.578125 48.3125 6.078125 
Q 41.453125 -1.421875 30.078125 -1.421875 
z
" id="DejaVuSerif-111"/>
      <path d="M 43.015625 63.71875 
L 38.28125 63.71875 
Q 38.234375 67.390625 36.203125 69.28125 
Q 34.1875 71.1875 30.328125 71.1875 
Q 25.296875 71.1875 23.234375 68.421875 
Q 21.1875 65.671875 21.1875 58.59375 
L 21.1875 51.90625 
L 35.6875 51.90625 
L 35.6875 46.6875 
L 21.1875 46.6875 
L 21.1875 5.171875 
L 32.71875 5.171875 
L 32.71875 0 
L 3.609375 0 
L 3.609375 5.171875 
L 12.203125 5.171875 
L 12.203125 46.6875 
L 3.609375 46.6875 
L 3.609375 51.90625 
L 12.203125 51.90625 
L 12.203125 58.40625 
Q 12.203125 67.09375 16.71875 71.53125 
Q 21.234375 75.984375 29.984375 75.984375 
Q 33.25 75.984375 36.515625 75.390625 
Q 39.796875 74.8125 43.015625 73.578125 
z
" id="DejaVuSerif-102"/>
      <path d="M 35.40625 51.90625 
L 52.203125 51.90625 
L 52.203125 5.171875 
L 60.6875 5.171875 
L 60.6875 0 
L 43.21875 0 
L 43.21875 9.1875 
Q 40.71875 4 36.765625 1.28125 
Q 32.8125 -1.421875 27.59375 -1.421875 
Q 18.953125 -1.421875 14.875 3.484375 
Q 10.796875 8.40625 10.796875 18.890625 
L 10.796875 46.6875 
L 2.6875 46.6875 
L 2.6875 51.90625 
L 19.828125 51.90625 
L 19.828125 21.6875 
Q 19.828125 12.203125 22.140625 8.6875 
Q 24.46875 5.171875 30.421875 5.171875 
Q 36.671875 5.171875 39.9375 9.765625 
Q 43.21875 14.359375 43.21875 23.09375 
L 43.21875 46.6875 
L 35.40625 46.6875 
z
" id="DejaVuSerif-117"/>
      <path d="M 52.484375 5.171875 
L 61.078125 5.171875 
L 61.078125 0 
L 43.5 0 
L 43.5 8.109375 
Q 40.875 3.21875 36.796875 0.890625 
Q 32.71875 -1.421875 26.703125 -1.421875 
Q 17.140625 -1.421875 11.0625 6.171875 
Q 4.984375 13.765625 4.984375 25.984375 
Q 4.984375 38.1875 11.03125 45.75 
Q 17.09375 53.328125 26.703125 53.328125 
Q 32.71875 53.328125 36.796875 51 
Q 40.875 48.6875 43.5 43.796875 
L 43.5 70.796875 
L 35.015625 70.796875 
L 35.015625 75.984375 
L 52.484375 75.984375 
z
M 43.5 23.390625 
L 43.5 28.515625 
Q 43.5 37.84375 39.90625 42.765625 
Q 36.328125 47.703125 29.5 47.703125 
Q 22.5625 47.703125 19.015625 42.234375 
Q 15.484375 36.765625 15.484375 25.984375 
Q 15.484375 15.234375 19.015625 9.71875 
Q 22.5625 4.203125 29.5 4.203125 
Q 36.328125 4.203125 39.90625 9.109375 
Q 43.5 14.015625 43.5 23.390625 
z
" id="DejaVuSerif-100"/>
      <path d="M 76.21875 0 
L 68.21875 0 
L 51.515625 59.28125 
L 34.8125 0 
L 26.8125 0 
L 7.71875 67.671875 
L 0.484375 67.671875 
L 0.484375 72.90625 
L 27.09375 72.90625 
L 27.09375 67.671875 
L 18.015625 67.671875 
L 33.203125 13.8125 
L 49.8125 72.90625 
L 57.71875 72.90625 
L 74.609375 13.1875 
L 89.890625 67.671875 
L 81.5 67.671875 
L 81.5 72.90625 
L 102.484375 72.90625 
L 102.484375 67.671875 
L 95.3125 67.671875 
z
" id="DejaVuSerif-87"/>
      <path d="M 9.71875 68.015625 
Q 9.71875 70.265625 11.34375 71.921875 
Q 12.984375 73.578125 15.28125 73.578125 
Q 17.53125 73.578125 19.15625 71.921875 
Q 20.796875 70.265625 20.796875 68.015625 
Q 20.796875 65.71875 19.1875 64.109375 
Q 17.578125 62.5 15.28125 62.5 
Q 12.984375 62.5 11.34375 64.109375 
Q 9.71875 65.71875 9.71875 68.015625 
z
M 21.1875 5.171875 
L 29.6875 5.171875 
L 29.6875 0 
L 3.609375 0 
L 3.609375 5.171875 
L 12.203125 5.171875 
L 12.203125 46.6875 
L 3.609375 46.6875 
L 3.609375 51.90625 
L 21.1875 51.90625 
z
" id="DejaVuSerif-105"/>
      <path d="M 4.109375 0 
L 4.109375 5.171875 
L 12.203125 5.171875 
L 12.203125 70.796875 
L 3.609375 70.796875 
L 3.609375 75.984375 
L 21.1875 75.984375 
L 21.1875 42.671875 
Q 23.6875 47.953125 27.65625 50.640625 
Q 31.640625 53.328125 36.921875 53.328125 
Q 45.515625 53.328125 49.5625 48.390625 
Q 53.609375 43.453125 53.609375 33.015625 
L 53.609375 5.171875 
L 61.625 5.171875 
L 61.625 0 
L 36.8125 0 
L 36.8125 5.171875 
L 44.578125 5.171875 
L 44.578125 30.171875 
Q 44.578125 39.703125 42.25 43.1875 
Q 39.9375 46.6875 33.984375 46.6875 
Q 27.734375 46.6875 24.453125 42.140625 
Q 21.1875 37.59375 21.1875 28.90625 
L 21.1875 5.171875 
L 29 5.171875 
L 29 0 
z
" id="DejaVuSerif-104"/>
      <path d="M 5.609375 2.875 
L 5.609375 14.984375 
L 10.796875 14.984375 
Q 10.984375 9.1875 14.421875 6.296875 
Q 17.875 3.421875 24.609375 3.421875 
Q 30.671875 3.421875 33.84375 5.6875 
Q 37.015625 7.953125 37.015625 12.3125 
Q 37.015625 15.71875 34.6875 17.8125 
Q 32.375 19.921875 24.90625 22.3125 
L 18.40625 24.515625 
Q 11.71875 26.65625 8.71875 29.875 
Q 5.71875 33.109375 5.71875 38.09375 
Q 5.71875 45.21875 10.9375 49.265625 
Q 16.15625 53.328125 25.390625 53.328125 
Q 29.5 53.328125 34.03125 52.25 
Q 38.578125 51.171875 43.40625 49.125 
L 43.40625 37.796875 
L 38.234375 37.796875 
Q 38.03125 42.828125 34.703125 45.65625 
Q 31.390625 48.484375 25.6875 48.484375 
Q 20.015625 48.484375 17.109375 46.484375 
Q 14.203125 44.484375 14.203125 40.484375 
Q 14.203125 37.203125 16.40625 35.21875 
Q 18.609375 33.25 25.203125 31.203125 
L 32.328125 29 
Q 39.703125 26.703125 42.9375 23.265625 
Q 46.1875 19.828125 46.1875 14.40625 
Q 46.1875 7.03125 40.546875 2.796875 
Q 34.90625 -1.421875 25 -1.421875 
Q 19.96875 -1.421875 15.1875 -0.34375 
Q 10.40625 0.734375 5.609375 2.875 
z
" id="DejaVuSerif-115"/>
     </defs>
     <g transform="translate(94.665057 278.936563)scale(0.1 -0.1)">
      <use xlink:href="#DejaVuSerif-80"/>
      <use x="62.785156" xlink:href="#DejaVuSerif-101"/>
      <use x="121.964844" xlink:href="#DejaVuSerif-114"/>
      <use x="169.767578" xlink:href="#DejaVuSerif-99"/>
      <use x="225.773438" xlink:href="#DejaVuSerif-101"/>
      <use x="284.953125" xlink:href="#DejaVuSerif-110"/>
      <use x="349.357422" xlink:href="#DejaVuSerif-116"/>
      <use x="389.542969" xlink:href="#DejaVuSerif-97"/>
      <use x="449.162109" xlink:href="#DejaVuSerif-103"/>
      <use x="513.175781" xlink:href="#DejaVuSerif-101"/>
      <use x="572.355469" xlink:href="#DejaVuSerif-32"/>
      <use x="604.142578" xlink:href="#DejaVuSerif-111"/>
      <use x="664.347656" xlink:href="#DejaVuSerif-102"/>
      <use x="701.359375" xlink:href="#DejaVuSerif-32"/>
      <use x="733.146484" xlink:href="#DejaVuSerif-80"/>
      <use x="800.431641" xlink:href="#DejaVuSerif-114"/>
      <use x="848.234375" xlink:href="#DejaVuSerif-117"/>
      <use x="912.638672" xlink:href="#DejaVuSerif-110"/>
      <use x="977.042969" xlink:href="#DejaVuSerif-101"/>
      <use x="1036.222656" xlink:href="#DejaVuSerif-100"/>
      <use x="1100.236328" xlink:href="#DejaVuSerif-32"/>
      <use x="1132.023438" xlink:href="#DejaVuSerif-87"/>
      <use x="1226.681641" xlink:href="#DejaVuSerif-101"/>
      <use x="1285.861328" xlink:href="#DejaVuSerif-105"/>
      <use x="1317.84375" xlink:href="#DejaVuSerif-103"/>
      <use x="1381.857422" xlink:href="#DejaVuSerif-104"/>
      <use x="1446.261719" xlink:href="#DejaVuSerif-116"/>
      <use x="1486.447266" xlink:href="#DejaVuSerif-115"/>
     </g>
    </g>
   </g>
   <g id="matplotlib.axis_2">
    <g id="ytick_1">
     <g id="line2d_49">
      <path clip-path="url(#p882a089edc)" d="M 44.735938 251.019084 
L 298.372301 251.019084 
" style="fill:none;stroke:#000000;stroke-dasharray:1.85,0.8;stroke-dashoffset:0;stroke-opacity:0.5;stroke-width:0.5;"/>
     </g>
     <g id="line2d_50">
      <defs>
       <path d="M 0 0 
L 3 0 
" id="m3e08ada325" style="stroke:#000000;stroke-width:0.5;"/>
      </defs>
      <g>
       <use style="stroke:#000000;stroke-width:0.5;" x="44.735938" xlink:href="#m3e08ada325" y="251.019084"/>
      </g>
     </g>
     <g id="line2d_51">
      <defs>
       <path d="M 0 0 
L -3 0 
" id="mafb4d883e8" style="stroke:#000000;stroke-width:0.5;"/>
      </defs>
      <g>
       <use style="stroke:#000000;stroke-width:0.5;" x="298.372301" xlink:href="#mafb4d883e8" y="251.019084"/>
      </g>
     </g>
     <g id="text_8">
      <!-- 70 -->
      <defs>
       <path d="M 56.390625 67.921875 
L 27.875 0 
L 20.609375 0 
L 47.796875 64.890625 
L 14.109375 64.890625 
L 14.109375 55.90625 
L 8.40625 55.90625 
L 8.40625 72.90625 
L 56.390625 72.90625 
z
" id="DejaVuSerif-55"/>
      </defs>
      <g transform="translate(28.510938 254.818303)scale(0.1 -0.1)">
       <use xlink:href="#DejaVuSerif-55"/>
       <use x="63.623047" xlink:href="#DejaVuSerif-48"/>
      </g>
     </g>
    </g>
    <g id="ytick_2">
     <g id="line2d_52">
      <path clip-path="url(#p882a089edc)" d="M 44.735938 237.613025 
L 298.372301 237.613025 
" style="fill:none;stroke:#000000;stroke-dasharray:1.85,0.8;stroke-dashoffset:0;stroke-opacity:0.5;stroke-width:0.5;"/>
     </g>
     <g id="line2d_53">
      <g>
       <use style="stroke:#000000;stroke-width:0.5;" x="44.735938" xlink:href="#m3e08ada325" y="237.613025"/>
      </g>
     </g>
     <g id="line2d_54">
      <g>
       <use style="stroke:#000000;stroke-width:0.5;" x="298.372301" xlink:href="#mafb4d883e8" y="237.613025"/>
      </g>
     </g>
     <g id="text_9">
      <!-- 75 -->
      <defs>
       <path d="M 50.296875 72.90625 
L 50.296875 64.890625 
L 16.890625 64.890625 
L 16.890625 44 
Q 19.4375 45.75 22.828125 46.625 
Q 26.21875 47.515625 30.421875 47.515625 
Q 42.234375 47.515625 49.0625 40.96875 
Q 55.90625 34.421875 55.90625 23.09375 
Q 55.90625 11.53125 49 5.046875 
Q 42.09375 -1.421875 29.59375 -1.421875 
Q 24.5625 -1.421875 19.28125 -0.1875 
Q 14.015625 1.03125 8.5 3.515625 
L 8.5 17.671875 
L 14.015625 17.671875 
Q 14.453125 10.75 18.421875 7.078125 
Q 22.40625 3.421875 29.59375 3.421875 
Q 37.3125 3.421875 41.453125 8.5 
Q 45.609375 13.578125 45.609375 23.09375 
Q 45.609375 32.5625 41.484375 37.609375 
Q 37.359375 42.671875 29.59375 42.671875 
Q 25.203125 42.671875 21.84375 41.109375 
Q 18.5 39.546875 15.921875 36.28125 
L 11.71875 36.28125 
L 11.71875 72.90625 
z
" id="DejaVuSerif-53"/>
      </defs>
      <g transform="translate(28.510938 241.412244)scale(0.1 -0.1)">
       <use xlink:href="#DejaVuSerif-55"/>
       <use x="63.623047" xlink:href="#DejaVuSerif-53"/>
      </g>
     </g>
    </g>
    <g id="ytick_3">
     <g id="line2d_55">
      <path clip-path="url(#p882a089edc)" d="M 44.735938 216.022432 
L 298.372301 216.022432 
" style="fill:none;stroke:#000000;stroke-dasharray:1.85,0.8;stroke-dashoffset:0;stroke-opacity:0.5;stroke-width:0.5;"/>
     </g>
     <g id="line2d_56">
      <g>
       <use style="stroke:#000000;stroke-width:0.5;" x="44.735938" xlink:href="#m3e08ada325" y="216.022432"/>
      </g>
     </g>
     <g id="line2d_57">
      <g>
       <use style="stroke:#000000;stroke-width:0.5;" x="298.372301" xlink:href="#mafb4d883e8" y="216.022432"/>
      </g>
     </g>
     <g id="text_10">
      <!-- 80 -->
      <g transform="translate(28.510938 219.821651)scale(0.1 -0.1)">
       <use xlink:href="#DejaVuSerif-56"/>
       <use x="63.623047" xlink:href="#DejaVuSerif-48"/>
      </g>
     </g>
    </g>
    <g id="ytick_4">
     <g id="line2d_58">
      <path clip-path="url(#p882a089edc)" d="M 44.735938 181.250566 
L 298.372301 181.250566 
" style="fill:none;stroke:#000000;stroke-dasharray:1.85,0.8;stroke-dashoffset:0;stroke-opacity:0.5;stroke-width:0.5;"/>
     </g>
     <g id="line2d_59">
      <g>
       <use style="stroke:#000000;stroke-width:0.5;" x="44.735938" xlink:href="#m3e08ada325" y="181.250566"/>
      </g>
     </g>
     <g id="line2d_60">
      <g>
       <use style="stroke:#000000;stroke-width:0.5;" x="298.372301" xlink:href="#mafb4d883e8" y="181.250566"/>
      </g>
     </g>
     <g id="text_11">
      <!-- 85 -->
      <g transform="translate(28.510938 185.049785)scale(0.1 -0.1)">
       <use xlink:href="#DejaVuSerif-56"/>
       <use x="63.623047" xlink:href="#DejaVuSerif-53"/>
      </g>
     </g>
    </g>
    <g id="ytick_5">
     <g id="line2d_61">
      <path clip-path="url(#p882a089edc)" d="M 44.735938 125.250128 
L 298.372301 125.250128 
" style="fill:none;stroke:#000000;stroke-dasharray:1.85,0.8;stroke-dashoffset:0;stroke-opacity:0.5;stroke-width:0.5;"/>
     </g>
     <g id="line2d_62">
      <g>
       <use style="stroke:#000000;stroke-width:0.5;" x="44.735938" xlink:href="#m3e08ada325" y="125.250128"/>
      </g>
     </g>
     <g id="line2d_63">
      <g>
       <use style="stroke:#000000;stroke-width:0.5;" x="298.372301" xlink:href="#mafb4d883e8" y="125.250128"/>
      </g>
     </g>
     <g id="text_12">
      <!-- 90 -->
      <g transform="translate(28.510938 129.049347)scale(0.1 -0.1)">
       <use xlink:href="#DejaVuSerif-57"/>
       <use x="63.623047" xlink:href="#DejaVuSerif-48"/>
      </g>
     </g>
    </g>
    <g id="ytick_6">
     <g id="line2d_64">
      <path clip-path="url(#p882a089edc)" d="M 44.735938 35.060863 
L 298.372301 35.060863 
" style="fill:none;stroke:#000000;stroke-dasharray:1.85,0.8;stroke-dashoffset:0;stroke-opacity:0.5;stroke-width:0.5;"/>
     </g>
     <g id="line2d_65">
      <g>
       <use style="stroke:#000000;stroke-width:0.5;" x="44.735938" xlink:href="#m3e08ada325" y="35.060863"/>
      </g>
     </g>
     <g id="line2d_66">
      <g>
       <use style="stroke:#000000;stroke-width:0.5;" x="298.372301" xlink:href="#mafb4d883e8" y="35.060863"/>
      </g>
     </g>
     <g id="text_13">
      <!-- 95 -->
      <g transform="translate(28.510938 38.860082)scale(0.1 -0.1)">
       <use xlink:href="#DejaVuSerif-57"/>
       <use x="63.623047" xlink:href="#DejaVuSerif-53"/>
      </g>
     </g>
    </g>
    <g id="ytick_7">
     <g id="line2d_67">
      <defs>
       <path d="M 0 0 
L 1.5 0 
" id="mdcb14f3534" style="stroke:#000000;stroke-width:0.5;"/>
      </defs>
      <g>
       <use style="stroke:#000000;stroke-width:0.5;" x="44.735938" xlink:href="#mdcb14f3534" y="253.015338"/>
      </g>
     </g>
     <g id="line2d_68">
      <defs>
       <path d="M 0 0 
L -1.5 0 
" id="m6a5ba643ca" style="stroke:#000000;stroke-width:0.5;"/>
      </defs>
      <g>
       <use style="stroke:#000000;stroke-width:0.5;" x="298.372301" xlink:href="#m6a5ba643ca" y="253.015338"/>
      </g>
     </g>
    </g>
    <g id="ytick_8">
     <g id="line2d_69">
      <g>
       <use style="stroke:#000000;stroke-width:0.5;" x="44.735938" xlink:href="#mdcb14f3534" y="248.823206"/>
      </g>
     </g>
     <g id="line2d_70">
      <g>
       <use style="stroke:#000000;stroke-width:0.5;" x="298.372301" xlink:href="#m6a5ba643ca" y="248.823206"/>
      </g>
     </g>
    </g>
    <g id="ytick_9">
     <g id="line2d_71">
      <g>
       <use style="stroke:#000000;stroke-width:0.5;" x="44.735938" xlink:href="#mdcb14f3534" y="246.407739"/>
      </g>
     </g>
     <g id="line2d_72">
      <g>
       <use style="stroke:#000000;stroke-width:0.5;" x="298.372301" xlink:href="#m6a5ba643ca" y="246.407739"/>
      </g>
     </g>
    </g>
    <g id="ytick_10">
     <g id="line2d_73">
      <g>
       <use style="stroke:#000000;stroke-width:0.5;" x="44.735938" xlink:href="#mdcb14f3534" y="243.750726"/>
      </g>
     </g>
     <g id="line2d_74">
      <g>
       <use style="stroke:#000000;stroke-width:0.5;" x="298.372301" xlink:href="#m6a5ba643ca" y="243.750726"/>
      </g>
     </g>
    </g>
    <g id="ytick_11">
     <g id="line2d_75">
      <g>
       <use style="stroke:#000000;stroke-width:0.5;" x="44.735938" xlink:href="#mdcb14f3534" y="240.828011"/>
      </g>
     </g>
     <g id="line2d_76">
      <g>
       <use style="stroke:#000000;stroke-width:0.5;" x="298.372301" xlink:href="#m6a5ba643ca" y="240.828011"/>
      </g>
     </g>
    </g>
    <g id="ytick_12">
     <g id="line2d_77">
      <g>
       <use style="stroke:#000000;stroke-width:0.5;" x="44.735938" xlink:href="#mdcb14f3534" y="234.07654"/>
      </g>
     </g>
     <g id="line2d_78">
      <g>
       <use style="stroke:#000000;stroke-width:0.5;" x="298.372301" xlink:href="#m6a5ba643ca" y="234.07654"/>
      </g>
     </g>
    </g>
    <g id="ytick_13">
     <g id="line2d_79">
      <g>
       <use style="stroke:#000000;stroke-width:0.5;" x="44.735938" xlink:href="#mdcb14f3534" y="230.186407"/>
      </g>
     </g>
     <g id="line2d_80">
      <g>
       <use style="stroke:#000000;stroke-width:0.5;" x="298.372301" xlink:href="#m6a5ba643ca" y="230.186407"/>
      </g>
     </g>
    </g>
    <g id="ytick_14">
     <g id="line2d_81">
      <g>
       <use style="stroke:#000000;stroke-width:0.5;" x="44.735938" xlink:href="#mdcb14f3534" y="225.90726"/>
      </g>
     </g>
     <g id="line2d_82">
      <g>
       <use style="stroke:#000000;stroke-width:0.5;" x="298.372301" xlink:href="#m6a5ba643ca" y="225.90726"/>
      </g>
     </g>
    </g>
    <g id="ytick_15">
     <g id="line2d_83">
      <g>
       <use style="stroke:#000000;stroke-width:0.5;" x="44.735938" xlink:href="#mdcb14f3534" y="221.200199"/>
      </g>
     </g>
     <g id="line2d_84">
      <g>
       <use style="stroke:#000000;stroke-width:0.5;" x="298.372301" xlink:href="#m6a5ba643ca" y="221.200199"/>
      </g>
     </g>
    </g>
    <g id="ytick_16">
     <g id="line2d_85">
      <g>
       <use style="stroke:#000000;stroke-width:0.5;" x="44.735938" xlink:href="#mdcb14f3534" y="210.326888"/>
      </g>
     </g>
     <g id="line2d_86">
      <g>
       <use style="stroke:#000000;stroke-width:0.5;" x="298.372301" xlink:href="#m6a5ba643ca" y="210.326888"/>
      </g>
     </g>
    </g>
    <g id="ytick_17">
     <g id="line2d_87">
      <g>
       <use style="stroke:#000000;stroke-width:0.5;" x="44.735938" xlink:href="#mdcb14f3534" y="204.061789"/>
      </g>
     </g>
     <g id="line2d_88">
      <g>
       <use style="stroke:#000000;stroke-width:0.5;" x="298.372301" xlink:href="#m6a5ba643ca" y="204.061789"/>
      </g>
     </g>
    </g>
    <g id="ytick_18">
     <g id="line2d_89">
      <g>
       <use style="stroke:#000000;stroke-width:0.5;" x="44.735938" xlink:href="#mdcb14f3534" y="197.170181"/>
      </g>
     </g>
     <g id="line2d_90">
      <g>
       <use style="stroke:#000000;stroke-width:0.5;" x="298.372301" xlink:href="#m6a5ba643ca" y="197.170181"/>
      </g>
     </g>
    </g>
    <g id="ytick_19">
     <g id="line2d_91">
      <g>
       <use style="stroke:#000000;stroke-width:0.5;" x="44.735938" xlink:href="#mdcb14f3534" y="189.589412"/>
      </g>
     </g>
     <g id="line2d_92">
      <g>
       <use style="stroke:#000000;stroke-width:0.5;" x="298.372301" xlink:href="#m6a5ba643ca" y="189.589412"/>
      </g>
     </g>
    </g>
    <g id="ytick_20">
     <g id="line2d_93">
      <g>
       <use style="stroke:#000000;stroke-width:0.5;" x="44.735938" xlink:href="#mdcb14f3534" y="172.077835"/>
      </g>
     </g>
     <g id="line2d_94">
      <g>
       <use style="stroke:#000000;stroke-width:0.5;" x="298.372301" xlink:href="#m6a5ba643ca" y="172.077835"/>
      </g>
     </g>
    </g>
    <g id="ytick_21">
     <g id="line2d_95">
      <g>
       <use style="stroke:#000000;stroke-width:0.5;" x="44.735938" xlink:href="#mdcb14f3534" y="161.987832"/>
      </g>
     </g>
     <g id="line2d_96">
      <g>
       <use style="stroke:#000000;stroke-width:0.5;" x="298.372301" xlink:href="#m6a5ba643ca" y="161.987832"/>
      </g>
     </g>
    </g>
    <g id="ytick_22">
     <g id="line2d_97">
      <g>
       <use style="stroke:#000000;stroke-width:0.5;" x="44.735938" xlink:href="#mdcb14f3534" y="150.888828"/>
      </g>
     </g>
     <g id="line2d_98">
      <g>
       <use style="stroke:#000000;stroke-width:0.5;" x="298.372301" xlink:href="#m6a5ba643ca" y="150.888828"/>
      </g>
     </g>
    </g>
    <g id="ytick_23">
     <g id="line2d_99">
      <g>
       <use style="stroke:#000000;stroke-width:0.5;" x="44.735938" xlink:href="#mdcb14f3534" y="138.679923"/>
      </g>
     </g>
     <g id="line2d_100">
      <g>
       <use style="stroke:#000000;stroke-width:0.5;" x="298.372301" xlink:href="#m6a5ba643ca" y="138.679923"/>
      </g>
     </g>
    </g>
    <g id="ytick_24">
     <g id="line2d_101">
      <g>
       <use style="stroke:#000000;stroke-width:0.5;" x="44.735938" xlink:href="#mdcb14f3534" y="110.477354"/>
      </g>
     </g>
     <g id="line2d_102">
      <g>
       <use style="stroke:#000000;stroke-width:0.5;" x="298.372301" xlink:href="#m6a5ba643ca" y="110.477354"/>
      </g>
     </g>
    </g>
    <g id="ytick_25">
     <g id="line2d_103">
      <g>
       <use style="stroke:#000000;stroke-width:0.5;" x="44.735938" xlink:href="#mdcb14f3534" y="94.227302"/>
      </g>
     </g>
     <g id="line2d_104">
      <g>
       <use style="stroke:#000000;stroke-width:0.5;" x="298.372301" xlink:href="#m6a5ba643ca" y="94.227302"/>
      </g>
     </g>
    </g>
    <g id="ytick_26">
     <g id="line2d_105">
      <g>
       <use style="stroke:#000000;stroke-width:0.5;" x="44.735938" xlink:href="#mdcb14f3534" y="76.352245"/>
      </g>
     </g>
     <g id="line2d_106">
      <g>
       <use style="stroke:#000000;stroke-width:0.5;" x="298.372301" xlink:href="#m6a5ba643ca" y="76.352245"/>
      </g>
     </g>
    </g>
    <g id="ytick_27">
     <g id="line2d_107">
      <g>
       <use style="stroke:#000000;stroke-width:0.5;" x="44.735938" xlink:href="#mdcb14f3534" y="56.689682"/>
      </g>
     </g>
     <g id="line2d_108">
      <g>
       <use style="stroke:#000000;stroke-width:0.5;" x="298.372301" xlink:href="#m6a5ba643ca" y="56.689682"/>
      </g>
     </g>
    </g>
    <g id="ytick_28">
     <g id="line2d_109">
      <g>
       <use style="stroke:#000000;stroke-width:0.5;" x="44.735938" xlink:href="#mdcb14f3534" y="11.269162"/>
      </g>
     </g>
     <g id="line2d_110">
      <g>
       <use style="stroke:#000000;stroke-width:0.5;" x="298.372301" xlink:href="#m6a5ba643ca" y="11.269162"/>
      </g>
     </g>
    </g>
    <g id="text_14">
     <!-- Test Accuracy in Percent -->
     <defs>
      <path d="M 19.09375 0 
L 19.09375 5.171875 
L 28.421875 5.171875 
L 28.421875 67.09375 
L 6.984375 67.09375 
L 6.984375 55.71875 
L 0.984375 55.71875 
L 0.984375 72.90625 
L 65.71875 72.90625 
L 65.71875 55.71875 
L 59.71875 55.71875 
L 59.71875 67.09375 
L 38.28125 67.09375 
L 38.28125 5.171875 
L 47.609375 5.171875 
L 47.609375 0 
z
" id="DejaVuSerif-84"/>
      <path d="M 20.015625 26.421875 
L 46.78125 26.421875 
L 33.40625 61.078125 
z
M -0.59375 0 
L -0.59375 5.171875 
L 5.8125 5.171875 
L 31.78125 72.90625 
L 39.984375 72.90625 
L 66.015625 5.171875 
L 73.1875 5.171875 
L 73.1875 0 
L 46.6875 0 
L 46.6875 5.171875 
L 54.78125 5.171875 
L 48.6875 21.1875 
L 18.015625 21.1875 
L 11.921875 5.171875 
L 19.921875 5.171875 
L 19.921875 0 
z
" id="DejaVuSerif-65"/>
      <path d="M 21.578125 -9.515625 
L 25 -0.875 
L 5.609375 46.6875 
L -0.296875 46.6875 
L -0.296875 51.90625 
L 23.578125 51.90625 
L 23.578125 46.6875 
L 15.28125 46.6875 
L 29.890625 10.984375 
L 44.484375 46.6875 
L 36.71875 46.6875 
L 36.71875 51.90625 
L 56.203125 51.90625 
L 56.203125 46.6875 
L 50.390625 46.6875 
L 26.609375 -11.71875 
Q 24.171875 -17.78125 21.1875 -20 
Q 18.21875 -22.21875 12.796875 -22.21875 
Q 10.5 -22.21875 8.078125 -21.828125 
Q 5.671875 -21.4375 3.21875 -20.703125 
L 3.21875 -10.796875 
L 7.8125 -10.796875 
Q 8.109375 -14.109375 9.5 -15.546875 
Q 10.890625 -17 13.8125 -17 
Q 16.5 -17 18.140625 -15.5 
Q 19.78125 -14.015625 21.578125 -9.515625 
z
" id="DejaVuSerif-121"/>
     </defs>
     <g transform="translate(22.289063 191.853438)rotate(-90)scale(0.1 -0.1)">
      <use xlink:href="#DejaVuSerif-84"/>
      <use x="58.949219" xlink:href="#DejaVuSerif-101"/>
      <use x="118.128906" xlink:href="#DejaVuSerif-115"/>
      <use x="169.447266" xlink:href="#DejaVuSerif-116"/>
      <use x="209.632812" xlink:href="#DejaVuSerif-32"/>
      <use x="241.419922" xlink:href="#DejaVuSerif-65"/>
      <use x="313.636719" xlink:href="#DejaVuSerif-99"/>
      <use x="369.642578" xlink:href="#DejaVuSerif-99"/>
      <use x="425.648438" xlink:href="#DejaVuSerif-117"/>
      <use x="490.052734" xlink:href="#DejaVuSerif-114"/>
      <use x="537.855469" xlink:href="#DejaVuSerif-97"/>
      <use x="597.474609" xlink:href="#DejaVuSerif-99"/>
      <use x="653.480469" xlink:href="#DejaVuSerif-121"/>
      <use x="709.974609" xlink:href="#DejaVuSerif-32"/>
      <use x="741.761719" xlink:href="#DejaVuSerif-105"/>
      <use x="773.744141" xlink:href="#DejaVuSerif-110"/>
      <use x="838.148438" xlink:href="#DejaVuSerif-32"/>
      <use x="869.935547" xlink:href="#DejaVuSerif-80"/>
      <use x="932.720703" xlink:href="#DejaVuSerif-101"/>
      <use x="991.900391" xlink:href="#DejaVuSerif-114"/>
      <use x="1039.703125" xlink:href="#DejaVuSerif-99"/>
      <use x="1095.708984" xlink:href="#DejaVuSerif-101"/>
      <use x="1154.888672" xlink:href="#DejaVuSerif-110"/>
      <use x="1219.292969" xlink:href="#DejaVuSerif-116"/>
     </g>
    </g>
   </g>
   <g id="line2d_111">
    <path clip-path="url(#p882a089edc)" d="M -1 42.754173 
L 2.493644 44.636339 
L 10.086196 45.795454 
L 22.07131 46.335466 
L 38.60657 49.61412 
L 59.083457 50.918767 
L 82.33107 52.966206 
L 106.947462 59.520216 
L 131.605355 63.438332 
L 155.219578 69.121371 
L 177.035174 75.418485 
L 196.614204 84.91146 
L 213.797534 97.343811 
L 228.58466 113.046093 
L 241.147922 128.096184 
L 251.674898 138.924567 
" style="fill:none;stroke:#0c5da5;stroke-linecap:square;"/>
   </g>
   <g id="line2d_112">
    <path clip-path="url(#p882a089edc)" d="M -1 38.389475 
L 2.493644 39.214072 
L 10.086196 39.718492 
L 22.07131 40.170687 
L 38.60657 42.831802 
L 59.083457 43.865903 
L 82.33107 46.65057 
L 106.947462 49.818475 
L 131.605355 52.821164 
L 155.219578 56.505886 
L 177.035174 62.5311 
L 196.614204 68.036252 
L 213.797534 75.693154 
L 228.58466 81.83626 
L 241.147922 89.938412 
L 251.674898 101.015256 
L 260.425697 116.337692 
L 267.641395 130.357522 
L 273.551355 130.845785 
" style="fill:none;stroke:#00b945;stroke-linecap:square;"/>
   </g>
   <g id="line2d_113">
    <path clip-path="url(#p882a089edc)" d="M -1 39.452612 
L 2.493644 39.291088 
L 10.086196 40.800587 
L 22.07131 157.955896 
L 38.60657 39.458344 
L 59.083457 168.066544 
L 82.33107 46.961099 
L 106.947462 96.612438 
L 131.605355 57.407524 
L 155.219578 58.442347 
L 177.035174 148.601498 
L 196.614204 68.116273 
L 213.797534 75.734081 
L 228.58466 83.797293 
L 241.147922 94.168828 
L 251.674898 111.55185 
L 260.425697 122.67503 
L 267.641395 133.006138 
L 273.551355 125.886979 
" style="fill:none;stroke:#ff9500;stroke-linecap:square;"/>
   </g>
   <g id="patch_3">
    <path d="M 44.735938 254.16 
L 44.735938 3.6 
" style="fill:none;stroke:#000000;stroke-linecap:square;stroke-linejoin:miter;stroke-width:0.5;"/>
   </g>
   <g id="patch_4">
    <path d="M 298.372301 254.16 
L 298.372301 3.6 
" style="fill:none;stroke:#000000;stroke-linecap:square;stroke-linejoin:miter;stroke-width:0.5;"/>
   </g>
   <g id="patch_5">
    <path d="M 44.735938 254.16 
L 298.372301 254.16 
" style="fill:none;stroke:#000000;stroke-linecap:square;stroke-linejoin:miter;stroke-width:0.5;"/>
   </g>
   <g id="patch_6">
    <path d="M 44.735938 3.6 
L 298.372301 3.6 
" style="fill:none;stroke:#000000;stroke-linecap:square;stroke-linejoin:miter;stroke-width:0.5;"/>
   </g>
  </g>
  <g id="axes_2">
   <g id="patch_7">
    <path d="M 349.099574 254.16 
L 602.735937 254.16 
L 602.735937 3.6 
L 349.099574 3.6 
z
" style="fill:#ffffff;"/>
   </g>
   <g id="PolyCollection_4">
    <path clip-path="url(#p5ce9f54560)" d="M 300.245718 63.006366 
L 300.245718 67.849827 
L 300.245854 52.267673 
L 300.248303 49.534202 
L 300.272429 42.881159 
L 300.272429 37.819492 
L 300.272429 37.819492 
L 300.248303 45.08148 
L 300.245854 47.421756 
L 300.245718 63.006366 
z
" style="fill:#0c5da5;fill-opacity:0.2;stroke:#0c5da5;stroke-opacity:0.2;"/>
    <path clip-path="url(#p5ce9f54560)" d="M 300.418532 36.751153 
L 300.418532 41.972222 
L 300.418532 36.751153 
L 300.418532 36.751153 
z
" style="fill:#0c5da5;fill-opacity:0.2;stroke:#0c5da5;stroke-opacity:0.2;"/>
    <path clip-path="url(#p5ce9f54560)" d="M 301.015303 35.594463 
L 301.015303 40.646519 
L 301.015303 35.594463 
L 301.015303 35.594463 
z
" style="fill:#0c5da5;fill-opacity:0.2;stroke:#0c5da5;stroke-opacity:0.2;"/>
    <path clip-path="url(#p5ce9f54560)" d="M 302.787838 36.896648 
L 302.787838 40.71794 
L 302.787838 36.896648 
L 302.787838 36.896648 
z
" style="fill:#0c5da5;fill-opacity:0.2;stroke:#0c5da5;stroke-opacity:0.2;"/>
    <path clip-path="url(#p5ce9f54560)" d="M 306.857642 34.477254 
L 306.857642 41.744083 
L 306.857642 34.477254 
L 306.857642 34.477254 
z
" style="fill:#0c5da5;fill-opacity:0.2;stroke:#0c5da5;stroke-opacity:0.2;"/>
    <path clip-path="url(#p5ce9f54560)" d="M 314.451386 38.830774 
L 314.451386 46.108863 
L 326.435902 43.721116 
L 342.972543 49.621912 
L 363.45055 55.878067 
L 386.699435 60.410917 
L 411.315148 68.13348 
L 435.973941 77.62644 
L 459.583214 91.61513 
L 481.39881 101.932819 
L 500.970521 118.152826 
L 518.149252 145.061542 
L 532.948296 175.082985 
L 545.502616 196.812617 
L 545.502616 176.235646 
L 545.502616 176.235646 
L 532.948296 159.998806 
L 518.149252 132.907767 
L 500.970521 113.218908 
L 481.39881 94.610253 
L 459.583214 81.965679 
L 435.973941 70.340823 
L 411.315148 62.682975 
L 386.699435 54.954033 
L 363.45055 49.432366 
L 342.972543 44.45888 
L 326.435902 39.205036 
L 314.451386 38.830774 
z
" style="fill:#0c5da5;fill-opacity:0.2;stroke:#0c5da5;stroke-opacity:0.2;"/>
   </g>
   <g id="PolyCollection_5">
    <path clip-path="url(#p5ce9f54560)" d="M 300.245718 41.341579 
L 300.245718 46.438108 
L 300.245854 38.572854 
L 300.248303 36.445455 
L 300.272429 32.467711 
L 300.418532 33.741634 
L 301.015303 34.265647 
L 302.787838 36.641541 
L 306.857642 35.925614 
L 314.451386 37.381657 
L 326.435902 36.65328 
L 326.435902 29.484977 
L 326.435902 29.484977 
L 314.451386 29.494595 
L 306.857642 31.386922 
L 302.787838 28.537892 
L 301.015303 27.285497 
L 300.418532 27.805964 
L 300.272429 27.712661 
L 300.248303 30.381627 
L 300.245854 32.585114 
L 300.245718 41.341579 
z
" style="fill:#00b945;fill-opacity:0.2;stroke:#00b945;stroke-opacity:0.2;"/>
    <path clip-path="url(#p5ce9f54560)" d="M 342.972543 35.680313 
L 342.972543 43.250383 
L 342.972543 35.680313 
L 342.972543 35.680313 
z
" style="fill:#00b945;fill-opacity:0.2;stroke:#00b945;stroke-opacity:0.2;"/>
    <path clip-path="url(#p5ce9f54560)" d="M 363.45055 36.780762 
L 363.45055 42.398203 
L 363.45055 36.780762 
L 363.45055 36.780762 
z
" style="fill:#00b945;fill-opacity:0.2;stroke:#00b945;stroke-opacity:0.2;"/>
    <path clip-path="url(#p5ce9f54560)" d="M 386.699435 40.359617 
L 386.699435 48.234744 
L 386.699435 40.359617 
L 386.699435 40.359617 
z
" style="fill:#00b945;fill-opacity:0.2;stroke:#00b945;stroke-opacity:0.2;"/>
    <path clip-path="url(#p5ce9f54560)" d="M 411.315148 47.056565 
L 411.315148 52.401667 
L 411.315148 47.056565 
L 411.315148 47.056565 
z
" style="fill:#00b945;fill-opacity:0.2;stroke:#00b945;stroke-opacity:0.2;"/>
    <path clip-path="url(#p5ce9f54560)" d="M 435.973941 57.044178 
L 435.973941 62.695627 
L 459.583214 71.999034 
L 481.39881 81.46698 
L 500.970521 93.062991 
L 518.149252 109.423867 
L 532.948296 126.813848 
L 545.502616 143.753776 
L 556.029207 165.786037 
L 564.789333 195.295562 
L 564.789333 184.958049 
L 564.789333 184.958049 
L 556.029207 155.009009 
L 545.502616 129.529577 
L 532.948296 114.460285 
L 518.149252 97.716851 
L 500.970521 82.543416 
L 481.39881 73.618694 
L 459.583214 63.1168 
L 435.973941 57.044178 
z
" style="fill:#00b945;fill-opacity:0.2;stroke:#00b945;stroke-opacity:0.2;"/>
   </g>
   <g id="PolyCollection_6">
    <defs>
     <path d="M 300.245718 -315.301439 
L 300.245718 -302.170243 
L 300.245854 -319.772917 
L 300.248303 -315.788293 
L 300.272429 -303.210868 
L 300.418532 -323.146037 
L 301.015303 -318.367207 
L 302.787838 -293.675543 
L 306.857642 -318.047738 
L 314.451386 -321.236487 
L 326.435902 -313.286624 
L 342.972543 -292.30634 
L 363.45055 -307.430957 
L 386.699435 -294.572972 
L 411.315148 -296.488894 
L 435.973941 -246.772231 
L 459.583214 -254.252396 
L 481.39881 -270.31315 
L 500.970521 -232.453202 
L 518.149252 -224.188673 
L 532.948296 -173.070689 
L 545.502616 -191.043635 
L 556.029207 -108.520728 
L 564.789333 -143.182068 
L 564.789333 -165.352635 
L 564.789333 -165.352635 
L 556.029207 -206.288228 
L 545.502616 -217.181591 
L 532.948296 -238.621281 
L 518.149252 -260.532057 
L 500.970521 -271.452431 
L 481.39881 -283.90908 
L 459.583214 -294.551706 
L 435.973941 -300.297532 
L 411.315148 -313.366508 
L 386.699435 -315.96983 
L 363.45055 -318.920317 
L 342.972543 -323.347151 
L 326.435902 -329.018984 
L 314.451386 -330.343967 
L 306.857642 -333.656384 
L 302.787838 -331.45891 
L 301.015303 -332.280332 
L 300.418532 -334.566778 
L 300.272429 -329.553952 
L 300.248303 -332.468026 
L 300.245854 -326.795329 
L 300.245718 -315.301439 
z
" id="m97563e54ff" style="stroke:#ff9500;stroke-opacity:0.2;"/>
    </defs>
    <g clip-path="url(#p5ce9f54560)">
     <use style="fill:#ff9500;fill-opacity:0.2;stroke:#ff9500;stroke-opacity:0.2;" x="0" xlink:href="#m97563e54ff" y="356.038125"/>
    </g>
   </g>
   <g id="matplotlib.axis_3">
    <g id="xtick_22">
     <g id="line2d_114">
      <path clip-path="url(#p5ce9f54560)" d="M 349.099574 254.16 
L 349.099574 3.6 
" style="fill:none;stroke:#000000;stroke-dasharray:1.85,0.8;stroke-dashoffset:0;stroke-opacity:0.5;stroke-width:0.5;"/>
     </g>
     <g id="line2d_115">
      <g>
       <use style="stroke:#000000;stroke-width:0.5;" x="349.099574" xlink:href="#m80d8460d41" y="254.16"/>
      </g>
     </g>
     <g id="line2d_116">
      <g>
       <use style="stroke:#000000;stroke-width:0.5;" x="349.099574" xlink:href="#m64a3152e13" y="3.6"/>
      </g>
     </g>
     <g id="text_15">
      <!-- 90 -->
      <g transform="translate(342.737074 265.258438)scale(0.1 -0.1)">
       <use xlink:href="#DejaVuSerif-57"/>
       <use x="63.623047" xlink:href="#DejaVuSerif-48"/>
      </g>
     </g>
    </g>
    <g id="xtick_23">
     <g id="line2d_117">
      <path clip-path="url(#p5ce9f54560)" d="M 370.595272 254.16 
L 370.595272 3.6 
" style="fill:none;stroke:#000000;stroke-dasharray:1.85,0.8;stroke-dashoffset:0;stroke-opacity:0.5;stroke-width:0.5;"/>
     </g>
     <g id="line2d_118">
      <g>
       <use style="stroke:#000000;stroke-width:0.5;" x="370.595272" xlink:href="#m80d8460d41" y="254.16"/>
      </g>
     </g>
     <g id="line2d_119">
      <g>
       <use style="stroke:#000000;stroke-width:0.5;" x="370.595272" xlink:href="#m64a3152e13" y="3.6"/>
      </g>
     </g>
     <g id="text_16">
      <!-- 92 -->
      <g transform="translate(364.232772 265.258438)scale(0.1 -0.1)">
       <use xlink:href="#DejaVuSerif-57"/>
       <use x="63.623047" xlink:href="#DejaVuSerif-50"/>
      </g>
     </g>
    </g>
    <g id="xtick_24">
     <g id="line2d_120">
      <path clip-path="url(#p5ce9f54560)" d="M 401.549078 254.16 
L 401.549078 3.6 
" style="fill:none;stroke:#000000;stroke-dasharray:1.85,0.8;stroke-dashoffset:0;stroke-opacity:0.5;stroke-width:0.5;"/>
     </g>
     <g id="line2d_121">
      <g>
       <use style="stroke:#000000;stroke-width:0.5;" x="401.549078" xlink:href="#m80d8460d41" y="254.16"/>
      </g>
     </g>
     <g id="line2d_122">
      <g>
       <use style="stroke:#000000;stroke-width:0.5;" x="401.549078" xlink:href="#m64a3152e13" y="3.6"/>
      </g>
     </g>
     <g id="text_17">
      <!-- 94 -->
      <g transform="translate(395.186578 265.258438)scale(0.1 -0.1)">
       <use xlink:href="#DejaVuSerif-57"/>
       <use x="63.623047" xlink:href="#DejaVuSerif-52"/>
      </g>
     </g>
    </g>
    <g id="xtick_25">
     <g id="line2d_123">
      <path clip-path="url(#p5ce9f54560)" d="M 446.122558 254.16 
L 446.122558 3.6 
" style="fill:none;stroke:#000000;stroke-dasharray:1.85,0.8;stroke-dashoffset:0;stroke-opacity:0.5;stroke-width:0.5;"/>
     </g>
     <g id="line2d_124">
      <g>
       <use style="stroke:#000000;stroke-width:0.5;" x="446.122558" xlink:href="#m80d8460d41" y="254.16"/>
      </g>
     </g>
     <g id="line2d_125">
      <g>
       <use style="stroke:#000000;stroke-width:0.5;" x="446.122558" xlink:href="#m64a3152e13" y="3.6"/>
      </g>
     </g>
     <g id="text_18">
      <!-- 96 -->
      <g transform="translate(439.760058 265.258438)scale(0.1 -0.1)">
       <use xlink:href="#DejaVuSerif-57"/>
       <use x="63.623047" xlink:href="#DejaVuSerif-54"/>
      </g>
     </g>
    </g>
    <g id="xtick_26">
     <g id="line2d_126">
      <path clip-path="url(#p5ce9f54560)" d="M 510.308369 254.16 
L 510.308369 3.6 
" style="fill:none;stroke:#000000;stroke-dasharray:1.85,0.8;stroke-dashoffset:0;stroke-opacity:0.5;stroke-width:0.5;"/>
     </g>
     <g id="line2d_127">
      <g>
       <use style="stroke:#000000;stroke-width:0.5;" x="510.308369" xlink:href="#m80d8460d41" y="254.16"/>
      </g>
     </g>
     <g id="line2d_128">
      <g>
       <use style="stroke:#000000;stroke-width:0.5;" x="510.308369" xlink:href="#m64a3152e13" y="3.6"/>
      </g>
     </g>
     <g id="text_19">
      <!-- 98 -->
      <g transform="translate(503.945869 265.258438)scale(0.1 -0.1)">
       <use xlink:href="#DejaVuSerif-57"/>
       <use x="63.623047" xlink:href="#DejaVuSerif-56"/>
      </g>
     </g>
    </g>
    <g id="xtick_27">
     <g id="line2d_129">
      <path clip-path="url(#p5ce9f54560)" d="M 602.735937 254.16 
L 602.735937 3.6 
" style="fill:none;stroke:#000000;stroke-dasharray:1.85,0.8;stroke-dashoffset:0;stroke-opacity:0.5;stroke-width:0.5;"/>
     </g>
     <g id="line2d_130">
      <g>
       <use style="stroke:#000000;stroke-width:0.5;" x="602.735937" xlink:href="#m80d8460d41" y="254.16"/>
      </g>
     </g>
     <g id="line2d_131">
      <g>
       <use style="stroke:#000000;stroke-width:0.5;" x="602.735937" xlink:href="#m64a3152e13" y="3.6"/>
      </g>
     </g>
     <g id="text_20">
      <!-- 100 -->
      <g transform="translate(593.192187 265.258438)scale(0.1 -0.1)">
       <use xlink:href="#DejaVuSerif-49"/>
       <use x="63.623047" xlink:href="#DejaVuSerif-48"/>
       <use x="127.246094" xlink:href="#DejaVuSerif-48"/>
      </g>
     </g>
    </g>
    <g id="xtick_28">
     <g id="line2d_132">
      <g>
       <use style="stroke:#000000;stroke-width:0.5;" x="353.762436" xlink:href="#mff8bc4c01c" y="254.16"/>
      </g>
     </g>
     <g id="line2d_133">
      <g>
       <use style="stroke:#000000;stroke-width:0.5;" x="353.762436" xlink:href="#m08978652bb" y="3.6"/>
      </g>
     </g>
    </g>
    <g id="xtick_29">
     <g id="line2d_134">
      <g>
       <use style="stroke:#000000;stroke-width:0.5;" x="358.870346" xlink:href="#mff8bc4c01c" y="254.16"/>
      </g>
     </g>
     <g id="line2d_135">
      <g>
       <use style="stroke:#000000;stroke-width:0.5;" x="358.870346" xlink:href="#m08978652bb" y="3.6"/>
      </g>
     </g>
    </g>
    <g id="xtick_30">
     <g id="line2d_136">
      <g>
       <use style="stroke:#000000;stroke-width:0.5;" x="364.465781" xlink:href="#mff8bc4c01c" y="254.16"/>
      </g>
     </g>
     <g id="line2d_137">
      <g>
       <use style="stroke:#000000;stroke-width:0.5;" x="364.465781" xlink:href="#m08978652bb" y="3.6"/>
      </g>
     </g>
    </g>
    <g id="xtick_31">
     <g id="line2d_138">
      <g>
       <use style="stroke:#000000;stroke-width:0.5;" x="377.309794" xlink:href="#mff8bc4c01c" y="254.16"/>
      </g>
     </g>
     <g id="line2d_139">
      <g>
       <use style="stroke:#000000;stroke-width:0.5;" x="377.309794" xlink:href="#m08978652bb" y="3.6"/>
      </g>
     </g>
    </g>
    <g id="xtick_32">
     <g id="line2d_140">
      <g>
       <use style="stroke:#000000;stroke-width:0.5;" x="384.665184" xlink:href="#mff8bc4c01c" y="254.16"/>
      </g>
     </g>
     <g id="line2d_141">
      <g>
       <use style="stroke:#000000;stroke-width:0.5;" x="384.665184" xlink:href="#m08978652bb" y="3.6"/>
      </g>
     </g>
    </g>
    <g id="xtick_33">
     <g id="line2d_142">
      <g>
       <use style="stroke:#000000;stroke-width:0.5;" x="392.72261" xlink:href="#mff8bc4c01c" y="254.16"/>
      </g>
     </g>
     <g id="line2d_143">
      <g>
       <use style="stroke:#000000;stroke-width:0.5;" x="392.72261" xlink:href="#m08978652bb" y="3.6"/>
      </g>
     </g>
    </g>
    <g id="xtick_34">
     <g id="line2d_144">
      <g>
       <use style="stroke:#000000;stroke-width:0.5;" x="411.217989" xlink:href="#mff8bc4c01c" y="254.16"/>
      </g>
     </g>
     <g id="line2d_145">
      <g>
       <use style="stroke:#000000;stroke-width:0.5;" x="411.217989" xlink:href="#m08978652bb" y="3.6"/>
      </g>
     </g>
    </g>
    <g id="xtick_35">
     <g id="line2d_146">
      <g>
       <use style="stroke:#000000;stroke-width:0.5;" x="421.809751" xlink:href="#mff8bc4c01c" y="254.16"/>
      </g>
     </g>
     <g id="line2d_147">
      <g>
       <use style="stroke:#000000;stroke-width:0.5;" x="421.809751" xlink:href="#m08978652bb" y="3.6"/>
      </g>
     </g>
    </g>
    <g id="xtick_36">
     <g id="line2d_148">
      <g>
       <use style="stroke:#000000;stroke-width:0.5;" x="433.412444" xlink:href="#mff8bc4c01c" y="254.16"/>
      </g>
     </g>
     <g id="line2d_149">
      <g>
       <use style="stroke:#000000;stroke-width:0.5;" x="433.412444" xlink:href="#m08978652bb" y="3.6"/>
      </g>
     </g>
    </g>
    <g id="xtick_37">
     <g id="line2d_150">
      <g>
       <use style="stroke:#000000;stroke-width:0.5;" x="460.04579" xlink:href="#mff8bc4c01c" y="254.16"/>
      </g>
     </g>
     <g id="line2d_151">
      <g>
       <use style="stroke:#000000;stroke-width:0.5;" x="460.04579" xlink:href="#m08978652bb" y="3.6"/>
      </g>
     </g>
    </g>
    <g id="xtick_38">
     <g id="line2d_152">
      <g>
       <use style="stroke:#000000;stroke-width:0.5;" x="475.297927" xlink:href="#mff8bc4c01c" y="254.16"/>
      </g>
     </g>
     <g id="line2d_153">
      <g>
       <use style="stroke:#000000;stroke-width:0.5;" x="475.297927" xlink:href="#m08978652bb" y="3.6"/>
      </g>
     </g>
    </g>
    <g id="xtick_39">
     <g id="line2d_154">
      <g>
       <use style="stroke:#000000;stroke-width:0.5;" x="492.005805" xlink:href="#mff8bc4c01c" y="254.16"/>
      </g>
     </g>
     <g id="line2d_155">
      <g>
       <use style="stroke:#000000;stroke-width:0.5;" x="492.005805" xlink:href="#m08978652bb" y="3.6"/>
      </g>
     </g>
    </g>
    <g id="xtick_40">
     <g id="line2d_156">
      <g>
       <use style="stroke:#000000;stroke-width:0.5;" x="530.357823" xlink:href="#mff8bc4c01c" y="254.16"/>
      </g>
     </g>
     <g id="line2d_157">
      <g>
       <use style="stroke:#000000;stroke-width:0.5;" x="530.357823" xlink:href="#m08978652bb" y="3.6"/>
      </g>
     </g>
    </g>
    <g id="xtick_41">
     <g id="line2d_158">
      <g>
       <use style="stroke:#000000;stroke-width:0.5;" x="552.3209" xlink:href="#mff8bc4c01c" y="254.16"/>
      </g>
     </g>
     <g id="line2d_159">
      <g>
       <use style="stroke:#000000;stroke-width:0.5;" x="552.3209" xlink:href="#m08978652bb" y="3.6"/>
      </g>
     </g>
    </g>
    <g id="xtick_42">
     <g id="line2d_160">
      <g>
       <use style="stroke:#000000;stroke-width:0.5;" x="576.380245" xlink:href="#mff8bc4c01c" y="254.16"/>
      </g>
     </g>
     <g id="line2d_161">
      <g>
       <use style="stroke:#000000;stroke-width:0.5;" x="576.380245" xlink:href="#m08978652bb" y="3.6"/>
      </g>
     </g>
    </g>
    <g id="text_21">
     <!-- Percentage of Pruned Weights -->
     <g transform="translate(399.028693 278.936563)scale(0.1 -0.1)">
      <use xlink:href="#DejaVuSerif-80"/>
      <use x="62.785156" xlink:href="#DejaVuSerif-101"/>
      <use x="121.964844" xlink:href="#DejaVuSerif-114"/>
      <use x="169.767578" xlink:href="#DejaVuSerif-99"/>
      <use x="225.773438" xlink:href="#DejaVuSerif-101"/>
      <use x="284.953125" xlink:href="#DejaVuSerif-110"/>
      <use x="349.357422" xlink:href="#DejaVuSerif-116"/>
      <use x="389.542969" xlink:href="#DejaVuSerif-97"/>
      <use x="449.162109" xlink:href="#DejaVuSerif-103"/>
      <use x="513.175781" xlink:href="#DejaVuSerif-101"/>
      <use x="572.355469" xlink:href="#DejaVuSerif-32"/>
      <use x="604.142578" xlink:href="#DejaVuSerif-111"/>
      <use x="664.347656" xlink:href="#DejaVuSerif-102"/>
      <use x="701.359375" xlink:href="#DejaVuSerif-32"/>
      <use x="733.146484" xlink:href="#DejaVuSerif-80"/>
      <use x="800.431641" xlink:href="#DejaVuSerif-114"/>
      <use x="848.234375" xlink:href="#DejaVuSerif-117"/>
      <use x="912.638672" xlink:href="#DejaVuSerif-110"/>
      <use x="977.042969" xlink:href="#DejaVuSerif-101"/>
      <use x="1036.222656" xlink:href="#DejaVuSerif-100"/>
      <use x="1100.236328" xlink:href="#DejaVuSerif-32"/>
      <use x="1132.023438" xlink:href="#DejaVuSerif-87"/>
      <use x="1226.681641" xlink:href="#DejaVuSerif-101"/>
      <use x="1285.861328" xlink:href="#DejaVuSerif-105"/>
      <use x="1317.84375" xlink:href="#DejaVuSerif-103"/>
      <use x="1381.857422" xlink:href="#DejaVuSerif-104"/>
      <use x="1446.261719" xlink:href="#DejaVuSerif-116"/>
      <use x="1486.447266" xlink:href="#DejaVuSerif-115"/>
     </g>
    </g>
   </g>
   <g id="matplotlib.axis_4">
    <g id="ytick_29">
     <g id="line2d_162">
      <path clip-path="url(#p5ce9f54560)" d="M 349.099574 235.441338 
L 602.735937 235.441338 
" style="fill:none;stroke:#000000;stroke-dasharray:1.85,0.8;stroke-dashoffset:0;stroke-opacity:0.5;stroke-width:0.5;"/>
     </g>
     <g id="line2d_163">
      <g>
       <use style="stroke:#000000;stroke-width:0.5;" x="349.099574" xlink:href="#m3e08ada325" y="235.441338"/>
      </g>
     </g>
     <g id="line2d_164">
      <g>
       <use style="stroke:#000000;stroke-width:0.5;" x="602.735937" xlink:href="#mafb4d883e8" y="235.441338"/>
      </g>
     </g>
     <g id="text_22">
      <!-- 86 -->
      <g transform="translate(332.874574 239.240557)scale(0.1 -0.1)">
       <use xlink:href="#DejaVuSerif-56"/>
       <use x="63.623047" xlink:href="#DejaVuSerif-54"/>
      </g>
     </g>
    </g>
    <g id="ytick_30">
     <g id="line2d_165">
      <path clip-path="url(#p5ce9f54560)" d="M 349.099574 202.603514 
L 602.735937 202.603514 
" style="fill:none;stroke:#000000;stroke-dasharray:1.85,0.8;stroke-dashoffset:0;stroke-opacity:0.5;stroke-width:0.5;"/>
     </g>
     <g id="line2d_166">
      <g>
       <use style="stroke:#000000;stroke-width:0.5;" x="349.099574" xlink:href="#m3e08ada325" y="202.603514"/>
      </g>
     </g>
     <g id="line2d_167">
      <g>
       <use style="stroke:#000000;stroke-width:0.5;" x="602.735937" xlink:href="#mafb4d883e8" y="202.603514"/>
      </g>
     </g>
     <g id="text_23">
      <!-- 88 -->
      <g transform="translate(332.874574 206.402733)scale(0.1 -0.1)">
       <use xlink:href="#DejaVuSerif-56"/>
       <use x="63.623047" xlink:href="#DejaVuSerif-56"/>
      </g>
     </g>
    </g>
    <g id="ytick_31">
     <g id="line2d_168">
      <path clip-path="url(#p5ce9f54560)" d="M 349.099574 162.869746 
L 602.735937 162.869746 
" style="fill:none;stroke:#000000;stroke-dasharray:1.85,0.8;stroke-dashoffset:0;stroke-opacity:0.5;stroke-width:0.5;"/>
     </g>
     <g id="line2d_169">
      <g>
       <use style="stroke:#000000;stroke-width:0.5;" x="349.099574" xlink:href="#m3e08ada325" y="162.869746"/>
      </g>
     </g>
     <g id="line2d_170">
      <g>
       <use style="stroke:#000000;stroke-width:0.5;" x="602.735937" xlink:href="#mafb4d883e8" y="162.869746"/>
      </g>
     </g>
     <g id="text_24">
      <!-- 90 -->
      <g transform="translate(332.874574 166.668965)scale(0.1 -0.1)">
       <use xlink:href="#DejaVuSerif-57"/>
       <use x="63.623047" xlink:href="#DejaVuSerif-48"/>
      </g>
     </g>
    </g>
    <g id="ytick_32">
     <g id="line2d_171">
      <path clip-path="url(#p5ce9f54560)" d="M 349.099574 114.791887 
L 602.735937 114.791887 
" style="fill:none;stroke:#000000;stroke-dasharray:1.85,0.8;stroke-dashoffset:0;stroke-opacity:0.5;stroke-width:0.5;"/>
     </g>
     <g id="line2d_172">
      <g>
       <use style="stroke:#000000;stroke-width:0.5;" x="349.099574" xlink:href="#m3e08ada325" y="114.791887"/>
      </g>
     </g>
     <g id="line2d_173">
      <g>
       <use style="stroke:#000000;stroke-width:0.5;" x="602.735937" xlink:href="#mafb4d883e8" y="114.791887"/>
      </g>
     </g>
     <g id="text_25">
      <!-- 92 -->
      <g transform="translate(332.874574 118.591106)scale(0.1 -0.1)">
       <use xlink:href="#DejaVuSerif-57"/>
       <use x="63.623047" xlink:href="#DejaVuSerif-50"/>
      </g>
     </g>
    </g>
    <g id="ytick_33">
     <g id="line2d_174">
      <path clip-path="url(#p5ce9f54560)" d="M 349.099574 56.617678 
L 602.735937 56.617678 
" style="fill:none;stroke:#000000;stroke-dasharray:1.85,0.8;stroke-dashoffset:0;stroke-opacity:0.5;stroke-width:0.5;"/>
     </g>
     <g id="line2d_175">
      <g>
       <use style="stroke:#000000;stroke-width:0.5;" x="349.099574" xlink:href="#m3e08ada325" y="56.617678"/>
      </g>
     </g>
     <g id="line2d_176">
      <g>
       <use style="stroke:#000000;stroke-width:0.5;" x="602.735937" xlink:href="#mafb4d883e8" y="56.617678"/>
      </g>
     </g>
     <g id="text_26">
      <!-- 94 -->
      <g transform="translate(332.874574 60.416897)scale(0.1 -0.1)">
       <use xlink:href="#DejaVuSerif-57"/>
       <use x="63.623047" xlink:href="#DejaVuSerif-52"/>
      </g>
     </g>
    </g>
    <g id="ytick_34">
     <g id="line2d_177">
      <g>
       <use style="stroke:#000000;stroke-width:0.5;" x="349.099574" xlink:href="#mdcb14f3534" y="249.656847"/>
      </g>
     </g>
     <g id="line2d_178">
      <g>
       <use style="stroke:#000000;stroke-width:0.5;" x="602.735937" xlink:href="#m6a5ba643ca" y="249.656847"/>
      </g>
     </g>
    </g>
    <g id="ytick_35">
     <g id="line2d_179">
      <g>
       <use style="stroke:#000000;stroke-width:0.5;" x="349.099574" xlink:href="#mdcb14f3534" y="242.718421"/>
      </g>
     </g>
     <g id="line2d_180">
      <g>
       <use style="stroke:#000000;stroke-width:0.5;" x="602.735937" xlink:href="#m6a5ba643ca" y="242.718421"/>
      </g>
     </g>
    </g>
    <g id="ytick_36">
     <g id="line2d_181">
      <g>
       <use style="stroke:#000000;stroke-width:0.5;" x="349.099574" xlink:href="#mdcb14f3534" y="227.80907"/>
      </g>
     </g>
     <g id="line2d_182">
      <g>
       <use style="stroke:#000000;stroke-width:0.5;" x="602.735937" xlink:href="#m6a5ba643ca" y="227.80907"/>
      </g>
     </g>
    </g>
    <g id="ytick_37">
     <g id="line2d_183">
      <g>
       <use style="stroke:#000000;stroke-width:0.5;" x="349.099574" xlink:href="#mdcb14f3534" y="219.804279"/>
      </g>
     </g>
     <g id="line2d_184">
      <g>
       <use style="stroke:#000000;stroke-width:0.5;" x="602.735937" xlink:href="#m6a5ba643ca" y="219.804279"/>
      </g>
     </g>
    </g>
    <g id="ytick_38">
     <g id="line2d_185">
      <g>
       <use style="stroke:#000000;stroke-width:0.5;" x="349.099574" xlink:href="#mdcb14f3534" y="211.408784"/>
      </g>
     </g>
     <g id="line2d_186">
      <g>
       <use style="stroke:#000000;stroke-width:0.5;" x="602.735937" xlink:href="#m6a5ba643ca" y="211.408784"/>
      </g>
     </g>
    </g>
    <g id="ytick_39">
     <g id="line2d_187">
      <g>
       <use style="stroke:#000000;stroke-width:0.5;" x="349.099574" xlink:href="#mdcb14f3534" y="193.368469"/>
      </g>
     </g>
     <g id="line2d_188">
      <g>
       <use style="stroke:#000000;stroke-width:0.5;" x="602.735937" xlink:href="#m6a5ba643ca" y="193.368469"/>
      </g>
     </g>
    </g>
    <g id="ytick_40">
     <g id="line2d_189">
      <g>
       <use style="stroke:#000000;stroke-width:0.5;" x="349.099574" xlink:href="#mdcb14f3534" y="183.682672"/>
      </g>
     </g>
     <g id="line2d_190">
      <g>
       <use style="stroke:#000000;stroke-width:0.5;" x="602.735937" xlink:href="#m6a5ba643ca" y="183.682672"/>
      </g>
     </g>
    </g>
    <g id="ytick_41">
     <g id="line2d_191">
      <g>
       <use style="stroke:#000000;stroke-width:0.5;" x="349.099574" xlink:href="#mdcb14f3534" y="173.524123"/>
      </g>
     </g>
     <g id="line2d_192">
      <g>
       <use style="stroke:#000000;stroke-width:0.5;" x="602.735937" xlink:href="#m6a5ba643ca" y="173.524123"/>
      </g>
     </g>
    </g>
    <g id="ytick_42">
     <g id="line2d_193">
      <g>
       <use style="stroke:#000000;stroke-width:0.5;" x="349.099574" xlink:href="#mdcb14f3534" y="151.695342"/>
      </g>
     </g>
     <g id="line2d_194">
      <g>
       <use style="stroke:#000000;stroke-width:0.5;" x="602.735937" xlink:href="#m6a5ba643ca" y="151.695342"/>
      </g>
     </g>
    </g>
    <g id="ytick_43">
     <g id="line2d_195">
      <g>
       <use style="stroke:#000000;stroke-width:0.5;" x="349.099574" xlink:href="#mdcb14f3534" y="139.975528"/>
      </g>
     </g>
     <g id="line2d_196">
      <g>
       <use style="stroke:#000000;stroke-width:0.5;" x="602.735937" xlink:href="#m6a5ba643ca" y="139.975528"/>
      </g>
     </g>
    </g>
    <g id="ytick_44">
     <g id="line2d_197">
      <g>
       <use style="stroke:#000000;stroke-width:0.5;" x="349.099574" xlink:href="#mdcb14f3534" y="127.683683"/>
      </g>
     </g>
     <g id="line2d_198">
      <g>
       <use style="stroke:#000000;stroke-width:0.5;" x="602.735937" xlink:href="#m6a5ba643ca" y="127.683683"/>
      </g>
     </g>
    </g>
    <g id="ytick_45">
     <g id="line2d_199">
      <g>
       <use style="stroke:#000000;stroke-width:0.5;" x="349.099574" xlink:href="#mdcb14f3534" y="101.270858"/>
      </g>
     </g>
     <g id="line2d_200">
      <g>
       <use style="stroke:#000000;stroke-width:0.5;" x="602.735937" xlink:href="#m6a5ba643ca" y="101.270858"/>
      </g>
     </g>
    </g>
    <g id="ytick_46">
     <g id="line2d_201">
      <g>
       <use style="stroke:#000000;stroke-width:0.5;" x="349.099574" xlink:href="#mdcb14f3534" y="87.089883"/>
      </g>
     </g>
     <g id="line2d_202">
      <g>
       <use style="stroke:#000000;stroke-width:0.5;" x="602.735937" xlink:href="#m6a5ba643ca" y="87.089883"/>
      </g>
     </g>
    </g>
    <g id="ytick_47">
     <g id="line2d_203">
      <g>
       <use style="stroke:#000000;stroke-width:0.5;" x="349.099574" xlink:href="#mdcb14f3534" y="72.216751"/>
      </g>
     </g>
     <g id="line2d_204">
      <g>
       <use style="stroke:#000000;stroke-width:0.5;" x="602.735937" xlink:href="#m6a5ba643ca" y="72.216751"/>
      </g>
     </g>
    </g>
    <g id="ytick_48">
     <g id="line2d_205">
      <g>
       <use style="stroke:#000000;stroke-width:0.5;" x="349.099574" xlink:href="#mdcb14f3534" y="40.257233"/>
      </g>
     </g>
     <g id="line2d_206">
      <g>
       <use style="stroke:#000000;stroke-width:0.5;" x="602.735937" xlink:href="#m6a5ba643ca" y="40.257233"/>
      </g>
     </g>
    </g>
    <g id="ytick_49">
     <g id="line2d_207">
      <g>
       <use style="stroke:#000000;stroke-width:0.5;" x="349.099574" xlink:href="#mdcb14f3534" y="23.098253"/>
      </g>
     </g>
     <g id="line2d_208">
      <g>
       <use style="stroke:#000000;stroke-width:0.5;" x="602.735937" xlink:href="#m6a5ba643ca" y="23.098253"/>
      </g>
     </g>
    </g>
    <g id="ytick_50">
     <g id="line2d_209">
      <g>
       <use style="stroke:#000000;stroke-width:0.5;" x="349.099574" xlink:href="#mdcb14f3534" y="5.101763"/>
      </g>
     </g>
     <g id="line2d_210">
      <g>
       <use style="stroke:#000000;stroke-width:0.5;" x="602.735937" xlink:href="#m6a5ba643ca" y="5.101763"/>
      </g>
     </g>
    </g>
    <g id="text_27">
     <!-- Test Accuracy in Percent -->
     <g transform="translate(326.652699 191.853438)rotate(-90)scale(0.1 -0.1)">
      <use xlink:href="#DejaVuSerif-84"/>
      <use x="58.949219" xlink:href="#DejaVuSerif-101"/>
      <use x="118.128906" xlink:href="#DejaVuSerif-115"/>
      <use x="169.447266" xlink:href="#DejaVuSerif-116"/>
      <use x="209.632812" xlink:href="#DejaVuSerif-32"/>
      <use x="241.419922" xlink:href="#DejaVuSerif-65"/>
      <use x="313.636719" xlink:href="#DejaVuSerif-99"/>
      <use x="369.642578" xlink:href="#DejaVuSerif-99"/>
      <use x="425.648438" xlink:href="#DejaVuSerif-117"/>
      <use x="490.052734" xlink:href="#DejaVuSerif-114"/>
      <use x="537.855469" xlink:href="#DejaVuSerif-97"/>
      <use x="597.474609" xlink:href="#DejaVuSerif-99"/>
      <use x="653.480469" xlink:href="#DejaVuSerif-121"/>
      <use x="709.974609" xlink:href="#DejaVuSerif-32"/>
      <use x="741.761719" xlink:href="#DejaVuSerif-105"/>
      <use x="773.744141" xlink:href="#DejaVuSerif-110"/>
      <use x="838.148438" xlink:href="#DejaVuSerif-32"/>
      <use x="869.935547" xlink:href="#DejaVuSerif-80"/>
      <use x="932.720703" xlink:href="#DejaVuSerif-101"/>
      <use x="991.900391" xlink:href="#DejaVuSerif-114"/>
      <use x="1039.703125" xlink:href="#DejaVuSerif-99"/>
      <use x="1095.708984" xlink:href="#DejaVuSerif-101"/>
      <use x="1154.888672" xlink:href="#DejaVuSerif-110"/>
      <use x="1219.292969" xlink:href="#DejaVuSerif-116"/>
     </g>
    </g>
   </g>
   <g id="line2d_211">
    <path clip-path="url(#p5ce9f54560)" d="M 300.245718 65.574919 
L 300.245854 49.872078 
L 300.248303 47.081458 
L 300.272429 40.359617 
L 300.272431 42.724982 
L 300.418532 39.400388 
L 300.418545 32.480538 
L 301.015303 37.906246 
L 301.015359 36.015184 
L 302.787838 38.75466 
L 302.788023 37.055793 
L 306.857642 38.007012 
L 306.858124 39.901804 
L 314.451386 42.558789 
L 326.435902 41.239231 
L 342.972543 47.1067 
L 363.45055 52.640107 
L 386.699435 57.815769 
L 411.315148 65.801784 
L 435.973941 73.818136 
L 459.583214 86.359361 
L 481.39881 98.06202 
L 500.970521 115.82853 
L 518.149252 139.543643 
L 532.948296 167.285924 
L 545.502616 186.81964 
" style="fill:none;stroke:#0c5da5;stroke-linecap:square;"/>
   </g>
   <g id="line2d_212">
    <path clip-path="url(#p5ce9f54560)" d="M 300.245718 43.949806 
L 300.245854 35.454595 
L 300.248303 33.269038 
L 300.272429 30.131107 
L 300.418532 30.85869 
L 301.015303 30.567832 
L 302.787838 32.783001 
L 306.857642 33.360916 
L 314.451386 33.55772 
L 326.435902 32.889606 
L 326.437812 34.055806 
L 342.972543 38.912613 
L 342.97566 40.030624 
L 363.45055 39.615368 
L 363.45516 37.185655 
L 386.699435 44.255339 
L 386.70574 42.341341 
L 411.315148 49.753819 
L 411.323249 54.534749 
L 435.973941 59.730137 
L 459.583214 67.539807 
L 481.39881 77.499017 
L 500.970521 87.575927 
L 518.149252 103.031327 
L 532.948296 120.378056 
L 545.502616 136.3837 
L 556.029207 160.383598 
L 564.789333 190.193971 
" style="fill:none;stroke:#00b945;stroke-linecap:square;"/>
   </g>
   <g id="line2d_213">
    <path clip-path="url(#p5ce9f54560)" d="M 300.245718 47.09408 
L 300.245854 32.875004 
L 300.248303 30.594284 
L 300.272429 36.75693 
L 300.418532 27.539655 
L 301.015303 29.93242 
L 302.787838 38.908307 
L 306.857642 29.82641 
L 314.451386 30.091378 
L 326.435902 34.422374 
L 342.972543 45.753649 
L 363.45055 42.852769 
L 386.699435 48.504743 
L 411.315148 50.772283 
L 435.973941 77.349379 
L 459.583214 77.711201 
L 481.39881 78.82091 
L 500.970521 100.601107 
L 518.149252 111.649307 
L 532.948296 143.621759 
L 545.502616 152.087115 
L 556.029207 193.71836 
L 564.789333 202.094357 
" style="fill:none;stroke:#ff9500;stroke-linecap:square;"/>
   </g>
   <g id="patch_8">
    <path d="M 349.099574 254.16 
L 349.099574 3.6 
" style="fill:none;stroke:#000000;stroke-linecap:square;stroke-linejoin:miter;stroke-width:0.5;"/>
   </g>
   <g id="patch_9">
    <path d="M 602.735937 254.16 
L 602.735937 3.6 
" style="fill:none;stroke:#000000;stroke-linecap:square;stroke-linejoin:miter;stroke-width:0.5;"/>
   </g>
   <g id="patch_10">
    <path d="M 349.099574 254.16 
L 602.735937 254.16 
" style="fill:none;stroke:#000000;stroke-linecap:square;stroke-linejoin:miter;stroke-width:0.5;"/>
   </g>
   <g id="patch_11">
    <path d="M 349.099574 3.6 
L 602.735937 3.6 
" style="fill:none;stroke:#000000;stroke-linecap:square;stroke-linejoin:miter;stroke-width:0.5;"/>
   </g>
  </g>
  <g id="legend_1">
   <g id="patch_12">
    <path d="M 50.864062 324.71625 
L 561.135937 324.71625 
Q 563.135937 324.71625 563.135937 322.71625 
L 563.135937 309.038125 
Q 563.135937 307.038125 561.135937 307.038125 
L 50.864062 307.038125 
Q 48.864062 307.038125 48.864062 309.038125 
L 48.864062 322.71625 
Q 48.864062 324.71625 50.864062 324.71625 
z
" style="fill:#ffffff;stroke:#cccccc;stroke-linejoin:miter;"/>
   </g>
   <g id="line2d_214">
    <path d="M 52.864062 315.136563 
L 72.864062 315.136563 
" style="fill:none;stroke:#0c5da5;stroke-linecap:square;"/>
   </g>
   <g id="line2d_215"/>
   <g id="text_28">
    <!-- ReLU ResNet20 -->
    <defs>
     <path d="M 47.90625 36.1875 
Q 51.3125 35.25 53.78125 33.03125 
Q 56.25 30.8125 58.203125 26.8125 
L 68.796875 5.171875 
L 77.6875 5.171875 
L 77.6875 0 
L 60.5 0 
L 49.125 23.1875 
Q 45.84375 29.9375 43.109375 31.90625 
Q 40.375 33.890625 35.59375 33.890625 
L 24.703125 33.890625 
L 24.703125 5.171875 
L 35.015625 5.171875 
L 35.015625 0 
L 5.515625 0 
L 5.515625 5.171875 
L 14.796875 5.171875 
L 14.796875 67.671875 
L 5.515625 67.671875 
L 5.515625 72.90625 
L 42.484375 72.90625 
Q 53.125 72.90625 58.90625 67.828125 
Q 64.703125 62.75 64.703125 53.421875 
Q 64.703125 45.90625 60.46875 41.578125 
Q 56.25 37.25 47.90625 36.1875 
z
M 24.703125 39.109375 
L 39.109375 39.109375 
Q 46.484375 39.109375 50 42.59375 
Q 53.515625 46.09375 53.515625 53.421875 
Q 53.515625 60.75 50 64.203125 
Q 46.484375 67.671875 39.109375 67.671875 
L 24.703125 67.671875 
z
" id="DejaVuSerif-82"/>
     <path d="M 5.515625 0 
L 5.515625 5.171875 
L 14.796875 5.171875 
L 14.796875 67.671875 
L 5.515625 67.671875 
L 5.515625 72.90625 
L 33.984375 72.90625 
L 33.984375 67.671875 
L 24.703125 67.671875 
L 24.703125 6 
L 58.015625 6 
L 58.015625 18.21875 
L 64.015625 18.21875 
L 64.015625 0 
z
" id="DejaVuSerif-76"/>
     <path d="M 14.015625 67.671875 
L 4.6875 67.671875 
L 4.6875 72.90625 
L 33.203125 72.90625 
L 33.203125 67.671875 
L 23.875 67.671875 
L 23.875 29.984375 
Q 23.875 16.015625 28.4375 10.5 
Q 33.015625 4.984375 44.1875 4.984375 
Q 55.375 4.984375 59.9375 10.5 
Q 64.5 16.015625 64.5 29.984375 
L 64.5 67.671875 
L 55.171875 67.671875 
L 55.171875 72.90625 
L 79.78125 72.90625 
L 79.78125 67.671875 
L 70.515625 67.671875 
L 70.515625 29 
Q 70.515625 12.359375 64.109375 5.46875 
Q 57.71875 -1.421875 42.390625 -1.421875 
Q 27.046875 -1.421875 20.53125 5.515625 
Q 14.015625 12.453125 14.015625 29 
z
" id="DejaVuSerif-85"/>
     <path d="M 4.890625 0 
L 4.890625 5.171875 
L 14.703125 5.171875 
L 14.703125 67.671875 
L 4.890625 67.671875 
L 4.890625 72.90625 
L 23.578125 72.90625 
L 67.28125 15.375 
L 67.28125 67.671875 
L 57.515625 67.671875 
L 57.515625 72.90625 
L 83.109375 72.90625 
L 83.109375 67.671875 
L 73.296875 67.671875 
L 73.296875 -1.421875 
L 67.390625 -1.421875 
L 20.703125 60.015625 
L 20.703125 5.171875 
L 30.515625 5.171875 
L 30.515625 0 
z
" id="DejaVuSerif-78"/>
    </defs>
    <g transform="translate(80.864062 318.636563)scale(0.1 -0.1)">
     <use xlink:href="#DejaVuSerif-82"/>
     <use x="75.292969" xlink:href="#DejaVuSerif-101"/>
     <use x="134.472656" xlink:href="#DejaVuSerif-76"/>
     <use x="195.378906" xlink:href="#DejaVuSerif-85"/>
     <use x="279.65625" xlink:href="#DejaVuSerif-32"/>
     <use x="311.443359" xlink:href="#DejaVuSerif-82"/>
     <use x="386.736328" xlink:href="#DejaVuSerif-101"/>
     <use x="445.916016" xlink:href="#DejaVuSerif-115"/>
     <use x="497.234375" xlink:href="#DejaVuSerif-78"/>
     <use x="584.734375" xlink:href="#DejaVuSerif-101"/>
     <use x="643.914062" xlink:href="#DejaVuSerif-116"/>
     <use x="684.099609" xlink:href="#DejaVuSerif-50"/>
     <use x="747.722656" xlink:href="#DejaVuSerif-48"/>
    </g>
   </g>
   <g id="line2d_216">
    <path d="M 182.001562 315.136563 
L 202.001562 315.136563 
" style="fill:none;stroke:#00b945;stroke-linecap:square;"/>
   </g>
   <g id="line2d_217"/>
   <g id="text_29">
    <!-- Univariate Rational ResNet20 -->
    <defs>
     <path d="M 24.703125 0 
L 5.609375 46.6875 
L -0.296875 46.6875 
L -0.296875 51.90625 
L 23.578125 51.90625 
L 23.578125 46.6875 
L 15.28125 46.6875 
L 29.890625 10.984375 
L 44.484375 46.6875 
L 36.71875 46.6875 
L 36.71875 51.90625 
L 56.203125 51.90625 
L 56.203125 46.6875 
L 50.390625 46.6875 
L 31.296875 0 
z
" id="DejaVuSerif-118"/>
     <path d="M 20.515625 5.171875 
L 29 5.171875 
L 29 0 
L 2.875 0 
L 2.875 5.171875 
L 11.53125 5.171875 
L 11.53125 70.796875 
L 2.875 70.796875 
L 2.875 75.984375 
L 20.515625 75.984375 
z
" id="DejaVuSerif-108"/>
    </defs>
    <g transform="translate(210.001562 318.636563)scale(0.1 -0.1)">
     <use xlink:href="#DejaVuSerif-85"/>
     <use x="84.277344" xlink:href="#DejaVuSerif-110"/>
     <use x="148.681641" xlink:href="#DejaVuSerif-105"/>
     <use x="180.664062" xlink:href="#DejaVuSerif-118"/>
     <use x="237.158203" xlink:href="#DejaVuSerif-97"/>
     <use x="296.777344" xlink:href="#DejaVuSerif-114"/>
     <use x="344.580078" xlink:href="#DejaVuSerif-105"/>
     <use x="376.5625" xlink:href="#DejaVuSerif-97"/>
     <use x="436.181641" xlink:href="#DejaVuSerif-116"/>
     <use x="476.367188" xlink:href="#DejaVuSerif-101"/>
     <use x="535.546875" xlink:href="#DejaVuSerif-32"/>
     <use x="567.333984" xlink:href="#DejaVuSerif-82"/>
     <use x="644.876953" xlink:href="#DejaVuSerif-97"/>
     <use x="704.496094" xlink:href="#DejaVuSerif-116"/>
     <use x="744.681641" xlink:href="#DejaVuSerif-105"/>
     <use x="776.664062" xlink:href="#DejaVuSerif-111"/>
     <use x="836.869141" xlink:href="#DejaVuSerif-110"/>
     <use x="901.273438" xlink:href="#DejaVuSerif-97"/>
     <use x="960.892578" xlink:href="#DejaVuSerif-108"/>
     <use x="992.875" xlink:href="#DejaVuSerif-32"/>
     <use x="1024.662109" xlink:href="#DejaVuSerif-82"/>
     <use x="1099.955078" xlink:href="#DejaVuSerif-101"/>
     <use x="1159.134766" xlink:href="#DejaVuSerif-115"/>
     <use x="1210.453125" xlink:href="#DejaVuSerif-78"/>
     <use x="1297.953125" xlink:href="#DejaVuSerif-101"/>
     <use x="1357.132812" xlink:href="#DejaVuSerif-116"/>
     <use x="1397.318359" xlink:href="#DejaVuSerif-50"/>
     <use x="1460.941406" xlink:href="#DejaVuSerif-48"/>
    </g>
   </g>
   <g id="line2d_218">
    <path d="M 382.464063 315.136563 
L 402.464063 315.136563 
" style="fill:none;stroke:#ff9500;stroke-linecap:square;"/>
   </g>
   <g id="line2d_219"/>
   <g id="text_30">
    <!-- Mixture of Experts ResNet20 -->
    <defs>
     <path d="M 5.515625 0 
L 5.515625 5.171875 
L 14.796875 5.171875 
L 14.796875 67.671875 
L 4.984375 67.671875 
L 4.984375 72.90625 
L 26.21875 72.90625 
L 51.8125 21 
L 77.390625 72.90625 
L 97.3125 72.90625 
L 97.3125 67.671875 
L 87.59375 67.671875 
L 87.59375 5.171875 
L 96.921875 5.171875 
L 96.921875 0 
L 68.40625 0 
L 68.40625 5.171875 
L 77.6875 5.171875 
L 77.6875 61.53125 
L 52.6875 10.6875 
L 45.796875 10.6875 
L 20.796875 61.53125 
L 20.796875 5.171875 
L 30.078125 5.171875 
L 30.078125 0 
z
" id="DejaVuSerif-77"/>
     <path d="M 29.109375 31.6875 
L 39.984375 46.6875 
L 33.015625 46.6875 
L 33.015625 51.90625 
L 52.984375 51.90625 
L 52.984375 46.6875 
L 46.09375 46.6875 
L 32.171875 27.484375 
L 48.390625 5.171875 
L 55.171875 5.171875 
L 55.171875 0 
L 31.203125 0 
L 31.203125 5.171875 
L 37.796875 5.171875 
L 26.515625 20.703125 
L 15.1875 5.171875 
L 21.921875 5.171875 
L 21.921875 0 
L 2.203125 0 
L 2.203125 5.171875 
L 9.078125 5.171875 
L 23.390625 24.90625 
L 7.625 46.6875 
L 1.21875 46.6875 
L 1.21875 51.90625 
L 24.421875 51.90625 
L 24.421875 46.6875 
L 18.21875 46.6875 
z
" id="DejaVuSerif-120"/>
     <path d="M 5.515625 0 
L 5.515625 5.171875 
L 14.796875 5.171875 
L 14.796875 67.671875 
L 5.515625 67.671875 
L 5.515625 72.90625 
L 64.203125 72.90625 
L 64.203125 56.6875 
L 58.203125 56.6875 
L 58.203125 66.890625 
L 24.703125 66.890625 
L 24.703125 42.484375 
L 48.578125 42.484375 
L 48.578125 51.609375 
L 54.59375 51.609375 
L 54.59375 27.390625 
L 48.578125 27.390625 
L 48.578125 36.53125 
L 24.703125 36.53125 
L 24.703125 6 
L 58.984375 6 
L 58.984375 16.21875 
L 64.984375 16.21875 
L 64.984375 0 
z
" id="DejaVuSerif-69"/>
     <path d="M 20.515625 28.515625 
L 20.515625 23.390625 
Q 20.515625 14.015625 24.09375 9.109375 
Q 27.6875 4.203125 34.515625 4.203125 
Q 41.40625 4.203125 44.9375 9.71875 
Q 48.484375 15.234375 48.484375 25.984375 
Q 48.484375 36.765625 44.9375 42.234375 
Q 41.40625 47.703125 34.515625 47.703125 
Q 27.6875 47.703125 24.09375 42.765625 
Q 20.515625 37.84375 20.515625 28.515625 
z
M 11.53125 46.6875 
L 2.875 46.6875 
L 2.875 51.90625 
L 20.515625 51.90625 
L 20.515625 43.796875 
Q 23.140625 48.6875 27.21875 51 
Q 31.296875 53.328125 37.3125 53.328125 
Q 46.875 53.328125 52.921875 45.75 
Q 58.984375 38.1875 58.984375 25.984375 
Q 58.984375 13.765625 52.921875 6.171875 
Q 46.875 -1.421875 37.3125 -1.421875 
Q 31.296875 -1.421875 27.21875 0.890625 
Q 23.140625 3.21875 20.515625 8.109375 
L 20.515625 -15.578125 
L 29 -15.578125 
L 29 -20.796875 
L 2.875 -20.796875 
L 2.875 -15.578125 
L 11.53125 -15.578125 
z
" id="DejaVuSerif-112"/>
    </defs>
    <g transform="translate(410.464063 318.636563)scale(0.1 -0.1)">
     <use xlink:href="#DejaVuSerif-77"/>
     <use x="102.392578" xlink:href="#DejaVuSerif-105"/>
     <use x="134.375" xlink:href="#DejaVuSerif-120"/>
     <use x="190.771484" xlink:href="#DejaVuSerif-116"/>
     <use x="230.957031" xlink:href="#DejaVuSerif-117"/>
     <use x="295.361328" xlink:href="#DejaVuSerif-114"/>
     <use x="343.164062" xlink:href="#DejaVuSerif-101"/>
     <use x="402.34375" xlink:href="#DejaVuSerif-32"/>
     <use x="434.130859" xlink:href="#DejaVuSerif-111"/>
     <use x="494.335938" xlink:href="#DejaVuSerif-102"/>
     <use x="531.347656" xlink:href="#DejaVuSerif-32"/>
     <use x="563.134766" xlink:href="#DejaVuSerif-69"/>
     <use x="636.132812" xlink:href="#DejaVuSerif-120"/>
     <use x="692.529297" xlink:href="#DejaVuSerif-112"/>
     <use x="756.542969" xlink:href="#DejaVuSerif-101"/>
     <use x="815.722656" xlink:href="#DejaVuSerif-114"/>
     <use x="863.525391" xlink:href="#DejaVuSerif-116"/>
     <use x="903.710938" xlink:href="#DejaVuSerif-115"/>
     <use x="955.029297" xlink:href="#DejaVuSerif-32"/>
     <use x="986.816406" xlink:href="#DejaVuSerif-82"/>
     <use x="1062.109375" xlink:href="#DejaVuSerif-101"/>
     <use x="1121.289062" xlink:href="#DejaVuSerif-115"/>
     <use x="1172.607422" xlink:href="#DejaVuSerif-78"/>
     <use x="1260.107422" xlink:href="#DejaVuSerif-101"/>
     <use x="1319.287109" xlink:href="#DejaVuSerif-116"/>
     <use x="1359.472656" xlink:href="#DejaVuSerif-50"/>
     <use x="1423.095703" xlink:href="#DejaVuSerif-48"/>
    </g>
   </g>
  </g>
 </g>
 <defs>
  <clipPath id="p882a089edc">
   <rect height="250.56" width="253.636364" x="44.735938" y="3.6"/>
  </clipPath>
  <clipPath id="p5ce9f54560">
   <rect height="250.56" width="253.636364" x="349.099574" y="3.6"/>
  </clipPath>
 </defs>
</svg>
