<?xml version="1.0" encoding="utf-8" standalone="no"?>
<!DOCTYPE svg PUBLIC "-//W3C//DTD SVG 1.1//EN"
  "http://www.w3.org/Graphics/SVG/1.1/DTD/svg11.dtd">
<!-- Created with matplotlib (https://matplotlib.org/) -->
<svg height="311.398438pt" version="1.1" viewBox="0 0 529.465 311.398438" width="529.465pt" xmlns="http://www.w3.org/2000/svg" xmlns:xlink="http://www.w3.org/1999/xlink">
 <metadata>
  <rdf:RDF xmlns:cc="http://creativecommons.org/ns#" xmlns:dc="http://purl.org/dc/elements/1.1/" xmlns:rdf="http://www.w3.org/1999/02/22-rdf-syntax-ns#">
   <cc:Work>
    <dc:type rdf:resource="http://purl.org/dc/dcmitype/StillImage"/>
    <dc:date>2021-04-12T00:33:48.251615</dc:date>
    <dc:format>image/svg+xml</dc:format>
    <dc:creator>
     <cc:Agent>
      <dc:title>Matplotlib v3.3.4, https://matplotlib.org/</dc:title>
     </cc:Agent>
    </dc:creator>
   </cc:Work>
  </rdf:RDF>
 </metadata>
 <defs>
  <style type="text/css">*{stroke-linecap:butt;stroke-linejoin:round;}</style>
 </defs>
 <g id="figure_1">
  <g id="patch_1">
   <path d="M 0 311.398438 
L 529.465 311.398438 
L 529.465 0 
L 0 0 
z
" style="fill:#ffffff;"/>
  </g>
  <g id="axes_1">
   <g id="patch_2">
    <path d="M 33.503125 280.8 
L 287.139489 280.8 
L 287.139489 3.6 
L 33.503125 3.6 
z
" style="fill:#ffffff;"/>
   </g>
   <g id="matplotlib.axis_1">
    <g id="xtick_1">
     <g id="line2d_1">
      <path clip-path="url(#p9afa8affa3)" d="M 45.032051 280.8 
L 45.032051 3.6 
" style="fill:none;stroke:#000000;stroke-dasharray:1.85,0.8;stroke-dashoffset:0;stroke-opacity:0.5;stroke-width:0.5;"/>
     </g>
     <g id="line2d_2">
      <defs>
       <path d="M 0 0 
L 0 -3 
" id="m0e94347b72" style="stroke:#000000;stroke-width:0.5;"/>
      </defs>
      <g>
       <use style="stroke:#000000;stroke-width:0.5;" x="45.032051" xlink:href="#m0e94347b72" y="280.8"/>
      </g>
     </g>
     <g id="line2d_3">
      <defs>
       <path d="M 0 0 
L 0 3 
" id="m9fda5f5f19" style="stroke:#000000;stroke-width:0.5;"/>
      </defs>
      <g>
       <use style="stroke:#000000;stroke-width:0.5;" x="45.032051" xlink:href="#m9fda5f5f19" y="3.6"/>
      </g>
     </g>
     <g id="text_1">
      <!-- 0 -->
      <g transform="translate(41.850801 291.898438)scale(0.1 -0.1)">
       <defs>
        <path d="M 31.78125 3.421875 
Q 39.265625 3.421875 42.96875 11.625 
Q 46.6875 19.828125 46.6875 36.375 
Q 46.6875 52.984375 42.96875 61.1875 
Q 39.265625 69.390625 31.78125 69.390625 
Q 24.3125 69.390625 20.59375 61.1875 
Q 16.890625 52.984375 16.890625 36.375 
Q 16.890625 19.828125 20.59375 11.625 
Q 24.3125 3.421875 31.78125 3.421875 
z
M 31.78125 -1.421875 
Q 19.921875 -1.421875 13.25 8.53125 
Q 6.59375 18.5 6.59375 36.375 
Q 6.59375 54.296875 13.25 64.25 
Q 19.921875 74.21875 31.78125 74.21875 
Q 43.703125 74.21875 50.34375 64.25 
Q 56.984375 54.296875 56.984375 36.375 
Q 56.984375 18.5 50.34375 8.53125 
Q 43.703125 -1.421875 31.78125 -1.421875 
z
" id="DejaVuSerif-48"/>
       </defs>
       <use xlink:href="#DejaVuSerif-48"/>
      </g>
     </g>
    </g>
    <g id="xtick_2">
     <g id="line2d_4">
      <path clip-path="url(#p9afa8affa3)" d="M 91.420335 280.8 
L 91.420335 3.6 
" style="fill:none;stroke:#000000;stroke-dasharray:1.85,0.8;stroke-dashoffset:0;stroke-opacity:0.5;stroke-width:0.5;"/>
     </g>
     <g id="line2d_5">
      <g>
       <use style="stroke:#000000;stroke-width:0.5;" x="91.420335" xlink:href="#m0e94347b72" y="280.8"/>
      </g>
     </g>
     <g id="line2d_6">
      <g>
       <use style="stroke:#000000;stroke-width:0.5;" x="91.420335" xlink:href="#m9fda5f5f19" y="3.6"/>
      </g>
     </g>
     <g id="text_2">
      <!-- 20 -->
      <g transform="translate(85.057835 291.898438)scale(0.1 -0.1)">
       <defs>
        <path d="M 12.796875 55.515625 
L 7.328125 55.515625 
L 7.328125 68.5 
Q 12.546875 71.296875 17.84375 72.75 
Q 23.140625 74.21875 28.21875 74.21875 
Q 39.59375 74.21875 46.1875 68.703125 
Q 52.78125 63.1875 52.78125 53.71875 
Q 52.78125 43.015625 37.84375 28.125 
Q 36.671875 27 36.078125 26.421875 
L 17.671875 8.015625 
L 48.09375 8.015625 
L 48.09375 17 
L 53.8125 17 
L 53.8125 0 
L 6.78125 0 
L 6.78125 5.328125 
L 28.90625 27.390625 
Q 36.234375 34.71875 39.359375 40.84375 
Q 42.484375 46.96875 42.484375 53.71875 
Q 42.484375 61.078125 38.640625 65.234375 
Q 34.8125 69.390625 28.078125 69.390625 
Q 21.09375 69.390625 17.28125 65.921875 
Q 13.484375 62.453125 12.796875 55.515625 
z
" id="DejaVuSerif-50"/>
       </defs>
       <use xlink:href="#DejaVuSerif-50"/>
       <use x="63.623047" xlink:href="#DejaVuSerif-48"/>
      </g>
     </g>
    </g>
    <g id="xtick_3">
     <g id="line2d_7">
      <path clip-path="url(#p9afa8affa3)" d="M 137.808618 280.8 
L 137.808618 3.6 
" style="fill:none;stroke:#000000;stroke-dasharray:1.85,0.8;stroke-dashoffset:0;stroke-opacity:0.5;stroke-width:0.5;"/>
     </g>
     <g id="line2d_8">
      <g>
       <use style="stroke:#000000;stroke-width:0.5;" x="137.808618" xlink:href="#m0e94347b72" y="280.8"/>
      </g>
     </g>
     <g id="line2d_9">
      <g>
       <use style="stroke:#000000;stroke-width:0.5;" x="137.808618" xlink:href="#m9fda5f5f19" y="3.6"/>
      </g>
     </g>
     <g id="text_3">
      <!-- 40 -->
      <g transform="translate(131.446118 291.898438)scale(0.1 -0.1)">
       <defs>
        <path d="M 34.90625 24.703125 
L 34.90625 63.484375 
L 10.015625 24.703125 
z
M 56.390625 0 
L 23.1875 0 
L 23.1875 5.171875 
L 34.90625 5.171875 
L 34.90625 19.484375 
L 3.078125 19.484375 
L 3.078125 24.8125 
L 35.015625 74.21875 
L 44.671875 74.21875 
L 44.671875 24.703125 
L 58.59375 24.703125 
L 58.59375 19.484375 
L 44.671875 19.484375 
L 44.671875 5.171875 
L 56.390625 5.171875 
z
" id="DejaVuSerif-52"/>
       </defs>
       <use xlink:href="#DejaVuSerif-52"/>
       <use x="63.623047" xlink:href="#DejaVuSerif-48"/>
      </g>
     </g>
    </g>
    <g id="xtick_4">
     <g id="line2d_10">
      <path clip-path="url(#p9afa8affa3)" d="M 184.196902 280.8 
L 184.196902 3.6 
" style="fill:none;stroke:#000000;stroke-dasharray:1.85,0.8;stroke-dashoffset:0;stroke-opacity:0.5;stroke-width:0.5;"/>
     </g>
     <g id="line2d_11">
      <g>
       <use style="stroke:#000000;stroke-width:0.5;" x="184.196902" xlink:href="#m0e94347b72" y="280.8"/>
      </g>
     </g>
     <g id="line2d_12">
      <g>
       <use style="stroke:#000000;stroke-width:0.5;" x="184.196902" xlink:href="#m9fda5f5f19" y="3.6"/>
      </g>
     </g>
     <g id="text_4">
      <!-- 60 -->
      <g transform="translate(177.834402 291.898438)scale(0.1 -0.1)">
       <defs>
        <path d="M 32.71875 3.421875 
Q 39.59375 3.421875 43.296875 8.46875 
Q 47.015625 13.53125 47.015625 23 
Q 47.015625 32.46875 43.296875 37.515625 
Q 39.59375 42.578125 32.71875 42.578125 
Q 25.734375 42.578125 22.0625 37.6875 
Q 18.40625 32.8125 18.40625 23.578125 
Q 18.40625 13.875 22.109375 8.640625 
Q 25.828125 3.421875 32.71875 3.421875 
z
M 16.796875 40.140625 
Q 20.125 43.796875 24.3125 45.59375 
Q 28.515625 47.40625 33.796875 47.40625 
Q 44.671875 47.40625 51 40.859375 
Q 57.328125 34.328125 57.328125 23 
Q 57.328125 11.921875 50.515625 5.25 
Q 43.703125 -1.421875 32.328125 -1.421875 
Q 19.96875 -1.421875 13.328125 7.78125 
Q 6.6875 17 6.6875 34.078125 
Q 6.6875 53.21875 14.546875 63.71875 
Q 22.40625 74.21875 36.71875 74.21875 
Q 40.578125 74.21875 44.828125 73.484375 
Q 49.078125 72.75 53.515625 71.296875 
L 53.515625 59.28125 
L 48 59.28125 
Q 47.40625 64.203125 44.234375 66.796875 
Q 41.0625 69.390625 35.6875 69.390625 
Q 26.21875 69.390625 21.578125 62.203125 
Q 16.9375 55.03125 16.796875 40.140625 
z
" id="DejaVuSerif-54"/>
       </defs>
       <use xlink:href="#DejaVuSerif-54"/>
       <use x="63.623047" xlink:href="#DejaVuSerif-48"/>
      </g>
     </g>
    </g>
    <g id="xtick_5">
     <g id="line2d_13">
      <path clip-path="url(#p9afa8affa3)" d="M 230.585186 280.8 
L 230.585186 3.6 
" style="fill:none;stroke:#000000;stroke-dasharray:1.85,0.8;stroke-dashoffset:0;stroke-opacity:0.5;stroke-width:0.5;"/>
     </g>
     <g id="line2d_14">
      <g>
       <use style="stroke:#000000;stroke-width:0.5;" x="230.585186" xlink:href="#m0e94347b72" y="280.8"/>
      </g>
     </g>
     <g id="line2d_15">
      <g>
       <use style="stroke:#000000;stroke-width:0.5;" x="230.585186" xlink:href="#m9fda5f5f19" y="3.6"/>
      </g>
     </g>
     <g id="text_5">
      <!-- 80 -->
      <g transform="translate(224.222686 291.898438)scale(0.1 -0.1)">
       <defs>
        <path d="M 46.578125 19.921875 
Q 46.578125 27.734375 42.6875 32.046875 
Q 38.8125 36.375 31.78125 36.375 
Q 24.75 36.375 20.875 32.046875 
Q 17 27.734375 17 19.921875 
Q 17 12.0625 20.875 7.734375 
Q 24.75 3.421875 31.78125 3.421875 
Q 38.8125 3.421875 42.6875 7.734375 
Q 46.578125 12.0625 46.578125 19.921875 
z
M 44.578125 55.328125 
Q 44.578125 61.96875 41.203125 65.671875 
Q 37.84375 69.390625 31.78125 69.390625 
Q 25.78125 69.390625 22.390625 65.671875 
Q 19 61.96875 19 55.328125 
Q 19 48.640625 22.390625 44.921875 
Q 25.78125 41.21875 31.78125 41.21875 
Q 37.84375 41.21875 41.203125 44.921875 
Q 44.578125 48.640625 44.578125 55.328125 
z
M 39.3125 38.8125 
Q 47.609375 37.703125 52.25 32.6875 
Q 56.890625 27.6875 56.890625 19.921875 
Q 56.890625 9.671875 50.390625 4.125 
Q 43.890625 -1.421875 31.78125 -1.421875 
Q 19.734375 -1.421875 13.203125 4.125 
Q 6.6875 9.671875 6.6875 19.921875 
Q 6.6875 27.6875 11.328125 32.6875 
Q 15.96875 37.703125 24.3125 38.8125 
Q 16.9375 40.140625 13 44.40625 
Q 9.078125 48.6875 9.078125 55.328125 
Q 9.078125 64.109375 15.125 69.15625 
Q 21.1875 74.21875 31.78125 74.21875 
Q 42.390625 74.21875 48.4375 69.15625 
Q 54.5 64.109375 54.5 55.328125 
Q 54.5 48.6875 50.5625 44.40625 
Q 46.625 40.140625 39.3125 38.8125 
z
" id="DejaVuSerif-56"/>
       </defs>
       <use xlink:href="#DejaVuSerif-56"/>
       <use x="63.623047" xlink:href="#DejaVuSerif-48"/>
      </g>
     </g>
    </g>
    <g id="xtick_6">
     <g id="line2d_16">
      <path clip-path="url(#p9afa8affa3)" d="M 276.97347 280.8 
L 276.97347 3.6 
" style="fill:none;stroke:#000000;stroke-dasharray:1.85,0.8;stroke-dashoffset:0;stroke-opacity:0.5;stroke-width:0.5;"/>
     </g>
     <g id="line2d_17">
      <g>
       <use style="stroke:#000000;stroke-width:0.5;" x="276.97347" xlink:href="#m0e94347b72" y="280.8"/>
      </g>
     </g>
     <g id="line2d_18">
      <g>
       <use style="stroke:#000000;stroke-width:0.5;" x="276.97347" xlink:href="#m9fda5f5f19" y="3.6"/>
      </g>
     </g>
     <g id="text_6">
      <!-- 100 -->
      <g transform="translate(267.42972 291.898438)scale(0.1 -0.1)">
       <defs>
        <path d="M 14.203125 0 
L 14.203125 5.171875 
L 26.90625 5.171875 
L 26.90625 65.828125 
L 12.203125 56.296875 
L 12.203125 62.703125 
L 29.984375 74.21875 
L 36.71875 74.21875 
L 36.71875 5.171875 
L 49.421875 5.171875 
L 49.421875 0 
z
" id="DejaVuSerif-49"/>
       </defs>
       <use xlink:href="#DejaVuSerif-49"/>
       <use x="63.623047" xlink:href="#DejaVuSerif-48"/>
       <use x="127.246094" xlink:href="#DejaVuSerif-48"/>
      </g>
     </g>
    </g>
    <g id="xtick_7">
     <g id="line2d_19">
      <defs>
       <path d="M 0 0 
L 0 -1.5 
" id="m6768e20cc4" style="stroke:#000000;stroke-width:0.5;"/>
      </defs>
      <g>
       <use style="stroke:#000000;stroke-width:0.5;" x="56.629122" xlink:href="#m6768e20cc4" y="280.8"/>
      </g>
     </g>
     <g id="line2d_20">
      <defs>
       <path d="M 0 0 
L 0 1.5 
" id="me75475b92e" style="stroke:#000000;stroke-width:0.5;"/>
      </defs>
      <g>
       <use style="stroke:#000000;stroke-width:0.5;" x="56.629122" xlink:href="#me75475b92e" y="3.6"/>
      </g>
     </g>
    </g>
    <g id="xtick_8">
     <g id="line2d_21">
      <g>
       <use style="stroke:#000000;stroke-width:0.5;" x="68.226193" xlink:href="#m6768e20cc4" y="280.8"/>
      </g>
     </g>
     <g id="line2d_22">
      <g>
       <use style="stroke:#000000;stroke-width:0.5;" x="68.226193" xlink:href="#me75475b92e" y="3.6"/>
      </g>
     </g>
    </g>
    <g id="xtick_9">
     <g id="line2d_23">
      <g>
       <use style="stroke:#000000;stroke-width:0.5;" x="79.823264" xlink:href="#m6768e20cc4" y="280.8"/>
      </g>
     </g>
     <g id="line2d_24">
      <g>
       <use style="stroke:#000000;stroke-width:0.5;" x="79.823264" xlink:href="#me75475b92e" y="3.6"/>
      </g>
     </g>
    </g>
    <g id="xtick_10">
     <g id="line2d_25">
      <g>
       <use style="stroke:#000000;stroke-width:0.5;" x="103.017405" xlink:href="#m6768e20cc4" y="280.8"/>
      </g>
     </g>
     <g id="line2d_26">
      <g>
       <use style="stroke:#000000;stroke-width:0.5;" x="103.017405" xlink:href="#me75475b92e" y="3.6"/>
      </g>
     </g>
    </g>
    <g id="xtick_11">
     <g id="line2d_27">
      <g>
       <use style="stroke:#000000;stroke-width:0.5;" x="114.614476" xlink:href="#m6768e20cc4" y="280.8"/>
      </g>
     </g>
     <g id="line2d_28">
      <g>
       <use style="stroke:#000000;stroke-width:0.5;" x="114.614476" xlink:href="#me75475b92e" y="3.6"/>
      </g>
     </g>
    </g>
    <g id="xtick_12">
     <g id="line2d_29">
      <g>
       <use style="stroke:#000000;stroke-width:0.5;" x="126.211547" xlink:href="#m6768e20cc4" y="280.8"/>
      </g>
     </g>
     <g id="line2d_30">
      <g>
       <use style="stroke:#000000;stroke-width:0.5;" x="126.211547" xlink:href="#me75475b92e" y="3.6"/>
      </g>
     </g>
    </g>
    <g id="xtick_13">
     <g id="line2d_31">
      <g>
       <use style="stroke:#000000;stroke-width:0.5;" x="149.405689" xlink:href="#m6768e20cc4" y="280.8"/>
      </g>
     </g>
     <g id="line2d_32">
      <g>
       <use style="stroke:#000000;stroke-width:0.5;" x="149.405689" xlink:href="#me75475b92e" y="3.6"/>
      </g>
     </g>
    </g>
    <g id="xtick_14">
     <g id="line2d_33">
      <g>
       <use style="stroke:#000000;stroke-width:0.5;" x="161.00276" xlink:href="#m6768e20cc4" y="280.8"/>
      </g>
     </g>
     <g id="line2d_34">
      <g>
       <use style="stroke:#000000;stroke-width:0.5;" x="161.00276" xlink:href="#me75475b92e" y="3.6"/>
      </g>
     </g>
    </g>
    <g id="xtick_15">
     <g id="line2d_35">
      <g>
       <use style="stroke:#000000;stroke-width:0.5;" x="172.599831" xlink:href="#m6768e20cc4" y="280.8"/>
      </g>
     </g>
     <g id="line2d_36">
      <g>
       <use style="stroke:#000000;stroke-width:0.5;" x="172.599831" xlink:href="#me75475b92e" y="3.6"/>
      </g>
     </g>
    </g>
    <g id="xtick_16">
     <g id="line2d_37">
      <g>
       <use style="stroke:#000000;stroke-width:0.5;" x="195.793973" xlink:href="#m6768e20cc4" y="280.8"/>
      </g>
     </g>
     <g id="line2d_38">
      <g>
       <use style="stroke:#000000;stroke-width:0.5;" x="195.793973" xlink:href="#me75475b92e" y="3.6"/>
      </g>
     </g>
    </g>
    <g id="xtick_17">
     <g id="line2d_39">
      <g>
       <use style="stroke:#000000;stroke-width:0.5;" x="207.391044" xlink:href="#m6768e20cc4" y="280.8"/>
      </g>
     </g>
     <g id="line2d_40">
      <g>
       <use style="stroke:#000000;stroke-width:0.5;" x="207.391044" xlink:href="#me75475b92e" y="3.6"/>
      </g>
     </g>
    </g>
    <g id="xtick_18">
     <g id="line2d_41">
      <g>
       <use style="stroke:#000000;stroke-width:0.5;" x="218.988115" xlink:href="#m6768e20cc4" y="280.8"/>
      </g>
     </g>
     <g id="line2d_42">
      <g>
       <use style="stroke:#000000;stroke-width:0.5;" x="218.988115" xlink:href="#me75475b92e" y="3.6"/>
      </g>
     </g>
    </g>
    <g id="xtick_19">
     <g id="line2d_43">
      <g>
       <use style="stroke:#000000;stroke-width:0.5;" x="242.182257" xlink:href="#m6768e20cc4" y="280.8"/>
      </g>
     </g>
     <g id="line2d_44">
      <g>
       <use style="stroke:#000000;stroke-width:0.5;" x="242.182257" xlink:href="#me75475b92e" y="3.6"/>
      </g>
     </g>
    </g>
    <g id="xtick_20">
     <g id="line2d_45">
      <g>
       <use style="stroke:#000000;stroke-width:0.5;" x="253.779328" xlink:href="#m6768e20cc4" y="280.8"/>
      </g>
     </g>
     <g id="line2d_46">
      <g>
       <use style="stroke:#000000;stroke-width:0.5;" x="253.779328" xlink:href="#me75475b92e" y="3.6"/>
      </g>
     </g>
    </g>
    <g id="xtick_21">
     <g id="line2d_47">
      <g>
       <use style="stroke:#000000;stroke-width:0.5;" x="265.376399" xlink:href="#m6768e20cc4" y="280.8"/>
      </g>
     </g>
     <g id="line2d_48">
      <g>
       <use style="stroke:#000000;stroke-width:0.5;" x="265.376399" xlink:href="#me75475b92e" y="3.6"/>
      </g>
     </g>
    </g>
    <g id="text_7">
     <!-- Percent of Pruned Weights -->
     <g transform="translate(92.573651 305.576563)scale(0.1 -0.1)">
      <defs>
       <path d="M 24.703125 37.109375 
L 37.59375 37.109375 
Q 44.875 37.109375 48.671875 41.03125 
Q 52.484375 44.96875 52.484375 52.390625 
Q 52.484375 59.859375 48.671875 63.765625 
Q 44.875 67.671875 37.59375 67.671875 
L 24.703125 67.671875 
z
M 5.515625 0 
L 5.515625 5.171875 
L 14.796875 5.171875 
L 14.796875 67.671875 
L 5.515625 67.671875 
L 5.515625 72.90625 
L 39.984375 72.90625 
Q 50.921875 72.90625 57.3125 67.359375 
Q 63.71875 61.8125 63.71875 52.390625 
Q 63.71875 43.015625 57.3125 37.453125 
Q 50.921875 31.890625 39.984375 31.890625 
L 24.703125 31.890625 
L 24.703125 5.171875 
L 35.984375 5.171875 
L 35.984375 0 
z
" id="DejaVuSerif-80"/>
       <path d="M 54.203125 25 
L 15.484375 25 
L 15.484375 24.609375 
Q 15.484375 14.109375 19.4375 8.765625 
Q 23.390625 3.421875 31.109375 3.421875 
Q 37.015625 3.421875 40.796875 6.515625 
Q 44.578125 9.625 46.09375 15.71875 
L 53.328125 15.71875 
Q 51.171875 7.171875 45.375 2.875 
Q 39.59375 -1.421875 30.171875 -1.421875 
Q 18.796875 -1.421875 11.890625 6.078125 
Q 4.984375 13.578125 4.984375 25.984375 
Q 4.984375 38.28125 11.765625 45.796875 
Q 18.5625 53.328125 29.59375 53.328125 
Q 41.359375 53.328125 47.65625 46.0625 
Q 53.953125 38.8125 54.203125 25 
z
M 43.609375 30.171875 
Q 43.3125 39.265625 39.765625 43.875 
Q 36.234375 48.484375 29.59375 48.484375 
Q 23.390625 48.484375 19.828125 43.84375 
Q 16.265625 39.203125 15.484375 30.171875 
z
" id="DejaVuSerif-101"/>
       <path d="M 47.796875 52 
L 47.796875 39.015625 
L 42.625 39.015625 
Q 42.390625 42.875 40.484375 44.78125 
Q 38.578125 46.6875 34.90625 46.6875 
Q 28.265625 46.6875 24.71875 42.09375 
Q 21.1875 37.5 21.1875 28.90625 
L 21.1875 5.171875 
L 31.59375 5.171875 
L 31.59375 0 
L 4.109375 0 
L 4.109375 5.171875 
L 12.203125 5.171875 
L 12.203125 46.78125 
L 3.609375 46.78125 
L 3.609375 51.90625 
L 21.1875 51.90625 
L 21.1875 42.671875 
Q 23.828125 48.09375 27.96875 50.703125 
Q 32.125 53.328125 38.09375 53.328125 
Q 40.28125 53.328125 42.703125 52.984375 
Q 45.125 52.640625 47.796875 52 
z
" id="DejaVuSerif-114"/>
       <path d="M 51.421875 15.578125 
Q 49.515625 7.28125 44.09375 2.921875 
Q 38.671875 -1.421875 30.078125 -1.421875 
Q 18.75 -1.421875 11.859375 6.078125 
Q 4.984375 13.578125 4.984375 25.984375 
Q 4.984375 38.421875 11.859375 45.875 
Q 18.75 53.328125 30.078125 53.328125 
Q 35.015625 53.328125 39.890625 52.171875 
Q 44.78125 51.03125 49.703125 48.6875 
L 49.703125 35.40625 
L 44.484375 35.40625 
Q 43.453125 42.234375 40.015625 45.359375 
Q 36.578125 48.484375 30.171875 48.484375 
Q 22.90625 48.484375 19.1875 42.84375 
Q 15.484375 37.203125 15.484375 25.984375 
Q 15.484375 14.75 19.171875 9.078125 
Q 22.859375 3.421875 30.171875 3.421875 
Q 35.984375 3.421875 39.453125 6.4375 
Q 42.921875 9.46875 44.1875 15.578125 
z
" id="DejaVuSerif-99"/>
       <path d="M 4.109375 0 
L 4.109375 5.171875 
L 12.203125 5.171875 
L 12.203125 46.6875 
L 3.609375 46.6875 
L 3.609375 51.90625 
L 21.1875 51.90625 
L 21.1875 42.671875 
Q 23.6875 47.953125 27.65625 50.640625 
Q 31.640625 53.328125 36.921875 53.328125 
Q 45.515625 53.328125 49.5625 48.390625 
Q 53.609375 43.453125 53.609375 33.015625 
L 53.609375 5.171875 
L 61.625 5.171875 
L 61.625 0 
L 36.8125 0 
L 36.8125 5.171875 
L 44.578125 5.171875 
L 44.578125 30.171875 
Q 44.578125 39.703125 42.234375 43.234375 
Q 39.890625 46.78125 33.984375 46.78125 
Q 27.734375 46.78125 24.453125 42.203125 
Q 21.1875 37.640625 21.1875 28.90625 
L 21.1875 5.171875 
L 29 5.171875 
L 29 0 
z
" id="DejaVuSerif-110"/>
       <path d="M 10.796875 46.6875 
L 2.875 46.6875 
L 2.875 51.90625 
L 10.796875 51.90625 
L 10.796875 68.015625 
L 19.828125 68.015625 
L 19.828125 51.90625 
L 36.71875 51.90625 
L 36.71875 46.6875 
L 19.828125 46.6875 
L 19.828125 13.71875 
Q 19.828125 7.125 21.09375 5.265625 
Q 22.359375 3.421875 25.78125 3.421875 
Q 29.296875 3.421875 30.90625 5.484375 
Q 32.515625 7.5625 32.625 12.203125 
L 39.40625 12.203125 
Q 39.015625 5.125 35.546875 1.84375 
Q 32.078125 -1.421875 25 -1.421875 
Q 17.234375 -1.421875 14.015625 2.015625 
Q 10.796875 5.46875 10.796875 13.71875 
z
" id="DejaVuSerif-116"/>
       <path id="DejaVuSerif-32"/>
       <path d="M 30.078125 3.421875 
Q 37.3125 3.421875 40.984375 9.125 
Q 44.671875 14.84375 44.671875 25.984375 
Q 44.671875 37.109375 40.984375 42.796875 
Q 37.3125 48.484375 30.078125 48.484375 
Q 22.859375 48.484375 19.171875 42.796875 
Q 15.484375 37.109375 15.484375 25.984375 
Q 15.484375 14.84375 19.1875 9.125 
Q 22.90625 3.421875 30.078125 3.421875 
z
M 30.078125 -1.421875 
Q 18.75 -1.421875 11.859375 6.078125 
Q 4.984375 13.578125 4.984375 25.984375 
Q 4.984375 38.375 11.84375 45.84375 
Q 18.703125 53.328125 30.078125 53.328125 
Q 41.453125 53.328125 48.3125 45.84375 
Q 55.171875 38.375 55.171875 25.984375 
Q 55.171875 13.578125 48.3125 6.078125 
Q 41.453125 -1.421875 30.078125 -1.421875 
z
" id="DejaVuSerif-111"/>
       <path d="M 43.015625 63.71875 
L 38.28125 63.71875 
Q 38.234375 67.390625 36.203125 69.28125 
Q 34.1875 71.1875 30.328125 71.1875 
Q 25.296875 71.1875 23.234375 68.421875 
Q 21.1875 65.671875 21.1875 58.59375 
L 21.1875 51.90625 
L 35.6875 51.90625 
L 35.6875 46.6875 
L 21.1875 46.6875 
L 21.1875 5.171875 
L 32.71875 5.171875 
L 32.71875 0 
L 3.609375 0 
L 3.609375 5.171875 
L 12.203125 5.171875 
L 12.203125 46.6875 
L 3.609375 46.6875 
L 3.609375 51.90625 
L 12.203125 51.90625 
L 12.203125 58.40625 
Q 12.203125 67.09375 16.71875 71.53125 
Q 21.234375 75.984375 29.984375 75.984375 
Q 33.25 75.984375 36.515625 75.390625 
Q 39.796875 74.8125 43.015625 73.578125 
z
" id="DejaVuSerif-102"/>
       <path d="M 35.40625 51.90625 
L 52.203125 51.90625 
L 52.203125 5.171875 
L 60.6875 5.171875 
L 60.6875 0 
L 43.21875 0 
L 43.21875 9.1875 
Q 40.71875 4 36.765625 1.28125 
Q 32.8125 -1.421875 27.59375 -1.421875 
Q 18.953125 -1.421875 14.875 3.484375 
Q 10.796875 8.40625 10.796875 18.890625 
L 10.796875 46.6875 
L 2.6875 46.6875 
L 2.6875 51.90625 
L 19.828125 51.90625 
L 19.828125 21.6875 
Q 19.828125 12.203125 22.140625 8.6875 
Q 24.46875 5.171875 30.421875 5.171875 
Q 36.671875 5.171875 39.9375 9.765625 
Q 43.21875 14.359375 43.21875 23.09375 
L 43.21875 46.6875 
L 35.40625 46.6875 
z
" id="DejaVuSerif-117"/>
       <path d="M 52.484375 5.171875 
L 61.078125 5.171875 
L 61.078125 0 
L 43.5 0 
L 43.5 8.109375 
Q 40.875 3.21875 36.796875 0.890625 
Q 32.71875 -1.421875 26.703125 -1.421875 
Q 17.140625 -1.421875 11.0625 6.171875 
Q 4.984375 13.765625 4.984375 25.984375 
Q 4.984375 38.1875 11.03125 45.75 
Q 17.09375 53.328125 26.703125 53.328125 
Q 32.71875 53.328125 36.796875 51 
Q 40.875 48.6875 43.5 43.796875 
L 43.5 70.796875 
L 35.015625 70.796875 
L 35.015625 75.984375 
L 52.484375 75.984375 
z
M 43.5 23.390625 
L 43.5 28.515625 
Q 43.5 37.84375 39.90625 42.765625 
Q 36.328125 47.703125 29.5 47.703125 
Q 22.5625 47.703125 19.015625 42.234375 
Q 15.484375 36.765625 15.484375 25.984375 
Q 15.484375 15.234375 19.015625 9.71875 
Q 22.5625 4.203125 29.5 4.203125 
Q 36.328125 4.203125 39.90625 9.109375 
Q 43.5 14.015625 43.5 23.390625 
z
" id="DejaVuSerif-100"/>
       <path d="M 76.21875 0 
L 68.21875 0 
L 51.515625 59.28125 
L 34.8125 0 
L 26.8125 0 
L 7.71875 67.671875 
L 0.484375 67.671875 
L 0.484375 72.90625 
L 27.09375 72.90625 
L 27.09375 67.671875 
L 18.015625 67.671875 
L 33.203125 13.8125 
L 49.8125 72.90625 
L 57.71875 72.90625 
L 74.609375 13.1875 
L 89.890625 67.671875 
L 81.5 67.671875 
L 81.5 72.90625 
L 102.484375 72.90625 
L 102.484375 67.671875 
L 95.3125 67.671875 
z
" id="DejaVuSerif-87"/>
       <path d="M 9.71875 68.015625 
Q 9.71875 70.265625 11.34375 71.921875 
Q 12.984375 73.578125 15.28125 73.578125 
Q 17.53125 73.578125 19.15625 71.921875 
Q 20.796875 70.265625 20.796875 68.015625 
Q 20.796875 65.71875 19.1875 64.109375 
Q 17.578125 62.5 15.28125 62.5 
Q 12.984375 62.5 11.34375 64.109375 
Q 9.71875 65.71875 9.71875 68.015625 
z
M 21.1875 5.171875 
L 29.6875 5.171875 
L 29.6875 0 
L 3.609375 0 
L 3.609375 5.171875 
L 12.203125 5.171875 
L 12.203125 46.6875 
L 3.609375 46.6875 
L 3.609375 51.90625 
L 21.1875 51.90625 
z
" id="DejaVuSerif-105"/>
       <path d="M 52.484375 46.6875 
L 52.484375 1.125 
Q 52.484375 -10.0625 46.328125 -16.140625 
Q 40.1875 -22.21875 28.8125 -22.21875 
Q 23.6875 -22.21875 19 -21.28125 
Q 14.3125 -20.359375 10.015625 -18.5 
L 10.015625 -7.625 
L 14.703125 -7.625 
Q 15.578125 -12.703125 18.84375 -15.046875 
Q 22.125 -17.390625 28.21875 -17.390625 
Q 36.140625 -17.390625 39.8125 -12.921875 
Q 43.5 -8.453125 43.5 1.125 
L 43.5 8.109375 
Q 40.875 3.21875 36.796875 0.890625 
Q 32.71875 -1.421875 26.703125 -1.421875 
Q 17.140625 -1.421875 11.0625 6.171875 
Q 4.984375 13.765625 4.984375 25.984375 
Q 4.984375 38.1875 11.03125 45.75 
Q 17.09375 53.328125 26.703125 53.328125 
Q 32.71875 53.328125 36.796875 51 
Q 40.875 48.6875 43.5 43.796875 
L 43.5 51.90625 
L 61.078125 51.90625 
L 61.078125 46.6875 
z
M 43.5 28.515625 
Q 43.5 37.84375 39.90625 42.765625 
Q 36.328125 47.703125 29.5 47.703125 
Q 22.5625 47.703125 19.015625 42.234375 
Q 15.484375 36.765625 15.484375 25.984375 
Q 15.484375 15.234375 19.015625 9.71875 
Q 22.5625 4.203125 29.5 4.203125 
Q 36.328125 4.203125 39.90625 9.109375 
Q 43.5 14.015625 43.5 23.390625 
z
" id="DejaVuSerif-103"/>
       <path d="M 4.109375 0 
L 4.109375 5.171875 
L 12.203125 5.171875 
L 12.203125 70.796875 
L 3.609375 70.796875 
L 3.609375 75.984375 
L 21.1875 75.984375 
L 21.1875 42.671875 
Q 23.6875 47.953125 27.65625 50.640625 
Q 31.640625 53.328125 36.921875 53.328125 
Q 45.515625 53.328125 49.5625 48.390625 
Q 53.609375 43.453125 53.609375 33.015625 
L 53.609375 5.171875 
L 61.625 5.171875 
L 61.625 0 
L 36.8125 0 
L 36.8125 5.171875 
L 44.578125 5.171875 
L 44.578125 30.171875 
Q 44.578125 39.703125 42.25 43.1875 
Q 39.9375 46.6875 33.984375 46.6875 
Q 27.734375 46.6875 24.453125 42.140625 
Q 21.1875 37.59375 21.1875 28.90625 
L 21.1875 5.171875 
L 29 5.171875 
L 29 0 
z
" id="DejaVuSerif-104"/>
       <path d="M 5.609375 2.875 
L 5.609375 14.984375 
L 10.796875 14.984375 
Q 10.984375 9.1875 14.421875 6.296875 
Q 17.875 3.421875 24.609375 3.421875 
Q 30.671875 3.421875 33.84375 5.6875 
Q 37.015625 7.953125 37.015625 12.3125 
Q 37.015625 15.71875 34.6875 17.8125 
Q 32.375 19.921875 24.90625 22.3125 
L 18.40625 24.515625 
Q 11.71875 26.65625 8.71875 29.875 
Q 5.71875 33.109375 5.71875 38.09375 
Q 5.71875 45.21875 10.9375 49.265625 
Q 16.15625 53.328125 25.390625 53.328125 
Q 29.5 53.328125 34.03125 52.25 
Q 38.578125 51.171875 43.40625 49.125 
L 43.40625 37.796875 
L 38.234375 37.796875 
Q 38.03125 42.828125 34.703125 45.65625 
Q 31.390625 48.484375 25.6875 48.484375 
Q 20.015625 48.484375 17.109375 46.484375 
Q 14.203125 44.484375 14.203125 40.484375 
Q 14.203125 37.203125 16.40625 35.21875 
Q 18.609375 33.25 25.203125 31.203125 
L 32.328125 29 
Q 39.703125 26.703125 42.9375 23.265625 
Q 46.1875 19.828125 46.1875 14.40625 
Q 46.1875 7.03125 40.546875 2.796875 
Q 34.90625 -1.421875 25 -1.421875 
Q 19.96875 -1.421875 15.1875 -0.34375 
Q 10.40625 0.734375 5.609375 2.875 
z
" id="DejaVuSerif-115"/>
      </defs>
      <use xlink:href="#DejaVuSerif-80"/>
      <use x="62.785156" xlink:href="#DejaVuSerif-101"/>
      <use x="121.964844" xlink:href="#DejaVuSerif-114"/>
      <use x="169.767578" xlink:href="#DejaVuSerif-99"/>
      <use x="225.773438" xlink:href="#DejaVuSerif-101"/>
      <use x="284.953125" xlink:href="#DejaVuSerif-110"/>
      <use x="349.357422" xlink:href="#DejaVuSerif-116"/>
      <use x="389.542969" xlink:href="#DejaVuSerif-32"/>
      <use x="421.330078" xlink:href="#DejaVuSerif-111"/>
      <use x="481.535156" xlink:href="#DejaVuSerif-102"/>
      <use x="518.546875" xlink:href="#DejaVuSerif-32"/>
      <use x="550.333984" xlink:href="#DejaVuSerif-80"/>
      <use x="617.619141" xlink:href="#DejaVuSerif-114"/>
      <use x="665.421875" xlink:href="#DejaVuSerif-117"/>
      <use x="729.826172" xlink:href="#DejaVuSerif-110"/>
      <use x="794.230469" xlink:href="#DejaVuSerif-101"/>
      <use x="853.410156" xlink:href="#DejaVuSerif-100"/>
      <use x="917.423828" xlink:href="#DejaVuSerif-32"/>
      <use x="949.210938" xlink:href="#DejaVuSerif-87"/>
      <use x="1043.869141" xlink:href="#DejaVuSerif-101"/>
      <use x="1103.048828" xlink:href="#DejaVuSerif-105"/>
      <use x="1135.03125" xlink:href="#DejaVuSerif-103"/>
      <use x="1199.044922" xlink:href="#DejaVuSerif-104"/>
      <use x="1263.449219" xlink:href="#DejaVuSerif-116"/>
      <use x="1303.634766" xlink:href="#DejaVuSerif-115"/>
     </g>
    </g>
   </g>
   <g id="matplotlib.axis_2">
    <g id="ytick_1">
     <g id="line2d_49">
      <path clip-path="url(#p9afa8affa3)" d="M 33.503125 265.637671 
L 287.139489 265.637671 
" style="fill:none;stroke:#000000;stroke-dasharray:1.85,0.8;stroke-dashoffset:0;stroke-opacity:0.5;stroke-width:0.5;"/>
     </g>
     <g id="line2d_50">
      <defs>
       <path d="M 0 0 
L 3 0 
" id="mb4deea06ba" style="stroke:#000000;stroke-width:0.5;"/>
      </defs>
      <g>
       <use style="stroke:#000000;stroke-width:0.5;" x="33.503125" xlink:href="#mb4deea06ba" y="265.637671"/>
      </g>
     </g>
     <g id="line2d_51">
      <defs>
       <path d="M 0 0 
L -3 0 
" id="m4678b48c1a" style="stroke:#000000;stroke-width:0.5;"/>
      </defs>
      <g>
       <use style="stroke:#000000;stroke-width:0.5;" x="287.139489" xlink:href="#m4678b48c1a" y="265.637671"/>
      </g>
     </g>
     <g id="text_8">
      <!-- 88 -->
      <g transform="translate(17.278125 269.43689)scale(0.1 -0.1)">
       <use xlink:href="#DejaVuSerif-56"/>
       <use x="63.623047" xlink:href="#DejaVuSerif-56"/>
      </g>
     </g>
    </g>
    <g id="ytick_2">
     <g id="line2d_52">
      <path clip-path="url(#p9afa8affa3)" d="M 33.503125 228.907189 
L 287.139489 228.907189 
" style="fill:none;stroke:#000000;stroke-dasharray:1.85,0.8;stroke-dashoffset:0;stroke-opacity:0.5;stroke-width:0.5;"/>
     </g>
     <g id="line2d_53">
      <g>
       <use style="stroke:#000000;stroke-width:0.5;" x="33.503125" xlink:href="#mb4deea06ba" y="228.907189"/>
      </g>
     </g>
     <g id="line2d_54">
      <g>
       <use style="stroke:#000000;stroke-width:0.5;" x="287.139489" xlink:href="#m4678b48c1a" y="228.907189"/>
      </g>
     </g>
     <g id="text_9">
      <!-- 89 -->
      <g transform="translate(17.278125 232.706408)scale(0.1 -0.1)">
       <defs>
        <path d="M 46.78125 32.671875 
Q 43.5 29 39.25 27.1875 
Q 35.015625 25.390625 29.6875 25.390625 
Q 18.84375 25.390625 12.5625 31.9375 
Q 6.296875 38.484375 6.296875 49.8125 
Q 6.296875 60.890625 13.109375 67.546875 
Q 19.921875 74.21875 31.296875 74.21875 
Q 43.65625 74.21875 50.265625 65.015625 
Q 56.890625 55.8125 56.890625 38.71875 
Q 56.890625 19.578125 49.015625 9.078125 
Q 41.15625 -1.421875 26.90625 -1.421875 
Q 23.046875 -1.421875 18.796875 -0.6875 
Q 14.546875 0.046875 10.109375 1.515625 
L 10.109375 13.625 
L 15.578125 13.625 
Q 16.21875 8.6875 19.390625 6.046875 
Q 22.5625 3.421875 27.875 3.421875 
Q 37.359375 3.421875 41.984375 10.5625 
Q 46.625 17.71875 46.78125 32.671875 
z
M 30.90625 69.390625 
Q 23.96875 69.390625 20.28125 64.328125 
Q 16.609375 59.28125 16.609375 49.8125 
Q 16.609375 40.328125 20.28125 35.25 
Q 23.96875 30.171875 30.90625 30.171875 
Q 37.84375 30.171875 41.53125 35.078125 
Q 45.21875 39.984375 45.21875 49.21875 
Q 45.21875 58.9375 41.5 64.15625 
Q 37.796875 69.390625 30.90625 69.390625 
z
" id="DejaVuSerif-57"/>
       </defs>
       <use xlink:href="#DejaVuSerif-56"/>
       <use x="63.623047" xlink:href="#DejaVuSerif-57"/>
      </g>
     </g>
    </g>
    <g id="ytick_3">
     <g id="line2d_55">
      <path clip-path="url(#p9afa8affa3)" d="M 33.503125 192.176708 
L 287.139489 192.176708 
" style="fill:none;stroke:#000000;stroke-dasharray:1.85,0.8;stroke-dashoffset:0;stroke-opacity:0.5;stroke-width:0.5;"/>
     </g>
     <g id="line2d_56">
      <g>
       <use style="stroke:#000000;stroke-width:0.5;" x="33.503125" xlink:href="#mb4deea06ba" y="192.176708"/>
      </g>
     </g>
     <g id="line2d_57">
      <g>
       <use style="stroke:#000000;stroke-width:0.5;" x="287.139489" xlink:href="#m4678b48c1a" y="192.176708"/>
      </g>
     </g>
     <g id="text_10">
      <!-- 90 -->
      <g transform="translate(17.278125 195.975926)scale(0.1 -0.1)">
       <use xlink:href="#DejaVuSerif-57"/>
       <use x="63.623047" xlink:href="#DejaVuSerif-48"/>
      </g>
     </g>
    </g>
    <g id="ytick_4">
     <g id="line2d_58">
      <path clip-path="url(#p9afa8affa3)" d="M 33.503125 155.446226 
L 287.139489 155.446226 
" style="fill:none;stroke:#000000;stroke-dasharray:1.85,0.8;stroke-dashoffset:0;stroke-opacity:0.5;stroke-width:0.5;"/>
     </g>
     <g id="line2d_59">
      <g>
       <use style="stroke:#000000;stroke-width:0.5;" x="33.503125" xlink:href="#mb4deea06ba" y="155.446226"/>
      </g>
     </g>
     <g id="line2d_60">
      <g>
       <use style="stroke:#000000;stroke-width:0.5;" x="287.139489" xlink:href="#m4678b48c1a" y="155.446226"/>
      </g>
     </g>
     <g id="text_11">
      <!-- 91 -->
      <g transform="translate(17.278125 159.245445)scale(0.1 -0.1)">
       <use xlink:href="#DejaVuSerif-57"/>
       <use x="63.623047" xlink:href="#DejaVuSerif-49"/>
      </g>
     </g>
    </g>
    <g id="ytick_5">
     <g id="line2d_61">
      <path clip-path="url(#p9afa8affa3)" d="M 33.503125 118.715745 
L 287.139489 118.715745 
" style="fill:none;stroke:#000000;stroke-dasharray:1.85,0.8;stroke-dashoffset:0;stroke-opacity:0.5;stroke-width:0.5;"/>
     </g>
     <g id="line2d_62">
      <g>
       <use style="stroke:#000000;stroke-width:0.5;" x="33.503125" xlink:href="#mb4deea06ba" y="118.715745"/>
      </g>
     </g>
     <g id="line2d_63">
      <g>
       <use style="stroke:#000000;stroke-width:0.5;" x="287.139489" xlink:href="#m4678b48c1a" y="118.715745"/>
      </g>
     </g>
     <g id="text_12">
      <!-- 92 -->
      <g transform="translate(17.278125 122.514963)scale(0.1 -0.1)">
       <use xlink:href="#DejaVuSerif-57"/>
       <use x="63.623047" xlink:href="#DejaVuSerif-50"/>
      </g>
     </g>
    </g>
    <g id="ytick_6">
     <g id="line2d_64">
      <path clip-path="url(#p9afa8affa3)" d="M 33.503125 81.985263 
L 287.139489 81.985263 
" style="fill:none;stroke:#000000;stroke-dasharray:1.85,0.8;stroke-dashoffset:0;stroke-opacity:0.5;stroke-width:0.5;"/>
     </g>
     <g id="line2d_65">
      <g>
       <use style="stroke:#000000;stroke-width:0.5;" x="33.503125" xlink:href="#mb4deea06ba" y="81.985263"/>
      </g>
     </g>
     <g id="line2d_66">
      <g>
       <use style="stroke:#000000;stroke-width:0.5;" x="287.139489" xlink:href="#m4678b48c1a" y="81.985263"/>
      </g>
     </g>
     <g id="text_13">
      <!-- 93 -->
      <g transform="translate(17.278125 85.784482)scale(0.1 -0.1)">
       <defs>
        <path d="M 9.71875 69.828125 
Q 15.4375 71.96875 20.671875 73.09375 
Q 25.921875 74.21875 30.515625 74.21875 
Q 41.21875 74.21875 47.21875 69.59375 
Q 53.21875 64.984375 53.21875 56.78125 
Q 53.21875 50.203125 49.0625 45.78125 
Q 44.921875 41.359375 37.3125 39.796875 
Q 46.296875 38.53125 51.25 33.28125 
Q 56.203125 28.03125 56.203125 19.671875 
Q 56.203125 9.46875 49.34375 4.015625 
Q 42.484375 -1.421875 29.59375 -1.421875 
Q 23.875 -1.421875 18.421875 -0.1875 
Q 12.984375 1.03125 7.625 3.515625 
L 7.625 17.671875 
L 13.09375 17.671875 
Q 13.578125 10.640625 17.828125 7.03125 
Q 22.078125 3.421875 29.78125 3.421875 
Q 37.25 3.421875 41.578125 7.734375 
Q 45.90625 12.0625 45.90625 19.578125 
Q 45.90625 28.171875 41.453125 32.59375 
Q 37.015625 37.015625 28.421875 37.015625 
L 23.78125 37.015625 
L 23.78125 42 
L 26.21875 42 
Q 34.765625 42 39.03125 45.53125 
Q 43.3125 49.078125 43.3125 56.203125 
Q 43.3125 62.59375 39.796875 65.984375 
Q 36.28125 69.390625 29.6875 69.390625 
Q 23.09375 69.390625 19.453125 66.265625 
Q 15.828125 63.140625 15.1875 56.984375 
L 9.71875 56.984375 
z
" id="DejaVuSerif-51"/>
       </defs>
       <use xlink:href="#DejaVuSerif-57"/>
       <use x="63.623047" xlink:href="#DejaVuSerif-51"/>
      </g>
     </g>
    </g>
    <g id="ytick_7">
     <g id="line2d_67">
      <path clip-path="url(#p9afa8affa3)" d="M 33.503125 45.254782 
L 287.139489 45.254782 
" style="fill:none;stroke:#000000;stroke-dasharray:1.85,0.8;stroke-dashoffset:0;stroke-opacity:0.5;stroke-width:0.5;"/>
     </g>
     <g id="line2d_68">
      <g>
       <use style="stroke:#000000;stroke-width:0.5;" x="33.503125" xlink:href="#mb4deea06ba" y="45.254782"/>
      </g>
     </g>
     <g id="line2d_69">
      <g>
       <use style="stroke:#000000;stroke-width:0.5;" x="287.139489" xlink:href="#m4678b48c1a" y="45.254782"/>
      </g>
     </g>
     <g id="text_14">
      <!-- 94 -->
      <g transform="translate(17.278125 49.054)scale(0.1 -0.1)">
       <use xlink:href="#DejaVuSerif-57"/>
       <use x="63.623047" xlink:href="#DejaVuSerif-52"/>
      </g>
     </g>
    </g>
    <g id="ytick_8">
     <g id="line2d_70">
      <path clip-path="url(#p9afa8affa3)" d="M 33.503125 8.5243 
L 287.139489 8.5243 
" style="fill:none;stroke:#000000;stroke-dasharray:1.85,0.8;stroke-dashoffset:0;stroke-opacity:0.5;stroke-width:0.5;"/>
     </g>
     <g id="line2d_71">
      <g>
       <use style="stroke:#000000;stroke-width:0.5;" x="33.503125" xlink:href="#mb4deea06ba" y="8.5243"/>
      </g>
     </g>
     <g id="line2d_72">
      <g>
       <use style="stroke:#000000;stroke-width:0.5;" x="287.139489" xlink:href="#m4678b48c1a" y="8.5243"/>
      </g>
     </g>
     <g id="text_15">
      <!-- 95 -->
      <g transform="translate(17.278125 12.323519)scale(0.1 -0.1)">
       <defs>
        <path d="M 50.296875 72.90625 
L 50.296875 64.890625 
L 16.890625 64.890625 
L 16.890625 44 
Q 19.4375 45.75 22.828125 46.625 
Q 26.21875 47.515625 30.421875 47.515625 
Q 42.234375 47.515625 49.0625 40.96875 
Q 55.90625 34.421875 55.90625 23.09375 
Q 55.90625 11.53125 49 5.046875 
Q 42.09375 -1.421875 29.59375 -1.421875 
Q 24.5625 -1.421875 19.28125 -0.1875 
Q 14.015625 1.03125 8.5 3.515625 
L 8.5 17.671875 
L 14.015625 17.671875 
Q 14.453125 10.75 18.421875 7.078125 
Q 22.40625 3.421875 29.59375 3.421875 
Q 37.3125 3.421875 41.453125 8.5 
Q 45.609375 13.578125 45.609375 23.09375 
Q 45.609375 32.5625 41.484375 37.609375 
Q 37.359375 42.671875 29.59375 42.671875 
Q 25.203125 42.671875 21.84375 41.109375 
Q 18.5 39.546875 15.921875 36.28125 
L 11.71875 36.28125 
L 11.71875 72.90625 
z
" id="DejaVuSerif-53"/>
       </defs>
       <use xlink:href="#DejaVuSerif-57"/>
       <use x="63.623047" xlink:href="#DejaVuSerif-53"/>
      </g>
     </g>
    </g>
    <g id="ytick_9">
     <g id="line2d_73">
      <defs>
       <path d="M 0 0 
L 1.5 0 
" id="m721b57eb49" style="stroke:#000000;stroke-width:0.5;"/>
      </defs>
      <g>
       <use style="stroke:#000000;stroke-width:0.5;" x="33.503125" xlink:href="#m721b57eb49" y="280.329863"/>
      </g>
     </g>
     <g id="line2d_74">
      <defs>
       <path d="M 0 0 
L -1.5 0 
" id="mf5cd4e9adf" style="stroke:#000000;stroke-width:0.5;"/>
      </defs>
      <g>
       <use style="stroke:#000000;stroke-width:0.5;" x="287.139489" xlink:href="#mf5cd4e9adf" y="280.329863"/>
      </g>
     </g>
    </g>
    <g id="ytick_10">
     <g id="line2d_75">
      <g>
       <use style="stroke:#000000;stroke-width:0.5;" x="33.503125" xlink:href="#m721b57eb49" y="272.983767"/>
      </g>
     </g>
     <g id="line2d_76">
      <g>
       <use style="stroke:#000000;stroke-width:0.5;" x="287.139489" xlink:href="#mf5cd4e9adf" y="272.983767"/>
      </g>
     </g>
    </g>
    <g id="ytick_11">
     <g id="line2d_77">
      <g>
       <use style="stroke:#000000;stroke-width:0.5;" x="33.503125" xlink:href="#m721b57eb49" y="258.291574"/>
      </g>
     </g>
     <g id="line2d_78">
      <g>
       <use style="stroke:#000000;stroke-width:0.5;" x="287.139489" xlink:href="#mf5cd4e9adf" y="258.291574"/>
      </g>
     </g>
    </g>
    <g id="ytick_12">
     <g id="line2d_79">
      <g>
       <use style="stroke:#000000;stroke-width:0.5;" x="33.503125" xlink:href="#m721b57eb49" y="250.945478"/>
      </g>
     </g>
     <g id="line2d_80">
      <g>
       <use style="stroke:#000000;stroke-width:0.5;" x="287.139489" xlink:href="#mf5cd4e9adf" y="250.945478"/>
      </g>
     </g>
    </g>
    <g id="ytick_13">
     <g id="line2d_81">
      <g>
       <use style="stroke:#000000;stroke-width:0.5;" x="33.503125" xlink:href="#m721b57eb49" y="243.599382"/>
      </g>
     </g>
     <g id="line2d_82">
      <g>
       <use style="stroke:#000000;stroke-width:0.5;" x="287.139489" xlink:href="#mf5cd4e9adf" y="243.599382"/>
      </g>
     </g>
    </g>
    <g id="ytick_14">
     <g id="line2d_83">
      <g>
       <use style="stroke:#000000;stroke-width:0.5;" x="33.503125" xlink:href="#m721b57eb49" y="236.253286"/>
      </g>
     </g>
     <g id="line2d_84">
      <g>
       <use style="stroke:#000000;stroke-width:0.5;" x="287.139489" xlink:href="#mf5cd4e9adf" y="236.253286"/>
      </g>
     </g>
    </g>
    <g id="ytick_15">
     <g id="line2d_85">
      <g>
       <use style="stroke:#000000;stroke-width:0.5;" x="33.503125" xlink:href="#m721b57eb49" y="221.561093"/>
      </g>
     </g>
     <g id="line2d_86">
      <g>
       <use style="stroke:#000000;stroke-width:0.5;" x="287.139489" xlink:href="#mf5cd4e9adf" y="221.561093"/>
      </g>
     </g>
    </g>
    <g id="ytick_16">
     <g id="line2d_87">
      <g>
       <use style="stroke:#000000;stroke-width:0.5;" x="33.503125" xlink:href="#m721b57eb49" y="214.214997"/>
      </g>
     </g>
     <g id="line2d_88">
      <g>
       <use style="stroke:#000000;stroke-width:0.5;" x="287.139489" xlink:href="#mf5cd4e9adf" y="214.214997"/>
      </g>
     </g>
    </g>
    <g id="ytick_17">
     <g id="line2d_89">
      <g>
       <use style="stroke:#000000;stroke-width:0.5;" x="33.503125" xlink:href="#m721b57eb49" y="206.8689"/>
      </g>
     </g>
     <g id="line2d_90">
      <g>
       <use style="stroke:#000000;stroke-width:0.5;" x="287.139489" xlink:href="#mf5cd4e9adf" y="206.8689"/>
      </g>
     </g>
    </g>
    <g id="ytick_18">
     <g id="line2d_91">
      <g>
       <use style="stroke:#000000;stroke-width:0.5;" x="33.503125" xlink:href="#m721b57eb49" y="199.522804"/>
      </g>
     </g>
     <g id="line2d_92">
      <g>
       <use style="stroke:#000000;stroke-width:0.5;" x="287.139489" xlink:href="#mf5cd4e9adf" y="199.522804"/>
      </g>
     </g>
    </g>
    <g id="ytick_19">
     <g id="line2d_93">
      <g>
       <use style="stroke:#000000;stroke-width:0.5;" x="33.503125" xlink:href="#m721b57eb49" y="184.830611"/>
      </g>
     </g>
     <g id="line2d_94">
      <g>
       <use style="stroke:#000000;stroke-width:0.5;" x="287.139489" xlink:href="#mf5cd4e9adf" y="184.830611"/>
      </g>
     </g>
    </g>
    <g id="ytick_20">
     <g id="line2d_95">
      <g>
       <use style="stroke:#000000;stroke-width:0.5;" x="33.503125" xlink:href="#m721b57eb49" y="177.484515"/>
      </g>
     </g>
     <g id="line2d_96">
      <g>
       <use style="stroke:#000000;stroke-width:0.5;" x="287.139489" xlink:href="#mf5cd4e9adf" y="177.484515"/>
      </g>
     </g>
    </g>
    <g id="ytick_21">
     <g id="line2d_97">
      <g>
       <use style="stroke:#000000;stroke-width:0.5;" x="33.503125" xlink:href="#m721b57eb49" y="170.138419"/>
      </g>
     </g>
     <g id="line2d_98">
      <g>
       <use style="stroke:#000000;stroke-width:0.5;" x="287.139489" xlink:href="#mf5cd4e9adf" y="170.138419"/>
      </g>
     </g>
    </g>
    <g id="ytick_22">
     <g id="line2d_99">
      <g>
       <use style="stroke:#000000;stroke-width:0.5;" x="33.503125" xlink:href="#m721b57eb49" y="162.792323"/>
      </g>
     </g>
     <g id="line2d_100">
      <g>
       <use style="stroke:#000000;stroke-width:0.5;" x="287.139489" xlink:href="#mf5cd4e9adf" y="162.792323"/>
      </g>
     </g>
    </g>
    <g id="ytick_23">
     <g id="line2d_101">
      <g>
       <use style="stroke:#000000;stroke-width:0.5;" x="33.503125" xlink:href="#m721b57eb49" y="148.10013"/>
      </g>
     </g>
     <g id="line2d_102">
      <g>
       <use style="stroke:#000000;stroke-width:0.5;" x="287.139489" xlink:href="#mf5cd4e9adf" y="148.10013"/>
      </g>
     </g>
    </g>
    <g id="ytick_24">
     <g id="line2d_103">
      <g>
       <use style="stroke:#000000;stroke-width:0.5;" x="33.503125" xlink:href="#m721b57eb49" y="140.754034"/>
      </g>
     </g>
     <g id="line2d_104">
      <g>
       <use style="stroke:#000000;stroke-width:0.5;" x="287.139489" xlink:href="#mf5cd4e9adf" y="140.754034"/>
      </g>
     </g>
    </g>
    <g id="ytick_25">
     <g id="line2d_105">
      <g>
       <use style="stroke:#000000;stroke-width:0.5;" x="33.503125" xlink:href="#m721b57eb49" y="133.407937"/>
      </g>
     </g>
     <g id="line2d_106">
      <g>
       <use style="stroke:#000000;stroke-width:0.5;" x="287.139489" xlink:href="#mf5cd4e9adf" y="133.407937"/>
      </g>
     </g>
    </g>
    <g id="ytick_26">
     <g id="line2d_107">
      <g>
       <use style="stroke:#000000;stroke-width:0.5;" x="33.503125" xlink:href="#m721b57eb49" y="126.061841"/>
      </g>
     </g>
     <g id="line2d_108">
      <g>
       <use style="stroke:#000000;stroke-width:0.5;" x="287.139489" xlink:href="#mf5cd4e9adf" y="126.061841"/>
      </g>
     </g>
    </g>
    <g id="ytick_27">
     <g id="line2d_109">
      <g>
       <use style="stroke:#000000;stroke-width:0.5;" x="33.503125" xlink:href="#m721b57eb49" y="111.369648"/>
      </g>
     </g>
     <g id="line2d_110">
      <g>
       <use style="stroke:#000000;stroke-width:0.5;" x="287.139489" xlink:href="#mf5cd4e9adf" y="111.369648"/>
      </g>
     </g>
    </g>
    <g id="ytick_28">
     <g id="line2d_111">
      <g>
       <use style="stroke:#000000;stroke-width:0.5;" x="33.503125" xlink:href="#m721b57eb49" y="104.023552"/>
      </g>
     </g>
     <g id="line2d_112">
      <g>
       <use style="stroke:#000000;stroke-width:0.5;" x="287.139489" xlink:href="#mf5cd4e9adf" y="104.023552"/>
      </g>
     </g>
    </g>
    <g id="ytick_29">
     <g id="line2d_113">
      <g>
       <use style="stroke:#000000;stroke-width:0.5;" x="33.503125" xlink:href="#m721b57eb49" y="96.677456"/>
      </g>
     </g>
     <g id="line2d_114">
      <g>
       <use style="stroke:#000000;stroke-width:0.5;" x="287.139489" xlink:href="#mf5cd4e9adf" y="96.677456"/>
      </g>
     </g>
    </g>
    <g id="ytick_30">
     <g id="line2d_115">
      <g>
       <use style="stroke:#000000;stroke-width:0.5;" x="33.503125" xlink:href="#m721b57eb49" y="89.331359"/>
      </g>
     </g>
     <g id="line2d_116">
      <g>
       <use style="stroke:#000000;stroke-width:0.5;" x="287.139489" xlink:href="#mf5cd4e9adf" y="89.331359"/>
      </g>
     </g>
    </g>
    <g id="ytick_31">
     <g id="line2d_117">
      <g>
       <use style="stroke:#000000;stroke-width:0.5;" x="33.503125" xlink:href="#m721b57eb49" y="74.639167"/>
      </g>
     </g>
     <g id="line2d_118">
      <g>
       <use style="stroke:#000000;stroke-width:0.5;" x="287.139489" xlink:href="#mf5cd4e9adf" y="74.639167"/>
      </g>
     </g>
    </g>
    <g id="ytick_32">
     <g id="line2d_119">
      <g>
       <use style="stroke:#000000;stroke-width:0.5;" x="33.503125" xlink:href="#m721b57eb49" y="67.293071"/>
      </g>
     </g>
     <g id="line2d_120">
      <g>
       <use style="stroke:#000000;stroke-width:0.5;" x="287.139489" xlink:href="#mf5cd4e9adf" y="67.293071"/>
      </g>
     </g>
    </g>
    <g id="ytick_33">
     <g id="line2d_121">
      <g>
       <use style="stroke:#000000;stroke-width:0.5;" x="33.503125" xlink:href="#m721b57eb49" y="59.946974"/>
      </g>
     </g>
     <g id="line2d_122">
      <g>
       <use style="stroke:#000000;stroke-width:0.5;" x="287.139489" xlink:href="#mf5cd4e9adf" y="59.946974"/>
      </g>
     </g>
    </g>
    <g id="ytick_34">
     <g id="line2d_123">
      <g>
       <use style="stroke:#000000;stroke-width:0.5;" x="33.503125" xlink:href="#m721b57eb49" y="52.600878"/>
      </g>
     </g>
     <g id="line2d_124">
      <g>
       <use style="stroke:#000000;stroke-width:0.5;" x="287.139489" xlink:href="#mf5cd4e9adf" y="52.600878"/>
      </g>
     </g>
    </g>
    <g id="ytick_35">
     <g id="line2d_125">
      <g>
       <use style="stroke:#000000;stroke-width:0.5;" x="33.503125" xlink:href="#m721b57eb49" y="37.908685"/>
      </g>
     </g>
     <g id="line2d_126">
      <g>
       <use style="stroke:#000000;stroke-width:0.5;" x="287.139489" xlink:href="#mf5cd4e9adf" y="37.908685"/>
      </g>
     </g>
    </g>
    <g id="ytick_36">
     <g id="line2d_127">
      <g>
       <use style="stroke:#000000;stroke-width:0.5;" x="33.503125" xlink:href="#m721b57eb49" y="30.562589"/>
      </g>
     </g>
     <g id="line2d_128">
      <g>
       <use style="stroke:#000000;stroke-width:0.5;" x="287.139489" xlink:href="#mf5cd4e9adf" y="30.562589"/>
      </g>
     </g>
    </g>
    <g id="ytick_37">
     <g id="line2d_129">
      <g>
       <use style="stroke:#000000;stroke-width:0.5;" x="33.503125" xlink:href="#m721b57eb49" y="23.216493"/>
      </g>
     </g>
     <g id="line2d_130">
      <g>
       <use style="stroke:#000000;stroke-width:0.5;" x="287.139489" xlink:href="#mf5cd4e9adf" y="23.216493"/>
      </g>
     </g>
    </g>
    <g id="ytick_38">
     <g id="line2d_131">
      <g>
       <use style="stroke:#000000;stroke-width:0.5;" x="33.503125" xlink:href="#m721b57eb49" y="15.870396"/>
      </g>
     </g>
     <g id="line2d_132">
      <g>
       <use style="stroke:#000000;stroke-width:0.5;" x="287.139489" xlink:href="#mf5cd4e9adf" y="15.870396"/>
      </g>
     </g>
    </g>
    <g id="text_16">
     <!-- Test Accuracy in Percent -->
     <g transform="translate(11.05625 205.173438)rotate(-90)scale(0.1 -0.1)">
      <defs>
       <path d="M 19.09375 0 
L 19.09375 5.171875 
L 28.421875 5.171875 
L 28.421875 67.09375 
L 6.984375 67.09375 
L 6.984375 55.71875 
L 0.984375 55.71875 
L 0.984375 72.90625 
L 65.71875 72.90625 
L 65.71875 55.71875 
L 59.71875 55.71875 
L 59.71875 67.09375 
L 38.28125 67.09375 
L 38.28125 5.171875 
L 47.609375 5.171875 
L 47.609375 0 
z
" id="DejaVuSerif-84"/>
       <path d="M 20.015625 26.421875 
L 46.78125 26.421875 
L 33.40625 61.078125 
z
M -0.59375 0 
L -0.59375 5.171875 
L 5.8125 5.171875 
L 31.78125 72.90625 
L 39.984375 72.90625 
L 66.015625 5.171875 
L 73.1875 5.171875 
L 73.1875 0 
L 46.6875 0 
L 46.6875 5.171875 
L 54.78125 5.171875 
L 48.6875 21.1875 
L 18.015625 21.1875 
L 11.921875 5.171875 
L 19.921875 5.171875 
L 19.921875 0 
z
" id="DejaVuSerif-65"/>
       <path d="M 39.796875 16.3125 
L 39.796875 27.296875 
L 28.21875 27.296875 
Q 21.53125 27.296875 18.25 24.40625 
Q 14.984375 21.53125 14.984375 15.578125 
Q 14.984375 10.15625 18.296875 6.984375 
Q 21.625 3.8125 27.296875 3.8125 
Q 32.90625 3.8125 36.34375 7.28125 
Q 39.796875 10.75 39.796875 16.3125 
z
M 48.78125 32.421875 
L 48.78125 5.171875 
L 56.78125 5.171875 
L 56.78125 0 
L 39.796875 0 
L 39.796875 5.609375 
Q 36.8125 2 32.90625 0.28125 
Q 29 -1.421875 23.78125 -1.421875 
Q 15.140625 -1.421875 10.0625 3.171875 
Q 4.984375 7.765625 4.984375 15.578125 
Q 4.984375 23.640625 10.796875 28.078125 
Q 16.609375 32.515625 27.203125 32.515625 
L 39.796875 32.515625 
L 39.796875 36.078125 
Q 39.796875 42 36.203125 45.234375 
Q 32.625 48.484375 26.125 48.484375 
Q 20.75 48.484375 17.578125 46.046875 
Q 14.40625 43.609375 13.625 38.8125 
L 8.984375 38.8125 
L 8.984375 49.3125 
Q 13.671875 51.3125 18.09375 52.3125 
Q 22.515625 53.328125 26.703125 53.328125 
Q 37.5 53.328125 43.140625 47.96875 
Q 48.78125 42.625 48.78125 32.421875 
z
" id="DejaVuSerif-97"/>
       <path d="M 21.578125 -9.515625 
L 25 -0.875 
L 5.609375 46.6875 
L -0.296875 46.6875 
L -0.296875 51.90625 
L 23.578125 51.90625 
L 23.578125 46.6875 
L 15.28125 46.6875 
L 29.890625 10.984375 
L 44.484375 46.6875 
L 36.71875 46.6875 
L 36.71875 51.90625 
L 56.203125 51.90625 
L 56.203125 46.6875 
L 50.390625 46.6875 
L 26.609375 -11.71875 
Q 24.171875 -17.78125 21.1875 -20 
Q 18.21875 -22.21875 12.796875 -22.21875 
Q 10.5 -22.21875 8.078125 -21.828125 
Q 5.671875 -21.4375 3.21875 -20.703125 
L 3.21875 -10.796875 
L 7.8125 -10.796875 
Q 8.109375 -14.109375 9.5 -15.546875 
Q 10.890625 -17 13.8125 -17 
Q 16.5 -17 18.140625 -15.5 
Q 19.78125 -14.015625 21.578125 -9.515625 
z
" id="DejaVuSerif-121"/>
      </defs>
      <use xlink:href="#DejaVuSerif-84"/>
      <use x="58.949219" xlink:href="#DejaVuSerif-101"/>
      <use x="118.128906" xlink:href="#DejaVuSerif-115"/>
      <use x="169.447266" xlink:href="#DejaVuSerif-116"/>
      <use x="209.632812" xlink:href="#DejaVuSerif-32"/>
      <use x="241.419922" xlink:href="#DejaVuSerif-65"/>
      <use x="313.636719" xlink:href="#DejaVuSerif-99"/>
      <use x="369.642578" xlink:href="#DejaVuSerif-99"/>
      <use x="425.648438" xlink:href="#DejaVuSerif-117"/>
      <use x="490.052734" xlink:href="#DejaVuSerif-114"/>
      <use x="537.855469" xlink:href="#DejaVuSerif-97"/>
      <use x="597.474609" xlink:href="#DejaVuSerif-99"/>
      <use x="653.480469" xlink:href="#DejaVuSerif-121"/>
      <use x="709.974609" xlink:href="#DejaVuSerif-32"/>
      <use x="741.761719" xlink:href="#DejaVuSerif-105"/>
      <use x="773.744141" xlink:href="#DejaVuSerif-110"/>
      <use x="838.148438" xlink:href="#DejaVuSerif-32"/>
      <use x="869.935547" xlink:href="#DejaVuSerif-80"/>
      <use x="932.720703" xlink:href="#DejaVuSerif-101"/>
      <use x="991.900391" xlink:href="#DejaVuSerif-114"/>
      <use x="1039.703125" xlink:href="#DejaVuSerif-99"/>
      <use x="1095.708984" xlink:href="#DejaVuSerif-101"/>
      <use x="1154.888672" xlink:href="#DejaVuSerif-110"/>
      <use x="1219.292969" xlink:href="#DejaVuSerif-116"/>
     </g>
    </g>
   </g>
   <g id="line2d_133">
    <path clip-path="url(#p9afa8affa3)" d="M 45.032051 31.579619 
L 91.421892 20.715118 
L 128.533076 19.304143 
L 158.222364 20.00963 
L 181.973965 19.304143 
L 200.97491 37.505711 
L 216.175663 25.230235 
L 228.336095 45.407167 
L 238.064444 50.486674 
L 245.847626 56.977156 
L 252.07385 58.670325 
L 257.054984 61.068981 
L 261.039708 72.921165 
L 264.227327 84.208959 
L 266.778113 102.410526 
L 268.818572 107.490034 
L 270.450932 141.212318 
L 271.756664 141.917805 
L 272.801579 174.51131 
L 273.636835 189.467637 
L 274.305716 199.626652 
L 274.840303 201.178723 
L 275.268328 193.13617 
L 275.610563 268.2 
" style="fill:none;stroke:#0c5da5;stroke-linecap:square;"/>
   </g>
   <g id="line2d_134">
    <path clip-path="url(#p9afa8affa3)" d="M 45.032051 59.658007 
L 91.421892 41.738634 
L 128.533076 48.370213 
L 158.222364 44.419485 
L 181.973965 49.357895 
L 200.97491 65.019709 
L 216.175663 64.878611 
L 228.336095 75.178723 
L 238.064444 88.865174 
L 245.847626 94.085778 
L 252.07385 111.581859 
L 257.054984 120.470997 
L 261.039708 133.45196 
L 264.227327 158.990594 
L 266.778113 177.192161 
L 268.818572 191.019709 
L 270.450932 223.613214 
L 271.756664 261.286226 
" style="fill:none;stroke:#00b945;stroke-linecap:square;"/>
   </g>
   <g id="line2d_135">
    <path clip-path="url(#p9afa8affa3)" d="M 45.032051 29.604255 
L 91.421892 16.2 
L 128.533076 17.328779 
L 158.222364 31.297424 
L 181.973965 40.892049 
L 200.97491 40.045465 
L 216.175663 58.38813 
L 228.336095 50.768869 
L 238.064444 68.123852 
L 245.847626 68.688242 
L 252.07385 60.081299 
L 257.054984 77.154087 
L 261.039708 89.711758 
L 264.227327 94.226876 
L 266.778113 101.987234 
L 268.818572 103.680403 
L 270.450932 147.13841 
L 271.756664 162.094737 
L 272.801579 172.253751 
L 273.636835 186.786786 
L 274.305716 219.662486 
L 274.840303 210.067861 
L 275.268328 231.091377 
" style="fill:none;stroke:#ff9500;stroke-linecap:square;"/>
   </g>
   <g id="patch_3">
    <path d="M 33.503125 280.8 
L 33.503125 3.6 
" style="fill:none;stroke:#000000;stroke-linecap:square;stroke-linejoin:miter;stroke-width:0.5;"/>
   </g>
   <g id="patch_4">
    <path d="M 287.139489 280.8 
L 287.139489 3.6 
" style="fill:none;stroke:#000000;stroke-linecap:square;stroke-linejoin:miter;stroke-width:0.5;"/>
   </g>
   <g id="patch_5">
    <path d="M 33.503125 280.8 
L 287.139489 280.8 
" style="fill:none;stroke:#000000;stroke-linecap:square;stroke-linejoin:miter;stroke-width:0.5;"/>
   </g>
   <g id="patch_6">
    <path d="M 33.503125 3.6 
L 287.139489 3.6 
" style="fill:none;stroke:#000000;stroke-linecap:square;stroke-linejoin:miter;stroke-width:0.5;"/>
   </g>
   <g id="legend_1">
    <g id="patch_7">
     <path d="M 40.503125 275.8 
L 273.11875 275.8 
Q 275.11875 275.8 275.11875 273.8 
L 275.11875 230.623438 
Q 275.11875 228.623438 273.11875 228.623438 
L 40.503125 228.623438 
Q 38.503125 228.623438 38.503125 230.623438 
L 38.503125 273.8 
Q 38.503125 275.8 40.503125 275.8 
z
" style="fill:#ffffff;stroke:#cccccc;stroke-linejoin:miter;"/>
    </g>
    <g id="line2d_136">
     <path d="M 42.503125 236.721875 
L 62.503125 236.721875 
" style="fill:none;stroke:#0c5da5;stroke-linecap:square;"/>
    </g>
    <g id="line2d_137"/>
    <g id="text_17">
     <!-- ResNet20 with univ. Rat. -->
     <g transform="translate(70.503125 240.221875)scale(0.1 -0.1)">
      <defs>
       <path d="M 47.90625 36.1875 
Q 51.3125 35.25 53.78125 33.03125 
Q 56.25 30.8125 58.203125 26.8125 
L 68.796875 5.171875 
L 77.6875 5.171875 
L 77.6875 0 
L 60.5 0 
L 49.125 23.1875 
Q 45.84375 29.9375 43.109375 31.90625 
Q 40.375 33.890625 35.59375 33.890625 
L 24.703125 33.890625 
L 24.703125 5.171875 
L 35.015625 5.171875 
L 35.015625 0 
L 5.515625 0 
L 5.515625 5.171875 
L 14.796875 5.171875 
L 14.796875 67.671875 
L 5.515625 67.671875 
L 5.515625 72.90625 
L 42.484375 72.90625 
Q 53.125 72.90625 58.90625 67.828125 
Q 64.703125 62.75 64.703125 53.421875 
Q 64.703125 45.90625 60.46875 41.578125 
Q 56.25 37.25 47.90625 36.1875 
z
M 24.703125 39.109375 
L 39.109375 39.109375 
Q 46.484375 39.109375 50 42.59375 
Q 53.515625 46.09375 53.515625 53.421875 
Q 53.515625 60.75 50 64.203125 
Q 46.484375 67.671875 39.109375 67.671875 
L 24.703125 67.671875 
z
" id="DejaVuSerif-82"/>
       <path d="M 4.890625 0 
L 4.890625 5.171875 
L 14.703125 5.171875 
L 14.703125 67.671875 
L 4.890625 67.671875 
L 4.890625 72.90625 
L 23.578125 72.90625 
L 67.28125 15.375 
L 67.28125 67.671875 
L 57.515625 67.671875 
L 57.515625 72.90625 
L 83.109375 72.90625 
L 83.109375 67.671875 
L 73.296875 67.671875 
L 73.296875 -1.421875 
L 67.390625 -1.421875 
L 20.703125 60.015625 
L 20.703125 5.171875 
L 30.515625 5.171875 
L 30.515625 0 
z
" id="DejaVuSerif-78"/>
       <path d="M 48 51.90625 
L 61.28125 11.375 
L 73 46.6875 
L 65.484375 46.6875 
L 65.484375 51.90625 
L 84.28125 51.90625 
L 84.28125 46.6875 
L 78.515625 46.6875 
L 63.09375 0 
L 55.609375 0 
L 42.828125 38.8125 
L 29.984375 0 
L 22.796875 0 
L 7.421875 46.6875 
L 1.609375 46.6875 
L 1.609375 51.90625 
L 25.09375 51.90625 
L 25.09375 46.6875 
L 16.703125 46.6875 
L 28.328125 11.375 
L 41.703125 51.90625 
z
" id="DejaVuSerif-119"/>
       <path d="M 24.703125 0 
L 5.609375 46.6875 
L -0.296875 46.6875 
L -0.296875 51.90625 
L 23.578125 51.90625 
L 23.578125 46.6875 
L 15.28125 46.6875 
L 29.890625 10.984375 
L 44.484375 46.6875 
L 36.71875 46.6875 
L 36.71875 51.90625 
L 56.203125 51.90625 
L 56.203125 46.6875 
L 50.390625 46.6875 
L 31.296875 0 
z
" id="DejaVuSerif-118"/>
       <path d="M 9.421875 5.078125 
Q 9.421875 7.8125 11.28125 9.71875 
Q 13.140625 11.625 15.921875 11.625 
Q 18.609375 11.625 20.5 9.71875 
Q 22.40625 7.8125 22.40625 5.078125 
Q 22.40625 2.390625 20.5 0.484375 
Q 18.609375 -1.421875 15.921875 -1.421875 
Q 13.140625 -1.421875 11.28125 0.453125 
Q 9.421875 2.34375 9.421875 5.078125 
z
" id="DejaVuSerif-46"/>
      </defs>
      <use xlink:href="#DejaVuSerif-82"/>
      <use x="75.292969" xlink:href="#DejaVuSerif-101"/>
      <use x="134.472656" xlink:href="#DejaVuSerif-115"/>
      <use x="185.791016" xlink:href="#DejaVuSerif-78"/>
      <use x="273.291016" xlink:href="#DejaVuSerif-101"/>
      <use x="332.470703" xlink:href="#DejaVuSerif-116"/>
      <use x="372.65625" xlink:href="#DejaVuSerif-50"/>
      <use x="436.279297" xlink:href="#DejaVuSerif-48"/>
      <use x="499.902344" xlink:href="#DejaVuSerif-32"/>
      <use x="531.689453" xlink:href="#DejaVuSerif-119"/>
      <use x="617.285156" xlink:href="#DejaVuSerif-105"/>
      <use x="649.267578" xlink:href="#DejaVuSerif-116"/>
      <use x="689.453125" xlink:href="#DejaVuSerif-104"/>
      <use x="753.857422" xlink:href="#DejaVuSerif-32"/>
      <use x="785.644531" xlink:href="#DejaVuSerif-117"/>
      <use x="850.048828" xlink:href="#DejaVuSerif-110"/>
      <use x="914.453125" xlink:href="#DejaVuSerif-105"/>
      <use x="946.435547" xlink:href="#DejaVuSerif-118"/>
      <use x="991.054688" xlink:href="#DejaVuSerif-46"/>
      <use x="1022.841797" xlink:href="#DejaVuSerif-32"/>
      <use x="1054.628906" xlink:href="#DejaVuSerif-82"/>
      <use x="1132.171875" xlink:href="#DejaVuSerif-97"/>
      <use x="1191.791016" xlink:href="#DejaVuSerif-116"/>
      <use x="1231.976562" xlink:href="#DejaVuSerif-46"/>
     </g>
    </g>
    <g id="line2d_138">
     <path d="M 42.503125 251.4 
L 62.503125 251.4 
" style="fill:none;stroke:#00b945;stroke-linecap:square;"/>
    </g>
    <g id="line2d_139"/>
    <g id="text_18">
     <!-- ResNet20 Original -->
     <g transform="translate(70.503125 254.9)scale(0.1 -0.1)">
      <defs>
       <path d="M 41.015625 3.8125 
Q 52.984375 3.8125 59.078125 12.03125 
Q 65.1875 20.265625 65.1875 36.375 
Q 65.1875 52.546875 59.078125 60.765625 
Q 52.984375 69 41.015625 69 
Q 29 69 22.890625 60.765625 
Q 16.796875 52.546875 16.796875 36.375 
Q 16.796875 20.265625 22.890625 12.03125 
Q 29 3.8125 41.015625 3.8125 
z
M 41.015625 -1.421875 
Q 33.59375 -1.421875 27.359375 1.015625 
Q 21.140625 3.46875 16.40625 8.203125 
Q 10.9375 13.671875 8.265625 20.609375 
Q 5.609375 27.546875 5.609375 36.375 
Q 5.609375 45.21875 8.265625 52.171875 
Q 10.9375 59.125 16.40625 64.59375 
Q 21.1875 69.390625 27.34375 71.796875 
Q 33.5 74.21875 41.015625 74.21875 
Q 56.890625 74.21875 66.65625 63.8125 
Q 76.421875 53.421875 76.421875 36.375 
Q 76.421875 27.640625 73.734375 20.625 
Q 71.046875 13.625 65.578125 8.203125 
Q 60.796875 3.421875 54.640625 1 
Q 48.484375 -1.421875 41.015625 -1.421875 
z
" id="DejaVuSerif-79"/>
       <path d="M 20.515625 5.171875 
L 29 5.171875 
L 29 0 
L 2.875 0 
L 2.875 5.171875 
L 11.53125 5.171875 
L 11.53125 70.796875 
L 2.875 70.796875 
L 2.875 75.984375 
L 20.515625 75.984375 
z
" id="DejaVuSerif-108"/>
      </defs>
      <use xlink:href="#DejaVuSerif-82"/>
      <use x="75.292969" xlink:href="#DejaVuSerif-101"/>
      <use x="134.472656" xlink:href="#DejaVuSerif-115"/>
      <use x="185.791016" xlink:href="#DejaVuSerif-78"/>
      <use x="273.291016" xlink:href="#DejaVuSerif-101"/>
      <use x="332.470703" xlink:href="#DejaVuSerif-116"/>
      <use x="372.65625" xlink:href="#DejaVuSerif-50"/>
      <use x="436.279297" xlink:href="#DejaVuSerif-48"/>
      <use x="499.902344" xlink:href="#DejaVuSerif-32"/>
      <use x="531.689453" xlink:href="#DejaVuSerif-79"/>
      <use x="613.671875" xlink:href="#DejaVuSerif-114"/>
      <use x="661.474609" xlink:href="#DejaVuSerif-105"/>
      <use x="693.457031" xlink:href="#DejaVuSerif-103"/>
      <use x="757.470703" xlink:href="#DejaVuSerif-105"/>
      <use x="789.453125" xlink:href="#DejaVuSerif-110"/>
      <use x="853.857422" xlink:href="#DejaVuSerif-97"/>
      <use x="913.476562" xlink:href="#DejaVuSerif-108"/>
     </g>
    </g>
    <g id="line2d_140">
     <path d="M 42.503125 266.220313 
L 62.503125 266.220313 
" style="fill:none;stroke:#ff9500;stroke-linecap:square;"/>
    </g>
    <g id="line2d_141"/>
    <g id="text_19">
     <!-- ResNet20 with a mixture of 5 univ. Rat. -->
     <g transform="translate(70.503125 269.720313)scale(0.1 -0.1)">
      <defs>
       <path d="M 51.8125 41.796875 
Q 54.390625 47.515625 58.421875 50.421875 
Q 62.453125 53.328125 67.828125 53.328125 
Q 75.984375 53.328125 79.984375 48.265625 
Q 83.984375 43.21875 83.984375 33.015625 
L 83.984375 5.171875 
L 92.09375 5.171875 
L 92.09375 0 
L 67.1875 0 
L 67.1875 5.171875 
L 75 5.171875 
L 75 31.984375 
Q 75 39.9375 72.65625 43.3125 
Q 70.3125 46.6875 64.890625 46.6875 
Q 58.890625 46.6875 55.734375 42.140625 
Q 52.59375 37.59375 52.59375 28.90625 
L 52.59375 5.171875 
L 60.40625 5.171875 
L 60.40625 0 
L 35.796875 0 
L 35.796875 5.171875 
L 43.609375 5.171875 
L 43.609375 32.328125 
Q 43.609375 40.09375 41.265625 43.390625 
Q 38.921875 46.6875 33.5 46.6875 
Q 27.484375 46.6875 24.328125 42.140625 
Q 21.1875 37.59375 21.1875 28.90625 
L 21.1875 5.171875 
L 29 5.171875 
L 29 0 
L 4.109375 0 
L 4.109375 5.171875 
L 12.203125 5.171875 
L 12.203125 46.78125 
L 3.609375 46.78125 
L 3.609375 51.90625 
L 21.1875 51.90625 
L 21.1875 42.671875 
Q 23.6875 47.859375 27.53125 50.59375 
Q 31.390625 53.328125 36.28125 53.328125 
Q 42.328125 53.328125 46.375 50.3125 
Q 50.4375 47.3125 51.8125 41.796875 
z
" id="DejaVuSerif-109"/>
       <path d="M 29.109375 31.6875 
L 39.984375 46.6875 
L 33.015625 46.6875 
L 33.015625 51.90625 
L 52.984375 51.90625 
L 52.984375 46.6875 
L 46.09375 46.6875 
L 32.171875 27.484375 
L 48.390625 5.171875 
L 55.171875 5.171875 
L 55.171875 0 
L 31.203125 0 
L 31.203125 5.171875 
L 37.796875 5.171875 
L 26.515625 20.703125 
L 15.1875 5.171875 
L 21.921875 5.171875 
L 21.921875 0 
L 2.203125 0 
L 2.203125 5.171875 
L 9.078125 5.171875 
L 23.390625 24.90625 
L 7.625 46.6875 
L 1.21875 46.6875 
L 1.21875 51.90625 
L 24.421875 51.90625 
L 24.421875 46.6875 
L 18.21875 46.6875 
z
" id="DejaVuSerif-120"/>
      </defs>
      <use xlink:href="#DejaVuSerif-82"/>
      <use x="75.292969" xlink:href="#DejaVuSerif-101"/>
      <use x="134.472656" xlink:href="#DejaVuSerif-115"/>
      <use x="185.791016" xlink:href="#DejaVuSerif-78"/>
      <use x="273.291016" xlink:href="#DejaVuSerif-101"/>
      <use x="332.470703" xlink:href="#DejaVuSerif-116"/>
      <use x="372.65625" xlink:href="#DejaVuSerif-50"/>
      <use x="436.279297" xlink:href="#DejaVuSerif-48"/>
      <use x="499.902344" xlink:href="#DejaVuSerif-32"/>
      <use x="531.689453" xlink:href="#DejaVuSerif-119"/>
      <use x="617.285156" xlink:href="#DejaVuSerif-105"/>
      <use x="649.267578" xlink:href="#DejaVuSerif-116"/>
      <use x="689.453125" xlink:href="#DejaVuSerif-104"/>
      <use x="753.857422" xlink:href="#DejaVuSerif-32"/>
      <use x="785.644531" xlink:href="#DejaVuSerif-97"/>
      <use x="845.263672" xlink:href="#DejaVuSerif-32"/>
      <use x="877.050781" xlink:href="#DejaVuSerif-109"/>
      <use x="971.875" xlink:href="#DejaVuSerif-105"/>
      <use x="1003.857422" xlink:href="#DejaVuSerif-120"/>
      <use x="1060.253906" xlink:href="#DejaVuSerif-116"/>
      <use x="1100.439453" xlink:href="#DejaVuSerif-117"/>
      <use x="1164.84375" xlink:href="#DejaVuSerif-114"/>
      <use x="1212.646484" xlink:href="#DejaVuSerif-101"/>
      <use x="1271.826172" xlink:href="#DejaVuSerif-32"/>
      <use x="1303.613281" xlink:href="#DejaVuSerif-111"/>
      <use x="1363.818359" xlink:href="#DejaVuSerif-102"/>
      <use x="1400.830078" xlink:href="#DejaVuSerif-32"/>
      <use x="1432.617188" xlink:href="#DejaVuSerif-53"/>
      <use x="1496.240234" xlink:href="#DejaVuSerif-32"/>
      <use x="1528.027344" xlink:href="#DejaVuSerif-117"/>
      <use x="1592.431641" xlink:href="#DejaVuSerif-110"/>
      <use x="1656.835938" xlink:href="#DejaVuSerif-105"/>
      <use x="1688.818359" xlink:href="#DejaVuSerif-118"/>
      <use x="1733.4375" xlink:href="#DejaVuSerif-46"/>
      <use x="1765.224609" xlink:href="#DejaVuSerif-32"/>
      <use x="1797.011719" xlink:href="#DejaVuSerif-82"/>
      <use x="1874.554688" xlink:href="#DejaVuSerif-97"/>
      <use x="1934.173828" xlink:href="#DejaVuSerif-116"/>
      <use x="1974.359375" xlink:href="#DejaVuSerif-46"/>
     </g>
    </g>
   </g>
  </g>
  <g id="text_20">
   <g id="patch_8">
    <path d="M 321.503125 144.971719 
L 525.865 144.971719 
Q 528.565 144.971719 528.565 142.271719 
L 528.565 103.071375 
Q 528.565 100.371375 525.865 100.371375 
L 321.503125 100.371375 
Q 318.803125 100.371375 318.803125 103.071375 
L 318.803125 142.271719 
Q 318.803125 144.971719 321.503125 144.971719 
z
" style="fill:#808080;opacity:0.5;stroke:#000000;stroke-linejoin:miter;"/>
   </g>
   <!-- dataset: SVHN, batch size: 128,  -->
   <g transform="translate(321.503125 109.909969)scale(0.09 -0.09)">
    <defs>
     <path d="M 10.40625 5.078125 
Q 10.40625 7.8125 12.28125 9.71875 
Q 14.15625 11.625 16.890625 11.625 
Q 19.625 11.625 21.5 9.71875 
Q 23.390625 7.8125 23.390625 5.078125 
Q 23.390625 2.34375 21.53125 0.453125 
Q 19.671875 -1.421875 16.890625 -1.421875 
Q 14.109375 -1.421875 12.25 0.453125 
Q 10.40625 2.34375 10.40625 5.078125 
z
M 10.40625 36.921875 
Q 10.40625 39.65625 12.28125 41.53125 
Q 14.15625 43.40625 16.890625 43.40625 
Q 19.671875 43.40625 21.53125 41.546875 
Q 23.390625 39.703125 23.390625 36.921875 
Q 23.390625 34.125 21.53125 32.265625 
Q 19.671875 30.421875 16.890625 30.421875 
Q 14.15625 30.421875 12.28125 32.296875 
Q 10.40625 34.1875 10.40625 36.921875 
z
" id="DejaVuSerif-58"/>
     <path d="M 9.28125 3.515625 
L 9.28125 20.125 
L 14.890625 20.0625 
Q 15.140625 11.765625 19.703125 7.78125 
Q 24.265625 3.8125 33.59375 3.8125 
Q 42.28125 3.8125 46.84375 7.25 
Q 51.421875 10.6875 51.421875 17.28125 
Q 51.421875 22.5625 48.65625 25.390625 
Q 45.90625 28.21875 37.015625 30.90625 
L 27.390625 33.796875 
Q 16.9375 36.96875 12.671875 41.703125 
Q 8.40625 46.4375 8.40625 54.6875 
Q 8.40625 63.96875 14.984375 69.09375 
Q 21.578125 74.21875 33.5 74.21875 
Q 38.578125 74.21875 44.625 73.109375 
Q 50.6875 72.015625 57.515625 69.921875 
L 57.515625 54.390625 
L 52 54.390625 
Q 51.171875 62.109375 46.84375 65.546875 
Q 42.53125 69 33.6875 69 
Q 25.984375 69 21.953125 65.84375 
Q 17.921875 62.703125 17.921875 56.6875 
Q 17.921875 51.46875 20.9375 48.484375 
Q 23.96875 45.515625 33.796875 42.578125 
L 42.828125 39.890625 
Q 52.734375 36.921875 56.953125 32.296875 
Q 61.1875 27.6875 61.1875 19.921875 
Q 61.1875 9.328125 54.390625 3.953125 
Q 47.609375 -1.421875 34.1875 -1.421875 
Q 28.171875 -1.421875 21.9375 -0.1875 
Q 15.71875 1.03125 9.28125 3.515625 
z
" id="DejaVuSerif-83"/>
     <path d="M 17.484375 67.671875 
L 39.015625 11.71875 
L 60.5 67.671875 
L 52.296875 67.671875 
L 52.296875 72.90625 
L 73.6875 72.90625 
L 73.6875 67.671875 
L 66.609375 67.671875 
L 40.578125 0 
L 32.171875 0 
L 6.296875 67.671875 
L -0.984375 67.671875 
L -0.984375 72.90625 
L 25.59375 72.90625 
L 25.59375 67.671875 
z
" id="DejaVuSerif-86"/>
     <path d="M 5.515625 0 
L 5.515625 5.171875 
L 14.796875 5.171875 
L 14.796875 67.671875 
L 5.515625 67.671875 
L 5.515625 72.90625 
L 33.984375 72.90625 
L 33.984375 67.671875 
L 24.703125 67.671875 
L 24.703125 42.484375 
L 62.5 42.484375 
L 62.5 67.671875 
L 53.21875 67.671875 
L 53.21875 72.90625 
L 81.6875 72.90625 
L 81.6875 67.671875 
L 72.40625 67.671875 
L 72.40625 5.171875 
L 81.6875 5.171875 
L 81.6875 0 
L 53.21875 0 
L 53.21875 5.171875 
L 62.5 5.171875 
L 62.5 36.53125 
L 24.703125 36.53125 
L 24.703125 5.171875 
L 33.984375 5.171875 
L 33.984375 0 
z
" id="DejaVuSerif-72"/>
     <path d="M 3.609375 -9.71875 
Q 8.203125 -6.34375 10.34375 -1.78125 
Q 12.5 2.78125 12.5 9.28125 
L 12.5 11.078125 
L 22.125 11.078125 
Q 21.734375 2.734375 18.1875 -3.25 
Q 14.65625 -9.234375 7.515625 -13.625 
z
" id="DejaVuSerif-44"/>
     <path d="M 11.53125 5.171875 
L 11.53125 70.796875 
L 2.875 70.796875 
L 2.875 75.984375 
L 20.515625 75.984375 
L 20.515625 43.796875 
Q 23.140625 48.6875 27.21875 51 
Q 31.296875 53.328125 37.3125 53.328125 
Q 46.875 53.328125 52.921875 45.75 
Q 58.984375 38.1875 58.984375 25.984375 
Q 58.984375 13.765625 52.921875 6.171875 
Q 46.875 -1.421875 37.3125 -1.421875 
Q 31.296875 -1.421875 27.21875 0.890625 
Q 23.140625 3.21875 20.515625 8.109375 
L 20.515625 0 
L 2.875 0 
L 2.875 5.171875 
z
M 20.515625 23.390625 
Q 20.515625 14.015625 24.09375 9.109375 
Q 27.6875 4.203125 34.515625 4.203125 
Q 41.40625 4.203125 44.9375 9.71875 
Q 48.484375 15.234375 48.484375 25.984375 
Q 48.484375 36.765625 44.9375 42.234375 
Q 41.40625 47.703125 34.515625 47.703125 
Q 27.6875 47.703125 24.09375 42.765625 
Q 20.515625 37.84375 20.515625 28.515625 
z
" id="DejaVuSerif-98"/>
     <path d="M 4 0 
L 4 4.203125 
L 36.53125 46.6875 
L 10.796875 46.6875 
L 10.796875 37.703125 
L 5.609375 37.703125 
L 5.609375 51.90625 
L 48.09375 51.90625 
L 48.09375 47.703125 
L 15.578125 5.171875 
L 43.796875 5.171875 
L 43.796875 14.59375 
L 49.03125 14.59375 
L 49.03125 0 
z
" id="DejaVuSerif-122"/>
    </defs>
    <use xlink:href="#DejaVuSerif-100"/>
    <use x="64.013672" xlink:href="#DejaVuSerif-97"/>
    <use x="123.632812" xlink:href="#DejaVuSerif-116"/>
    <use x="163.818359" xlink:href="#DejaVuSerif-97"/>
    <use x="223.4375" xlink:href="#DejaVuSerif-115"/>
    <use x="274.755859" xlink:href="#DejaVuSerif-101"/>
    <use x="333.935547" xlink:href="#DejaVuSerif-116"/>
    <use x="374.121094" xlink:href="#DejaVuSerif-58"/>
    <use x="407.8125" xlink:href="#DejaVuSerif-32"/>
    <use x="439.599609" xlink:href="#DejaVuSerif-83"/>
    <use x="508.105469" xlink:href="#DejaVuSerif-86"/>
    <use x="580.322266" xlink:href="#DejaVuSerif-72"/>
    <use x="667.529297" xlink:href="#DejaVuSerif-78"/>
    <use x="748.654297" xlink:href="#DejaVuSerif-44"/>
    <use x="780.441406" xlink:href="#DejaVuSerif-32"/>
    <use x="812.228516" xlink:href="#DejaVuSerif-98"/>
    <use x="876.242188" xlink:href="#DejaVuSerif-97"/>
    <use x="935.861328" xlink:href="#DejaVuSerif-116"/>
    <use x="976.046875" xlink:href="#DejaVuSerif-99"/>
    <use x="1032.052734" xlink:href="#DejaVuSerif-104"/>
    <use x="1096.457031" xlink:href="#DejaVuSerif-32"/>
    <use x="1128.244141" xlink:href="#DejaVuSerif-115"/>
    <use x="1179.5625" xlink:href="#DejaVuSerif-105"/>
    <use x="1211.544922" xlink:href="#DejaVuSerif-122"/>
    <use x="1264.230469" xlink:href="#DejaVuSerif-101"/>
    <use x="1323.410156" xlink:href="#DejaVuSerif-58"/>
    <use x="1357.101562" xlink:href="#DejaVuSerif-32"/>
    <use x="1388.888672" xlink:href="#DejaVuSerif-49"/>
    <use x="1452.511719" xlink:href="#DejaVuSerif-50"/>
    <use x="1516.134766" xlink:href="#DejaVuSerif-56"/>
    <use x="1579.757812" xlink:href="#DejaVuSerif-44"/>
    <use x="1611.544922" xlink:href="#DejaVuSerif-32"/>
   </g>
   <!-- 25 training epochs per pruning epoch,  -->
   <g transform="translate(321.503125 119.988)scale(0.09 -0.09)">
    <defs>
     <path d="M 20.515625 28.515625 
L 20.515625 23.390625 
Q 20.515625 14.015625 24.09375 9.109375 
Q 27.6875 4.203125 34.515625 4.203125 
Q 41.40625 4.203125 44.9375 9.71875 
Q 48.484375 15.234375 48.484375 25.984375 
Q 48.484375 36.765625 44.9375 42.234375 
Q 41.40625 47.703125 34.515625 47.703125 
Q 27.6875 47.703125 24.09375 42.765625 
Q 20.515625 37.84375 20.515625 28.515625 
z
M 11.53125 46.6875 
L 2.875 46.6875 
L 2.875 51.90625 
L 20.515625 51.90625 
L 20.515625 43.796875 
Q 23.140625 48.6875 27.21875 51 
Q 31.296875 53.328125 37.3125 53.328125 
Q 46.875 53.328125 52.921875 45.75 
Q 58.984375 38.1875 58.984375 25.984375 
Q 58.984375 13.765625 52.921875 6.171875 
Q 46.875 -1.421875 37.3125 -1.421875 
Q 31.296875 -1.421875 27.21875 0.890625 
Q 23.140625 3.21875 20.515625 8.109375 
L 20.515625 -15.578125 
L 29 -15.578125 
L 29 -20.796875 
L 2.875 -20.796875 
L 2.875 -15.578125 
L 11.53125 -15.578125 
z
" id="DejaVuSerif-112"/>
    </defs>
    <use xlink:href="#DejaVuSerif-50"/>
    <use x="63.623047" xlink:href="#DejaVuSerif-53"/>
    <use x="127.246094" xlink:href="#DejaVuSerif-32"/>
    <use x="159.033203" xlink:href="#DejaVuSerif-116"/>
    <use x="199.21875" xlink:href="#DejaVuSerif-114"/>
    <use x="247.021484" xlink:href="#DejaVuSerif-97"/>
    <use x="306.640625" xlink:href="#DejaVuSerif-105"/>
    <use x="338.623047" xlink:href="#DejaVuSerif-110"/>
    <use x="403.027344" xlink:href="#DejaVuSerif-105"/>
    <use x="435.009766" xlink:href="#DejaVuSerif-110"/>
    <use x="499.414062" xlink:href="#DejaVuSerif-103"/>
    <use x="563.427734" xlink:href="#DejaVuSerif-32"/>
    <use x="595.214844" xlink:href="#DejaVuSerif-101"/>
    <use x="654.394531" xlink:href="#DejaVuSerif-112"/>
    <use x="718.408203" xlink:href="#DejaVuSerif-111"/>
    <use x="778.613281" xlink:href="#DejaVuSerif-99"/>
    <use x="834.619141" xlink:href="#DejaVuSerif-104"/>
    <use x="899.023438" xlink:href="#DejaVuSerif-115"/>
    <use x="950.341797" xlink:href="#DejaVuSerif-32"/>
    <use x="982.128906" xlink:href="#DejaVuSerif-112"/>
    <use x="1046.142578" xlink:href="#DejaVuSerif-101"/>
    <use x="1105.322266" xlink:href="#DejaVuSerif-114"/>
    <use x="1153.125" xlink:href="#DejaVuSerif-32"/>
    <use x="1184.912109" xlink:href="#DejaVuSerif-112"/>
    <use x="1248.925781" xlink:href="#DejaVuSerif-114"/>
    <use x="1296.728516" xlink:href="#DejaVuSerif-117"/>
    <use x="1361.132812" xlink:href="#DejaVuSerif-110"/>
    <use x="1425.537109" xlink:href="#DejaVuSerif-105"/>
    <use x="1457.519531" xlink:href="#DejaVuSerif-110"/>
    <use x="1521.923828" xlink:href="#DejaVuSerif-103"/>
    <use x="1585.9375" xlink:href="#DejaVuSerif-32"/>
    <use x="1617.724609" xlink:href="#DejaVuSerif-101"/>
    <use x="1676.904297" xlink:href="#DejaVuSerif-112"/>
    <use x="1740.917969" xlink:href="#DejaVuSerif-111"/>
    <use x="1801.123047" xlink:href="#DejaVuSerif-99"/>
    <use x="1857.128906" xlink:href="#DejaVuSerif-104"/>
    <use x="1921.533203" xlink:href="#DejaVuSerif-44"/>
    <use x="1953.320312" xlink:href="#DejaVuSerif-32"/>
   </g>
   <!-- learning rate: 0.03, 20% pruning per epoch,  -->
   <g transform="translate(321.503125 130.194)scale(0.09 -0.09)">
    <defs>
     <path d="M 22.40625 69.671875 
Q 18.109375 69.671875 15.6875 65.625 
Q 13.28125 61.578125 13.28125 54.296875 
Q 13.28125 47.125 15.75 43.015625 
Q 18.21875 38.921875 22.40625 38.921875 
Q 26.5625 38.921875 28.96875 43 
Q 31.390625 47.078125 31.390625 54.296875 
Q 31.390625 61.53125 28.96875 65.59375 
Q 26.5625 69.671875 22.40625 69.671875 
z
M 72.703125 33.890625 
Q 68.453125 33.890625 66.03125 29.78125 
Q 63.625 25.6875 63.625 18.40625 
Q 63.625 11.234375 66.0625 7.15625 
Q 68.5 3.078125 72.703125 3.078125 
Q 76.90625 3.078125 79.296875 7.15625 
Q 81.6875 11.234375 81.6875 18.40625 
Q 81.6875 25.640625 79.265625 29.765625 
Q 76.859375 33.890625 72.703125 33.890625 
z
M 72.703125 38.28125 
Q 80.421875 38.28125 84.953125 32.90625 
Q 89.5 27.546875 89.5 18.40625 
Q 89.5 9.28125 84.9375 3.921875 
Q 80.375 -1.421875 72.703125 -1.421875 
Q 64.890625 -1.421875 60.34375 3.921875 
Q 55.8125 9.28125 55.8125 18.40625 
Q 55.8125 27.59375 60.375 32.9375 
Q 64.9375 38.28125 72.703125 38.28125 
z
M 66.609375 74.21875 
L 74.03125 74.21875 
L 28.421875 -1.421875 
L 21 -1.421875 
z
M 22.3125 74.21875 
Q 30.03125 74.21875 34.609375 68.875 
Q 39.203125 63.53125 39.203125 54.390625 
Q 39.203125 45.171875 34.640625 39.84375 
Q 30.078125 34.515625 22.3125 34.515625 
Q 14.546875 34.515625 10.03125 39.859375 
Q 5.515625 45.21875 5.515625 54.390625 
Q 5.515625 63.484375 10.046875 68.84375 
Q 14.59375 74.21875 22.3125 74.21875 
z
" id="DejaVuSerif-37"/>
    </defs>
    <use xlink:href="#DejaVuSerif-108"/>
    <use x="31.982422" xlink:href="#DejaVuSerif-101"/>
    <use x="91.162109" xlink:href="#DejaVuSerif-97"/>
    <use x="150.78125" xlink:href="#DejaVuSerif-114"/>
    <use x="198.583984" xlink:href="#DejaVuSerif-110"/>
    <use x="262.988281" xlink:href="#DejaVuSerif-105"/>
    <use x="294.970703" xlink:href="#DejaVuSerif-110"/>
    <use x="359.375" xlink:href="#DejaVuSerif-103"/>
    <use x="423.388672" xlink:href="#DejaVuSerif-32"/>
    <use x="455.175781" xlink:href="#DejaVuSerif-114"/>
    <use x="502.978516" xlink:href="#DejaVuSerif-97"/>
    <use x="562.597656" xlink:href="#DejaVuSerif-116"/>
    <use x="602.783203" xlink:href="#DejaVuSerif-101"/>
    <use x="661.962891" xlink:href="#DejaVuSerif-58"/>
    <use x="695.654297" xlink:href="#DejaVuSerif-32"/>
    <use x="727.441406" xlink:href="#DejaVuSerif-48"/>
    <use x="791.064453" xlink:href="#DejaVuSerif-46"/>
    <use x="822.851562" xlink:href="#DejaVuSerif-48"/>
    <use x="886.474609" xlink:href="#DejaVuSerif-51"/>
    <use x="950.097656" xlink:href="#DejaVuSerif-44"/>
    <use x="981.884766" xlink:href="#DejaVuSerif-32"/>
    <use x="1013.671875" xlink:href="#DejaVuSerif-50"/>
    <use x="1077.294922" xlink:href="#DejaVuSerif-48"/>
    <use x="1140.917969" xlink:href="#DejaVuSerif-37"/>
    <use x="1235.9375" xlink:href="#DejaVuSerif-32"/>
    <use x="1267.724609" xlink:href="#DejaVuSerif-112"/>
    <use x="1331.738281" xlink:href="#DejaVuSerif-114"/>
    <use x="1379.541016" xlink:href="#DejaVuSerif-117"/>
    <use x="1443.945312" xlink:href="#DejaVuSerif-110"/>
    <use x="1508.349609" xlink:href="#DejaVuSerif-105"/>
    <use x="1540.332031" xlink:href="#DejaVuSerif-110"/>
    <use x="1604.736328" xlink:href="#DejaVuSerif-103"/>
    <use x="1668.75" xlink:href="#DejaVuSerif-32"/>
    <use x="1700.537109" xlink:href="#DejaVuSerif-112"/>
    <use x="1764.550781" xlink:href="#DejaVuSerif-101"/>
    <use x="1823.730469" xlink:href="#DejaVuSerif-114"/>
    <use x="1871.533203" xlink:href="#DejaVuSerif-32"/>
    <use x="1903.320312" xlink:href="#DejaVuSerif-101"/>
    <use x="1962.5" xlink:href="#DejaVuSerif-112"/>
    <use x="2026.513672" xlink:href="#DejaVuSerif-111"/>
    <use x="2086.71875" xlink:href="#DejaVuSerif-99"/>
    <use x="2142.724609" xlink:href="#DejaVuSerif-104"/>
    <use x="2207.128906" xlink:href="#DejaVuSerif-44"/>
    <use x="2238.916016" xlink:href="#DejaVuSerif-32"/>
   </g>
   <!-- 7167 warm-up iterations -->
   <g transform="translate(321.503125 140.4)scale(0.09 -0.09)">
    <defs>
     <path d="M 56.390625 67.921875 
L 27.875 0 
L 20.609375 0 
L 47.796875 64.890625 
L 14.109375 64.890625 
L 14.109375 55.90625 
L 8.40625 55.90625 
L 8.40625 72.90625 
L 56.390625 72.90625 
z
" id="DejaVuSerif-55"/>
     <path d="M 4.390625 30.609375 
L 29.390625 30.609375 
L 29.390625 23 
L 4.390625 23 
z
" id="DejaVuSerif-45"/>
    </defs>
    <use xlink:href="#DejaVuSerif-55"/>
    <use x="63.623047" xlink:href="#DejaVuSerif-49"/>
    <use x="127.246094" xlink:href="#DejaVuSerif-54"/>
    <use x="190.869141" xlink:href="#DejaVuSerif-55"/>
    <use x="254.492188" xlink:href="#DejaVuSerif-32"/>
    <use x="286.279297" xlink:href="#DejaVuSerif-119"/>
    <use x="371.875" xlink:href="#DejaVuSerif-97"/>
    <use x="431.494141" xlink:href="#DejaVuSerif-114"/>
    <use x="479.296875" xlink:href="#DejaVuSerif-109"/>
    <use x="574.121094" xlink:href="#DejaVuSerif-45"/>
    <use x="607.910156" xlink:href="#DejaVuSerif-117"/>
    <use x="672.314453" xlink:href="#DejaVuSerif-112"/>
    <use x="736.328125" xlink:href="#DejaVuSerif-32"/>
    <use x="768.115234" xlink:href="#DejaVuSerif-105"/>
    <use x="800.097656" xlink:href="#DejaVuSerif-116"/>
    <use x="840.283203" xlink:href="#DejaVuSerif-101"/>
    <use x="899.462891" xlink:href="#DejaVuSerif-114"/>
    <use x="947.265625" xlink:href="#DejaVuSerif-97"/>
    <use x="1006.884766" xlink:href="#DejaVuSerif-116"/>
    <use x="1047.070312" xlink:href="#DejaVuSerif-105"/>
    <use x="1079.052734" xlink:href="#DejaVuSerif-111"/>
    <use x="1139.257812" xlink:href="#DejaVuSerif-110"/>
    <use x="1203.662109" xlink:href="#DejaVuSerif-115"/>
   </g>
  </g>
 </g>
 <defs>
  <clipPath id="p9afa8affa3">
   <rect height="277.2" width="253.636364" x="33.503125" y="3.6"/>
  </clipPath>
 </defs>
</svg>
